<svg width="14" height="14" viewBox="0 0 14 14" fill="none" xmlns="http://www.w3.org/2000/svg">
<g clip-path="url(#clip0_539_10)">
<path d="M10.1334 8.52688C10.1708 8.46029 10.1901 8.38507 10.1895 8.30869C10.1888 8.23232 10.1682 8.15744 10.1296 8.09152C10.091 8.0256 10.0358 7.97093 9.96956 7.93294C9.9033 7.89495 9.82824 7.87498 9.75186 7.875H4.24811C4.17173 7.87498 4.09668 7.89495 4.03041 7.93294C3.96415 7.97093 3.90898 8.0256 3.8704 8.09152C3.83182 8.15744 3.81117 8.23232 3.81051 8.30869C3.80984 8.38507 3.82919 8.46029 3.86661 8.52688L6.61849 13.419C6.65652 13.4867 6.71191 13.5431 6.77895 13.5824C6.846 13.6217 6.92229 13.6423 6.99999 13.6423C7.07768 13.6423 7.15397 13.6217 7.22102 13.5824C7.28807 13.5431 7.34346 13.4867 7.38149 13.419L10.1334 8.52688Z" fill="#FD841F"/>
<path d="M7.875 8.3125L7.875 0.4375C7.875 0.195875 7.67912 0 7.4375 0L6.5625 0C6.32088 0 6.125 0.195875 6.125 0.4375V8.3125C6.125 8.55412 6.32088 8.75 6.5625 8.75H7.4375C7.67912 8.75 7.875 8.55412 7.875 8.3125Z" fill="#FD841F"/>
</g>
<defs>
<clipPath id="clip0_539_10">
<rect width="14" height="14" fill="white" transform="matrix(0 1 -1 0 14 0)"/>
</clipPath>
</defs>
</svg>
