<svg width="16" height="16" viewBox="0 0 16 16" fill="none" xmlns="http://www.w3.org/2000/svg">
<g clip-path="url(#clip0_313_3640)">
<path d="M9.745 4.41863C9.66891 4.37586 9.58294 4.35375 9.49565 4.35451C9.40836 4.35527 9.32279 4.37887 9.24745 4.42296C9.17211 4.46705 9.10963 4.5301 9.06622 4.60583C9.02281 4.68156 8.99998 4.76734 9 4.85463V11.1446C8.99998 11.2319 9.02281 11.3177 9.06622 11.3934C9.10963 11.4692 9.17211 11.5322 9.24745 11.5763C9.32279 11.6204 9.40836 11.644 9.49565 11.6448C9.58294 11.6455 9.66891 11.6234 9.745 11.5806L15.336 8.43563C15.4134 8.39217 15.4779 8.32887 15.5227 8.25224C15.5676 8.17561 15.5912 8.08842 15.5912 7.99963C15.5912 7.91084 15.5676 7.82365 15.5227 7.74702C15.4779 7.67039 15.4134 7.6071 15.336 7.56363L9.745 4.41863Z" fill="#FD841F"/>
<path d="M9.5 7H0.5C0.223858 7 0 7.22386 0 7.5V8.5C0 8.77614 0.223858 9 0.5 9H9.5C9.77614 9 10 8.77614 10 8.5V7.5C10 7.22386 9.77614 7 9.5 7Z" fill="#FD841F"/>
</g>
<defs>
<clipPath id="clip0_313_3640">
<rect width="16" height="16" fill="white"/>
</clipPath>
</defs>
</svg>
