<svg width="119" height="41" viewBox="0 0 119 41" fill="none" xmlns="http://www.w3.org/2000/svg">
<rect width="119" height="41" fill="white"/>
<rect x="24.5" y="2.5" width="93" height="36" rx="16.5" fill="#FC9419" stroke="#EDE5E5" stroke-width="3"/>
<path d="M42 20.5C42 31.2252 32.8673 40 21.5 40C10.1327 40 1 31.2252 1 20.5C1 9.7748 10.1327 1 21.5 1C32.8673 1 42 9.7748 42 20.5Z" fill="#FC9419" stroke="#EDE5E5" stroke-width="2"/>
<path d="M54.7528 17.5H53.608C53.5402 17.1707 53.4218 16.8814 53.2525 16.6321C53.0863 16.3828 52.8832 16.1735 52.6431 16.0043C52.4061 15.8319 52.143 15.7027 51.8537 15.6165C51.5644 15.5303 51.2628 15.4872 50.9489 15.4872C50.3764 15.4872 49.8578 15.6319 49.3931 15.9212C48.9315 16.2105 48.5637 16.6367 48.2898 17.1999C48.0189 17.7631 47.8835 18.4541 47.8835 19.2727C47.8835 20.0914 48.0189 20.7823 48.2898 21.3455C48.5637 21.9087 48.9315 22.335 49.3931 22.6243C49.8578 22.9136 50.3764 23.0582 50.9489 23.0582C51.2628 23.0582 51.5644 23.0152 51.8537 22.929C52.143 22.8428 52.4061 22.7151 52.6431 22.5458C52.8832 22.3735 53.0863 22.1626 53.2525 21.9134C53.4218 21.661 53.5402 21.3717 53.608 21.0455H54.7528C54.6667 21.5286 54.5097 21.9611 54.282 22.3427C54.0542 22.7243 53.7711 23.049 53.4325 23.3168C53.094 23.5814 52.7139 23.783 52.2923 23.9215C51.8737 24.06 51.4259 24.1293 50.9489 24.1293C50.1425 24.1293 49.4254 23.9323 48.7976 23.5384C48.1697 23.1444 47.6758 22.5843 47.3157 21.858C46.9556 21.1316 46.7756 20.2699 46.7756 19.2727C46.7756 18.2756 46.9556 17.4138 47.3157 16.6875C47.6758 15.9612 48.1697 15.401 48.7976 15.0071C49.4254 14.6132 50.1425 14.4162 50.9489 14.4162C51.4259 14.4162 51.8737 14.4854 52.2923 14.6239C52.7139 14.7624 53.094 14.9656 53.4325 15.2333C53.7711 15.498 54.0542 15.8211 54.282 16.2028C54.5097 16.5813 54.6667 17.0137 54.7528 17.5ZM59.3358 24.1477C58.6957 24.1477 58.134 23.9954 57.6508 23.6907C57.1707 23.386 56.7952 22.9598 56.5244 22.4119C56.2567 21.8641 56.1228 21.224 56.1228 20.4915C56.1228 19.7528 56.2567 19.1081 56.5244 18.5572C56.7952 18.0063 57.1707 17.5785 57.6508 17.2738C58.134 16.9691 58.6957 16.8168 59.3358 16.8168C59.976 16.8168 60.5361 16.9691 61.0162 17.2738C61.4994 17.5785 61.8749 18.0063 62.1427 18.5572C62.4135 19.1081 62.5489 19.7528 62.5489 20.4915C62.5489 21.224 62.4135 21.8641 62.1427 22.4119C61.8749 22.9598 61.4994 23.386 61.0162 23.6907C60.5361 23.9954 59.976 24.1477 59.3358 24.1477ZM59.3358 23.169C59.8221 23.169 60.2222 23.0444 60.5361 22.7951C60.8501 22.5458 61.0824 22.218 61.2332 21.8118C61.384 21.4055 61.4594 20.9654 61.4594 20.4915C61.4594 20.0175 61.384 19.5759 61.2332 19.1665C61.0824 18.7572 60.8501 18.4264 60.5361 18.174C60.2222 17.9216 59.8221 17.7955 59.3358 17.7955C58.8496 17.7955 58.4495 17.9216 58.1356 18.174C57.8216 18.4264 57.5893 18.7572 57.4385 19.1665C57.2877 19.5759 57.2123 20.0175 57.2123 20.4915C57.2123 20.9654 57.2877 21.4055 57.4385 21.8118C57.5893 22.218 57.8216 22.5458 58.1356 22.7951C58.4495 23.0444 58.8496 23.169 59.3358 23.169ZM64.212 24V16.9091H65.2646V18.017H65.3569C65.5046 17.6385 65.7431 17.3446 66.0724 17.1353C66.4018 16.9229 66.7972 16.8168 67.2589 16.8168C67.7267 16.8168 68.116 16.9229 68.4268 17.1353C68.7408 17.3446 68.9854 17.6385 69.1609 18.017H69.2347C69.4163 17.6508 69.6887 17.36 70.0518 17.1445C70.415 16.926 70.8505 16.8168 71.3583 16.8168C71.9923 16.8168 72.5109 17.0153 72.9141 17.4123C73.3172 17.8062 73.5188 18.4202 73.5188 19.2543V24H72.4293V19.2543C72.4293 18.7311 72.2862 18.3571 72 18.1325C71.7138 17.9078 71.3768 17.7955 70.989 17.7955C70.4904 17.7955 70.1042 17.9463 69.8303 18.2479C69.5563 18.5464 69.4194 18.925 69.4194 19.3835V24H68.3114V19.1435C68.3114 18.7403 68.1806 18.4156 67.919 18.1694C67.6574 17.9201 67.3204 17.7955 66.908 17.7955C66.6249 17.7955 66.3602 17.8709 66.114 18.0217C65.8709 18.1725 65.6739 18.3817 65.5231 18.6495C65.3754 18.9142 65.3015 19.2204 65.3015 19.5682V24H64.212ZM75.5108 24V16.9091H76.5634V18.017H76.6557C76.8034 17.6385 77.042 17.3446 77.3713 17.1353C77.7006 16.9229 78.0961 16.8168 78.5577 16.8168C79.0255 16.8168 79.4148 16.9229 79.7257 17.1353C80.0396 17.3446 80.2843 17.6385 80.4597 18.017H80.5336C80.7151 17.6508 80.9875 17.36 81.3507 17.1445C81.7138 16.926 82.1493 16.8168 82.6571 16.8168C83.2911 16.8168 83.8097 17.0153 84.2129 17.4123C84.6161 17.8062 84.8176 18.4202 84.8176 19.2543V24H83.7282V19.2543C83.7282 18.7311 83.585 18.3571 83.2988 18.1325C83.0126 17.9078 82.6756 17.7955 82.2878 17.7955C81.7892 17.7955 81.403 17.9463 81.1291 18.2479C80.8552 18.5464 80.7182 18.925 80.7182 19.3835V24H79.6103V19.1435C79.6103 18.7403 79.4795 18.4156 79.2179 18.1694C78.9563 17.9201 78.6193 17.7955 78.2069 17.7955C77.9237 17.7955 77.659 17.8709 77.4128 18.0217C77.1697 18.1725 76.9727 18.3817 76.8219 18.6495C76.6742 18.9142 76.6003 19.2204 76.6003 19.5682V24H75.5108ZM89.7827 24.1477C89.0994 24.1477 88.5101 23.9969 88.0146 23.6953C87.5221 23.3906 87.142 22.9659 86.8743 22.4212C86.6096 21.8733 86.4773 21.2363 86.4773 20.5099C86.4773 19.7836 86.6096 19.1435 86.8743 18.5895C87.142 18.0324 87.5144 17.5985 87.9915 17.2876C88.4716 16.9737 89.0317 16.8168 89.6719 16.8168C90.0412 16.8168 90.4059 16.8783 90.766 17.0014C91.1261 17.1245 91.4538 17.3246 91.7493 17.6016C92.0447 17.8755 92.2802 18.2386 92.4556 18.6911C92.631 19.1435 92.7188 19.7005 92.7188 20.3622V20.8239H87.2528V19.8821H91.6108C91.6108 19.482 91.5308 19.125 91.3707 18.8111C91.2138 18.4972 90.9891 18.2494 90.6967 18.0678C90.4074 17.8862 90.0658 17.7955 89.6719 17.7955C89.2379 17.7955 88.8625 17.9032 88.5455 18.1186C88.2315 18.331 87.9899 18.608 87.8207 18.9496C87.6514 19.2912 87.5668 19.6574 87.5668 20.0483V20.6761C87.5668 21.2116 87.6591 21.6656 87.8438 22.038C88.0315 22.4073 88.2915 22.6889 88.6239 22.8828C88.9563 23.0736 89.3426 23.169 89.7827 23.169C90.0689 23.169 90.3274 23.129 90.5582 23.049C90.7921 22.9659 90.9937 22.8428 91.163 22.6797C91.3323 22.5135 91.4631 22.3073 91.5554 22.0611L92.608 22.3565C92.4972 22.7135 92.311 23.0275 92.0494 23.2983C91.7878 23.5661 91.4646 23.7753 91.0799 23.9261C90.6952 24.0739 90.2628 24.1477 89.7827 24.1477ZM95.4656 19.7344V24H94.3761V16.9091H95.4286V18.017H95.521C95.6871 17.657 95.9395 17.3677 96.2781 17.1491C96.6166 16.9276 97.0536 16.8168 97.5891 16.8168C98.0692 16.8168 98.4893 16.9152 98.8494 17.1122C99.2095 17.3061 99.4896 17.6016 99.6896 17.9986C99.8897 18.3925 99.9897 18.8911 99.9897 19.4943V24H98.9002V19.5682C98.9002 19.0111 98.7556 18.5772 98.4663 18.2663C98.177 17.9524 97.7799 17.7955 97.2752 17.7955C96.9274 17.7955 96.6166 17.8709 96.3427 18.0217C96.0719 18.1725 95.858 18.3925 95.701 18.6818C95.544 18.9711 95.4656 19.322 95.4656 19.7344ZM105.064 16.9091V17.8324H101.39V16.9091H105.064ZM102.461 15.2102H103.55V21.9688C103.55 22.2765 103.595 22.5073 103.684 22.6612C103.776 22.812 103.893 22.9136 104.035 22.9659C104.18 23.0152 104.332 23.0398 104.492 23.0398C104.612 23.0398 104.71 23.0336 104.787 23.0213C104.864 23.0059 104.926 22.9936 104.972 22.9844L105.194 23.9631C105.12 23.9908 105.017 24.0185 104.884 24.0462C104.752 24.0769 104.584 24.0923 104.381 24.0923C104.073 24.0923 103.772 24.0262 103.476 23.8938C103.184 23.7615 102.941 23.5599 102.747 23.2891C102.556 23.0182 102.461 22.6766 102.461 22.2642V15.2102Z" fill="white"/>
<path d="M11.9311 33H10.018L11.3708 31.6343C12.1002 30.8979 12.5556 29.9402 12.6781 28.9012C9.55456 26.8317 8 23.8338 8 20.6908C8 14.8925 13.2787 9 21.5457 9C30.3038 9 35 14.4222 35 20.1828C35 25.9814 30.2542 31.4 21.5457 31.4C20.0202 31.4 18.4284 31.1944 17.0072 30.8172C15.6618 32.2103 13.8389 33 11.9311 33Z" fill="white"/>
</svg>
