<svg width="145" height="56" viewBox="0 0 145 56" fill="none" xmlns="http://www.w3.org/2000/svg">
<path d="M3.43238 55H4.95238V45.224H8.08838V43.8H0.408376V45.224H3.43238V55ZM9.9815 55H11.4055V51.208C11.4055 49.048 12.4455 48.104 13.5335 48.104C14.6375 48.104 15.4375 48.888 15.4375 50.312V55H16.8775V50.184C16.8775 48.136 15.9015 46.808 13.8375 46.808C12.7815 46.808 11.8695 47.288 11.4055 47.992V43.56H9.9815V55ZM22.5795 55.192C23.7315 55.192 24.5795 54.696 25.0275 54.008L25.2515 55H26.4515V47H25.0275V51.096C25.0275 52.92 24.1155 53.896 22.8835 53.896C21.7795 53.896 20.9635 53.16 20.9635 51.736V47H19.5395V51.752C19.5395 53.832 20.4835 55.192 22.5795 55.192ZM33.6423 55H36.5223C40.1223 55 42.4263 52.664 42.4263 49.4C42.4263 46.168 40.2823 43.8 36.5223 43.8H33.6423V55ZM35.1623 53.576V45.224H36.6663C39.2423 45.224 40.8903 46.824 40.8903 49.4C40.8903 51.976 39.2263 53.576 36.6663 53.576H35.1623ZM48.2188 55.192C50.6508 55.192 52.3628 53.336 52.3628 51C52.3628 48.664 50.6508 46.808 48.2188 46.808C45.7868 46.808 44.0908 48.664 44.0908 51C44.0908 53.336 45.7868 55.192 48.2188 55.192ZM48.2188 53.896C46.6988 53.896 45.5468 52.696 45.5468 51C45.5468 49.304 46.6988 48.104 48.2188 48.104C49.7388 48.104 50.9068 49.304 50.9068 51C50.9068 52.696 49.7388 53.896 48.2188 53.896ZM58.8766 55H60.3806V46.872L63.5806 55H64.9246L68.1246 46.872V55H69.6286V43.8H67.7566L64.2686 52.936L60.7486 43.8H58.8766V55ZM75.6733 55.192C76.8253 55.192 77.6733 54.696 78.1213 54.008L78.3453 55H79.5453V47H78.1213V51.096C78.1213 52.92 77.2093 53.896 75.9773 53.896C74.8733 53.896 74.0573 53.16 74.0573 51.736V47H72.6333V51.752C72.6333 53.832 73.5773 55.192 75.6733 55.192ZM82.5596 55H83.9836V43.56H82.5596V55ZM87.1895 55H88.6295V48.296H90.3575V47H88.6295V44.536L87.1895 44.808V47H86.1495V48.296H87.1895V55ZM92.1351 45.368H93.7351V43.8H92.1351V45.368ZM92.2311 55H93.6551V47H92.2311V55ZM96.6378 55H98.0618V51.208C98.0618 49.08 98.9578 48.104 100.046 48.104C101.022 48.104 101.678 48.728 101.678 50.072V55H103.102V51.208C103.102 49.08 104.014 48.104 105.086 48.104C106.062 48.104 106.718 48.728 106.718 50.072V55H108.158V50.136C108.158 48.088 107.262 46.808 105.278 46.808C103.95 46.808 103.15 47.464 102.75 48.152C102.35 47.304 101.646 46.808 100.382 46.808C99.2458 46.808 98.5258 47.304 98.0458 48.024L97.8378 47H96.6378V55ZM114.309 55.192C116.053 55.192 117.269 54.28 117.877 53.032L116.709 52.456C116.181 53.384 115.429 53.896 114.373 53.896C112.885 53.896 111.877 52.936 111.765 51.464H118.069C118.085 51.272 118.101 51.016 118.101 50.824C118.101 48.584 116.741 46.808 114.309 46.808C111.829 46.808 110.341 48.664 110.341 51C110.341 53.368 111.781 55.192 114.309 55.192ZM111.781 50.296C111.925 48.984 112.933 48.104 114.325 48.104C115.701 48.104 116.581 48.984 116.693 50.296H111.781ZM123.781 53.896C122.197 53.896 121.125 52.616 121.125 51C121.125 49.384 122.197 48.104 123.781 48.104C125.381 48.104 126.437 49.384 126.437 51C126.437 52.616 125.381 53.896 123.781 53.896ZM123.669 55.192C124.917 55.192 125.909 54.488 126.357 53.864L126.549 55H127.749V43.56H126.325V48.024C125.925 47.528 125.045 46.808 123.669 46.808C121.301 46.808 119.685 48.664 119.685 51C119.685 53.336 121.221 55.192 123.669 55.192ZM130.651 45.368H132.251V43.8H130.651V45.368ZM130.747 55H132.171V47H130.747V55ZM138.593 53.896C136.993 53.896 135.937 52.616 135.937 51C135.937 49.384 136.993 48.104 138.593 48.104C140.177 48.104 141.249 49.384 141.249 51C141.249 52.616 140.177 53.896 138.593 53.896ZM138.449 55.192C139.649 55.192 140.689 54.584 141.137 53.928L141.345 55H142.561V47H141.345L141.137 48.008C140.737 47.48 139.825 46.808 138.449 46.808C136.113 46.808 134.481 48.664 134.481 51C134.481 53.336 136.017 55.192 138.449 55.192Z" fill="#FD841F"/>
<path d="M68.0802 17.3881L63.5169 14.3738C62.861 13.9412 61.9888 14.4087 61.9888 15.1972V21.2258C61.9888 22.0142 62.861 22.4817 63.5169 22.0491L68.0802 19.0348C68.6663 18.6441 68.6663 17.7789 68.0802 17.3881Z" fill="#FD841F"/>
<path d="M82.1679 15.7065H73.5436C72.4551 11.7223 68.8128 8.77779 64.4867 8.77779C60.1607 8.77779 56.5184 11.7223 55.4299 15.7065H52.4644C53.4761 9.99189 58.4581 5.64486 64.4658 5.64486C68.9943 5.64486 72.9436 8.11493 75.0508 11.7782H81.2469C78.7629 4.91222 72.19 0 64.4658 0C54.6135 0 46.6241 7.98933 46.6241 17.8417C46.6241 18.7348 46.6939 19.607 46.8195 20.4583H55.381C56.4067 24.5401 60.0909 27.5684 64.4867 27.5684C68.8826 27.5684 72.5668 24.5332 73.5925 20.4583H76.3765C75.1764 25.9357 70.3061 30.0385 64.4658 30.0385C60.1397 30.0385 56.3439 27.7847 54.1739 24.3866H47.8662C50.4758 31.0014 56.923 35.6833 64.4588 35.6833C74.3112 35.6833 82.3005 27.694 82.3005 17.8417C82.3005 17.116 82.2517 16.4043 82.1679 15.7065ZM64.4798 24.7285C60.8654 24.7285 57.9278 21.791 57.9278 18.1766C57.9278 14.5622 60.8654 11.6246 64.4798 11.6246C68.0942 11.6246 71.0317 14.5622 71.0317 18.1766C71.0317 21.791 68.0942 24.7285 64.4798 24.7285Z" fill="#FD841F"/>
<path d="M36.6113 32.9621V6.57286C36.6113 4.84242 37.9999 3.43295 39.7094 3.43295C41.4189 3.43295 42.8074 4.83545 42.8074 6.57286V32.9621H36.6044H36.6113Z" fill="#FD841F"/>
<path d="M106.701 3.43295C104.419 3.43295 102.347 4.30515 100.784 5.7216C99.2141 4.30515 97.1418 3.43295 94.8671 3.43295C89.9828 3.43295 86.0265 7.38924 86.0265 12.2735V32.8853H91.9225V12.2735C91.9225 10.6478 93.2413 9.32901 94.8671 9.32901C96.4929 9.32901 97.8116 10.6478 97.8116 12.2735V27.9522C97.8116 28.1964 97.8326 28.4336 97.8605 28.6639V32.8923H103.757V12.2805C103.757 10.6547 105.075 9.33599 106.701 9.33599C108.327 9.33599 109.646 10.6547 109.646 12.2805V32.8923H115.542V12.2805C115.542 7.39622 111.585 3.43993 106.701 3.43993V3.43295Z" fill="#001253"/>
<path d="M25.6356 16.2717C24.8681 15.7972 23.9819 15.4832 23.033 15.4065C22.5585 15.3297 22.0701 15.2739 21.5677 15.2739H8.09399C6.83105 14.9459 5.88907 13.8016 5.88907 12.434C5.88907 10.8082 7.20784 9.48947 8.83361 9.48947H24.5122C27.7708 9.48947 30.4083 6.85194 30.4083 3.59341H8.84059C3.95629 3.59341 0 7.5497 0 12.434C0 15.846 1.93977 18.8045 4.77266 20.2768C5.5402 20.7513 6.42635 21.0653 7.3753 21.142C7.84977 21.2188 8.33821 21.2746 8.84059 21.2746H22.3143C23.5772 21.6025 24.5192 22.7469 24.5192 24.1145C24.5192 25.7402 23.2004 27.059 21.5747 27.059H5.95885C2.70032 27.059 0.0627983 29.6965 0.0627983 32.9551H21.5677C26.452 32.9551 30.4083 28.9988 30.4083 24.1145C30.4083 20.7024 28.4685 17.7439 25.6356 16.2717Z" fill="#FD841F"/>
<path d="M135.232 3.43295H130.209C125.324 3.43295 121.368 7.38924 121.368 12.2735V32.8853H127.264V21.7351H138.184V32.8853H144.08V12.2735C144.08 7.38924 140.124 3.43295 135.239 3.43295H135.232ZM127.257 15.5391V12.2735C127.257 10.6478 128.576 9.32901 130.202 9.32901H135.226C136.851 9.32901 138.17 10.6547 138.17 12.2805V15.546H127.25L127.257 15.5391Z" fill="#001253"/>
</svg>
