<svg width="40" height="27" viewBox="0 0 40 27" fill="none" xmlns="http://www.w3.org/2000/svg">
<path d="M39.3102 26.2069H0.689686C0.308828 26.2069 0 25.8981 0 25.5172V0.689686C0 0.308827 0.308828 0 0.689686 0H39.3103C39.6912 0 40 0.308827 40 0.689686V25.5172C39.9999 25.8982 39.6911 26.2069 39.3102 26.2069Z" fill="#F5F5F5"/>
<path d="M39.9999 2.01601H0V0.689686C0 0.308827 0.308828 0 0.689686 0H39.3103C39.6912 0 40 0.308827 40 0.689686L39.9999 2.01601Z" fill="#FF4B55"/>
<path d="M39.9999 8.0636H0V10.0795H39.9999V8.0636Z" fill="#FF4B55"/>
<path d="M39.9999 4.03162H0V6.04755H39.9999V4.03162Z" fill="#FF4B55"/>
<path d="M39.9999 14.1115H0.689686C0.308828 14.1115 0 13.8026 0 13.4218V12.0955H39.9999V14.1115Z" fill="#FF4B55"/>
<path d="M39.9999 20.1597H0V22.1756H39.9999V20.1597Z" fill="#FF4B55"/>
<path d="M39.3102 26.2069H0.689686C0.308828 26.2069 0 25.898 0 25.5172V24.1909H39.9999V25.5172C39.9999 25.8981 39.6911 26.2069 39.3102 26.2069Z" fill="#FF4B55"/>
<path d="M39.9999 16.1277H0V18.1436H39.9999V16.1277Z" fill="#FF4B55"/>
<path d="M17.931 0.00012207H0.689686C0.308828 0.00012207 0 0.308871 0 0.68973V13.4217C0 13.8026 0.308828 14.1114 0.689686 14.1114H17.9311C18.3119 14.1114 18.6207 13.8026 18.6207 13.4217V0.68973C18.6207 0.308871 18.3118 0.00012207 17.931 0.00012207Z" fill="#41479B"/>
<path d="M1.93668 1.58304L2.08933 2.04085L2.57191 2.04452C2.63441 2.04507 2.66027 2.12475 2.61003 2.16186L2.22183 2.44858L2.36746 2.90866C2.38636 2.96819 2.31847 3.01757 2.26761 2.98116L1.87504 2.70061L1.48246 2.98124C1.4316 3.01757 1.36387 2.96827 1.38262 2.90874L1.52824 2.44866L1.14004 2.16194C1.0898 2.12475 1.11566 2.04515 1.17816 2.0446L1.66074 2.04093L1.8134 1.58312C1.83308 1.52374 1.91683 1.52374 1.93668 1.58304Z" fill="#F5F5F5"/>
<path d="M1.93668 3.97775L2.08933 4.43557L2.57191 4.43924C2.63441 4.43978 2.66027 4.51947 2.61003 4.55658L2.22183 4.8433L2.36746 5.30338C2.38636 5.36291 2.31847 5.41228 2.26761 5.37588L1.87504 5.09533L1.48246 5.37595C1.4316 5.41228 1.36387 5.36299 1.38262 5.30345L1.52824 4.84338L1.14004 4.55666C1.0898 4.51947 1.11566 4.43986 1.17816 4.43932L1.66074 4.43564L1.8134 3.97783C1.83308 3.91853 1.91683 3.91854 1.93668 3.97775Z" fill="#F5F5F5"/>
<path d="M1.93668 6.37265L2.08933 6.83046L2.57191 6.83414C2.63441 6.83468 2.66027 6.91437 2.61003 6.95148L2.22183 7.2382L2.36746 7.69827C2.38636 7.7578 2.31847 7.80718 2.26761 7.77077L1.87504 7.49023L1.48246 7.77085C1.4316 7.80718 1.36387 7.75788 1.38262 7.69835L1.52824 7.23827L1.14004 6.95156C1.0898 6.91437 1.11566 6.83476 1.17816 6.83421L1.66074 6.83054L1.8134 6.37273C1.83308 6.31343 1.91683 6.31343 1.93668 6.37265Z" fill="#F5F5F5"/>
<path d="M1.93668 8.76749L2.08933 9.2253L2.57191 9.22897C2.63441 9.22952 2.66027 9.3092 2.61003 9.34631L2.22183 9.63303L2.36746 10.0931C2.38636 10.1526 2.31847 10.202 2.26761 10.1656L1.87504 9.88506L1.48246 10.1657C1.4316 10.202 1.36387 10.1527 1.38262 10.0932L1.52824 9.63311L1.14004 9.34639C1.0898 9.3092 1.11566 9.22959 1.17816 9.22905L1.66074 9.22537L1.8134 8.76756C1.83308 8.70819 1.91683 8.70819 1.93668 8.76749Z" fill="#F5F5F5"/>
<path d="M1.93668 11.1623L2.08933 11.6201L2.57191 11.6238C2.63441 11.6243 2.66027 11.704 2.61003 11.7411L2.22183 12.0279L2.36746 12.4879C2.38636 12.5475 2.31847 12.5968 2.26761 12.5604L1.87504 12.2799L1.48246 12.5605C1.4316 12.5968 1.36387 12.5476 1.38262 12.488L1.52824 12.0279L1.14004 11.7412C1.0898 11.704 1.11566 11.6244 1.17816 11.6239L1.66074 11.6202L1.8134 11.1624C1.83308 11.1029 1.91683 11.1029 1.93668 11.1623Z" fill="#F5F5F5"/>
<path d="M3.79556 2.75706L3.94822 3.21487L4.4308 3.21854C4.4933 3.21909 4.51916 3.29878 4.46892 3.33589L4.08072 3.62261L4.22634 4.08268C4.24525 4.14221 4.17736 4.19159 4.1265 4.15518L3.73392 3.87456L3.34135 4.15518C3.29049 4.19151 3.22275 4.14221 3.2415 4.08268L3.38713 3.62261L2.99892 3.33589C2.94869 3.2987 2.97455 3.21909 3.03705 3.21854L3.51963 3.21487L3.67228 2.75706C3.69189 2.69784 3.7758 2.69784 3.79556 2.75706Z" fill="#F5F5F5"/>
<path d="M3.79556 5.15202L3.94822 5.60983L4.4308 5.6135C4.4933 5.61405 4.51916 5.69373 4.46892 5.73084L4.08072 6.01756L4.22634 6.47764C4.24525 6.53717 4.17736 6.58654 4.1265 6.55014L3.73392 6.26951L3.34135 6.55014C3.29049 6.58647 3.22275 6.53725 3.2415 6.47764L3.38713 6.01756L2.99892 5.73084C2.94869 5.69366 2.97455 5.61405 3.03705 5.6135L3.51963 5.60983L3.67228 5.15202C3.69189 5.09272 3.7758 5.09272 3.79556 5.15202Z" fill="#F5F5F5"/>
<path d="M3.79556 7.54679L3.94822 8.0046L4.4308 8.00828C4.4933 8.00882 4.51916 8.08851 4.46892 8.12562L4.08072 8.41234L4.22634 8.87241C4.24525 8.93194 4.17736 8.98132 4.1265 8.94491L3.73392 8.66429L3.34135 8.94491C3.29049 8.98124 3.22275 8.93194 3.2415 8.87241L3.38713 8.41234L2.99892 8.12562C2.94869 8.08843 2.97455 8.00882 3.03705 8.00828L3.51963 8.0046L3.67228 7.54679C3.69189 7.4875 3.7758 7.4875 3.79556 7.54679Z" fill="#F5F5F5"/>
<path d="M3.79556 9.94163L3.94822 10.3994L4.4308 10.4031C4.4933 10.4037 4.51916 10.4833 4.46892 10.5205L4.08072 10.8072L4.22634 11.2673C4.24525 11.3268 4.17736 11.3762 4.1265 11.3398L3.73392 11.0591L3.34135 11.3398C3.29049 11.3761 3.22275 11.3268 3.2415 11.2673L3.38713 10.8072L2.99892 10.5205C2.94869 10.4833 2.97455 10.4037 3.03705 10.4031L3.51963 10.3994L3.67228 9.94163C3.69189 9.88241 3.7758 9.88241 3.79556 9.94163Z" fill="#F5F5F5"/>
<path d="M5.65421 1.58292L5.80686 2.04074L6.28944 2.04441C6.35194 2.04495 6.3778 2.12464 6.32756 2.16175L5.93936 2.44847L6.08499 2.90855C6.10389 2.96808 6.036 3.01745 5.98514 2.98105L5.59257 2.70042L5.19999 2.98105C5.14913 3.01737 5.08139 2.96808 5.10014 2.90855L5.24577 2.44847L4.85757 2.16175C4.80733 2.12456 4.83319 2.04495 4.89569 2.04441L5.37827 2.04074L5.53092 1.58292C5.55061 1.52363 5.63444 1.52363 5.65421 1.58292Z" fill="#F5F5F5"/>
<path d="M5.65421 3.97776L5.80686 4.43558L6.28944 4.43925C6.35194 4.43979 6.3778 4.51948 6.32756 4.55659L5.93936 4.84331L6.08499 5.30339C6.10389 5.36292 6.036 5.41229 5.98514 5.37589L5.59257 5.09526L5.19999 5.37589C5.14913 5.41221 5.08139 5.36292 5.10014 5.30339L5.24577 4.84331L4.85757 4.55659C4.80733 4.5194 4.83319 4.43979 4.89569 4.43925L5.37827 4.43558L5.53092 3.97776C5.55061 3.91854 5.63444 3.91854 5.65421 3.97776Z" fill="#F5F5F5"/>
<path d="M5.65421 6.37266L5.80686 6.83047L6.28944 6.83415C6.35194 6.83469 6.3778 6.91438 6.32756 6.95149L5.93936 7.23821L6.08499 7.69828C6.10389 7.75781 6.036 7.80719 5.98514 7.77078L5.59257 7.49016L5.19999 7.77078C5.14913 7.80711 5.08139 7.75781 5.10014 7.69828L5.24577 7.23821L4.85757 6.95149C4.80733 6.9143 4.83319 6.83469 4.89569 6.83415L5.37827 6.83047L5.53092 6.37266C5.55061 6.31344 5.63444 6.31344 5.65421 6.37266Z" fill="#F5F5F5"/>
<path d="M5.65421 8.7675L5.80686 9.22531L6.28944 9.22898C6.35194 9.22953 6.3778 9.30921 6.32756 9.34632L5.93936 9.63304L6.08499 10.0931C6.10389 10.1526 6.036 10.202 5.98514 10.1656L5.59257 9.88499L5.19999 10.1656C5.14913 10.2019 5.08139 10.1526 5.10014 10.0931L5.24577 9.63304L4.85757 9.34632C4.80733 9.30913 4.83319 9.22953 4.89569 9.22898L5.37827 9.22531L5.53092 8.7675C5.55061 8.7082 5.63444 8.7082 5.65421 8.7675Z" fill="#F5F5F5"/>
<path d="M5.65421 11.1623L5.80686 11.6201L6.28944 11.6238C6.35194 11.6244 6.3778 11.704 6.32756 11.7412L5.93936 12.0279L6.08499 12.488C6.10389 12.5475 6.036 12.5969 5.98514 12.5605L5.59257 12.2798L5.19999 12.5605C5.14913 12.5968 5.08139 12.5475 5.10014 12.488L5.24577 12.0279L4.85757 11.7412C4.80733 11.704 4.83319 11.6244 4.89569 11.6238L5.37827 11.6201L5.53092 11.1623C5.55061 11.103 5.63444 11.103 5.65421 11.1623Z" fill="#F5F5F5"/>
<path d="M7.51334 2.75706L7.66599 3.21487L8.14857 3.21854C8.21107 3.21909 8.23693 3.29878 8.1867 3.33589L7.79849 3.62261L7.94412 4.08268C7.96302 4.14221 7.89513 4.19159 7.84427 4.15518L7.4517 3.87456L7.05912 4.15518C7.00826 4.19151 6.94053 4.14221 6.95928 4.08268L7.1049 3.62261L6.7167 3.33589C6.66646 3.2987 6.69232 3.21909 6.75482 3.21854L7.2374 3.21487L7.39006 2.75706C7.40967 2.69784 7.49357 2.69784 7.51334 2.75706Z" fill="#F5F5F5"/>
<path d="M7.51334 5.15202L7.66599 5.60983L8.14857 5.6135C8.21107 5.61405 8.23693 5.69373 8.1867 5.73084L7.79849 6.01756L7.94412 6.47764C7.96302 6.53717 7.89513 6.58654 7.84427 6.55014L7.4517 6.26951L7.05912 6.55014C7.00826 6.58647 6.94053 6.53725 6.95928 6.47764L7.1049 6.01756L6.7167 5.73084C6.66646 5.69366 6.69232 5.61405 6.75482 5.6135L7.2374 5.60983L7.39006 5.15202C7.40967 5.09272 7.49357 5.09272 7.51334 5.15202Z" fill="#F5F5F5"/>
<path d="M7.51334 7.54679L7.66599 8.0046L8.14857 8.00828C8.21107 8.00882 8.23693 8.08851 8.1867 8.12562L7.79849 8.41234L7.94412 8.87241C7.96302 8.93194 7.89513 8.98132 7.84427 8.94491L7.4517 8.66429L7.05912 8.94491C7.00826 8.98124 6.94053 8.93194 6.95928 8.87241L7.1049 8.41234L6.7167 8.12562C6.66646 8.08843 6.69232 8.00882 6.75482 8.00828L7.2374 8.0046L7.39006 7.54679C7.40967 7.4875 7.49357 7.4875 7.51334 7.54679Z" fill="#F5F5F5"/>
<path d="M7.51334 9.94163L7.66599 10.3994L8.14857 10.4031C8.21107 10.4037 8.23693 10.4833 8.1867 10.5205L7.79849 10.8072L7.94412 11.2673C7.96302 11.3268 7.89513 11.3762 7.84427 11.3398L7.4517 11.0591L7.05912 11.3398C7.00826 11.3761 6.94053 11.3268 6.95928 11.2673L7.1049 10.8072L6.7167 10.5205C6.66646 10.4833 6.69232 10.4037 6.75482 10.4031L7.2374 10.3994L7.39006 9.94163C7.40967 9.88241 7.49357 9.88241 7.51334 9.94163Z" fill="#F5F5F5"/>
<path d="M9.37206 1.58292L9.52471 2.04074L10.0073 2.04441C10.0698 2.04495 10.0956 2.12464 10.0454 2.16175L9.65721 2.44847L9.80284 2.90855C9.82174 2.96808 9.75385 3.01745 9.70299 2.98105L9.31034 2.70042L8.91776 2.98105C8.8669 3.01737 8.79917 2.96808 8.81792 2.90855L8.96354 2.44847L8.57534 2.16175C8.52511 2.12456 8.55097 2.04495 8.61347 2.04441L9.09604 2.04074L9.2487 1.58292C9.26846 1.52363 9.35229 1.52363 9.37206 1.58292Z" fill="#F5F5F5"/>
<path d="M9.37206 3.97776L9.52471 4.43558L10.0073 4.43925C10.0698 4.43979 10.0956 4.51948 10.0454 4.55659L9.65721 4.84331L9.80284 5.30339C9.82174 5.36292 9.75385 5.41229 9.70299 5.37589L9.31034 5.09526L8.91776 5.37589C8.8669 5.41221 8.79917 5.36292 8.81792 5.30339L8.96354 4.84331L8.57534 4.55659C8.52511 4.5194 8.55097 4.43979 8.61347 4.43925L9.09604 4.43558L9.2487 3.97776C9.26846 3.91854 9.35229 3.91854 9.37206 3.97776Z" fill="#F5F5F5"/>
<path d="M9.37206 6.37266L9.52471 6.83047L10.0073 6.83415C10.0698 6.83469 10.0956 6.91438 10.0454 6.95149L9.65721 7.23821L9.80284 7.69828C9.82174 7.75781 9.75385 7.80719 9.70299 7.77078L9.31034 7.49016L8.91776 7.77078C8.8669 7.80711 8.79917 7.75781 8.81792 7.69828L8.96354 7.23821L8.57534 6.95149C8.52511 6.9143 8.55097 6.83469 8.61347 6.83415L9.09604 6.83047L9.2487 6.37266C9.26846 6.31344 9.35229 6.31344 9.37206 6.37266Z" fill="#F5F5F5"/>
<path d="M9.37206 8.7675L9.52471 9.22531L10.0073 9.22898C10.0698 9.22953 10.0956 9.30921 10.0454 9.34632L9.65721 9.63304L9.80284 10.0931C9.82174 10.1526 9.75385 10.202 9.70299 10.1656L9.31034 9.88499L8.91776 10.1656C8.8669 10.2019 8.79917 10.1526 8.81792 10.0931L8.96354 9.63304L8.57534 9.34632C8.52511 9.30913 8.55097 9.22953 8.61347 9.22898L9.09604 9.22531L9.2487 8.7675C9.26846 8.7082 9.35229 8.7082 9.37206 8.7675Z" fill="#F5F5F5"/>
<path d="M9.37206 11.1623L9.52471 11.6201L10.0073 11.6238C10.0698 11.6244 10.0956 11.704 10.0454 11.7412L9.65721 12.0279L9.80284 12.488C9.82174 12.5475 9.75385 12.5969 9.70299 12.5605L9.31034 12.2798L8.91776 12.5605C8.8669 12.5968 8.79917 12.5475 8.81792 12.488L8.96354 12.0279L8.57534 11.7412C8.52511 11.704 8.55097 11.6244 8.61347 11.6238L9.09604 11.6201L9.2487 11.1623C9.26846 11.103 9.35229 11.103 9.37206 11.1623Z" fill="#F5F5F5"/>
<path d="M11.2309 2.75706L11.3835 3.21487L11.8661 3.21854C11.9286 3.21909 11.9545 3.29878 11.9042 3.33589L11.516 3.62261L11.6616 4.08268C11.6806 4.14221 11.6127 4.19159 11.5618 4.15518L11.1692 3.87456L10.7766 4.15518C10.7258 4.19151 10.6581 4.14221 10.6768 4.08268L10.8224 3.62261L10.4342 3.33589C10.384 3.2987 10.4099 3.21909 10.4724 3.21854L10.9549 3.21487L11.1076 2.75706C11.1274 2.69784 11.2111 2.69784 11.2309 2.75706Z" fill="#F5F5F5"/>
<path d="M11.2309 5.15202L11.3835 5.60983L11.8661 5.6135C11.9286 5.61405 11.9545 5.69373 11.9042 5.73084L11.516 6.01756L11.6616 6.47764C11.6806 6.53717 11.6127 6.58654 11.5618 6.55014L11.1692 6.26951L10.7766 6.55014C10.7258 6.58647 10.6581 6.53725 10.6768 6.47764L10.8224 6.01756L10.4342 5.73084C10.384 5.69366 10.4099 5.61405 10.4724 5.6135L10.9549 5.60983L11.1076 5.15202C11.1274 5.09272 11.2111 5.09272 11.2309 5.15202Z" fill="#F5F5F5"/>
<path d="M11.2309 7.54679L11.3835 8.0046L11.8661 8.00828C11.9286 8.00882 11.9545 8.08851 11.9042 8.12562L11.516 8.41234L11.6616 8.87241C11.6806 8.93194 11.6127 8.98132 11.5618 8.94491L11.1692 8.66429L10.7766 8.94491C10.7258 8.98124 10.6581 8.93194 10.6768 8.87241L10.8224 8.41234L10.4342 8.12562C10.384 8.08843 10.4099 8.00882 10.4724 8.00828L10.9549 8.0046L11.1076 7.54679C11.1274 7.4875 11.2111 7.4875 11.2309 7.54679Z" fill="#F5F5F5"/>
<path d="M11.2309 9.94163L11.3835 10.3994L11.8661 10.4031C11.9286 10.4037 11.9545 10.4833 11.9042 10.5205L11.516 10.8072L11.6616 11.2673C11.6806 11.3268 11.6127 11.3762 11.5618 11.3398L11.1692 11.0591L10.7766 11.3398C10.7258 11.3761 10.6581 11.3268 10.6768 11.2673L10.8224 10.8072L10.4342 10.5205C10.384 10.4833 10.4099 10.4037 10.4724 10.4031L10.9549 10.3994L11.1076 9.94163C11.1274 9.88241 11.2111 9.88241 11.2309 9.94163Z" fill="#F5F5F5"/>
<path d="M13.0898 1.58292L13.2424 2.04074L13.725 2.04441C13.7875 2.04495 13.8133 2.12464 13.7631 2.16175L13.3749 2.44847L13.5205 2.90855C13.5394 2.96808 13.4715 3.01745 13.4207 2.98105L13.0281 2.70042L12.6355 2.98105C12.5847 3.01737 12.5169 2.96808 12.5357 2.90855L12.6813 2.44847L12.2931 2.16175C12.2429 2.12456 12.2687 2.04495 12.3312 2.04441L12.8138 2.04074L12.9665 1.58292C12.9861 1.52363 13.07 1.52363 13.0898 1.58292Z" fill="#F5F5F5"/>
<path d="M13.0898 3.97776L13.2424 4.43558L13.725 4.43925C13.7875 4.43979 13.8133 4.51948 13.7631 4.55659L13.3749 4.84331L13.5205 5.30339C13.5394 5.36292 13.4715 5.41229 13.4207 5.37589L13.0281 5.09526L12.6355 5.37589C12.5847 5.41221 12.5169 5.36292 12.5357 5.30339L12.6813 4.84331L12.2931 4.55659C12.2429 4.5194 12.2687 4.43979 12.3312 4.43925L12.8138 4.43558L12.9665 3.97776C12.9861 3.91854 13.07 3.91854 13.0898 3.97776Z" fill="#F5F5F5"/>
<path d="M13.0898 6.37266L13.2424 6.83047L13.725 6.83415C13.7875 6.83469 13.8133 6.91438 13.7631 6.95149L13.3749 7.23821L13.5205 7.69828C13.5394 7.75781 13.4715 7.80719 13.4207 7.77078L13.0281 7.49016L12.6355 7.77078C12.5847 7.80711 12.5169 7.75781 12.5357 7.69828L12.6813 7.23821L12.2931 6.95149C12.2429 6.9143 12.2687 6.83469 12.3312 6.83415L12.8138 6.83047L12.9665 6.37266C12.9861 6.31344 13.07 6.31344 13.0898 6.37266Z" fill="#F5F5F5"/>
<path d="M13.0898 8.7675L13.2424 9.22531L13.725 9.22898C13.7875 9.22953 13.8133 9.30921 13.7631 9.34632L13.3749 9.63304L13.5205 10.0931C13.5394 10.1526 13.4715 10.202 13.4207 10.1656L13.0281 9.88499L12.6355 10.1656C12.5847 10.2019 12.5169 10.1526 12.5357 10.0931L12.6813 9.63304L12.2931 9.34632C12.2429 9.30913 12.2687 9.22953 12.3312 9.22898L12.8138 9.22531L12.9665 8.7675C12.9861 8.7082 13.07 8.7082 13.0898 8.7675Z" fill="#F5F5F5"/>
<path d="M13.0898 11.1623L13.2424 11.6201L13.725 11.6238C13.7875 11.6244 13.8133 11.704 13.7631 11.7412L13.3749 12.0279L13.5205 12.488C13.5394 12.5475 13.4715 12.5969 13.4207 12.5605L13.0281 12.2798L12.6355 12.5605C12.5847 12.5968 12.5169 12.5475 12.5357 12.488L12.6813 12.0279L12.2931 11.7412C12.2429 11.704 12.2687 11.6244 12.3312 11.6238L12.8138 11.6201L12.9665 11.1623C12.9861 11.103 13.07 11.103 13.0898 11.1623Z" fill="#F5F5F5"/>
<path d="M14.9486 2.75706L15.1013 3.21487L15.5839 3.21854C15.6464 3.21909 15.6722 3.29878 15.622 3.33589L15.2338 3.62261L15.3794 4.08268C15.3983 4.14221 15.3304 4.19159 15.2796 4.15518L14.887 3.87456L14.4944 4.15518C14.4436 4.19151 14.3758 4.14221 14.3946 4.08268L14.5402 3.62261L14.152 3.33589C14.1018 3.2987 14.1276 3.21909 14.1901 3.21854L14.6727 3.21487L14.8254 2.75706C14.845 2.69784 14.929 2.69784 14.9486 2.75706Z" fill="#F5F5F5"/>
<path d="M14.9486 5.15202L15.1013 5.60983L15.5839 5.6135C15.6464 5.61405 15.6722 5.69373 15.622 5.73084L15.2338 6.01756L15.3794 6.47764C15.3983 6.53717 15.3304 6.58654 15.2796 6.55014L14.887 6.26951L14.4944 6.55014C14.4436 6.58647 14.3758 6.53725 14.3946 6.47764L14.5402 6.01756L14.152 5.73084C14.1018 5.69366 14.1276 5.61405 14.1901 5.6135L14.6727 5.60983L14.8254 5.15202C14.845 5.09272 14.929 5.09272 14.9486 5.15202Z" fill="#F5F5F5"/>
<path d="M14.9486 7.54679L15.1013 8.0046L15.5839 8.00828C15.6464 8.00882 15.6722 8.08851 15.622 8.12562L15.2338 8.41234L15.3794 8.87241C15.3983 8.93194 15.3304 8.98132 15.2796 8.94491L14.887 8.66429L14.4944 8.94491C14.4436 8.98124 14.3758 8.93194 14.3946 8.87241L14.5402 8.41234L14.152 8.12562C14.1018 8.08843 14.1276 8.00882 14.1901 8.00828L14.6727 8.0046L14.8254 7.54679C14.845 7.4875 14.929 7.4875 14.9486 7.54679Z" fill="#F5F5F5"/>
<path d="M14.9486 9.94163L15.1013 10.3994L15.5839 10.4031C15.6464 10.4037 15.6722 10.4833 15.622 10.5205L15.2338 10.8072L15.3794 11.2673C15.3983 11.3268 15.3304 11.3762 15.2796 11.3398L14.887 11.0591L14.4944 11.3398C14.4436 11.3761 14.3758 11.3268 14.3946 11.2673L14.5402 10.8072L14.152 10.5205C14.1018 10.4833 14.1276 10.4037 14.1901 10.4031L14.6727 10.3994L14.8254 9.94163C14.845 9.88241 14.929 9.88241 14.9486 9.94163Z" fill="#F5F5F5"/>
<path d="M16.8075 1.58292L16.9602 2.04074L17.4428 2.04441C17.5053 2.04495 17.5311 2.12464 17.4809 2.16175L17.0927 2.44847L17.2383 2.90855C17.2572 2.96808 17.1893 3.01745 17.1385 2.98105L16.7459 2.70042L16.3533 2.98105C16.3024 3.01737 16.2347 2.96808 16.2535 2.90855L16.3991 2.44847L16.0109 2.16175C15.9607 2.12456 15.9865 2.04495 16.049 2.04441L16.5316 2.04074L16.6842 1.58292C16.7039 1.52363 16.7877 1.52363 16.8075 1.58292Z" fill="#F5F5F5"/>
<path d="M16.8075 3.97776L16.9602 4.43558L17.4428 4.43925C17.5053 4.43979 17.5311 4.51948 17.4809 4.55659L17.0927 4.84331L17.2383 5.30339C17.2572 5.36292 17.1893 5.41229 17.1385 5.37589L16.7459 5.09526L16.3533 5.37589C16.3024 5.41221 16.2347 5.36292 16.2535 5.30339L16.3991 4.84331L16.0109 4.55659C15.9607 4.5194 15.9865 4.43979 16.049 4.43925L16.5316 4.43558L16.6842 3.97776C16.7039 3.91854 16.7877 3.91854 16.8075 3.97776Z" fill="#F5F5F5"/>
<path d="M16.8075 6.37266L16.9602 6.83047L17.4428 6.83415C17.5053 6.83469 17.5311 6.91438 17.4809 6.95149L17.0927 7.23821L17.2383 7.69828C17.2572 7.75781 17.1893 7.80719 17.1385 7.77078L16.7459 7.49016L16.3533 7.77078C16.3024 7.80711 16.2347 7.75781 16.2535 7.69828L16.3991 7.23821L16.0109 6.95149C15.9607 6.9143 15.9865 6.83469 16.049 6.83415L16.5316 6.83047L16.6842 6.37266C16.7039 6.31344 16.7877 6.31344 16.8075 6.37266Z" fill="#F5F5F5"/>
<path d="M16.8075 8.7675L16.9602 9.22531L17.4428 9.22898C17.5053 9.22953 17.5311 9.30921 17.4809 9.34632L17.0927 9.63304L17.2383 10.0931C17.2572 10.1526 17.1893 10.202 17.1385 10.1656L16.7459 9.88499L16.3533 10.1656C16.3024 10.2019 16.2347 10.1526 16.2535 10.0931L16.3991 9.63304L16.0109 9.34632C15.9607 9.30913 15.9865 9.22953 16.049 9.22898L16.5316 9.22531L16.6842 8.7675C16.7039 8.7082 16.7877 8.7082 16.8075 8.7675Z" fill="#F5F5F5"/>
<path d="M16.8075 11.1623L16.9602 11.6201L17.4428 11.6238C17.5053 11.6244 17.5311 11.704 17.4809 11.7412L17.0927 12.0279L17.2383 12.488C17.2572 12.5475 17.1893 12.5969 17.1385 12.5605L16.7459 12.2798L16.3533 12.5605C16.3024 12.5968 16.2347 12.5475 16.2535 12.488L16.3991 12.0279L16.0109 11.7412C15.9607 11.704 15.9865 11.6244 16.049 11.6238L16.5316 11.6201L16.6842 11.1623C16.7039 11.103 16.7877 11.103 16.8075 11.1623Z" fill="#F5F5F5"/>
</svg>
