<svg width="37" height="36" viewBox="0 0 37 36" fill="none" xmlns="http://www.w3.org/2000/svg">
<path d="M22.0802 17.3881L17.5169 14.3738C16.861 13.9412 15.9888 14.4087 15.9888 15.1972V21.2258C15.9888 22.0142 16.861 22.4817 17.5169 22.0491L22.0802 19.0348C22.6663 18.6441 22.6663 17.7789 22.0802 17.3881Z" fill="#FD841F"/>
<path d="M36.1679 15.7065H27.5436C26.4551 11.7223 22.8128 8.77779 18.4867 8.77779C14.1607 8.77779 10.5184 11.7223 9.42986 15.7065H6.46439C7.47613 9.99189 12.4581 5.64486 18.4658 5.64486C22.9943 5.64486 26.9436 8.11493 29.0508 11.7782H35.2469C32.7629 4.91222 26.19 0 18.4658 0C8.61348 0 0.624146 7.98933 0.624146 17.8417C0.624146 18.7348 0.693926 19.607 0.819522 20.4583H9.38101C10.4067 24.5401 14.0909 27.5684 18.4867 27.5684C22.8826 27.5684 26.5668 24.5332 27.5925 20.4583H30.3765C29.1764 25.9357 24.3061 30.0385 18.4658 30.0385C14.1397 30.0385 10.3439 27.7847 8.17389 24.3866H1.86616C4.47577 31.0014 10.923 35.6833 18.4588 35.6833C28.3112 35.6833 36.3005 27.694 36.3005 17.8417C36.3005 17.116 36.2517 16.4043 36.1679 15.7065ZM18.4798 24.7285C14.8654 24.7285 11.9278 21.791 11.9278 18.1766C11.9278 14.5622 14.8654 11.6246 18.4798 11.6246C22.0942 11.6246 25.0317 14.5622 25.0317 18.1766C25.0317 21.791 22.0942 24.7285 18.4798 24.7285Z" fill="#FD841F"/>
</svg>
