<svg width="58" height="30" viewBox="0 0 58 30" fill="none" xmlns="http://www.w3.org/2000/svg">
<rect width="58" height="23" fill="#FD841F"/>
<path d="M11.9484 16V5.344L15.0684 5.328C15.5911 5.328 16.0764 5.456 16.5244 5.712C16.9724 5.968 17.3244 6.31467 17.5804 6.752C17.8471 7.18933 17.9804 7.664 17.9804 8.176C17.9804 9.06133 17.5591 9.856 16.7164 10.56C17.2711 10.88 17.6871 11.264 17.9644 11.712C18.2524 12.1493 18.3964 12.6347 18.3964 13.168C18.3964 13.6907 18.2631 14.1707 17.9964 14.608C17.7404 15.0347 17.3884 15.376 16.9404 15.632C16.4924 15.8773 16.0018 16 15.4684 16H11.9484ZM12.6844 6.064V10.32H15.0684C15.4524 10.32 15.8098 10.224 16.1404 10.032C16.4818 9.84 16.7484 9.57867 16.9404 9.248C17.1431 8.91733 17.2444 8.56 17.2444 8.176C17.2444 7.80267 17.1431 7.456 16.9404 7.136C16.7484 6.80533 16.4818 6.544 16.1404 6.352C15.8098 6.16 15.4524 6.064 15.0684 6.064H12.6844ZM12.6844 11.024V15.28H15.4684C15.8524 15.28 16.2098 15.1893 16.5404 15.008C16.8818 14.816 17.1538 14.56 17.3564 14.24C17.5591 13.9093 17.6604 13.552 17.6604 13.168C17.6604 12.7627 17.5591 12.4 17.3564 12.08C17.1538 11.7493 16.8818 11.4933 16.5404 11.312C16.2098 11.12 15.8524 11.024 15.4684 11.024H12.6844ZM19.8391 16V5.36H20.5751V16H19.8391ZM26.0708 16.08C25.5268 16.08 25.0095 15.9733 24.5188 15.76C24.0281 15.5467 23.5961 15.2533 23.2228 14.88C22.8495 14.5067 22.5561 14.0747 22.3428 13.584C22.1295 13.0933 22.0228 12.576 22.0228 12.032C22.0228 11.4773 22.1295 10.9493 22.3428 10.448C22.5561 9.94667 22.8495 9.50933 23.2228 9.136C23.5961 8.76267 24.0281 8.47467 24.5188 8.272C25.0095 8.05867 25.5268 7.952 26.0708 7.952C26.6255 7.952 27.1535 8.05867 27.6548 8.272C28.1561 8.47467 28.5935 8.76267 28.9668 9.136C29.3401 9.50933 29.6281 9.94667 29.8308 10.448C30.0441 10.9493 30.1508 11.4773 30.1508 12.032C30.1508 12.576 30.0441 13.0933 29.8308 13.584C29.6281 14.0747 29.3401 14.5067 28.9668 14.88C28.5935 15.2533 28.1561 15.5467 27.6548 15.76C27.1535 15.9733 26.6255 16.08 26.0708 16.08ZM26.0708 8.672C25.6228 8.672 25.1961 8.75733 24.7908 8.928C24.3961 9.09867 24.0441 9.33867 23.7348 9.648C23.4255 9.95733 23.1801 10.32 22.9988 10.736C22.8281 11.152 22.7428 11.584 22.7428 12.032C22.7428 12.48 22.8281 12.9067 22.9988 13.312C23.1801 13.7173 23.4255 14.0747 23.7348 14.384C24.0441 14.6933 24.3961 14.9387 24.7908 15.12C25.1961 15.2907 25.6228 15.376 26.0708 15.376C26.5188 15.376 26.9508 15.2907 27.3668 15.12C27.7828 14.9387 28.1401 14.6933 28.4388 14.384C28.7481 14.0747 28.9881 13.7173 29.1588 13.312C29.3295 12.9067 29.4148 12.48 29.4148 12.032C29.4148 11.584 29.3241 11.152 29.1428 10.736C28.9721 10.32 28.7375 9.95733 28.4388 9.648C28.1401 9.33867 27.7828 9.09867 27.3668 8.928C26.9508 8.75733 26.5188 8.672 26.0708 8.672ZM35.1486 19.408C34.5619 19.408 34.0126 19.2907 33.5006 19.056C32.9886 18.832 32.5406 18.5173 32.1566 18.112L32.8126 17.728C33.1112 18.0373 33.4579 18.272 33.8526 18.432C34.2579 18.6027 34.6899 18.688 35.1486 18.688C35.5966 18.688 36.0232 18.6027 36.4286 18.432C36.8339 18.272 37.1859 18.0427 37.4846 17.744C37.7832 17.456 38.0179 17.1093 38.1886 16.704C38.3592 16.3093 38.4446 15.8933 38.4446 15.456V14.16C37.6339 15.3653 36.5299 15.968 35.1326 15.968C34.5992 15.968 34.0819 15.8613 33.5806 15.648C33.0899 15.424 32.6632 15.12 32.3006 14.736C31.9272 14.352 31.6339 13.9147 31.4206 13.424C31.2179 12.9333 31.1166 12.4267 31.1166 11.904C31.1166 11.3707 31.2179 10.864 31.4206 10.384C31.6339 9.89333 31.9272 9.472 32.3006 9.12C32.6632 8.768 33.0899 8.496 33.5806 8.304C34.0712 8.10133 34.5886 8 35.1326 8C35.8686 8 36.5246 8.16 37.1006 8.48C37.6766 8.8 38.1246 9.25333 38.4446 9.84V8.208H39.1806V15.456C39.1806 15.9893 39.0739 16.496 38.8606 16.976C38.6579 17.456 38.3699 17.8773 37.9966 18.24C37.6339 18.6027 37.2019 18.8853 36.7006 19.088C36.2099 19.3013 35.6926 19.408 35.1486 19.408ZM35.1326 8.736C34.6952 8.736 34.2686 8.82133 33.8526 8.992C33.4472 9.152 33.0952 9.38133 32.7966 9.68C32.4979 9.968 32.2579 10.32 32.0766 10.736C31.9059 11.152 31.8206 11.5787 31.8206 12.016C31.8206 12.4533 31.9059 12.8693 32.0766 13.264C32.2472 13.648 32.4872 13.9947 32.7966 14.304C33.0952 14.6027 33.4472 14.8373 33.8526 15.008C34.2686 15.1787 34.6952 15.264 35.1326 15.264C35.5699 15.264 35.9859 15.1787 36.3806 15.008C36.7859 14.8373 37.1432 14.6027 37.4526 14.304C37.7512 14.0053 37.9859 13.6587 38.1566 13.264C38.3379 12.8693 38.4286 12.4533 38.4286 12.016C38.4286 11.5787 38.3379 11.152 38.1566 10.736C37.9859 10.32 37.7512 9.968 37.4526 9.68C37.1539 9.38133 36.8019 9.152 36.3966 8.992C35.9912 8.82133 35.5699 8.736 35.1326 8.736ZM45.4966 15.376C44.9846 15.8453 44.3126 16.08 43.4806 16.08C42.5526 16.08 41.8326 15.84 41.3206 15.36C40.9792 15.0293 40.7499 14.624 40.6326 14.144H41.4166C41.5446 14.5387 41.7952 14.8427 42.1686 15.056C42.5419 15.2587 42.9632 15.36 43.4326 15.36C44.0406 15.36 44.5366 15.2053 44.9206 14.896C45.2726 14.608 45.4486 14.2507 45.4486 13.824C45.4486 13.2267 45.2406 12.8213 44.8246 12.608C44.4832 12.448 43.9819 12.368 43.3206 12.368C42.6699 12.368 42.1952 12.304 41.8966 12.176C41.5979 12.0373 41.3419 11.8507 41.1286 11.616C40.7979 11.2213 40.6326 10.752 40.6326 10.208C40.6326 9.84533 40.7072 9.504 40.8566 9.184C41.0059 8.85333 41.2192 8.592 41.4966 8.4C41.9766 8.06933 42.6006 7.904 43.3686 7.904C44.0192 7.904 44.5632 8.032 45.0006 8.288C45.2992 8.45867 45.5606 8.71467 45.7846 9.056C45.9446 9.312 46.0566 9.584 46.1206 9.872H45.3366C45.2726 9.65867 45.2086 9.504 45.1446 9.408C44.8246 8.91733 44.2646 8.656 43.4646 8.624C42.9739 8.624 42.5846 8.68267 42.2966 8.8C42.0086 8.928 41.7846 9.11467 41.6246 9.36C41.4646 9.60533 41.3846 9.872 41.3846 10.16C41.3846 10.32 41.4059 10.464 41.4486 10.592C41.5766 11.0613 41.8539 11.36 42.2806 11.488C42.4832 11.5627 42.7072 11.6053 42.9526 11.616C43.2086 11.6267 43.3579 11.632 43.4006 11.632C43.8166 11.6533 44.1526 11.6853 44.4086 11.728C44.6646 11.7707 44.9312 11.8613 45.2086 12C45.8699 12.3413 46.2006 12.9547 46.2006 13.84C46.1899 14.4267 45.9552 14.9387 45.4966 15.376Z" fill="white"/>
<path d="M11.9484 16H11.4484V16.5H11.9484V16ZM11.9484 5.344L11.9459 4.84401L11.4484 4.84656V5.344H11.9484ZM15.0684 5.328L15.0684 4.82799L15.0659 4.82801L15.0684 5.328ZM16.5244 5.712L16.2764 6.14612L16.2764 6.14612L16.5244 5.712ZM17.5804 6.752L17.1489 7.00463L17.1535 7.0123L17.5804 6.752ZM16.7164 10.56L16.3959 10.1763L15.8464 10.6353L16.4666 10.9931L16.7164 10.56ZM17.9644 11.712L17.5391 11.9753L17.5469 11.987L17.9644 11.712ZM17.9964 14.608L17.5695 14.3477L17.5677 14.3508L17.9964 14.608ZM16.9404 15.632L17.1806 16.0706L17.1885 16.0661L16.9404 15.632ZM12.6844 6.064V5.564H12.1844V6.064H12.6844ZM12.6844 10.32H12.1844V10.82H12.6844V10.32ZM16.1404 10.032L15.8953 9.59617L15.8894 9.59961L16.1404 10.032ZM16.9404 9.248L16.514 8.98664L16.508 8.99693L16.9404 9.248ZM16.9404 7.136L16.508 7.38707L16.5129 7.39539L16.518 7.40353L16.9404 7.136ZM16.1404 6.352L15.8893 6.78443L15.8953 6.78779L16.1404 6.352ZM12.6844 11.024V10.524H12.1844V11.024H12.6844ZM12.6844 15.28H12.1844V15.78H12.6844V15.28ZM16.5404 15.008L16.7809 15.4464L16.7856 15.4438L16.5404 15.008ZM17.3564 14.24L17.7789 14.5076L17.7827 14.5013L17.3564 14.24ZM17.3564 12.08L16.9301 12.3413L16.934 12.3475L17.3564 12.08ZM16.5404 11.312L16.2894 11.7444L16.2975 11.7491L16.3059 11.7536L16.5404 11.312ZM12.4484 16V5.344H11.4484V16H12.4484ZM11.951 5.84399L15.071 5.82799L15.0659 4.82801L11.9459 4.84401L11.951 5.84399ZM15.0684 5.828C15.5053 5.828 15.9049 5.93387 16.2764 6.14612L16.7725 5.27788C16.2479 4.97812 15.6769 4.828 15.0684 4.828V5.828ZM16.2764 6.14612C16.6498 6.35953 16.938 6.64421 17.1489 7.00459L18.0119 6.49941C17.7109 5.98513 17.295 5.57646 16.7725 5.27788L16.2764 6.14612ZM17.1535 7.0123C17.3724 7.37126 17.4804 7.75588 17.4804 8.176H18.4804C18.4804 7.57212 18.3218 7.0074 18.0073 6.4917L17.1535 7.0123ZM17.4804 8.176C17.4804 8.87827 17.1546 9.54239 16.3959 10.1763L17.037 10.9437C17.9636 10.1696 18.4804 9.24439 18.4804 8.176H17.4804ZM16.4666 10.9931C16.965 11.2806 17.3139 11.611 17.5393 11.9752L18.3896 11.4488C18.0603 10.917 17.5773 10.4794 16.9663 10.1269L16.4666 10.9931ZM17.5469 11.987C17.78 12.3411 17.8964 12.7305 17.8964 13.168H18.8964C18.8964 12.5388 18.7248 11.9576 18.382 11.437L17.5469 11.987ZM17.8964 13.168C17.8964 13.6008 17.7874 13.9904 17.5695 14.3477L18.4233 14.8683C18.7388 14.3509 18.8964 13.7805 18.8964 13.168H17.8964ZM17.5677 14.3508C17.3574 14.7012 17.0688 14.9827 16.6924 15.1979L17.1885 16.0661C17.708 15.7693 18.1234 15.3682 18.4252 14.8652L17.5677 14.3508ZM16.7003 15.1935C16.3292 15.3967 15.9217 15.5 15.4684 15.5V16.5C16.0819 16.5 16.6557 16.358 17.1806 16.0705L16.7003 15.1935ZM15.4684 15.5H11.9484V16.5H15.4684V15.5ZM12.1844 6.064V10.32H13.1844V6.064H12.1844ZM12.6844 10.82H15.0684V9.82H12.6844V10.82ZM15.0684 10.82C15.5402 10.82 15.9842 10.7009 16.3915 10.4644L15.8894 9.59961C15.6353 9.74712 15.3646 9.82 15.0684 9.82V10.82ZM16.3856 10.4678C16.8027 10.2331 17.1349 9.90886 17.3728 9.49907L16.508 8.99693C16.362 9.24848 16.1608 9.44686 15.8953 9.59621L16.3856 10.4678ZM17.3667 9.50928C17.6171 9.10081 17.7444 8.65319 17.7444 8.176H16.7444C16.7444 8.46681 16.6691 8.73385 16.5141 8.98672L17.3667 9.50928ZM17.7444 8.176C17.7444 7.70649 17.6154 7.26726 17.3628 6.86847L16.518 7.40353C16.6708 7.64474 16.7444 7.89884 16.7444 8.176H17.7444ZM17.3728 6.88493C17.1349 6.47514 16.8027 6.15086 16.3856 5.91621L15.8953 6.78779C16.1608 6.93714 16.362 7.13552 16.508 7.38707L17.3728 6.88493ZM16.3915 5.9196C15.9842 5.68312 15.5402 5.564 15.0684 5.564V6.564C15.3646 6.564 15.6353 6.63687 15.8894 6.78439L16.3915 5.9196ZM15.0684 5.564H12.6844V6.564H15.0684V5.564ZM12.1844 11.024V15.28H13.1844V11.024H12.1844ZM12.6844 15.78H15.4684V14.78H12.6844V15.78ZM15.4684 15.78C15.9349 15.78 16.3751 15.6689 16.7809 15.4464L16.3 14.5696C16.0444 14.7098 15.77 14.78 15.4684 14.78V15.78ZM16.7856 15.4438C17.1965 15.2127 17.5304 14.8998 17.7788 14.5075L16.934 13.9725C16.7772 14.2202 16.5671 14.4193 16.2953 14.5722L16.7856 15.4438ZM17.7827 14.5013C18.0331 14.0928 18.1604 13.6452 18.1604 13.168H17.1604C17.1604 13.4588 17.0851 13.7259 16.9301 13.9787L17.7827 14.5013ZM18.1604 13.168C18.1604 12.6749 18.0358 12.2182 17.7788 11.8125L16.934 12.3475C17.0824 12.5818 17.1604 12.8505 17.1604 13.168H18.1604ZM17.7827 11.8187C17.5336 11.4122 17.1955 11.0938 16.775 10.8704L16.3059 11.7536C16.5681 11.8928 16.774 12.0865 16.9301 12.3413L17.7827 11.8187ZM16.7915 10.8796C16.3842 10.6431 15.9402 10.524 15.4684 10.524V11.524C15.7646 11.524 16.0353 11.5969 16.2894 11.7444L16.7915 10.8796ZM15.4684 10.524H12.6844V11.524H15.4684V10.524ZM19.8391 16H19.3391V16.5H19.8391V16ZM19.8391 5.36V4.86H19.3391V5.36H19.8391ZM20.5751 5.36H21.0751V4.86H20.5751V5.36ZM20.5751 16V16.5H21.0751V16H20.5751ZM20.3391 16V5.36H19.3391V16H20.3391ZM19.8391 5.86H20.5751V4.86H19.8391V5.86ZM20.0751 5.36V16H21.0751V5.36H20.0751ZM20.5751 15.5H19.8391V16.5H20.5751V15.5ZM24.5188 15.76L24.7182 15.3015L24.5188 15.76ZM23.2228 14.88L22.8693 15.2336L22.8693 15.2336L23.2228 14.88ZM22.3428 13.584L21.8843 13.7834L21.8843 13.7834L22.3428 13.584ZM22.3428 10.448L22.8029 10.6438L22.8029 10.6438L22.3428 10.448ZM23.2228 9.136L22.8693 8.78245L22.8693 8.78245L23.2228 9.136ZM24.5188 8.272L24.7097 8.73421L24.7182 8.73053L24.5188 8.272ZM27.6548 8.272L27.459 8.73215L27.4674 8.73555L27.6548 8.272ZM28.9668 9.136L29.3204 8.78245L29.3204 8.78245L28.9668 9.136ZM29.8308 10.448L29.3672 10.6354L29.3707 10.6438L29.8308 10.448ZM29.8308 13.584L29.3722 13.3846L29.3687 13.3931L29.8308 13.584ZM28.9668 14.88L29.3204 15.2336L29.3204 15.2336L28.9668 14.88ZM27.6548 15.76L27.459 15.2999L27.459 15.2999L27.6548 15.76ZM24.7908 8.928L24.5968 8.46716L24.5924 8.46907L24.7908 8.928ZM23.7348 9.648L24.0884 10.0016L24.0884 10.0016L23.7348 9.648ZM22.9988 10.736L22.5404 10.5362L22.5362 10.5462L22.9988 10.736ZM22.9988 13.312L22.5379 13.5061L22.5424 13.5162L22.9988 13.312ZM23.7348 14.384L23.3813 14.7376L23.3813 14.7376L23.7348 14.384ZM24.7908 15.12L24.5821 15.5743L24.5894 15.5777L24.5968 15.5808L24.7908 15.12ZM27.3668 15.12L27.5566 15.5827L27.5666 15.5783L27.3668 15.12ZM28.4388 14.384L28.0852 14.0304L28.0791 14.0367L28.4388 14.384ZM29.1428 10.736L28.6801 10.9258L28.6845 10.9358L29.1428 10.736ZM28.4388 9.648L28.0791 9.9953L28.0791 9.9953L28.4388 9.648ZM26.0708 15.58C25.5942 15.58 25.1449 15.487 24.7182 15.3015L24.3194 16.2185C24.8741 16.4597 25.4594 16.58 26.0708 16.58V15.58ZM24.7182 15.3015C24.2842 15.1128 23.9047 14.8548 23.5764 14.5264L22.8693 15.2336C23.2876 15.6518 23.772 15.9805 24.3194 16.2185L24.7182 15.3015ZM23.5764 14.5264C23.248 14.1981 22.99 13.8186 22.8013 13.3846L21.8843 13.7834C22.1223 14.3308 22.451 14.8153 22.8693 15.2336L23.5764 14.5264ZM22.8013 13.3846C22.6158 12.958 22.5228 12.5086 22.5228 12.032H21.5228C21.5228 12.6434 21.6431 13.2287 21.8843 13.7834L22.8013 13.3846ZM22.5228 12.032C22.5228 11.5434 22.6164 11.0821 22.8029 10.6438L21.8827 10.2522C21.6426 10.8166 21.5228 11.4113 21.5228 12.032H22.5228ZM22.8029 10.6438C22.992 10.1995 23.2498 9.81615 23.5764 9.48955L22.8693 8.78245C22.4492 9.20252 22.1203 9.69388 21.8827 10.2522L22.8029 10.6438ZM23.5764 9.48955C23.9029 9.16303 24.2795 8.91181 24.7097 8.73413L24.3279 7.80987C23.7768 8.03752 23.2894 8.3623 22.8693 8.78245L23.5764 9.48955ZM24.7182 8.73053C25.1449 8.54502 25.5942 8.452 26.0708 8.452V7.452C25.4594 7.452 24.8741 7.57231 24.3194 7.81346L24.7182 8.73053ZM26.0708 8.452C26.5594 8.452 27.0207 8.54557 27.459 8.73208L27.8506 7.81192C27.2862 7.57176 26.6915 7.452 26.0708 7.452V8.452ZM27.4674 8.73555C27.9081 8.9137 28.2885 9.16483 28.6133 9.48955L29.3204 8.78245C28.8984 8.36051 28.4042 8.03563 27.8422 7.80844L27.4674 8.73555ZM28.6133 9.48955C28.938 9.81428 29.1891 10.1947 29.3673 10.6354L30.2944 10.2606C30.0672 9.69861 29.7423 9.20439 29.3204 8.78245L28.6133 9.48955ZM29.3707 10.6438C29.5572 11.0821 29.6508 11.5434 29.6508 12.032H30.6508C30.6508 11.4113 30.5311 10.8166 30.2909 10.2522L29.3707 10.6438ZM29.6508 12.032C29.6508 12.5086 29.5578 12.958 29.3723 13.3846L30.2893 13.7834C30.5305 13.2287 30.6508 12.6434 30.6508 12.032H29.6508ZM29.3687 13.3931C29.191 13.8233 28.9398 14.1999 28.6133 14.5264L29.3204 15.2336C29.7405 14.8134 30.0653 14.326 30.2929 13.7749L29.3687 13.3931ZM28.6133 14.5264C28.2867 14.853 27.9034 15.1108 27.459 15.2999L27.8506 16.2201C28.4089 15.9825 28.9003 15.6536 29.3204 15.2336L28.6133 14.5264ZM27.459 15.2999C27.0207 15.4864 26.5594 15.58 26.0708 15.58V16.58C26.6915 16.58 27.2862 16.4602 27.8506 16.2201L27.459 15.2999ZM26.0708 8.172C25.5574 8.172 25.0647 8.27016 24.5968 8.46718L24.9848 9.38882C25.3276 9.2445 25.6882 9.172 26.0708 9.172V8.172ZM24.5924 8.46907C24.1388 8.66521 23.7344 8.94131 23.3813 9.29445L24.0884 10.0016C24.3539 9.73602 24.6535 9.53212 24.9893 9.38693L24.5924 8.46907ZM23.3813 9.29445C23.026 9.64967 22.7459 10.065 22.5405 10.5362L23.4572 10.9358C23.6144 10.575 23.8249 10.265 24.0884 10.0016L23.3813 9.29445ZM22.5362 10.5462C22.3409 11.0222 22.2428 11.5187 22.2428 12.032H23.2428C23.2428 11.6493 23.3153 11.2818 23.4614 10.9258L22.5362 10.5462ZM22.2428 12.032C22.2428 12.5454 22.341 13.0381 22.538 13.506L23.4596 13.118C23.3153 12.7752 23.2428 12.4146 23.2428 12.032H22.2428ZM22.5424 13.5162C22.7482 13.9763 23.0282 14.3845 23.3813 14.7376L24.0884 14.0304C23.8228 13.7649 23.612 13.4584 23.4552 13.1078L22.5424 13.5162ZM23.3813 14.7376C23.7322 15.0885 24.1331 15.3681 24.5821 15.5743L24.9996 14.6657C24.6592 14.5093 24.3561 14.2982 24.0884 14.0304L23.3813 14.7376ZM24.5968 15.5808C25.0647 15.7778 25.5574 15.876 26.0708 15.876V14.876C25.6882 14.876 25.3276 14.8035 24.9848 14.6592L24.5968 15.5808ZM26.0708 15.876C26.5842 15.876 27.0806 15.7779 27.5566 15.5826L27.177 14.6574C26.821 14.8035 26.4535 14.876 26.0708 14.876V15.876ZM27.5666 15.5783C28.0393 15.3723 28.4518 15.0903 28.7985 14.7313L28.0791 14.0367C27.8284 14.2963 27.5263 14.505 27.167 14.6617L27.5666 15.5783ZM28.7924 14.7376C29.1477 14.3822 29.424 13.9706 29.6196 13.506L28.698 13.118C28.5523 13.464 28.3486 13.7671 28.0853 14.0304L28.7924 14.7376ZM29.6196 13.506C29.8166 13.0381 29.9148 12.5454 29.9148 12.032H28.9148C28.9148 12.4146 28.8423 12.7752 28.698 13.118L29.6196 13.506ZM29.9148 12.032C29.9148 11.5143 29.8096 11.0144 29.6012 10.5362L28.6845 10.9358C28.8387 11.2896 28.9148 11.6537 28.9148 12.032H29.9148ZM29.6054 10.5462C29.4118 10.0744 29.1431 9.65763 28.7985 9.3007L28.0791 9.9953C28.3318 10.257 28.5325 10.5656 28.6802 10.9258L29.6054 10.5462ZM28.7985 9.3007C28.4496 8.93933 28.0336 8.66112 27.5566 8.46542L27.177 9.39058C27.532 9.53622 27.8307 9.73801 28.0791 9.9953L28.7985 9.3007ZM27.5566 8.46542C27.0806 8.27014 26.5842 8.172 26.0708 8.172V9.172C26.4535 9.172 26.821 9.24453 27.177 9.39058L27.5566 8.46542ZM33.5006 19.056L33.7089 18.6014L33.701 18.5979L33.5006 19.056ZM32.1566 18.112L31.904 17.6805L31.3604 17.9987L31.7936 18.4559L32.1566 18.112ZM32.8126 17.728L33.1723 17.3807L32.8992 17.0979L32.56 17.2965L32.8126 17.728ZM33.8526 18.432L34.0466 17.9711L34.0404 17.9686L33.8526 18.432ZM36.4286 18.432L36.2449 17.9668L36.2345 17.9712L36.4286 18.432ZM37.4846 17.744L37.1374 17.384L37.131 17.3904L37.4846 17.744ZM38.1886 16.704L37.7296 16.5055L37.7277 16.51L38.1886 16.704ZM38.4446 14.16H38.9446V12.5207L38.0297 13.881L38.4446 14.16ZM33.5806 15.648L33.3728 16.103L33.3848 16.1081L33.5806 15.648ZM32.3006 14.736L32.6641 14.3927L32.6591 14.3875L32.3006 14.736ZM31.4206 13.424L30.9584 13.6149L30.962 13.6234L31.4206 13.424ZM31.4206 10.384L30.962 10.1846L30.9599 10.1895L31.4206 10.384ZM32.3006 9.12L32.6436 9.48383L32.6488 9.47879L32.3006 9.12ZM33.5806 8.304L33.7628 8.7697L33.7714 8.76613L33.5806 8.304ZM37.1006 8.48L37.3434 8.04292L37.3434 8.04292L37.1006 8.48ZM38.4446 9.84L38.0056 10.0794L38.9446 9.84H38.4446ZM38.4446 8.208V7.708H37.9446V8.208H38.4446ZM39.1806 8.208H39.6806V7.708H39.1806V8.208ZM38.8606 16.976L38.4036 16.7729L38.3999 16.7815L38.8606 16.976ZM37.9966 18.24L37.6481 17.8813L37.643 17.8864L37.9966 18.24ZM36.7006 19.088L36.5131 18.6243L36.5012 18.6295L36.7006 19.088ZM33.8526 8.992L34.0362 9.45712L34.0423 9.45458L33.8526 8.992ZM32.7966 9.68L33.1437 10.04L33.1501 10.0336L32.7966 9.68ZM32.0766 10.736L31.6181 10.5362L31.614 10.5462L32.0766 10.736ZM32.0766 13.264L31.6176 13.4625L31.6197 13.4671L32.0766 13.264ZM32.7966 14.304L33.1501 13.9504L33.1501 13.9504L32.7966 14.304ZM33.8526 15.008L33.6585 15.4688L33.6628 15.4706L33.8526 15.008ZM36.3806 15.008L36.1865 14.5472L36.1821 14.5491L36.3806 15.008ZM37.4526 14.304L37.7999 14.6638L37.8061 14.6576L37.4526 14.304ZM38.1566 13.264L37.7021 13.0552L37.6976 13.0655L38.1566 13.264ZM38.1566 10.736L37.6939 10.9258L37.6982 10.9358L38.1566 10.736ZM37.4526 9.68L37.099 10.0336L37.1055 10.0399L37.4526 9.68ZM36.3966 8.992L36.2025 9.45293L36.213 9.45708L36.3966 8.992ZM35.1486 18.908C34.6307 18.908 34.1528 18.8049 33.7089 18.6015L33.2922 19.5105C33.8723 19.7764 34.4931 19.908 35.1486 19.908V18.908ZM33.701 18.5979C33.2502 18.4007 32.8575 18.1249 32.5195 17.7681L31.7936 18.4559C32.2236 18.9098 32.7269 19.2633 33.3002 19.5141L33.701 18.5979ZM32.4092 18.5435L33.0652 18.1595L32.56 17.2965L31.904 17.6805L32.4092 18.5435ZM32.4529 18.0753C32.7996 18.4344 33.2046 18.7089 33.6647 18.8954L34.0404 17.9686C33.7112 17.8351 33.4229 17.6403 33.1723 17.3807L32.4529 18.0753ZM33.6585 18.8928C34.1279 19.0905 34.6262 19.188 35.1486 19.188V18.188C34.7536 18.188 34.3879 18.1149 34.0466 17.9712L33.6585 18.8928ZM35.1486 19.188C35.6619 19.188 36.1547 19.0898 36.6226 18.8928L36.2345 17.9712C35.8918 18.1155 35.5312 18.188 35.1486 18.188V19.188ZM36.6121 18.8971C37.0791 18.7128 37.4895 18.4462 37.8381 18.0976L37.131 17.3904C36.8823 17.6391 36.5887 17.8312 36.245 17.9669L36.6121 18.8971ZM37.8316 18.1039C38.1819 17.7661 38.454 17.362 38.6494 16.898L37.7277 16.51C37.5818 16.8567 37.3845 17.1459 37.1375 17.3841L37.8316 18.1039ZM38.6475 16.9025C38.8457 16.444 38.9446 15.9604 38.9446 15.456H37.9446C37.9446 15.8263 37.8727 16.1746 37.7296 16.5055L38.6475 16.9025ZM38.9446 15.456V14.16H37.9446V15.456H38.9446ZM38.0297 13.881C37.3075 14.9547 36.3557 15.468 35.1326 15.468V16.468C36.7041 16.468 37.9603 15.776 38.8595 14.439L38.0297 13.881ZM35.1326 15.468C34.668 15.468 34.2171 15.3755 33.7763 15.1879L33.3848 16.1081C33.9467 16.3472 34.5305 16.468 35.1326 16.468V15.468ZM33.7882 15.1932C33.3549 14.9954 32.9815 14.7288 32.6641 14.3927L31.9371 15.0793C32.3449 15.5112 32.8249 15.8526 33.3729 16.1028L33.7882 15.1932ZM32.6591 14.3875C32.3278 14.0467 32.0683 13.6599 31.8791 13.2246L30.962 13.6234C31.1995 14.1694 31.5267 14.6573 31.9421 15.0845L32.6591 14.3875ZM31.8827 13.2331C31.7046 12.802 31.6166 12.3601 31.6166 11.904H30.6166C30.6166 12.4932 30.7312 13.0647 30.9584 13.6149L31.8827 13.2331ZM31.6166 11.904C31.6166 11.4359 31.7051 10.9955 31.8812 10.5785L30.9599 10.1895C30.7307 10.7325 30.6166 11.3055 30.6166 11.904H31.6166ZM31.8791 10.5834C32.0666 10.1521 32.3216 9.78738 32.6436 9.48379L31.9576 8.75621C31.5329 9.15661 31.2012 9.63461 30.962 10.1846L31.8791 10.5834ZM32.6488 9.47879C32.9617 9.17505 33.3313 8.93845 33.7628 8.76962L33.3984 7.83838C32.8485 8.05355 32.3647 8.36095 31.9523 8.76121L32.6488 9.47879ZM33.7714 8.76613C34.2001 8.58909 34.6524 8.5 35.1326 8.5V7.5C34.5247 7.5 33.9424 7.61358 33.3897 7.84187L33.7714 8.76613ZM35.1326 8.5C35.7937 8.5 36.3644 8.643 36.8577 8.91708L37.3434 8.04292C36.6847 7.677 35.9434 7.5 35.1326 7.5V8.5ZM36.8577 8.91708C37.3497 9.19041 37.7303 9.57464 38.0056 10.0794L38.8835 9.60057C38.5189 8.93203 38.0034 8.40959 37.3434 8.04292L36.8577 8.91708ZM38.9446 9.84V8.208H37.9446V9.84H38.9446ZM38.4446 8.708H39.1806V7.708H38.4446V8.708ZM38.6806 8.208V15.456H39.6806V8.208H38.6806ZM38.6806 15.456C38.6806 15.9205 38.5881 16.3579 38.4037 16.7729L39.3175 17.1791C39.5597 16.6341 39.6806 16.0582 39.6806 15.456H38.6806ZM38.3999 16.7815C38.2233 17.1999 37.9734 17.5654 37.6482 17.8814L38.345 18.5986C38.7664 18.1893 39.0925 17.7121 39.3212 17.1705L38.3999 16.7815ZM37.643 17.8864C37.3303 18.1991 36.9557 18.4455 36.5132 18.6244L36.888 19.5516C37.4481 19.3251 37.9375 19.0062 38.3501 18.5936L37.643 17.8864ZM36.5012 18.6295C36.0745 18.815 35.6251 18.908 35.1486 18.908V19.908C35.76 19.908 36.3453 19.7877 36.8999 19.5465L36.5012 18.6295ZM35.1326 8.236C34.6283 8.236 34.1373 8.33475 33.6628 8.52942L34.0423 9.45458C34.3999 9.30791 34.7622 9.236 35.1326 9.236V8.236ZM33.669 8.52692C33.202 8.71125 32.7916 8.97781 32.443 9.32645L33.1501 10.0336C33.3988 9.78486 33.6924 9.59275 34.0361 9.45708L33.669 8.52692ZM32.4495 9.32008C32.0993 9.65774 31.8233 10.0657 31.6182 10.5362L32.5349 10.9358C32.6925 10.5743 32.8965 10.2783 33.1436 10.0399L32.4495 9.32008ZM31.614 10.5462C31.4193 11.0207 31.3206 11.5117 31.3206 12.016H32.3206C32.3206 11.6456 32.3925 11.2833 32.5391 10.9258L31.614 10.5462ZM31.3206 12.016C31.3206 12.5204 31.4194 13.004 31.6176 13.4625L32.5355 13.0655C32.3924 12.7346 32.3206 12.3863 32.3206 12.016H31.3206ZM31.6197 13.4671C31.8163 13.9094 32.0921 14.3066 32.443 14.6576L33.1501 13.9504C32.8824 13.6827 32.6782 13.3866 32.5335 13.0609L31.6197 13.4671ZM32.443 14.6576C32.7893 15.0038 33.1961 15.2741 33.6585 15.4688L34.0466 14.5472C33.6984 14.4006 33.4012 14.2015 33.1501 13.9504L32.443 14.6576ZM33.6628 15.4706C34.1373 15.6652 34.6283 15.764 35.1326 15.764V14.764C34.7622 14.764 34.3999 14.6921 34.0423 14.5454L33.6628 15.4706ZM35.1326 15.764C35.637 15.764 36.1206 15.6652 36.579 15.4669L36.1821 14.5491C35.8512 14.6922 35.5028 14.764 35.1326 14.764V15.764ZM36.5746 15.4688C37.0355 15.2748 37.4451 15.0062 37.7999 14.6637L37.1053 13.9443C36.8414 14.1991 36.5363 14.3999 36.1865 14.5472L36.5746 15.4688ZM37.8061 14.6576C38.1502 14.3135 38.4203 13.9139 38.6155 13.4625L37.6976 13.0655C37.5515 13.4034 37.3523 13.6972 37.099 13.9504L37.8061 14.6576ZM38.6109 13.4727C38.8225 13.0121 38.9286 12.5249 38.9286 12.016H37.9286C37.9286 12.3818 37.8533 12.7265 37.7022 13.0552L38.6109 13.4727ZM38.9286 12.016C38.9286 11.5073 38.8227 11.0128 38.6149 10.5362L37.6982 10.9358C37.8531 11.2912 37.9286 11.65 37.9286 12.016H38.9286ZM38.6191 10.5462C38.4244 10.0715 38.1522 9.66009 37.7996 9.32008L37.1055 10.0399C37.3502 10.2759 37.5474 10.5685 37.694 10.9258L38.6191 10.5462ZM37.8061 9.32645C37.4575 8.97781 37.0471 8.71125 36.5801 8.52692L36.213 9.45708C36.5567 9.59275 36.8503 9.78486 37.099 10.0336L37.8061 9.32645ZM36.5906 8.53118C36.1242 8.3348 35.6369 8.236 35.1326 8.236V9.236C35.5029 9.236 35.8583 9.30786 36.2025 9.45282L36.5906 8.53118ZM45.4966 15.376L45.8345 15.7446L45.8416 15.7379L45.4966 15.376ZM41.3206 15.36L40.9726 15.7192L40.9786 15.7248L41.3206 15.36ZM40.6326 14.144V13.644H39.9956L40.1469 14.2627L40.6326 14.144ZM41.4166 14.144L41.8922 13.9897L41.78 13.644H41.4166V14.144ZM42.1686 15.056L41.9204 15.4902L41.93 15.4954L42.1686 15.056ZM44.9206 14.896L45.2342 15.2854L45.2372 15.283L44.9206 14.896ZM44.8246 12.608L45.0527 12.1631L45.0448 12.159L45.0368 12.1553L44.8246 12.608ZM41.8966 12.176L41.686 12.6295L41.6928 12.6326L41.6996 12.6356L41.8966 12.176ZM41.1286 11.616L40.7453 11.9371L40.7518 11.9449L40.7586 11.9523L41.1286 11.616ZM40.8566 9.184L41.3097 9.39546L41.3122 9.38979L40.8566 9.184ZM41.4966 8.4L41.2129 7.98824L41.212 7.9889L41.4966 8.4ZM45.0006 8.288L44.748 8.71953L44.7525 8.72212L45.0006 8.288ZM45.7846 9.056L46.2087 8.79093L46.2026 8.78167L45.7846 9.056ZM46.1206 9.872V10.372H46.7439L46.6087 9.76353L46.1206 9.872ZM45.3366 9.872L44.8576 10.0157L44.9645 10.372H45.3366V9.872ZM45.1446 9.408L44.7257 9.68115L44.7285 9.68535L45.1446 9.408ZM43.4646 8.624L43.4845 8.1244L43.4746 8.124H43.4646V8.624ZM42.2966 8.8L42.1079 8.33695L42.1007 8.33991L42.0935 8.34309L42.2966 8.8ZM41.4486 10.592L41.9309 10.4604L41.9273 10.4471L41.9229 10.4339L41.4486 10.592ZM42.2806 11.488L42.4534 11.0188L42.439 11.0135L42.4242 11.0091L42.2806 11.488ZM42.9526 11.616L42.9308 12.1155L42.9317 12.1156L42.9526 11.616ZM43.4006 11.632L43.4262 11.1327L43.4134 11.132H43.4006V11.632ZM44.4086 11.728L44.3264 12.2212L44.3264 12.2212L44.4086 11.728ZM45.2086 12L45.4379 11.5557L45.4322 11.5528L45.2086 12ZM46.2006 13.84L46.7006 13.8491V13.84H46.2006ZM45.1587 15.0074C44.7565 15.3761 44.2136 15.58 43.4806 15.58V16.58C44.4115 16.58 45.2126 16.3146 45.8344 15.7446L45.1587 15.0074ZM43.4806 15.58C42.6376 15.58 42.0552 15.3633 41.6625 14.9952L40.9786 15.7248C41.6099 16.3167 42.4675 16.58 43.4806 16.58V15.58ZM41.6685 15.0009C41.3976 14.7384 41.2142 14.4176 41.1183 14.0253L40.1469 14.2627C40.2856 14.8304 40.5609 15.3202 40.9727 15.7191L41.6685 15.0009ZM40.6326 14.644H41.4166V13.644H40.6326V14.644ZM40.941 14.2983C41.1088 14.8159 41.4435 15.2175 41.9205 15.4901L42.4166 14.6219C42.147 14.4678 41.9803 14.2614 41.8922 13.9897L40.941 14.2983ZM41.93 15.4954C42.384 15.7419 42.8888 15.86 43.4326 15.86V14.86C43.0376 14.86 42.6998 14.7754 42.4071 14.6166L41.93 15.4954ZM43.4326 15.86C44.1273 15.86 44.7422 15.6818 45.2342 15.2854L44.6069 14.5066C44.331 14.7289 43.9538 14.86 43.4326 14.86V15.86ZM45.2372 15.283C45.6965 14.9072 45.9486 14.4116 45.9486 13.824H44.9486C44.9486 14.0897 44.8487 14.3088 44.6039 14.509L45.2372 15.283ZM45.9486 13.824C45.9486 13.1007 45.6841 12.4869 45.0527 12.1631L44.5964 13.0529C44.797 13.1558 44.9486 13.3526 44.9486 13.824H45.9486ZM45.0368 12.1553C44.5965 11.9489 44.008 11.868 43.3206 11.868V12.868C43.9558 12.868 44.3699 12.9471 44.6123 13.0607L45.0368 12.1553ZM43.3206 11.868C42.6833 11.868 42.2943 11.8025 42.0935 11.7164L41.6996 12.6356C42.0961 12.8055 42.6565 12.868 43.3206 12.868V11.868ZM42.1071 11.7225C41.8665 11.6108 41.6653 11.4632 41.4985 11.2797L40.7586 11.9523C41.0184 12.2382 41.3293 12.4639 41.686 12.6295L42.1071 11.7225ZM41.5118 11.2949C41.2611 10.9956 41.1326 10.6418 41.1326 10.208H40.1326C40.1326 10.8622 40.3347 11.4471 40.7453 11.9371L41.5118 11.2949ZM41.1326 10.208C41.1326 9.91636 41.1921 9.64742 41.3097 9.39544L40.4035 8.97256C40.2224 9.36058 40.1326 9.7743 40.1326 10.208H41.1326ZM41.3122 9.38979C41.4272 9.13533 41.5841 8.94754 41.7812 8.8111L41.212 7.9889C40.8544 8.23646 40.5846 8.57134 40.4009 8.97821L41.3122 9.38979ZM41.7802 8.81175C42.154 8.55427 42.6701 8.404 43.3686 8.404V7.404C42.531 7.404 41.7992 7.58439 41.2129 7.98825L41.7802 8.81175ZM43.3686 8.404C43.9552 8.404 44.4061 8.51939 44.748 8.71951L45.2532 7.85649C44.7204 7.54461 44.0833 7.404 43.3686 7.404V8.404ZM44.7525 8.72212C44.971 8.847 45.1778 9.04267 45.3665 9.33033L46.2026 8.78167C45.9434 8.38667 45.6274 8.07034 45.2486 7.85388L44.7525 8.72212ZM45.3606 9.321C45.4912 9.52998 45.5811 9.7492 45.6325 9.98046L46.6087 9.76353C46.532 9.4188 46.398 9.09402 46.2086 8.791L45.3606 9.321ZM46.1206 9.372H45.3366V10.372H46.1206V9.372ZM45.8155 9.72833C45.7479 9.503 45.667 9.2902 45.5606 9.13065L44.7285 9.68535C44.7502 9.7178 44.7972 9.81433 44.8576 10.0157L45.8155 9.72833ZM45.5634 9.13487C45.1248 8.46237 44.3819 8.16029 43.4845 8.1244L43.4446 9.1236C44.1472 9.1517 44.5243 9.37229 44.7258 9.68113L45.5634 9.13487ZM43.4646 8.124C42.9424 8.124 42.4803 8.18523 42.1079 8.33695L42.4852 9.26305C42.6888 9.1801 43.0054 9.124 43.4646 9.124V8.124ZM42.0935 8.34309C41.7244 8.50715 41.4225 8.75457 41.2058 9.08687L42.0434 9.63313C42.1467 9.47477 42.2928 9.34885 42.4996 9.25691L42.0935 8.34309ZM41.2058 9.08687C40.9937 9.41198 40.8846 9.77327 40.8846 10.16H41.8846C41.8846 9.97073 41.9354 9.79869 42.0434 9.63313L41.2058 9.08687ZM40.8846 10.16C40.8846 10.364 40.9117 10.5627 40.9742 10.7501L41.9229 10.4339C41.9001 10.3653 41.8846 10.276 41.8846 10.16H40.8846ZM40.9662 10.7236C41.1346 11.341 41.5275 11.7841 42.1369 11.9669L42.4242 11.0091C42.1803 10.9359 42.0185 10.7817 41.9309 10.4604L40.9662 10.7236ZM42.1077 11.9572C42.365 12.052 42.6408 12.1029 42.9308 12.1155L42.9743 11.1165C42.7736 11.1077 42.6014 11.0734 42.4534 11.0188L42.1077 11.9572ZM42.9317 12.1156C43.1812 12.126 43.3446 12.132 43.4006 12.132V11.132C43.3712 11.132 43.2359 11.1274 42.9734 11.1164L42.9317 12.1156ZM43.375 12.1313C43.7818 12.1522 44.0968 12.1829 44.3264 12.2212L44.4908 11.2348C44.2083 11.1877 43.8513 11.1545 43.4262 11.1327L43.375 12.1313ZM44.3264 12.2212C44.5247 12.2543 44.7438 12.3266 44.985 12.4472L45.4322 11.5528C45.1187 11.396 44.8044 11.2871 44.4908 11.2348L44.3264 12.2212ZM44.9792 12.4443C45.4394 12.6818 45.7006 13.0988 45.7006 13.84H46.7006C46.7006 12.8105 46.3004 12.0009 45.4379 11.5557L44.9792 12.4443ZM45.7006 13.8309C45.6926 14.2726 45.5221 14.6608 45.1515 15.0141L45.8416 15.7379C46.3884 15.2165 46.6872 14.5807 46.7005 13.8491L45.7006 13.8309Z" fill="white"/>
<path d="M16 30L11.6699 22.5H20.3301L16 30Z" fill="#FD841F"/>
</svg>
