<svg width="91" height="30" viewBox="0 0 91 30" fill="none" xmlns="http://www.w3.org/2000/svg">
<rect width="91" height="23" fill="#FD841F"/>
<path d="M14.1496 16.064C13.4136 16.064 12.7149 15.9253 12.0536 15.648C11.4029 15.3707 10.8269 14.9813 10.3256 14.48C9.82423 13.9893 9.4349 13.4187 9.15756 12.768C8.88023 12.1067 8.74156 11.4133 8.74156 10.688C8.74156 9.96267 8.88023 9.27467 9.15756 8.624C9.4349 7.96267 9.82423 7.38133 10.3256 6.88C10.8269 6.38933 11.4082 6.00533 12.0696 5.728C12.7309 5.45067 13.4242 5.312 14.1496 5.312C14.9176 5.312 15.6429 5.46133 16.3256 5.76C17.0082 6.048 17.6056 6.47467 18.1176 7.04L17.5576 7.504C17.1096 7.03467 16.5922 6.67733 16.0056 6.432C15.4189 6.176 14.8002 6.048 14.1496 6.048C13.5202 6.048 12.9176 6.17067 12.3416 6.416C11.7762 6.65067 11.2802 6.98133 10.8536 7.408C10.4162 7.83467 10.0749 8.33067 9.82956 8.896C9.5949 9.46133 9.47756 10.0587 9.47756 10.688C9.47756 11.3173 9.5949 11.9147 9.82956 12.48C10.0749 13.0453 10.4162 13.5413 10.8536 13.968C11.2802 14.3947 11.7762 14.7307 12.3416 14.976C12.9176 15.2107 13.5202 15.328 14.1496 15.328C14.8002 15.328 15.4189 15.2053 16.0056 14.96C16.5922 14.704 17.1096 14.3413 17.5576 13.872L18.1016 14.336C17.5896 14.8907 16.9922 15.3173 16.3096 15.616C15.6269 15.9147 14.9069 16.064 14.1496 16.064ZM26.4293 16V14.16C26.024 14.8213 25.544 15.3067 24.9893 15.616C24.4453 15.9253 23.8213 16.08 23.1173 16.08C22.5626 16.08 22.04 15.9787 21.5493 15.776C21.0693 15.5733 20.6426 15.2853 20.2693 14.912C19.896 14.5493 19.6026 14.1227 19.3893 13.632C19.1866 13.1307 19.0853 12.608 19.0853 12.064C19.0853 11.52 19.1866 11.0027 19.3893 10.512C19.6026 10.0107 19.896 9.57333 20.2693 9.2C20.6426 8.82667 21.0693 8.53867 21.5493 8.336C22.04 8.13333 22.5626 8.032 23.1173 8.032C23.8853 8.032 24.5466 8.18133 25.1013 8.48C25.6666 8.77867 26.1093 9.22133 26.4293 9.808V8.224H27.1653V16H26.4293ZM23.1173 8.752C22.6693 8.752 22.2373 8.83733 21.8213 9.008C21.416 9.17867 21.064 9.41333 20.7653 9.712C20.4666 10.0107 20.232 10.368 20.0613 10.784C19.8906 11.1893 19.8053 11.616 19.8053 12.064C19.8053 12.512 19.8906 12.9387 20.0613 13.344C20.232 13.7493 20.4666 14.1013 20.7653 14.4C21.064 14.6987 21.416 14.9333 21.8213 15.104C22.2373 15.2747 22.6693 15.36 23.1173 15.36C23.5546 15.36 23.976 15.2747 24.3813 15.104C24.7866 14.9333 25.1386 14.6987 25.4373 14.4C25.736 14.1013 25.9706 13.7493 26.1413 13.344C26.3226 12.9387 26.4133 12.512 26.4133 12.064C26.4133 11.616 26.328 11.1893 26.1573 10.784C25.9866 10.368 25.752 10.0107 25.4533 9.712C25.1546 9.41333 24.8026 9.17867 24.3973 9.008C23.992 8.83733 23.5653 8.752 23.1173 8.752ZM33.1684 15.376C32.6564 15.8453 31.9844 16.08 31.1524 16.08C30.2244 16.08 29.5044 15.84 28.9924 15.36C28.6511 15.0293 28.4218 14.624 28.3044 14.144H29.0884C29.2164 14.5387 29.4671 14.8427 29.8404 15.056C30.2138 15.2587 30.6351 15.36 31.1044 15.36C31.7124 15.36 32.2084 15.2053 32.5924 14.896C32.9444 14.608 33.1204 14.2507 33.1204 13.824C33.1204 13.2267 32.9124 12.8213 32.4964 12.608C32.1551 12.448 31.6538 12.368 30.9924 12.368C30.3418 12.368 29.8671 12.304 29.5684 12.176C29.2698 12.0373 29.0138 11.8507 28.8004 11.616C28.4698 11.2213 28.3044 10.752 28.3044 10.208C28.3044 9.84533 28.3791 9.504 28.5284 9.184C28.6778 8.85333 28.8911 8.592 29.1684 8.4C29.6484 8.06933 30.2724 7.904 31.0404 7.904C31.6911 7.904 32.2351 8.032 32.6724 8.288C32.9711 8.45867 33.2324 8.71467 33.4564 9.056C33.6164 9.312 33.7284 9.584 33.7924 9.872H33.0084C32.9444 9.65867 32.8804 9.504 32.8164 9.408C32.4964 8.91733 31.9364 8.656 31.1364 8.624C30.6458 8.624 30.2564 8.68267 29.9684 8.8C29.6804 8.928 29.4564 9.11467 29.2964 9.36C29.1364 9.60533 29.0564 9.872 29.0564 10.16C29.0564 10.32 29.0778 10.464 29.1204 10.592C29.2484 11.0613 29.5258 11.36 29.9524 11.488C30.1551 11.5627 30.3791 11.6053 30.6244 11.616C30.8804 11.6267 31.0298 11.632 31.0724 11.632C31.4884 11.6533 31.8244 11.6853 32.0804 11.728C32.3364 11.7707 32.6031 11.8613 32.8804 12C33.5418 12.3413 33.8724 12.9547 33.8724 13.84C33.8618 14.4267 33.6271 14.9387 33.1684 15.376ZM35.6029 12.416C35.7736 13.3013 36.1629 14.0107 36.7709 14.544C37.3683 15.0773 38.0723 15.344 38.8829 15.344C39.4376 15.344 39.9443 15.2213 40.4029 14.976C40.8616 14.7307 41.2509 14.3947 41.5709 13.968L42.2109 14.32C41.8269 14.864 41.3469 15.296 40.7709 15.616C40.1949 15.9253 39.5656 16.08 38.8829 16.08C38.3389 16.08 37.8216 15.9787 37.3309 15.776C36.8403 15.5627 36.4083 15.2693 36.0349 14.896C35.6616 14.5227 35.3683 14.0907 35.1549 13.6C34.9523 13.1093 34.8509 12.592 34.8509 12.048C34.8509 11.504 34.9523 10.9867 35.1549 10.496C35.3683 9.99467 35.6616 9.55733 36.0349 9.184C36.3976 8.81067 36.8243 8.52267 37.3149 8.32C37.8163 8.11733 38.3389 8.016 38.8829 8.016C39.4269 8.016 39.9443 8.11733 40.4349 8.32C40.9363 8.52267 41.3683 8.81067 41.7309 9.184C42.0723 9.536 42.3549 9.98933 42.5789 10.544C42.8136 11.0987 42.9309 11.6373 42.9309 12.16L42.9149 12.416H35.6029ZM38.8829 8.736C38.0723 8.736 37.3683 9.00267 36.7709 9.536C36.1629 10.0693 35.7736 10.7787 35.6029 11.664H42.1629C41.9923 10.7787 41.6029 10.0693 40.9949 9.536C40.3976 9.00267 39.6936 8.736 38.8829 8.736ZM48.9341 15.376C48.4221 15.8453 47.7501 16.08 46.9181 16.08C45.9901 16.08 45.2701 15.84 44.7581 15.36C44.4167 15.0293 44.1874 14.624 44.0701 14.144H44.8541C44.9821 14.5387 45.2327 14.8427 45.6061 15.056C45.9794 15.2587 46.4007 15.36 46.8701 15.36C47.4781 15.36 47.9741 15.2053 48.3581 14.896C48.7101 14.608 48.8861 14.2507 48.8861 13.824C48.8861 13.2267 48.6781 12.8213 48.2621 12.608C47.9207 12.448 47.4194 12.368 46.7581 12.368C46.1074 12.368 45.6327 12.304 45.3341 12.176C45.0354 12.0373 44.7794 11.8507 44.5661 11.616C44.2354 11.2213 44.0701 10.752 44.0701 10.208C44.0701 9.84533 44.1447 9.504 44.2941 9.184C44.4434 8.85333 44.6567 8.592 44.9341 8.4C45.4141 8.06933 46.0381 7.904 46.8061 7.904C47.4567 7.904 48.0007 8.032 48.4381 8.288C48.7367 8.45867 48.9981 8.71467 49.2221 9.056C49.3821 9.312 49.4941 9.584 49.5581 9.872H48.7741C48.7101 9.65867 48.6461 9.504 48.5821 9.408C48.2621 8.91733 47.7021 8.656 46.9021 8.624C46.4114 8.624 46.0221 8.68267 45.7341 8.8C45.4461 8.928 45.2221 9.11467 45.0621 9.36C44.9021 9.60533 44.8221 9.872 44.8221 10.16C44.8221 10.32 44.8434 10.464 44.8861 10.592C45.0141 11.0613 45.2914 11.36 45.7181 11.488C45.9207 11.5627 46.1447 11.6053 46.3901 11.616C46.6461 11.6267 46.7954 11.632 46.8381 11.632C47.2541 11.6533 47.5901 11.6853 47.8461 11.728C48.1021 11.7707 48.3687 11.8613 48.6461 12C49.3074 12.3413 49.6381 12.9547 49.6381 13.84C49.6274 14.4267 49.3927 14.9387 48.9341 15.376ZM53.1851 8.72V16H52.4491V8.72H50.9291V8H52.4491V5.36H53.1851V8H54.6891V8.72H53.1851ZM61.5919 15.92V14.816C61.2079 15.2853 60.8186 15.6107 60.4239 15.792C60.0293 15.9733 59.6079 16.064 59.1599 16.064C58.7226 16.064 58.3066 15.984 57.9119 15.824C57.5279 15.6533 57.1919 15.424 56.9039 15.136C56.6159 14.848 56.3866 14.5173 56.2159 14.144C56.0559 13.76 55.9759 13.36 55.9759 12.944V8H56.7279V12.944C56.7279 13.264 56.7919 13.568 56.9199 13.856C57.0479 14.144 57.2239 14.4 57.4479 14.624C57.9066 15.104 58.4773 15.344 59.1599 15.344C59.4799 15.344 59.7893 15.28 60.0879 15.152C60.3866 15.024 60.6479 14.848 60.8719 14.624C61.0959 14.4 61.2719 14.144 61.3999 13.856C61.5279 13.568 61.5919 13.264 61.5919 12.944V8H62.3279V15.92H61.5919ZM67.6489 16.08C67.1049 16.08 66.5823 15.9733 66.0809 15.76C65.5796 15.5467 65.1476 15.2587 64.7849 14.896C64.4116 14.5227 64.1183 14.096 63.9049 13.616C63.7023 13.1253 63.6009 12.6133 63.6009 12.08C63.6009 11.5467 63.7023 11.04 63.9049 10.56C64.1183 10.0693 64.4116 9.63733 64.7849 9.264C65.1476 8.90133 65.5796 8.61333 66.0809 8.4C66.5823 8.18667 67.1049 8.08 67.6489 8.08C68.4276 8.08 69.0889 8.224 69.6329 8.512C70.1876 8.78933 70.6463 9.248 71.0089 9.888V5.376H71.7129V16H71.0089V14.336C70.6569 14.9653 70.1983 15.4133 69.6329 15.68C69.0676 15.9467 68.4063 16.08 67.6489 16.08ZM67.6489 8.816C67.2009 8.816 66.7743 8.90133 66.3689 9.072C65.9636 9.24267 65.6116 9.47733 65.3129 9.776C65.0036 10.0853 64.7636 10.4373 64.5929 10.832C64.4223 11.2267 64.3369 11.6427 64.3369 12.08C64.3369 12.5173 64.4223 12.9387 64.5929 13.344C64.7743 13.7493 65.0143 14.1013 65.3129 14.4C65.6116 14.6987 65.9636 14.9333 66.3689 15.104C66.7743 15.2747 67.2009 15.36 67.6489 15.36C68.0969 15.36 68.5236 15.2747 68.9289 15.104C69.3449 14.9333 69.7023 14.6987 70.0009 14.4C70.2996 14.1013 70.5343 13.7493 70.7049 13.344C70.8863 12.9387 70.9769 12.5173 70.9769 12.08C70.9769 11.6427 70.8863 11.2267 70.7049 10.832C70.5343 10.4267 70.2943 10.0747 69.9849 9.776C69.6756 9.47733 69.3183 9.24267 68.9129 9.072C68.5183 8.90133 68.0969 8.816 67.6489 8.816ZM76.6198 19.408C76.0545 19.408 75.5265 19.2853 75.0358 19.04C74.5558 18.7947 74.1505 18.4587 73.8198 18.032L74.4758 17.664C74.7211 17.984 75.0305 18.2347 75.4038 18.416C75.7771 18.5973 76.1825 18.688 76.6198 18.688C77.3665 18.688 78.0118 18.4267 78.5558 17.904C78.8225 17.6373 79.0198 17.3653 79.1478 17.088C79.2865 16.8213 79.3558 16.512 79.3558 16.16V14.752C78.9078 15.2747 78.4758 15.6213 78.0598 15.792C77.6438 15.9627 77.1638 16.048 76.6198 16.048C76.1611 16.048 75.7185 15.9627 75.2918 15.792C74.8758 15.6213 74.5078 15.3867 74.1878 15.088C73.8571 14.7787 73.6011 14.4267 73.4198 14.032C73.2385 13.6267 73.1478 13.2053 73.1478 12.768V8H73.8838V12.656C73.8838 13.392 74.1505 14.0267 74.6838 14.56C74.9291 14.8053 75.2171 14.9973 75.5478 15.136C75.8891 15.2747 76.2465 15.344 76.6198 15.344C77.3878 15.344 78.0331 15.0827 78.5558 14.56C79.0891 14.0267 79.3558 13.392 79.3558 12.656V8H80.0918V16.16C80.0918 16.608 80.0065 17.0133 79.8358 17.376C79.6651 17.7387 79.4145 18.0853 79.0838 18.416C78.7638 18.736 78.3905 18.9813 77.9638 19.152C77.5371 19.3227 77.0891 19.408 76.6198 19.408Z" fill="white"/>
<path d="M12.0536 15.648L11.8575 16.108L11.8602 16.1091L12.0536 15.648ZM10.3256 14.48L10.6791 14.1264L10.6753 14.1227L10.3256 14.48ZM9.15756 12.768L8.69646 12.9614L8.6976 12.964L9.15756 12.768ZM9.15756 8.624L9.61753 8.82005L9.61866 8.81736L9.15756 8.624ZM10.3256 6.88L9.97581 6.52264L9.97201 6.52645L10.3256 6.88ZM12.0696 5.728L12.2629 6.1891L12.2629 6.1891L12.0696 5.728ZM16.3256 5.76L16.1251 6.21812L16.1312 6.22068L16.3256 5.76ZM18.1176 7.04L18.4366 7.42501L18.8389 7.09164L18.4882 6.70436L18.1176 7.04ZM17.5576 7.504L17.1959 7.84924L17.5177 8.18637L17.8766 7.88901L17.5576 7.504ZM16.0056 6.432L15.8056 6.89032L15.8127 6.89329L16.0056 6.432ZM12.3416 6.416L12.5333 6.87781L12.5375 6.87601L12.3416 6.416ZM10.8536 7.408L11.2028 7.76592L11.2071 7.76155L10.8536 7.408ZM9.82956 8.896L9.37083 8.69693L9.36777 8.70431L9.82956 8.896ZM9.82956 12.48L9.36771 12.6717L9.37089 12.679L9.82956 12.48ZM10.8536 13.968L11.2071 13.6144L11.2027 13.6101L10.8536 13.968ZM12.3416 14.976L12.1425 15.4348L12.1529 15.439L12.3416 14.976ZM16.0056 14.96L16.1985 15.4213L16.2055 15.4183L16.0056 14.96ZM17.5576 13.872L17.882 13.4916L17.5223 13.1848L17.1959 13.5268L17.5576 13.872ZM18.1016 14.336L18.469 14.6751L18.8217 14.293L18.426 13.9556L18.1016 14.336ZM16.3096 15.616L16.1092 15.1579L16.1092 15.1579L16.3096 15.616ZM14.1496 15.564C13.4782 15.564 12.8454 15.4379 12.2469 15.1869L11.8602 16.1091C12.5844 16.4128 13.349 16.564 14.1496 16.564V15.564ZM12.2496 15.188C11.6579 14.9358 11.1353 14.5827 10.6791 14.1264L9.97201 14.8336C10.5184 15.38 11.1479 15.8055 11.8575 16.108L12.2496 15.188ZM10.6753 14.1227C10.2214 13.6784 9.8693 13.1626 9.61752 12.572L8.6976 12.964C9.0005 13.6747 9.42711 14.3003 9.97583 14.8373L10.6753 14.1227ZM9.61866 12.5746C9.3673 11.9753 9.24156 11.3477 9.24156 10.688H8.24156C8.24156 11.479 8.39315 12.2381 8.69647 12.9614L9.61866 12.5746ZM9.24156 10.688C9.24156 10.0283 9.36729 9.40713 9.61752 8.82005L8.6976 8.42795C8.39317 9.1422 8.24156 9.89705 8.24156 10.688H9.24156ZM9.61866 8.81736C9.87118 8.2152 10.2242 7.68844 10.6791 7.23355L9.97201 6.52645C9.42423 7.07423 8.99861 7.71014 8.69647 8.43064L9.61866 8.81736ZM10.6753 7.23733C11.1305 6.79181 11.6585 6.44258 12.2629 6.1891L11.8762 5.2669C11.158 5.56809 10.5233 5.98686 9.97583 6.52266L10.6753 7.23733ZM12.2629 6.1891C12.8623 5.93774 13.4898 5.812 14.1496 5.812V4.812C13.3586 4.812 12.5995 4.96359 11.8762 5.2669L12.2629 6.1891ZM14.1496 5.812C14.8508 5.812 15.5076 5.94792 16.1252 6.21808L16.526 5.30192C15.7782 4.97475 14.9844 4.812 14.1496 4.812V5.812ZM16.1312 6.22068C16.7447 6.4795 17.2824 6.8627 17.747 7.37564L18.4882 6.70436C17.9287 6.08663 17.2717 5.6165 16.5199 5.29932L16.1312 6.22068ZM17.7986 6.65499L17.2386 7.11899L17.8766 7.88901L18.4366 7.42501L17.7986 6.65499ZM17.9192 7.15876C17.4246 6.64056 16.8501 6.24322 16.1985 5.97071L15.8127 6.89329C16.3343 7.11145 16.7945 7.42878 17.1959 7.84924L17.9192 7.15876ZM16.2055 5.97373C15.5547 5.68974 14.8679 5.548 14.1496 5.548V6.548C14.7326 6.548 15.2831 6.66226 15.8056 6.89027L16.2055 5.97373ZM14.1496 5.548C13.4533 5.548 12.7839 5.68413 12.1456 5.95599L12.5375 6.87601C13.0512 6.65721 13.5872 6.548 14.1496 6.548V5.548ZM12.1499 5.9542C11.5249 6.21362 10.9737 6.58076 10.5 7.05445L11.2071 7.76155C11.5868 7.38191 12.0275 7.08771 12.5333 6.8778L12.1499 5.9542ZM10.5044 7.05011C10.0202 7.52251 9.64184 8.07259 9.37089 8.69695L10.2882 9.09505C10.508 8.58874 10.8123 8.14682 11.2027 7.76589L10.5044 7.05011ZM9.36777 8.70431C9.10716 9.33213 8.97756 9.99477 8.97756 10.688H9.97756C9.97756 10.1226 10.0826 9.59054 10.2914 9.08769L9.36777 8.70431ZM8.97756 10.688C8.97756 11.3812 9.10716 12.0439 9.36777 12.6717L10.2914 12.2883C10.0826 11.7855 9.97756 11.2534 9.97756 10.688H8.97756ZM9.37089 12.679C9.64184 13.3034 10.0202 13.8535 10.5044 14.3259L11.2027 13.6101C10.8123 13.2292 10.508 12.7873 10.2882 12.281L9.37089 12.679ZM10.5 14.3216C10.9721 14.7936 11.5208 15.1649 12.1425 15.4347L12.5406 14.5173C12.0317 14.2965 11.5884 13.9957 11.2071 13.6144L10.5 14.3216ZM12.1529 15.439C12.7895 15.6984 13.4563 15.828 14.1496 15.828V14.828C13.5841 14.828 13.0456 14.7229 12.5302 14.513L12.1529 15.439ZM14.1496 15.828C14.8649 15.828 15.5493 15.6928 16.1985 15.4213L15.8127 14.4987C15.2885 14.7179 14.7356 14.828 14.1496 14.828V15.828ZM16.2055 15.4183C16.8539 15.1353 17.426 14.7339 17.9192 14.2172L17.1959 13.5268C16.7931 13.9487 16.3305 14.2727 15.8056 14.5017L16.2055 15.4183ZM17.2331 14.2524L17.7771 14.7164L18.426 13.9556L17.882 13.4916L17.2331 14.2524ZM17.7342 13.9969C17.2684 14.5015 16.7277 14.8873 16.1092 15.1579L16.51 16.0741C17.2568 15.7474 17.9107 15.2799 18.469 14.6751L17.7342 13.9969ZM16.1092 15.1579C15.4907 15.4285 14.8391 15.564 14.1496 15.564V16.564C14.9747 16.564 15.7631 16.4009 16.51 16.0741L16.1092 15.1579ZM26.4293 16H25.9293V16.5H26.4293V16ZM26.4293 14.16H26.9293V12.3874L26.003 13.8987L26.4293 14.16ZM24.9893 15.616L24.7458 15.1793L24.7422 15.1814L24.9893 15.616ZM21.5493 15.776L21.3548 16.2366L21.3584 16.2381L21.5493 15.776ZM20.2693 14.912L20.6229 14.5584L20.6177 14.5534L20.2693 14.912ZM19.3893 13.632L18.9256 13.8195L18.9308 13.8314L19.3893 13.632ZM19.3893 10.512L18.9292 10.3162L18.9272 10.3211L19.3893 10.512ZM20.2693 9.2L20.6229 9.55355L20.6229 9.55355L20.2693 9.2ZM21.5493 8.336L21.3584 7.87385L21.3548 7.87537L21.5493 8.336ZM25.1013 8.48L24.8643 8.92025L24.8678 8.9221L25.1013 8.48ZM26.4293 9.808L25.9904 10.0474L26.9293 9.808H26.4293ZM26.4293 8.224V7.724H25.9293V8.224H26.4293ZM27.1653 8.224H27.6653V7.724H27.1653V8.224ZM27.1653 16V16.5H27.6653V16H27.1653ZM21.8213 9.008L21.6315 8.5454L21.6273 8.54718L21.8213 9.008ZM20.7653 9.712L21.1189 10.0656L21.1189 10.0656L20.7653 9.712ZM20.0613 10.784L20.5221 10.978L20.5239 10.9738L20.0613 10.784ZM21.8213 15.104L21.6273 15.5648L21.6315 15.5666L21.8213 15.104ZM24.3813 15.104L24.5753 15.5648L24.5753 15.5648L24.3813 15.104ZM25.4373 14.4L25.0838 14.0464L25.0838 14.0464L25.4373 14.4ZM26.1413 13.344L25.6848 13.1398L25.6805 13.15L26.1413 13.344ZM26.1573 10.784L25.6947 10.9738L25.6965 10.978L26.1573 10.784ZM25.4533 9.712L25.0998 10.0656L25.0998 10.0656L25.4533 9.712ZM24.3973 9.008L24.2033 9.46882L24.2033 9.46882L24.3973 9.008ZM26.9293 16V14.16H25.9293V16H26.9293ZM26.003 13.8987C25.6327 14.503 25.2106 14.9201 24.7458 15.1793L25.2328 16.0527C25.8774 15.6932 26.4153 15.1397 26.8556 14.4213L26.003 13.8987ZM24.7422 15.1814C24.2825 15.4427 23.7457 15.58 23.1173 15.58V16.58C23.8969 16.58 24.6081 16.408 25.2365 16.0506L24.7422 15.1814ZM23.1173 15.58C22.6252 15.58 22.1676 15.4904 21.7402 15.3139L21.3584 16.2381C21.9123 16.4669 22.5001 16.58 23.1173 16.58V15.58ZM21.7438 15.3154C21.324 15.1381 20.9512 14.8868 20.6229 14.5584L19.9158 15.2656C20.3341 15.6839 20.8146 16.0085 21.3548 16.2366L21.7438 15.3154ZM20.6177 14.5534C20.2924 14.2374 20.0359 13.8652 19.8478 13.4326L18.9308 13.8314C19.1694 14.3801 19.4995 14.8613 19.9209 15.2706L20.6177 14.5534ZM19.8529 13.4446C19.6744 13.0032 19.5853 12.5442 19.5853 12.064H18.5853C18.5853 12.6718 18.6989 13.2582 18.9258 13.8194L19.8529 13.4446ZM19.5853 12.064C19.5853 11.5838 19.6744 11.1315 19.8514 10.7029L18.9272 10.3211C18.6989 10.8738 18.5853 11.4562 18.5853 12.064H19.5853ZM19.8494 10.7078C20.0385 10.2635 20.2963 9.88015 20.6229 9.55355L19.9158 8.84645C19.4957 9.26652 19.1668 9.75788 18.9292 10.3162L19.8494 10.7078ZM20.6229 9.55355C20.9512 9.22522 21.324 8.97386 21.7438 8.79662L21.3548 7.87537C20.8146 8.10348 20.3341 8.42812 19.9158 8.84645L20.6229 9.55355ZM21.7402 8.79813C22.1676 8.62158 22.6252 8.532 23.1173 8.532V7.532C22.5001 7.532 21.9123 7.64508 21.3584 7.87387L21.7402 8.79813ZM23.1173 8.532C23.8205 8.532 24.3968 8.66851 24.8643 8.92024L25.3384 8.03976C24.6965 7.69416 23.9501 7.532 23.1173 7.532V8.532ZM24.8678 8.9221C25.3421 9.17272 25.7152 9.54292 25.9904 10.0474L26.8683 9.56857C26.5034 8.89975 25.9912 8.38462 25.3349 8.0379L24.8678 8.9221ZM26.9293 9.808V8.224H25.9293V9.808H26.9293ZM26.4293 8.724H27.1653V7.724H26.4293V8.724ZM26.6653 8.224V16H27.6653V8.224H26.6653ZM27.1653 15.5H26.4293V16.5H27.1653V15.5ZM23.1173 8.252C22.604 8.252 22.1075 8.35014 21.6315 8.54542L22.0111 9.47058C22.3671 9.32453 22.7347 9.252 23.1173 9.252V8.252ZM21.6273 8.54718C21.1648 8.74189 20.758 9.01216 20.4118 9.35845L21.1189 10.0656C21.3699 9.8145 21.6671 9.61544 22.0153 9.46882L21.6273 8.54718ZM20.4118 9.35845C20.0633 9.70691 19.7929 10.121 19.5987 10.5942L20.5239 10.9738C20.6711 10.615 20.87 10.3144 21.1189 10.0656L20.4118 9.35845ZM19.6005 10.59C19.4035 11.0579 19.3053 11.5506 19.3053 12.064H20.3053C20.3053 11.6814 20.3778 11.3208 20.5221 10.978L19.6005 10.59ZM19.3053 12.064C19.3053 12.5774 19.4035 13.0701 19.6005 13.538L20.5221 13.15C20.3778 12.8072 20.3053 12.4466 20.3053 12.064H19.3053ZM19.6005 13.538C19.7952 14.0005 20.0655 14.4073 20.4118 14.7536L21.1189 14.0464C20.8678 13.7954 20.6688 13.4982 20.5221 13.15L19.6005 13.538ZM20.4118 14.7536C20.758 15.0998 21.1648 15.3701 21.6273 15.5648L22.0153 14.6432C21.6671 14.4966 21.3699 14.2975 21.1189 14.0464L20.4118 14.7536ZM21.6315 15.5666C22.1075 15.7619 22.604 15.86 23.1173 15.86V14.86C22.7347 14.86 22.3671 14.7875 22.0111 14.6414L21.6315 15.5666ZM23.1173 15.86C23.6217 15.86 24.1089 15.7612 24.5753 15.5648L24.1873 14.6432C23.843 14.7881 23.4876 14.86 23.1173 14.86V15.86ZM24.5753 15.5648C25.0378 15.3701 25.4446 15.0998 25.7909 14.7536L25.0838 14.0464C24.8327 14.2975 24.5355 14.4966 24.1873 14.6432L24.5753 15.5648ZM25.7909 14.7536C26.1372 14.4073 26.4074 14.0005 26.6021 13.538L25.6805 13.15C25.5339 13.4982 25.3348 13.7954 25.0838 14.0464L25.7909 14.7536ZM26.5977 13.5482C26.8081 13.078 26.9133 12.5817 26.9133 12.064H25.9133C25.9133 12.4423 25.8372 12.7993 25.6849 13.1398L26.5977 13.5482ZM26.9133 12.064C26.9133 11.5506 26.8151 11.0579 26.6181 10.59L25.6965 10.978C25.8408 11.3208 25.9133 11.6814 25.9133 12.064H26.9133ZM26.6199 10.5942C26.4257 10.121 26.1553 9.70691 25.8069 9.35845L25.0998 10.0656C25.3486 10.3144 25.5476 10.615 25.6947 10.9738L26.6199 10.5942ZM25.8069 9.35845C25.4606 9.01216 25.0538 8.74189 24.5913 8.54718L24.2033 9.46882C24.5515 9.61544 24.8487 9.8145 25.0998 10.0656L25.8069 9.35845ZM24.5913 8.54718C24.1234 8.35016 23.6307 8.252 23.1173 8.252V9.252C23.4999 9.252 23.8605 9.3245 24.2033 9.46882L24.5913 8.54718ZM33.1684 15.376L33.5064 15.7446L33.5135 15.7379L33.1684 15.376ZM28.9924 15.36L28.6445 15.7192L28.6505 15.7248L28.9924 15.36ZM28.3044 14.144V13.644H27.6675L27.8187 14.2627L28.3044 14.144ZM29.0884 14.144L29.564 13.9897L29.4519 13.644H29.0884V14.144ZM29.8404 15.056L29.5923 15.4902L29.6019 15.4954L29.8404 15.056ZM32.5924 14.896L32.9061 15.2854L32.9091 15.283L32.5924 14.896ZM32.4964 12.608L32.7246 12.1631L32.7167 12.159L32.7087 12.1553L32.4964 12.608ZM29.5684 12.176L29.3579 12.6295L29.3646 12.6326L29.3715 12.6356L29.5684 12.176ZM28.8004 11.616L28.4172 11.9371L28.4237 11.9449L28.4305 11.9523L28.8004 11.616ZM28.5284 9.184L28.9816 9.39546L28.9841 9.38979L28.5284 9.184ZM29.1684 8.4L28.8848 7.98824L28.8838 7.9889L29.1684 8.4ZM32.6724 8.288L32.4198 8.71953L32.4244 8.72212L32.6724 8.288ZM33.4564 9.056L33.8805 8.79093L33.8745 8.78167L33.4564 9.056ZM33.7924 9.872V10.372H34.4157L34.2805 9.76353L33.7924 9.872ZM33.0084 9.872L32.5295 10.0157L32.6364 10.372H33.0084V9.872ZM32.8164 9.408L32.3976 9.68115L32.4004 9.68535L32.8164 9.408ZM31.1364 8.624L31.1564 8.1244L31.1464 8.124H31.1364V8.624ZM29.9684 8.8L29.7798 8.33695L29.7725 8.33991L29.7654 8.34309L29.9684 8.8ZM29.1204 10.592L29.6028 10.4604L29.5992 10.4471L29.5948 10.4339L29.1204 10.592ZM29.9524 11.488L30.1253 11.0188L30.1109 11.0135L30.0961 11.0091L29.9524 11.488ZM30.6244 11.616L30.6027 12.1155L30.6036 12.1156L30.6244 11.616ZM31.0724 11.632L31.098 11.1327L31.0852 11.132H31.0724V11.632ZM32.0804 11.728L31.9982 12.2212L31.9982 12.2212L32.0804 11.728ZM32.8804 12L33.1098 11.5557L33.104 11.5528L32.8804 12ZM33.8724 13.84L34.3724 13.8491V13.84H33.8724ZM32.8306 15.0074C32.4284 15.3761 31.8855 15.58 31.1524 15.58V16.58C32.0834 16.58 32.8845 16.3146 33.5063 15.7446L32.8306 15.0074ZM31.1524 15.58C30.3095 15.58 29.7271 15.3633 29.3344 14.9952L28.6505 15.7248C29.2818 16.3167 30.1394 16.58 31.1524 16.58V15.58ZM29.3403 15.0009C29.0694 14.7384 28.886 14.4176 28.7901 14.0253L27.8187 14.2627C27.9575 14.8304 28.2328 15.3202 28.6445 15.7191L29.3403 15.0009ZM28.3044 14.644H29.0884V13.644H28.3044V14.644ZM28.6128 14.2983C28.7807 14.8159 29.1153 15.2175 29.5924 15.4901L30.0885 14.6219C29.8189 14.4678 29.6522 14.2614 29.564 13.9897L28.6128 14.2983ZM29.6019 15.4954C30.0559 15.7419 30.5607 15.86 31.1044 15.86V14.86C30.7095 14.86 30.3716 14.7754 30.079 14.6166L29.6019 15.4954ZM31.1044 15.86C31.7992 15.86 32.414 15.6818 32.9061 15.2854L32.2788 14.5066C32.0028 14.7289 31.6257 14.86 31.1044 14.86V15.86ZM32.9091 15.283C33.3684 14.9072 33.6204 14.4116 33.6204 13.824H32.6204C32.6204 14.0897 32.5205 14.3088 32.2758 14.509L32.9091 15.283ZM33.6204 13.824C33.6204 13.1007 33.356 12.4869 32.7246 12.1631L32.2683 13.0529C32.4689 13.1558 32.6204 13.3526 32.6204 13.824H33.6204ZM32.7087 12.1553C32.2684 11.9489 31.6798 11.868 30.9924 11.868V12.868C31.6277 12.868 32.0418 12.9471 32.2842 13.0607L32.7087 12.1553ZM30.9924 11.868C30.3552 11.868 29.9662 11.8025 29.7654 11.7164L29.3715 12.6356C29.768 12.8055 30.3283 12.868 30.9924 12.868V11.868ZM29.779 11.7225C29.5384 11.6108 29.3372 11.4632 29.1704 11.2797L28.4305 11.9523C28.6903 12.2382 29.0012 12.4639 29.3579 12.6295L29.779 11.7225ZM29.1837 11.2949C28.9329 10.9956 28.8044 10.6418 28.8044 10.208H27.8044C27.8044 10.8622 28.0066 11.4471 28.4172 11.9371L29.1837 11.2949ZM28.8044 10.208C28.8044 9.91636 28.8639 9.64742 28.9815 9.39544L28.0753 8.97256C27.8943 9.36058 27.8044 9.7743 27.8044 10.208H28.8044ZM28.9841 9.38979C29.099 9.13533 29.256 8.94754 29.453 8.8111L28.8838 7.9889C28.5263 8.23646 28.2565 8.57134 28.0728 8.97821L28.9841 9.38979ZM29.4521 8.81175C29.8258 8.55427 30.342 8.404 31.0404 8.404V7.404C30.2029 7.404 29.471 7.58439 28.8848 7.98825L29.4521 8.81175ZM31.0404 8.404C31.627 8.404 32.078 8.51939 32.4198 8.71951L32.925 7.85649C32.3922 7.54461 31.7552 7.404 31.0404 7.404V8.404ZM32.4244 8.72212C32.6429 8.847 32.8496 9.04267 33.0384 9.33033L33.8745 8.78167C33.6152 8.38667 33.2993 8.07034 32.9205 7.85388L32.4244 8.72212ZM33.0324 9.321C33.1631 9.52998 33.253 9.7492 33.3043 9.98046L34.2805 9.76353C34.2039 9.4188 34.0698 9.09402 33.8804 8.791L33.0324 9.321ZM33.7924 9.372H33.0084V10.372H33.7924V9.372ZM33.4874 9.72833C33.4198 9.503 33.3388 9.2902 33.2325 9.13065L32.4004 9.68535C32.422 9.7178 32.4691 9.81433 32.5295 10.0157L33.4874 9.72833ZM33.2352 9.13487C32.7967 8.46237 32.0538 8.16029 31.1564 8.1244L31.1165 9.1236C31.8191 9.1517 32.1962 9.37229 32.3976 9.68113L33.2352 9.13487ZM31.1364 8.124C30.6142 8.124 30.1522 8.18523 29.7798 8.33695L30.1571 9.26305C30.3607 9.1801 30.6773 9.124 31.1364 9.124V8.124ZM29.7654 8.34309C29.3962 8.50715 29.0943 8.75457 28.8776 9.08687L29.7152 9.63313C29.8185 9.47477 29.9646 9.34885 30.1715 9.25691L29.7654 8.34309ZM28.8776 9.08687C28.6656 9.41198 28.5564 9.77327 28.5564 10.16H29.5564C29.5564 9.97073 29.6073 9.79869 29.7152 9.63313L28.8776 9.08687ZM28.5564 10.16C28.5564 10.364 28.5836 10.5627 28.6461 10.7501L29.5948 10.4339C29.5719 10.3653 29.5564 10.276 29.5564 10.16H28.5564ZM28.6381 10.7236C28.8065 11.341 29.1994 11.7841 29.8088 11.9669L30.0961 11.0091C29.8522 10.9359 29.6904 10.7817 29.6028 10.4604L28.6381 10.7236ZM29.7796 11.9572C30.0369 12.052 30.3127 12.1029 30.6027 12.1155L30.6462 11.1165C30.4455 11.1077 30.2733 11.0734 30.1253 11.0188L29.7796 11.9572ZM30.6036 12.1156C30.8531 12.126 31.0165 12.132 31.0724 12.132V11.132C31.0431 11.132 30.9078 11.1274 30.6453 11.1164L30.6036 12.1156ZM31.0468 12.1313C31.4537 12.1522 31.7687 12.1829 31.9982 12.2212L32.1626 11.2348C31.8802 11.1877 31.5232 11.1545 31.098 11.1327L31.0468 12.1313ZM31.9982 12.2212C32.1966 12.2543 32.4157 12.3266 32.6568 12.4472L33.104 11.5528C32.7905 11.396 32.4763 11.2871 32.1626 11.2348L31.9982 12.2212ZM32.6511 12.4443C33.1112 12.6818 33.3724 13.0988 33.3724 13.84H34.3724C34.3724 12.8105 33.9723 12.0009 33.1098 11.5557L32.6511 12.4443ZM33.3725 13.8309C33.3645 14.2726 33.194 14.6608 32.8234 15.0141L33.5135 15.7379C34.0603 15.2165 34.3591 14.5807 34.3724 13.8491L33.3725 13.8309ZM35.6029 12.416V11.916H34.9973L35.112 12.5106L35.6029 12.416ZM36.7709 14.544L37.104 14.171L37.1007 14.1681L36.7709 14.544ZM40.4029 14.976L40.6388 15.4169L40.6388 15.4169L40.4029 14.976ZM41.5709 13.968L41.8119 13.5299L41.4315 13.3206L41.1709 13.668L41.5709 13.968ZM42.2109 14.32L42.6194 14.6083L42.942 14.1514L42.4519 13.8819L42.2109 14.32ZM40.7709 15.616L41.0075 16.0565L41.0138 16.0531L40.7709 15.616ZM37.3309 15.776L37.1315 16.2346L37.1401 16.2381L37.3309 15.776ZM36.0349 14.896L36.3885 14.5424L36.3885 14.5424L36.0349 14.896ZM35.1549 13.6L34.6927 13.7909L34.6964 13.7994L35.1549 13.6ZM35.1549 10.496L34.6948 10.3002L34.6928 10.3051L35.1549 10.496ZM36.0349 9.184L36.3885 9.53759L36.3936 9.53239L36.0349 9.184ZM37.3149 8.32L37.1275 7.85643L37.1241 7.85787L37.3149 8.32ZM40.4349 8.32L40.2441 8.78214L40.2475 8.78355L40.4349 8.32ZM41.7309 9.184L42.0899 8.83593L42.0896 8.83561L41.7309 9.184ZM42.5789 10.544L42.1153 10.7313L42.1185 10.7388L42.5789 10.544ZM42.9309 12.16L43.43 12.1912L43.4309 12.1756V12.16H42.9309ZM42.9149 12.416V12.916H43.3847L43.414 12.4472L42.9149 12.416ZM36.7709 9.536L37.1007 9.91189L37.1039 9.90897L36.7709 9.536ZM35.6029 11.664L35.112 11.5694L34.9973 12.164H35.6029V11.664ZM42.1629 11.664V12.164H42.7685L42.6539 11.5694L42.1629 11.664ZM40.9949 9.536L40.6619 9.90898L40.6652 9.91188L40.9949 9.536ZM35.112 12.5106C35.3011 13.4918 35.7401 14.3049 36.4412 14.9199L37.1007 14.1681C36.5857 13.7164 36.2461 13.1109 36.0939 12.3214L35.112 12.5106ZM36.4379 14.917C37.1281 15.5332 37.9511 15.844 38.8829 15.844V14.844C38.1934 14.844 37.6084 14.6214 37.1039 14.171L36.4379 14.917ZM38.8829 15.844C39.5143 15.844 40.1028 15.7036 40.6388 15.4169L40.1671 14.5351C39.7858 14.7391 39.3609 14.844 38.8829 14.844V15.844ZM40.6388 15.4169C41.1634 15.1363 41.6083 14.7515 41.9709 14.268L41.1709 13.668C40.8936 14.0378 40.5598 14.3251 40.1671 14.5351L40.6388 15.4169ZM41.33 14.4061L41.97 14.7581L42.4519 13.8819L41.8119 13.5299L41.33 14.4061ZM41.8025 14.0317C41.4613 14.5149 41.0377 14.8958 40.5281 15.1789L41.0138 16.0531C41.6562 15.6962 42.1926 15.2131 42.6194 14.6083L41.8025 14.0317ZM40.5344 15.1755C40.0344 15.444 39.4868 15.58 38.8829 15.58V16.58C39.6444 16.58 40.3555 16.4066 41.0075 16.0565L40.5344 15.1755ZM38.8829 15.58C38.4028 15.58 37.9504 15.4909 37.5218 15.3139L37.1401 16.2381C37.6928 16.4664 38.2751 16.58 38.8829 16.58V15.58ZM37.5303 15.3175C37.0964 15.1288 36.7169 14.8708 36.3885 14.5424L35.6814 15.2496C36.0997 15.6678 36.5842 15.9965 37.1316 16.2345L37.5303 15.3175ZM36.3885 14.5424C36.0601 14.2141 35.8021 13.8346 35.6135 13.4006L34.6964 13.7994C34.9344 14.3468 35.2631 14.8313 35.6814 15.2496L36.3885 14.5424ZM35.6171 13.4091C35.44 12.9805 35.3509 12.5282 35.3509 12.048H34.3509C34.3509 12.6558 34.4645 13.2382 34.6928 13.7909L35.6171 13.4091ZM35.3509 12.048C35.3509 11.5678 35.44 11.1155 35.6171 10.6869L34.6928 10.3051C34.4645 10.8578 34.3509 11.4402 34.3509 12.048H35.3509ZM35.615 10.6918C35.8041 10.2475 36.0619 9.86415 36.3885 9.53755L35.6814 8.83045C35.2613 9.25052 34.9325 9.74188 34.6949 10.3002L35.615 10.6918ZM36.3936 9.53239C36.7077 9.20902 37.077 8.95927 37.5058 8.78213L37.1241 7.85787C36.5716 8.08606 36.0875 8.41231 35.6763 8.83561L36.3936 9.53239ZM37.5023 8.78355C37.9438 8.60511 38.4028 8.516 38.8829 8.516V7.516C38.2751 7.516 37.6888 7.62956 37.1275 7.85644L37.5023 8.78355ZM38.8829 8.516C39.3631 8.516 39.8154 8.60509 40.2441 8.78213L40.6258 7.85787C40.0731 7.62958 39.4908 7.516 38.8829 7.516V8.516ZM40.2475 8.78355C40.687 8.9612 41.06 9.21089 41.3723 9.53239L42.0896 8.83561C41.6766 8.41045 41.1856 8.08413 40.6223 7.85644L40.2475 8.78355ZM41.372 9.53207C41.6597 9.82874 41.9103 10.2236 42.1153 10.7312L43.0426 10.3568C42.7996 9.75504 42.4849 9.24326 42.0899 8.83593L41.372 9.53207ZM42.1185 10.7388C42.331 11.2412 42.4309 11.7137 42.4309 12.16H43.4309C43.4309 11.561 43.2962 10.9562 43.0394 10.3492L42.1185 10.7388ZM42.4319 12.1288L42.4159 12.3848L43.414 12.4472L43.43 12.1912L42.4319 12.1288ZM42.9149 11.916H35.6029V12.916H42.9149V11.916ZM38.8829 8.236C37.9511 8.236 37.1281 8.54678 36.4379 9.16303L37.1039 9.90897C37.6084 9.45856 38.1934 9.236 38.8829 9.236V8.236ZM36.4412 9.16012C35.7401 9.7751 35.3011 10.5882 35.112 11.5694L36.0939 11.7586C36.2461 10.9691 36.5857 10.3636 37.1007 9.91188L36.4412 9.16012ZM35.6029 12.164H42.1629V11.164H35.6029V12.164ZM42.6539 11.5694C42.4648 10.5882 42.0257 9.7751 41.3247 9.16012L40.6652 9.91188C41.1801 10.3636 41.5198 10.9691 41.672 11.7586L42.6539 11.5694ZM41.3279 9.16303C40.6377 8.54678 39.8148 8.236 38.8829 8.236V9.236C39.5724 9.236 40.1575 9.45856 40.6619 9.90897L41.3279 9.16303ZM48.9341 15.376L49.272 15.7446L49.2791 15.7379L48.9341 15.376ZM44.7581 15.36L44.4101 15.7192L44.4161 15.7248L44.7581 15.36ZM44.0701 14.144V13.644H43.4331L43.5844 14.2627L44.0701 14.144ZM44.8541 14.144L45.3297 13.9897L45.2175 13.644H44.8541V14.144ZM45.6061 15.056L45.3579 15.4902L45.3675 15.4954L45.6061 15.056ZM48.3581 14.896L48.6717 15.2854L48.6747 15.283L48.3581 14.896ZM48.2621 12.608L48.4902 12.1631L48.4823 12.159L48.4743 12.1553L48.2621 12.608ZM45.3341 12.176L45.1235 12.6295L45.1303 12.6326L45.1371 12.6356L45.3341 12.176ZM44.5661 11.616L44.1828 11.9371L44.1893 11.9449L44.1961 11.9523L44.5661 11.616ZM44.2941 9.184L44.7472 9.39546L44.7497 9.38979L44.2941 9.184ZM44.9341 8.4L44.6504 7.98824L44.6495 7.9889L44.9341 8.4ZM48.4381 8.288L48.1855 8.71953L48.19 8.72212L48.4381 8.288ZM49.2221 9.056L49.6462 8.79093L49.6401 8.78167L49.2221 9.056ZM49.5581 9.872V10.372H50.1814L50.0462 9.76353L49.5581 9.872ZM48.7741 9.872L48.2951 10.0157L48.402 10.372H48.7741V9.872ZM48.5821 9.408L48.1632 9.68115L48.166 9.68535L48.5821 9.408ZM46.9021 8.624L46.922 8.1244L46.9121 8.124H46.9021V8.624ZM45.7341 8.8L45.5454 8.33695L45.5382 8.33991L45.531 8.34309L45.7341 8.8ZM44.8861 10.592L45.3684 10.4604L45.3648 10.4471L45.3604 10.4339L44.8861 10.592ZM45.7181 11.488L45.8909 11.0188L45.8765 11.0135L45.8617 11.0091L45.7181 11.488ZM46.3901 11.616L46.3683 12.1155L46.3692 12.1156L46.3901 11.616ZM46.8381 11.632L46.8637 11.1327L46.8509 11.132H46.8381V11.632ZM47.8461 11.728L47.7639 12.2212L47.7639 12.2212L47.8461 11.728ZM48.6461 12L48.8754 11.5557L48.8697 11.5528L48.6461 12ZM49.6381 13.84L50.1381 13.8491V13.84H49.6381ZM48.5962 15.0074C48.194 15.3761 47.6511 15.58 46.9181 15.58V16.58C47.849 16.58 48.6501 16.3146 49.2719 15.7446L48.5962 15.0074ZM46.9181 15.58C46.0751 15.58 45.4927 15.3633 45.1 14.9952L44.4161 15.7248C45.0474 16.3167 45.905 16.58 46.9181 16.58V15.58ZM45.106 15.0009C44.8351 14.7384 44.6517 14.4176 44.5558 14.0253L43.5844 14.2627C43.7231 14.8304 43.9984 15.3202 44.4102 15.7191L45.106 15.0009ZM44.0701 14.644H44.8541V13.644H44.0701V14.644ZM44.3785 14.2983C44.5463 14.8159 44.881 15.2175 45.358 15.4901L45.8541 14.6219C45.5845 14.4678 45.4178 14.2614 45.3297 13.9897L44.3785 14.2983ZM45.3675 15.4954C45.8215 15.7419 46.3263 15.86 46.8701 15.86V14.86C46.4751 14.86 46.1373 14.7754 45.8446 14.6166L45.3675 15.4954ZM46.8701 15.86C47.5648 15.86 48.1797 15.6818 48.6717 15.2854L48.0444 14.5066C47.7685 14.7289 47.3913 14.86 46.8701 14.86V15.86ZM48.6747 15.283C49.134 14.9072 49.3861 14.4116 49.3861 13.824H48.3861C48.3861 14.0897 48.2862 14.3088 48.0414 14.509L48.6747 15.283ZM49.3861 13.824C49.3861 13.1007 49.1216 12.4869 48.4902 12.1631L48.0339 13.0529C48.2345 13.1558 48.3861 13.3526 48.3861 13.824H49.3861ZM48.4743 12.1553C48.034 11.9489 47.4455 11.868 46.7581 11.868V12.868C47.3933 12.868 47.8074 12.9471 48.0498 13.0607L48.4743 12.1553ZM46.7581 11.868C46.1208 11.868 45.7318 11.8025 45.531 11.7164L45.1371 12.6356C45.5336 12.8055 46.094 12.868 46.7581 12.868V11.868ZM45.5446 11.7225C45.304 11.6108 45.1028 11.4632 44.936 11.2797L44.1961 11.9523C44.4559 12.2382 44.7668 12.4639 45.1235 12.6295L45.5446 11.7225ZM44.9493 11.2949C44.6986 10.9956 44.5701 10.6418 44.5701 10.208H43.5701C43.5701 10.8622 43.7722 11.4471 44.1828 11.9371L44.9493 11.2949ZM44.5701 10.208C44.5701 9.91636 44.6296 9.64742 44.7472 9.39544L43.841 8.97256C43.6599 9.36058 43.5701 9.7743 43.5701 10.208H44.5701ZM44.7497 9.38979C44.8647 9.13533 45.0216 8.94754 45.2187 8.8111L44.6495 7.9889C44.2919 8.23646 44.0221 8.57134 43.8384 8.97821L44.7497 9.38979ZM45.2177 8.81175C45.5915 8.55427 46.1076 8.404 46.8061 8.404V7.404C45.9685 7.404 45.2367 7.58439 44.6504 7.98825L45.2177 8.81175ZM46.8061 8.404C47.3927 8.404 47.8436 8.51939 48.1855 8.71951L48.6907 7.85649C48.1579 7.54461 47.5208 7.404 46.8061 7.404V8.404ZM48.19 8.72212C48.4085 8.847 48.6153 9.04267 48.804 9.33033L49.6401 8.78167C49.3809 8.38667 49.0649 8.07034 48.6861 7.85388L48.19 8.72212ZM48.7981 9.321C48.9287 9.52998 49.0186 9.7492 49.07 9.98046L50.0462 9.76353C49.9695 9.4188 49.8355 9.09402 49.6461 8.791L48.7981 9.321ZM49.5581 9.372H48.7741V10.372H49.5581V9.372ZM49.253 9.72833C49.1854 9.503 49.1045 9.2902 48.9981 9.13065L48.166 9.68535C48.1877 9.7178 48.2347 9.81433 48.2951 10.0157L49.253 9.72833ZM49.0009 9.13487C48.5623 8.46237 47.8194 8.16029 46.922 8.1244L46.8821 9.1236C47.5847 9.1517 47.9618 9.37229 48.1633 9.68113L49.0009 9.13487ZM46.9021 8.124C46.3799 8.124 45.9178 8.18523 45.5454 8.33695L45.9227 9.26305C46.1263 9.1801 46.4429 9.124 46.9021 9.124V8.124ZM45.531 8.34309C45.1619 8.50715 44.86 8.75457 44.6433 9.08687L45.4809 9.63313C45.5842 9.47477 45.7303 9.34885 45.9371 9.25691L45.531 8.34309ZM44.6433 9.08687C44.4312 9.41198 44.3221 9.77327 44.3221 10.16H45.3221C45.3221 9.97073 45.3729 9.79869 45.4809 9.63313L44.6433 9.08687ZM44.3221 10.16C44.3221 10.364 44.3492 10.5627 44.4117 10.7501L45.3604 10.4339C45.3376 10.3653 45.3221 10.276 45.3221 10.16H44.3221ZM44.4037 10.7236C44.5721 11.341 44.965 11.7841 45.5744 11.9669L45.8617 11.0091C45.6178 10.9359 45.456 10.7817 45.3684 10.4604L44.4037 10.7236ZM45.5452 11.9572C45.8025 12.052 46.0783 12.1029 46.3683 12.1155L46.4118 11.1165C46.2111 11.1077 46.0389 11.0734 45.8909 11.0188L45.5452 11.9572ZM46.3692 12.1156C46.6187 12.126 46.7821 12.132 46.8381 12.132V11.132C46.8087 11.132 46.6734 11.1274 46.4109 11.1164L46.3692 12.1156ZM46.8125 12.1313C47.2193 12.1522 47.5343 12.1829 47.7639 12.2212L47.9283 11.2348C47.6458 11.1877 47.2888 11.1545 46.8637 11.1327L46.8125 12.1313ZM47.7639 12.2212C47.9622 12.2543 48.1813 12.3266 48.4225 12.4472L48.8697 11.5528C48.5562 11.396 48.2419 11.2871 47.9283 11.2348L47.7639 12.2212ZM48.4167 12.4443C48.8769 12.6818 49.1381 13.0988 49.1381 13.84H50.1381C50.1381 12.8105 49.7379 12.0009 48.8754 11.5557L48.4167 12.4443ZM49.1381 13.8309C49.1301 14.2726 48.9596 14.6608 48.589 15.0141L49.2791 15.7379C49.8259 15.2165 50.1247 14.5807 50.138 13.8491L49.1381 13.8309ZM53.1851 8.72V8.22H52.6851V8.72H53.1851ZM53.1851 16V16.5H53.6851V16H53.1851ZM52.4491 16H51.9491V16.5H52.4491V16ZM52.4491 8.72H52.9491V8.22H52.4491V8.72ZM50.9291 8.72H50.4291V9.22H50.9291V8.72ZM50.9291 8V7.5H50.4291V8H50.9291ZM52.4491 8V8.5H52.9491V8H52.4491ZM52.4491 5.36V4.86H51.9491V5.36H52.4491ZM53.1851 5.36H53.6851V4.86H53.1851V5.36ZM53.1851 8H52.6851V8.5H53.1851V8ZM54.6891 8H55.1891V7.5H54.6891V8ZM54.6891 8.72V9.22H55.1891V8.72H54.6891ZM52.6851 8.72V16H53.6851V8.72H52.6851ZM53.1851 15.5H52.4491V16.5H53.1851V15.5ZM52.9491 16V8.72H51.9491V16H52.9491ZM52.4491 8.22H50.9291V9.22H52.4491V8.22ZM51.4291 8.72V8H50.4291V8.72H51.4291ZM50.9291 8.5H52.4491V7.5H50.9291V8.5ZM52.9491 8V5.36H51.9491V8H52.9491ZM52.4491 5.86H53.1851V4.86H52.4491V5.86ZM52.6851 5.36V8H53.6851V5.36H52.6851ZM53.1851 8.5H54.6891V7.5H53.1851V8.5ZM54.1891 8V8.72H55.1891V8H54.1891ZM54.6891 8.22H53.1851V9.22H54.6891V8.22ZM61.5919 15.92H61.0919V16.42H61.5919V15.92ZM61.5919 14.816H62.0919V13.4153L61.205 14.4994L61.5919 14.816ZM60.4239 15.792L60.6327 16.2463L60.4239 15.792ZM57.9119 15.824L57.7089 16.2809L57.7164 16.2843L57.7241 16.2874L57.9119 15.824ZM56.9039 15.136L57.2575 14.7824L57.2575 14.7824L56.9039 15.136ZM56.2159 14.144L55.7544 14.3363L55.7577 14.3442L55.7612 14.3519L56.2159 14.144ZM55.9759 8V7.5H55.4759V8H55.9759ZM56.7279 8H57.2279V7.5H56.7279V8ZM56.9199 13.856L56.463 14.0591L56.463 14.0591L56.9199 13.856ZM57.4479 14.624L57.8095 14.2785L57.8015 14.2704L57.4479 14.624ZM60.8719 14.624L61.2255 14.9776L61.2255 14.9776L60.8719 14.624ZM61.3999 13.856L60.943 13.6529L60.943 13.6529L61.3999 13.856ZM61.5919 8V7.5H61.0919V8H61.5919ZM62.3279 8H62.8279V7.5H62.3279V8ZM62.3279 15.92V16.42H62.8279V15.92H62.3279ZM62.0919 15.92V14.816H61.0919V15.92H62.0919ZM61.205 14.4994C60.8512 14.9317 60.519 15.1981 60.2152 15.3377L60.6327 16.2463C61.1183 16.0232 61.5647 15.6389 61.9789 15.1326L61.205 14.4994ZM60.2152 15.3377C59.8881 15.488 59.5382 15.564 59.1599 15.564V16.564C59.6777 16.564 60.1705 16.4587 60.6327 16.2463L60.2152 15.3377ZM59.1599 15.564C58.7852 15.564 58.4332 15.4958 58.0998 15.3606L57.7241 16.2874C58.18 16.4722 58.66 16.564 59.1599 16.564V15.564ZM58.115 15.3671C57.7853 15.2205 57.5007 15.0257 57.2575 14.7824L56.5504 15.4896C56.8832 15.8223 57.2706 16.0861 57.7089 16.2809L58.115 15.3671ZM57.2575 14.7824C57.012 14.5369 56.8168 14.2557 56.6707 13.9361L55.7612 14.3519C55.9564 14.779 56.2199 15.1591 56.5504 15.4896L57.2575 14.7824ZM56.6775 13.9517C56.5429 13.6286 56.4759 13.294 56.4759 12.944H55.4759C55.4759 13.426 55.569 13.8914 55.7544 14.3363L56.6775 13.9517ZM56.4759 12.944V8H55.4759V12.944H56.4759ZM55.9759 8.5H56.7279V7.5H55.9759V8.5ZM56.2279 8V12.944H57.2279V8H56.2279ZM56.2279 12.944C56.2279 13.3329 56.3062 13.7061 56.463 14.0591L57.3768 13.6529C57.2777 13.4299 57.2279 13.1951 57.2279 12.944H56.2279ZM56.463 14.0591C56.6161 14.4034 56.8272 14.7104 57.0944 14.9776L57.8015 14.2704C57.6207 14.0896 57.4798 13.8846 57.3768 13.6529L56.463 14.0591ZM57.0864 14.9694C57.6424 15.5513 58.3451 15.844 59.1599 15.844V14.844C58.6095 14.844 58.1708 14.6567 57.8094 14.2786L57.0864 14.9694ZM59.1599 15.844C59.5487 15.844 59.925 15.7658 60.2849 15.6116L59.891 14.6924C59.6536 14.7942 59.4112 14.844 59.1599 14.844V15.844ZM60.2849 15.6116C60.6405 15.4592 60.9553 15.2477 61.2255 14.9776L60.5184 14.2704C60.3405 14.4483 60.1327 14.5888 59.891 14.6924L60.2849 15.6116ZM61.2255 14.9776C61.4927 14.7104 61.7038 14.4034 61.8568 14.0591L60.943 13.6529C60.8401 13.8846 60.6992 14.0896 60.5184 14.2704L61.2255 14.9776ZM61.8568 14.0591C62.0137 13.7061 62.0919 13.3329 62.0919 12.944H61.0919C61.0919 13.1951 61.0422 13.4299 60.943 13.6529L61.8568 14.0591ZM62.0919 12.944V8H61.0919V12.944H62.0919ZM61.5919 8.5H62.3279V7.5H61.5919V8.5ZM61.8279 8V15.92H62.8279V8H61.8279ZM62.3279 15.42H61.5919V16.42H62.3279V15.42ZM66.0809 15.76L66.2767 15.2999L66.2767 15.2999L66.0809 15.76ZM64.7849 14.896L65.1385 14.5424L65.1385 14.5424L64.7849 14.896ZM63.9049 13.616L63.4426 13.8069L63.448 13.8191L63.9049 13.616ZM63.9049 10.56L63.4464 10.3606L63.4443 10.3655L63.9049 10.56ZM64.7849 9.264L64.4314 8.91045L64.4314 8.91045L64.7849 9.264ZM69.6329 8.512L69.3989 8.95401L69.4093 8.95921L69.6329 8.512ZM71.0089 9.888L70.5739 10.1345L71.5089 11.7845V9.888H71.0089ZM71.0089 5.376V4.876H70.5089V5.376H71.0089ZM71.7129 5.376H72.2129V4.876H71.7129V5.376ZM71.7129 16V16.5H72.2129V16H71.7129ZM71.0089 16H70.5089V16.5H71.0089V16ZM71.0089 14.336H71.5089V12.4178L70.5726 14.0919L71.0089 14.336ZM69.6329 15.68L69.4196 15.2278L69.4196 15.2278L69.6329 15.68ZM65.3129 9.776L64.9594 9.42245L64.9594 9.42245L65.3129 9.776ZM64.5929 13.344L64.132 13.5381L64.1365 13.5482L64.5929 13.344ZM65.3129 14.4L64.9594 14.7536L64.9594 14.7536L65.3129 14.4ZM66.3689 15.104L66.1749 15.5648L66.1749 15.5648L66.3689 15.104ZM68.9289 15.104L68.7392 14.6414L68.7349 14.6432L68.9289 15.104ZM70.0009 14.4L70.3545 14.7536L70.3545 14.7536L70.0009 14.4ZM70.7049 13.344L70.2484 13.1398L70.2441 13.15L70.7049 13.344ZM70.7049 10.832L70.2441 11.026L70.2472 11.0334L70.2506 11.0408L70.7049 10.832ZM69.9849 9.776L69.6376 10.1357L69.6376 10.1357L69.9849 9.776ZM68.9129 9.072L68.7145 9.53095L68.7189 9.53282L68.9129 9.072ZM67.6489 15.58C67.1723 15.58 66.7162 15.487 66.2767 15.2999L65.8852 16.2201C66.4483 16.4597 67.0376 16.58 67.6489 16.58V15.58ZM66.2767 15.2999C65.8306 15.1101 65.4531 14.8571 65.1385 14.5424L64.4314 15.2496C64.8421 15.6603 65.3286 15.9832 65.8852 16.2201L66.2767 15.2999ZM65.1385 14.5424C64.8083 14.2123 64.5501 13.8366 64.3618 13.4129L63.448 13.8191C63.6864 14.3554 64.0149 14.8331 64.4314 15.2496L65.1385 14.5424ZM64.3671 13.4251C64.1895 12.9953 64.1009 12.5482 64.1009 12.08H63.1009C63.1009 12.6785 63.215 13.2554 63.4428 13.8069L64.3671 13.4251ZM64.1009 12.08C64.1009 11.6119 64.1895 11.1715 64.3656 10.7545L63.4443 10.3655C63.215 10.9085 63.1009 11.4815 63.1009 12.08H64.1009ZM64.3635 10.7594C64.5521 10.3254 64.8101 9.94593 65.1385 9.61755L64.4314 8.91045C64.0131 9.32874 63.6844 9.81323 63.4464 10.3606L64.3635 10.7594ZM65.1385 9.61755C65.4531 9.30294 65.8306 9.04992 66.2767 8.86008L65.8852 7.93992C65.3286 8.17675 64.8421 8.49973 64.4314 8.91045L65.1385 9.61755ZM66.2767 8.86008C66.7162 8.67305 67.1723 8.58 67.6489 8.58V7.58C67.0376 7.58 66.4483 7.70029 65.8852 7.93992L66.2767 8.86008ZM67.6489 8.58C68.3672 8.58 68.9437 8.71284 69.399 8.95389L69.8669 8.07011C69.2342 7.73516 68.488 7.58 67.6489 7.58V8.58ZM69.4093 8.95921C69.8597 9.18438 70.2509 9.56452 70.5739 10.1345L71.4439 9.64149C71.0416 8.93148 70.5155 8.39428 69.8565 8.06479L69.4093 8.95921ZM71.5089 9.888V5.376H70.5089V9.888H71.5089ZM71.0089 5.876H71.7129V4.876H71.0089V5.876ZM71.2129 5.376V16H72.2129V5.376H71.2129ZM71.7129 15.5H71.0089V16.5H71.7129V15.5ZM71.5089 16V14.336H70.5089V16H71.5089ZM70.5726 14.0919C70.2633 14.6448 69.8768 15.0121 69.4196 15.2278L69.8462 16.1322C70.5198 15.8145 71.0505 15.2859 71.4453 14.5801L70.5726 14.0919ZM69.4196 15.2278C68.9336 15.457 68.3479 15.58 67.6489 15.58V16.58C68.4647 16.58 69.2016 16.4363 69.8462 16.1322L69.4196 15.2278ZM67.6489 8.316C67.1356 8.316 66.6428 8.41416 66.1749 8.61118L66.563 9.53282C66.9057 9.3885 67.2663 9.316 67.6489 9.316V8.316ZM66.1749 8.61118C65.7125 8.80589 65.3057 9.07616 64.9594 9.42245L65.6665 10.1296C65.9175 9.8785 66.2147 9.67944 66.563 9.53282L66.1749 8.61118ZM64.9594 9.42245C64.6063 9.77558 64.3301 10.18 64.134 10.6335L65.0519 11.0305C65.1971 10.6947 65.401 10.3951 65.6665 10.1296L64.9594 9.42245ZM64.134 10.6335C63.9358 11.092 63.8369 11.5756 63.8369 12.08H64.8369C64.8369 11.7097 64.9088 11.3614 65.0519 11.0305L64.134 10.6335ZM63.8369 12.08C63.8369 12.5844 63.9357 13.0716 64.1321 13.538L65.0538 13.15C64.9088 12.8057 64.8369 12.4503 64.8369 12.08H63.8369ZM64.1365 13.5482C64.3415 14.0063 64.6154 14.4096 64.9594 14.7536L65.6665 14.0464C65.4131 13.7931 65.2071 13.4924 65.0493 13.1398L64.1365 13.5482ZM64.9594 14.7536C65.3057 15.0998 65.7125 15.3701 66.1749 15.5648L66.563 14.6432C66.2147 14.4966 65.9175 14.2975 65.6665 14.0464L64.9594 14.7536ZM66.1749 15.5648C66.6428 15.7618 67.1356 15.86 67.6489 15.86V14.86C67.2663 14.86 66.9057 14.7875 66.563 14.6432L66.1749 15.5648ZM67.6489 15.86C68.1623 15.86 68.6551 15.7618 69.123 15.5648L68.7349 14.6432C68.3922 14.7875 68.0316 14.86 67.6489 14.86V15.86ZM69.1187 15.5666C69.592 15.3724 70.006 15.102 70.3545 14.7536L69.6474 14.0464C69.3985 14.2953 69.0979 14.4942 68.7392 14.6414L69.1187 15.5666ZM70.3545 14.7536C70.7008 14.4073 70.971 14.0005 71.1658 13.538L70.2441 13.15C70.0975 13.4982 69.8984 13.7954 69.6474 14.0464L70.3545 14.7536ZM71.1613 13.5482C71.371 13.0796 71.4769 12.5888 71.4769 12.08H70.4769C70.4769 12.4459 70.4016 12.7977 70.2485 13.1398L71.1613 13.5482ZM71.4769 12.08C71.4769 11.5711 71.3709 11.0839 71.1593 10.6232L70.2506 11.0408C70.4016 11.3695 70.4769 11.7142 70.4769 12.08H71.4769ZM71.1658 10.638C70.9695 10.1718 70.6913 9.76303 70.3322 9.4163L69.6376 10.1357C69.8972 10.3863 70.0991 10.6816 70.2441 11.026L71.1658 10.638ZM70.3322 9.4163C69.9775 9.07377 69.5679 8.80525 69.107 8.61118L68.7189 9.53282C69.0687 9.68009 69.3737 9.8809 69.6376 10.1357L70.3322 9.4163ZM69.1114 8.61307C68.6514 8.41417 68.1623 8.316 67.6489 8.316V9.316C68.0316 9.316 68.3851 9.38849 68.7145 9.53093L69.1114 8.61307ZM75.0358 19.04L74.8082 19.4852L74.8122 19.4872L75.0358 19.04ZM73.8198 18.032L73.5752 17.5959L73.0692 17.8798L73.4246 18.3383L73.8198 18.032ZM74.4758 17.664L74.8726 17.3598L74.609 17.016L74.2312 17.2279L74.4758 17.664ZM78.5558 17.904L78.9023 18.2646L78.9094 18.2576L78.5558 17.904ZM79.1478 17.088L78.7042 16.8573L78.6988 16.8678L78.6938 16.8785L79.1478 17.088ZM79.3558 14.752H79.8558V13.4004L78.9762 14.4266L79.3558 14.752ZM78.0598 15.792L77.87 15.3294L77.87 15.3294L78.0598 15.792ZM75.2918 15.792L75.102 16.2546L75.1061 16.2562L75.2918 15.792ZM74.1878 15.088L73.8462 15.4531L73.8467 15.4535L74.1878 15.088ZM73.4198 14.032L72.9634 14.2362L72.9655 14.2408L73.4198 14.032ZM73.1478 8V7.5H72.6478V8H73.1478ZM73.8838 8H74.3838V7.5H73.8838V8ZM74.6838 14.56L75.0374 14.2064L75.0374 14.2064L74.6838 14.56ZM75.5478 15.136L75.3544 15.5971L75.3596 15.5992L75.5478 15.136ZM78.5558 14.56L78.2023 14.2064L78.2023 14.2064L78.5558 14.56ZM79.3558 8V7.5H78.8558V8H79.3558ZM80.0918 8H80.5918V7.5H80.0918V8ZM79.0838 18.416L78.7303 18.0624L78.7303 18.0624L79.0838 18.416ZM76.6198 18.908C76.1297 18.908 75.6785 18.8023 75.2594 18.5928L74.8122 19.4872C75.3745 19.7683 75.9793 19.908 76.6198 19.908V18.908ZM75.2634 18.5948C74.8489 18.3829 74.5008 18.0944 74.215 17.7257L73.4246 18.3383C73.8002 18.8229 74.2628 19.2064 74.8083 19.4852L75.2634 18.5948ZM74.0644 18.4681L74.7204 18.1001L74.2312 17.2279L73.5752 17.5959L74.0644 18.4681ZM74.079 17.9682C74.3731 18.3518 74.7442 18.6515 75.1854 18.8658L75.6223 17.9662C75.3168 17.8179 75.0692 17.6162 74.8726 17.3598L74.079 17.9682ZM75.1854 18.8658C75.6304 19.0819 76.111 19.188 76.6198 19.188V18.188C76.254 18.188 75.9239 18.1127 75.6223 17.9662L75.1854 18.8658ZM76.6198 19.188C77.4971 19.188 78.2662 18.8757 78.9022 18.2646L78.2094 17.5434C77.7575 17.9777 77.2358 18.188 76.6198 18.188V19.188ZM78.9094 18.2576C79.2083 17.9586 79.444 17.6393 79.6018 17.2975L78.6938 16.8785C78.5956 17.0913 78.4367 17.3161 78.2023 17.5504L78.9094 18.2576ZM79.5914 17.3187C79.773 16.9695 79.8558 16.5786 79.8558 16.16H78.8558C78.8558 16.4454 78.8 16.6732 78.7042 16.8573L79.5914 17.3187ZM79.8558 16.16V14.752H78.8558V16.16H79.8558ZM78.9762 14.4266C78.5548 14.9182 78.1841 15.2006 77.87 15.3294L78.2496 16.2546C78.7675 16.0421 79.2608 15.6311 79.7354 15.0774L78.9762 14.4266ZM77.87 15.3294C77.5255 15.4708 77.112 15.548 76.6198 15.548V16.548C77.2156 16.548 77.7622 16.4546 78.2496 16.2546L77.87 15.3294ZM76.6198 15.548C76.2249 15.548 75.8452 15.4749 75.4775 15.3278L75.1061 16.2562C75.5917 16.4505 76.0974 16.548 76.6198 16.548V15.548ZM75.4816 15.3294C75.12 15.1811 74.8036 14.9788 74.529 14.7225L73.8467 15.4535C74.212 15.7946 74.6317 16.0616 75.102 16.2546L75.4816 15.3294ZM74.5294 14.7229C74.244 14.4559 74.0273 14.1565 73.8742 13.8232L72.9655 14.2408C73.175 14.6969 73.4702 15.1014 73.8462 15.4531L74.5294 14.7229ZM73.8762 13.8278C73.7232 13.4857 73.6478 13.1339 73.6478 12.768H72.6478C72.6478 13.2768 72.7538 13.7676 72.9634 14.2362L73.8762 13.8278ZM73.6478 12.768V8H72.6478V12.768H73.6478ZM73.1478 8.5H73.8838V7.5H73.1478V8.5ZM73.3838 8V12.656H74.3838V8H73.3838ZM73.3838 12.656C73.3838 13.5282 73.7058 14.2891 74.3303 14.9136L75.0374 14.2064C74.5952 13.7643 74.3838 13.2558 74.3838 12.656H73.3838ZM74.3303 14.9136C74.623 15.2063 74.966 15.4342 75.3544 15.5971L75.7412 14.6749C75.4683 14.5605 75.2352 14.4043 75.0374 14.2064L74.3303 14.9136ZM75.3596 15.5992C75.7615 15.7625 76.1828 15.844 76.6198 15.844V14.844C76.3101 14.844 76.0168 14.7868 75.736 14.6728L75.3596 15.5992ZM76.6198 15.844C77.5146 15.844 78.2889 15.534 78.9094 14.9136L78.2023 14.2064C77.7774 14.6313 77.261 14.844 76.6198 14.844V15.844ZM78.9094 14.9136C79.5339 14.2891 79.8558 13.5282 79.8558 12.656H78.8558C78.8558 13.2558 78.6444 13.7643 78.2023 14.2064L78.9094 14.9136ZM79.8558 12.656V8H78.8558V12.656H79.8558ZM79.3558 8.5H80.0918V7.5H79.3558V8.5ZM79.5918 8V16.16H80.5918V8H79.5918ZM79.5918 16.16C79.5918 16.5431 79.5192 16.8745 79.3834 17.1631L80.2882 17.5889C80.4937 17.1522 80.5918 16.6729 80.5918 16.16H79.5918ZM79.3834 17.1631C79.241 17.4656 79.0268 17.7659 78.7303 18.0624L79.4374 18.7696C79.8022 18.4047 80.0893 18.0117 80.2882 17.5889L79.3834 17.1631ZM78.7303 18.0624C78.4589 18.3338 78.1429 18.5418 77.7781 18.6878L78.1495 19.6162C78.638 19.4208 79.0687 19.1382 79.4374 18.7696L78.7303 18.0624ZM77.7781 18.6878C77.4118 18.8343 77.0269 18.908 76.6198 18.908V19.908C77.1514 19.908 77.6625 19.811 78.1495 19.6162L77.7781 18.6878Z" fill="white"/>
<path d="M16 30L11.6699 22.5H20.3301L16 30Z" fill="#FD841F"/>
</svg>
