<svg width="95" height="30" viewBox="0 0 95 30" fill="none" xmlns="http://www.w3.org/2000/svg">
<rect width="95" height="23" fill="#FD841F"/>
<path d="M9.74531 16V5.344H12.3693C13.1053 5.344 13.7986 5.48267 14.4493 5.76C15.1 6.02667 15.676 6.40533 16.1773 6.896C16.6786 7.39733 17.068 7.97333 17.3453 8.624C17.6226 9.264 17.7613 9.94667 17.7613 10.672C17.7613 11.3973 17.6226 12.0853 17.3453 12.736C17.068 13.376 16.6786 13.9413 16.1773 14.432C15.676 14.9333 15.1 15.3227 14.4493 15.6C13.7986 15.8667 13.1053 16 12.3693 16H9.74531ZM10.4813 6.064V15.28H12.3693C12.9986 15.28 13.6013 15.1627 14.1773 14.928C14.7533 14.6933 15.2546 14.3627 15.6813 13.936C16.108 13.5093 16.4386 13.0187 16.6733 12.464C16.9186 11.8987 17.0413 11.3013 17.0413 10.672C17.0413 10.0427 16.9186 9.45067 16.6733 8.896C16.4386 8.33067 16.108 7.83467 15.6813 7.408C15.2546 6.98133 14.7533 6.65067 14.1773 6.416C13.6013 6.18133 12.9986 6.064 12.3693 6.064H10.4813ZM22.7739 16.08C22.2299 16.08 21.7126 15.9733 21.2219 15.76C20.7313 15.5467 20.2993 15.2533 19.9259 14.88C19.5526 14.5067 19.2593 14.0747 19.0459 13.584C18.8326 13.0933 18.7259 12.576 18.7259 12.032C18.7259 11.4773 18.8326 10.9493 19.0459 10.448C19.2593 9.94667 19.5526 9.50933 19.9259 9.136C20.2993 8.76267 20.7313 8.47467 21.2219 8.272C21.7126 8.05867 22.2299 7.952 22.7739 7.952C23.3286 7.952 23.8566 8.05867 24.3579 8.272C24.8593 8.47467 25.2966 8.76267 25.6699 9.136C26.0433 9.50933 26.3313 9.94667 26.5339 10.448C26.7473 10.9493 26.8539 11.4773 26.8539 12.032C26.8539 12.576 26.7473 13.0933 26.5339 13.584C26.3313 14.0747 26.0433 14.5067 25.6699 14.88C25.2966 15.2533 24.8593 15.5467 24.3579 15.76C23.8566 15.9733 23.3286 16.08 22.7739 16.08ZM22.7739 8.672C22.3259 8.672 21.8993 8.75733 21.4939 8.928C21.0993 9.09867 20.7473 9.33867 20.4379 9.648C20.1286 9.95733 19.8833 10.32 19.7019 10.736C19.5313 11.152 19.4459 11.584 19.4459 12.032C19.4459 12.48 19.5313 12.9067 19.7019 13.312C19.8833 13.7173 20.1286 14.0747 20.4379 14.384C20.7473 14.6933 21.0993 14.9387 21.4939 15.12C21.8993 15.2907 22.3259 15.376 22.7739 15.376C23.2219 15.376 23.6539 15.2907 24.0699 15.12C24.4859 14.9387 24.8433 14.6933 25.1419 14.384C25.4513 14.0747 25.6913 13.7173 25.8619 13.312C26.0326 12.9067 26.1179 12.48 26.1179 12.032C26.1179 11.584 26.0273 11.152 25.8459 10.736C25.6753 10.32 25.4406 9.95733 25.1419 9.648C24.8433 9.33867 24.4859 9.09867 24.0699 8.928C23.6539 8.75733 23.2219 8.672 22.7739 8.672ZM31.8837 16.08C31.329 16.08 30.8064 15.9787 30.3157 15.776C29.8357 15.5627 29.4037 15.2693 29.0197 14.896C28.6464 14.5333 28.353 14.1067 28.1397 13.616C27.9264 13.1147 27.8197 12.592 27.8197 12.048C27.8197 11.504 27.9264 10.9867 28.1397 10.496C28.353 9.99467 28.6464 9.56267 29.0197 9.2C29.4037 8.82667 29.8357 8.53867 30.3157 8.336C30.8064 8.12267 31.329 8.016 31.8837 8.016C32.449 8.016 32.977 8.12267 33.4677 8.336C33.969 8.54933 34.4117 8.85333 34.7957 9.248L34.1397 9.632C33.841 9.344 33.4997 9.12533 33.1157 8.976C32.7317 8.82667 32.321 8.752 31.8837 8.752C31.4357 8.752 31.009 8.83733 30.6037 9.008C30.209 9.17867 29.857 9.41333 29.5477 9.712C29.2384 10.0107 28.993 10.3627 28.8117 10.768C28.641 11.1733 28.5557 11.6 28.5557 12.048C28.5557 12.496 28.641 12.9227 28.8117 13.328C28.993 13.7333 29.2384 14.0853 29.5477 14.384C29.857 14.6827 30.209 14.9173 30.6037 15.088C31.009 15.2587 31.4357 15.344 31.8837 15.344C32.321 15.344 32.7317 15.2693 33.1157 15.12C33.4997 14.9707 33.841 14.752 34.1397 14.464L34.7957 14.848C34.4117 15.2427 33.969 15.5467 33.4677 15.76C32.977 15.9733 32.449 16.08 31.8837 16.08ZM41.6857 15.92V14.816C41.3017 15.2853 40.9124 15.6107 40.5177 15.792C40.123 15.9733 39.7017 16.064 39.2537 16.064C38.8164 16.064 38.4004 15.984 38.0057 15.824C37.6217 15.6533 37.2857 15.424 36.9977 15.136C36.7097 14.848 36.4804 14.5173 36.3097 14.144C36.1497 13.76 36.0697 13.36 36.0697 12.944V8H36.8217V12.944C36.8217 13.264 36.8857 13.568 37.0137 13.856C37.1417 14.144 37.3177 14.4 37.5417 14.624C38.0004 15.104 38.571 15.344 39.2537 15.344C39.5737 15.344 39.883 15.28 40.1817 15.152C40.4804 15.024 40.7417 14.848 40.9657 14.624C41.1897 14.4 41.3657 14.144 41.4937 13.856C41.6217 13.568 41.6857 13.264 41.6857 12.944V8H42.4217V15.92H41.6857ZM53.9466 16V10.896C53.9466 10.608 53.8879 10.3307 53.7706 10.064C53.6639 9.79733 53.5146 9.56267 53.3226 9.36C53.1306 9.168 52.9066 9.01867 52.6506 8.912C52.3946 8.79467 52.1226 8.736 51.8346 8.736C51.2479 8.736 50.7466 8.944 50.3306 9.36C50.1386 9.552 49.9839 9.78133 49.8666 10.048C49.7599 10.304 49.7066 10.576 49.7066 10.864V16H48.9866V10.864C48.9866 10.576 48.9279 10.304 48.8106 10.048C48.7039 9.78133 48.5546 9.552 48.3626 9.36C48.1706 9.168 47.9412 9.01867 47.6746 8.912C47.4186 8.79467 47.1466 8.736 46.8586 8.736C46.5812 8.736 46.3146 8.79467 46.0586 8.912C45.8026 9.01867 45.5732 9.17333 45.3706 9.376C45.1786 9.57867 45.0239 9.81867 44.9066 10.096C44.7999 10.3627 44.7466 10.64 44.7466 10.928V16H44.0266V8.224H44.7466V9.248C44.9706 8.82133 45.2799 8.50667 45.6746 8.304C46.0799 8.10133 46.4746 8 46.8586 8C47.8292 8 48.6559 8.48 49.3386 9.44C50.0426 8.48 50.8746 8 51.8346 8C52.2186 8 52.5812 8.07467 52.9226 8.224C53.2639 8.36267 53.5679 8.56533 53.8346 8.832C54.1012 9.09867 54.3039 9.41333 54.4426 9.776C54.5919 10.128 54.6666 10.5013 54.6666 10.896V16H53.9466ZM56.8529 12.416C57.0236 13.3013 57.4129 14.0107 58.0209 14.544C58.6183 15.0773 59.3223 15.344 60.1329 15.344C60.6876 15.344 61.1943 15.2213 61.6529 14.976C62.1116 14.7307 62.5009 14.3947 62.8209 13.968L63.4609 14.32C63.0769 14.864 62.5969 15.296 62.0209 15.616C61.4449 15.9253 60.8156 16.08 60.1329 16.08C59.5889 16.08 59.0716 15.9787 58.5809 15.776C58.0903 15.5627 57.6583 15.2693 57.2849 14.896C56.9116 14.5227 56.6183 14.0907 56.4049 13.6C56.2023 13.1093 56.1009 12.592 56.1009 12.048C56.1009 11.504 56.2023 10.9867 56.4049 10.496C56.6183 9.99467 56.9116 9.55733 57.2849 9.184C57.6476 8.81067 58.0743 8.52267 58.5649 8.32C59.0663 8.11733 59.5889 8.016 60.1329 8.016C60.6769 8.016 61.1943 8.11733 61.6849 8.32C62.1863 8.52267 62.6183 8.81067 62.9809 9.184C63.3223 9.536 63.6049 9.98933 63.8289 10.544C64.0636 11.0987 64.1809 11.6373 64.1809 12.16L64.1649 12.416H56.8529ZM60.1329 8.736C59.3223 8.736 58.6183 9.00267 58.0209 9.536C57.4129 10.0693 57.0236 10.7787 56.8529 11.664H63.4129C63.2423 10.7787 62.8529 10.0693 62.2449 9.536C61.6476 9.00267 60.9436 8.736 60.1329 8.736ZM71.2203 16V11.12C71.2203 10.8 71.1563 10.496 71.0283 10.208C70.911 9.92 70.7403 9.664 70.5163 9.44C70.2923 9.216 70.0256 9.04533 69.7163 8.928C69.4176 8.8 69.1083 8.736 68.7883 8.736C68.3616 8.736 67.9616 8.84267 67.5883 9.056C67.215 9.26933 66.9163 9.55733 66.6923 9.92C66.4683 10.2827 66.3563 10.6827 66.3563 11.12V16H65.6203V8.224H66.3563V9.312C66.655 8.84267 67.0176 8.50667 67.4443 8.304C67.8816 8.10133 68.3296 8 68.7883 8C69.215 8 69.6203 8.08 70.0043 8.24C70.399 8.4 70.7456 8.624 71.0443 8.912C71.3323 9.2 71.5563 9.536 71.7163 9.92C71.887 10.304 71.9723 10.704 71.9723 11.12V16H71.2203ZM75.5132 8.72V16H74.7772V8.72H73.2572V8H74.7772V5.36H75.5132V8H77.0172V8.72H75.5132ZM82.6997 15.376C82.1877 15.8453 81.5157 16.08 80.6837 16.08C79.7557 16.08 79.0357 15.84 78.5237 15.36C78.1824 15.0293 77.953 14.624 77.8357 14.144H78.6197C78.7477 14.5387 78.9984 14.8427 79.3717 15.056C79.745 15.2587 80.1664 15.36 80.6357 15.36C81.2437 15.36 81.7397 15.2053 82.1237 14.896C82.4757 14.608 82.6517 14.2507 82.6517 13.824C82.6517 13.2267 82.4437 12.8213 82.0277 12.608C81.6864 12.448 81.185 12.368 80.5237 12.368C79.873 12.368 79.3984 12.304 79.0997 12.176C78.801 12.0373 78.545 11.8507 78.3317 11.616C78.001 11.2213 77.8357 10.752 77.8357 10.208C77.8357 9.84533 77.9104 9.504 78.0597 9.184C78.209 8.85333 78.4224 8.592 78.6997 8.4C79.1797 8.06933 79.8037 7.904 80.5717 7.904C81.2224 7.904 81.7664 8.032 82.2037 8.288C82.5024 8.45867 82.7637 8.71467 82.9877 9.056C83.1477 9.312 83.2597 9.584 83.3237 9.872H82.5397C82.4757 9.65867 82.4117 9.504 82.3477 9.408C82.0277 8.91733 81.4677 8.656 80.6677 8.624C80.177 8.624 79.7877 8.68267 79.4997 8.8C79.2117 8.928 78.9877 9.11467 78.8277 9.36C78.6677 9.60533 78.5877 9.872 78.5877 10.16C78.5877 10.32 78.609 10.464 78.6517 10.592C78.7797 11.0613 79.057 11.36 79.4837 11.488C79.6864 11.5627 79.9104 11.6053 80.1557 11.616C80.4117 11.6267 80.561 11.632 80.6037 11.632C81.0197 11.6533 81.3557 11.6853 81.6117 11.728C81.8677 11.7707 82.1344 11.8613 82.4117 12C83.073 12.3413 83.4037 12.9547 83.4037 13.84C83.393 14.4267 83.1584 14.9387 82.6997 15.376Z" fill="white"/>
<path d="M9.74531 16H9.24531V16.5H9.74531V16ZM9.74531 5.344V4.844H9.24531V5.344H9.74531ZM14.4493 5.76L14.2532 6.22001L14.2597 6.22265L14.4493 5.76ZM16.1773 6.896L16.5309 6.54243L16.527 6.53867L16.1773 6.896ZM17.3453 8.624L16.8853 8.82005L16.8865 8.8228L17.3453 8.624ZM17.3453 12.736L17.8041 12.9348L17.8053 12.932L17.3453 12.736ZM16.1773 14.432L15.8276 14.0746L15.8238 14.0784L16.1773 14.432ZM14.4493 15.6L14.6389 16.0627L14.6454 16.06L14.4493 15.6ZM10.4813 6.064V5.564H9.98131V6.064H10.4813ZM10.4813 15.28H9.98131V15.78H10.4813V15.28ZM14.1773 14.928L14.366 15.391L14.366 15.391L14.1773 14.928ZM15.6813 13.936L16.0349 14.2896L16.0349 14.2896L15.6813 13.936ZM16.6733 12.464L16.2146 12.2649L16.2128 12.2692L16.6733 12.464ZM16.6733 8.896L16.2114 9.08774L16.216 9.09825L16.6733 8.896ZM15.6813 7.408L16.0349 7.05445L15.6813 7.408ZM14.1773 6.416L14.366 5.95295L14.366 5.95295L14.1773 6.416ZM10.2453 16V5.344H9.24531V16H10.2453ZM9.74531 5.844H12.3693V4.844H9.74531V5.844ZM12.3693 5.844C13.0407 5.844 13.6671 5.97012 14.2533 6.21996L14.6454 5.30004C13.9302 4.99521 13.1699 4.844 12.3693 4.844V5.844ZM14.2597 6.22265C14.8509 6.46493 15.3724 6.80788 15.8276 7.25333L16.527 6.53867C15.9795 6.00278 15.3491 5.58841 14.6389 5.29735L14.2597 6.22265ZM15.8238 7.24955C16.28 7.70578 16.6332 8.22835 16.8854 8.82005L17.8053 8.42795C17.5028 7.71832 17.0773 7.08888 16.5309 6.54245L15.8238 7.24955ZM16.8865 8.8228C17.1356 9.39754 17.2613 10.0123 17.2613 10.672H18.2613C18.2613 9.88106 18.1097 9.13046 17.8041 8.4252L16.8865 8.8228ZM17.2613 10.672C17.2613 11.3317 17.1356 11.9529 16.8854 12.54L17.8053 12.932C18.1097 12.2178 18.2613 11.463 18.2613 10.672H17.2613ZM16.8865 12.5372C16.6351 13.1174 16.2829 13.629 15.8276 14.0747L16.527 14.7893C17.0744 14.2536 17.5009 13.6346 17.8041 12.9348L16.8865 12.5372ZM15.8238 14.0784C15.3675 14.5347 14.845 14.8878 14.2533 15.14L14.6454 16.06C15.355 15.7575 15.9844 15.332 16.5309 14.7856L15.8238 14.0784ZM14.2597 15.1373C13.672 15.3782 13.0434 15.5 12.3693 15.5V16.5C13.1673 16.5 13.9253 16.3551 14.6389 16.0627L14.2597 15.1373ZM12.3693 15.5H9.74531V16.5H12.3693V15.5ZM9.98131 6.064V15.28H10.9813V6.064H9.98131ZM10.4813 15.78H12.3693V14.78H10.4813V15.78ZM12.3693 15.78C13.0625 15.78 13.7293 15.6504 14.366 15.391L13.9887 14.465C13.4733 14.6749 12.9348 14.78 12.3693 14.78V15.78ZM14.366 15.391C15.0017 15.132 15.5596 14.7648 16.0349 14.2896L15.3278 13.5824C14.9497 13.9605 14.5049 14.2546 13.9887 14.465L14.366 15.391ZM16.0349 14.2896C16.507 13.8174 16.874 13.2729 17.1338 12.6588L16.2128 12.2692C16.0033 12.7644 15.709 13.2012 15.3278 13.5824L16.0349 14.2896ZM17.132 12.663C17.4052 12.0335 17.5413 11.3683 17.5413 10.672H16.5413C16.5413 11.2343 16.4321 11.7638 16.2146 12.265L17.132 12.663ZM17.5413 10.672C17.5413 9.97569 17.4052 9.31453 17.1306 8.69375L16.216 9.09825C16.4321 9.5868 16.5413 10.1096 16.5413 10.672H17.5413ZM17.1351 8.70431C16.8757 8.07935 16.5086 7.52813 16.0349 7.05445L15.3278 7.76155C15.7074 8.1412 16.0016 8.58199 16.2115 9.08769L17.1351 8.70431ZM16.0349 7.05445C15.5596 6.5792 15.0017 6.21197 14.366 5.95295L13.9887 6.87905C14.5049 7.08936 14.9497 7.38347 15.3278 7.76155L16.0349 7.05445ZM14.366 5.95295C13.7293 5.69359 13.0625 5.564 12.3693 5.564V6.564C12.9348 6.564 13.4733 6.66908 13.9887 6.87905L14.366 5.95295ZM12.3693 5.564H10.4813V6.564H12.3693V5.564ZM21.2219 15.76L21.4213 15.3015L21.2219 15.76ZM19.9259 14.88L19.5724 15.2336L19.5724 15.2336L19.9259 14.88ZM19.0459 13.584L18.5874 13.7834L18.5874 13.7834L19.0459 13.584ZM19.0459 10.448L19.506 10.6438L19.506 10.6438L19.0459 10.448ZM19.9259 9.136L19.5724 8.78245L19.5724 8.78245L19.9259 9.136ZM21.2219 8.272L21.4129 8.73421L21.4213 8.73053L21.2219 8.272ZM24.3579 8.272L24.1621 8.73215L24.1705 8.73555L24.3579 8.272ZM25.6699 9.136L26.0235 8.78245L26.0235 8.78245L25.6699 9.136ZM26.5339 10.448L26.0703 10.6354L26.0739 10.6438L26.5339 10.448ZM26.5339 13.584L26.0753 13.3846L26.0718 13.3931L26.5339 13.584ZM25.6699 14.88L26.0235 15.2336L26.0235 15.2336L25.6699 14.88ZM24.3579 15.76L24.1622 15.2999L24.1622 15.2999L24.3579 15.76ZM21.4939 8.928L21.2999 8.46716L21.2955 8.46907L21.4939 8.928ZM20.4379 9.648L20.7915 10.0016L20.7915 10.0016L20.4379 9.648ZM19.7019 10.736L19.2435 10.5362L19.2394 10.5462L19.7019 10.736ZM19.7019 13.312L19.241 13.5061L19.2455 13.5162L19.7019 13.312ZM20.4379 14.384L20.0844 14.7376L20.0844 14.7376L20.4379 14.384ZM21.4939 15.12L21.2852 15.5743L21.2925 15.5777L21.2999 15.5808L21.4939 15.12ZM24.0699 15.12L24.2598 15.5827L24.2697 15.5783L24.0699 15.12ZM25.1419 14.384L24.7883 14.0304L24.7822 14.0367L25.1419 14.384ZM25.8459 10.736L25.3832 10.9258L25.3876 10.9358L25.8459 10.736ZM25.1419 9.648L24.7822 9.9953L24.7822 9.9953L25.1419 9.648ZM22.7739 15.58C22.2974 15.58 21.848 15.487 21.4213 15.3015L21.0226 16.2185C21.5772 16.4597 22.1625 16.58 22.7739 16.58V15.58ZM21.4213 15.3015C20.9874 15.1128 20.6079 14.8548 20.2795 14.5264L19.5724 15.2336C19.9907 15.6518 20.4752 15.9805 21.0226 16.2185L21.4213 15.3015ZM20.2795 14.5264C19.9511 14.1981 19.6931 13.8186 19.5045 13.3846L18.5874 13.7834C18.8254 14.3308 19.1541 14.8153 19.5724 15.2336L20.2795 14.5264ZM19.5045 13.3846C19.319 12.958 19.2259 12.5086 19.2259 12.032H18.2259C18.2259 12.6434 18.3463 13.2287 18.5874 13.7834L19.5045 13.3846ZM19.2259 12.032C19.2259 11.5434 19.3195 11.0821 19.506 10.6438L18.5859 10.2522C18.3457 10.8166 18.2259 11.4113 18.2259 12.032H19.2259ZM19.506 10.6438C19.6951 10.1995 19.9529 9.81615 20.2795 9.48955L19.5724 8.78245C19.1523 9.20252 18.8235 9.69388 18.5859 10.2522L19.506 10.6438ZM20.2795 9.48955C20.606 9.16303 20.9827 8.91181 21.4128 8.73413L21.0311 7.80987C20.4799 8.03752 19.9925 8.3623 19.5724 8.78245L20.2795 9.48955ZM21.4213 8.73053C21.848 8.54502 22.2974 8.452 22.7739 8.452V7.452C22.1625 7.452 21.5772 7.57231 21.0226 7.81346L21.4213 8.73053ZM22.7739 8.452C23.2626 8.452 23.7239 8.54557 24.1622 8.73208L24.5537 7.81192C23.9893 7.57176 23.3946 7.452 22.7739 7.452V8.452ZM24.1705 8.73555C24.6112 8.9137 24.9917 9.16483 25.3164 9.48955L26.0235 8.78245C25.6016 8.36051 25.1073 8.03563 24.5453 7.80844L24.1705 8.73555ZM25.3164 9.48955C25.6411 9.81428 25.8922 10.1947 26.0704 10.6354L26.9975 10.2606C26.7703 9.69861 26.4454 9.20439 26.0235 8.78245L25.3164 9.48955ZM26.0739 10.6438C26.2604 11.0821 26.3539 11.5434 26.3539 12.032H27.3539C27.3539 11.4113 27.2342 10.8166 26.994 10.2522L26.0739 10.6438ZM26.3539 12.032C26.3539 12.5086 26.2609 12.958 26.0754 13.3846L26.9925 13.7834C27.2336 13.2287 27.3539 12.6434 27.3539 12.032H26.3539ZM26.0718 13.3931C25.8941 13.8233 25.6429 14.1999 25.3164 14.5264L26.0235 15.2336C26.4436 14.8134 26.7684 14.326 26.9961 13.7749L26.0718 13.3931ZM25.3164 14.5264C24.9898 14.853 24.6065 15.1108 24.1622 15.2999L24.5537 16.2201C25.1121 15.9825 25.6034 15.6536 26.0235 15.2336L25.3164 14.5264ZM24.1622 15.2999C23.7239 15.4864 23.2626 15.58 22.7739 15.58V16.58C23.3946 16.58 23.9893 16.4602 24.5537 16.2201L24.1622 15.2999ZM22.7739 8.172C22.2606 8.172 21.7678 8.27016 21.2999 8.46718L21.688 9.38882C22.0307 9.2445 22.3913 9.172 22.7739 9.172V8.172ZM21.2955 8.46907C20.8419 8.66521 20.4375 8.94131 20.0844 9.29445L20.7915 10.0016C21.057 9.73602 21.3566 9.53212 21.6924 9.38693L21.2955 8.46907ZM20.0844 9.29445C19.7292 9.64967 19.449 10.065 19.2436 10.5362L20.1603 10.9358C20.3176 10.575 20.5281 10.265 20.7915 10.0016L20.0844 9.29445ZM19.2394 10.5462C19.0441 11.0222 18.9459 11.5187 18.9459 12.032H19.9459C19.9459 11.6493 20.0185 11.2818 20.1645 10.9258L19.2394 10.5462ZM18.9459 12.032C18.9459 12.5454 19.0441 13.0381 19.2411 13.506L20.1628 13.118C20.0184 12.7752 19.9459 12.4146 19.9459 12.032H18.9459ZM19.2455 13.5162C19.4514 13.9763 19.7313 14.3845 20.0844 14.7376L20.7915 14.0304C20.5259 13.7649 20.3152 13.4584 20.1583 13.1078L19.2455 13.5162ZM20.0844 14.7376C20.4353 15.0885 20.8363 15.3681 21.2852 15.5743L21.7027 14.6657C21.3623 14.5093 21.0592 14.2982 20.7915 14.0304L20.0844 14.7376ZM21.2999 15.5808C21.7678 15.7778 22.2606 15.876 22.7739 15.876V14.876C22.3913 14.876 22.0307 14.8035 21.688 14.6592L21.2999 15.5808ZM22.7739 15.876C23.2873 15.876 23.7837 15.7779 24.2597 15.5826L23.8802 14.6574C23.5242 14.8035 23.1566 14.876 22.7739 14.876V15.876ZM24.2697 15.5783C24.7424 15.3723 25.155 15.0903 25.5016 14.7313L24.7822 14.0367C24.5316 14.2963 24.2295 14.505 23.8701 14.6617L24.2697 15.5783ZM25.4955 14.7376C25.8508 14.3822 26.1271 13.9706 26.3228 13.506L25.4011 13.118C25.2554 13.464 25.0517 13.7671 24.7884 14.0304L25.4955 14.7376ZM26.3228 13.506C26.5198 13.0381 26.6179 12.5454 26.6179 12.032H25.6179C25.6179 12.4146 25.5454 12.7752 25.4011 13.118L26.3228 13.506ZM26.6179 12.032C26.6179 11.5143 26.5127 11.0144 26.3043 10.5362L25.3876 10.9358C25.5418 11.2896 25.6179 11.6537 25.6179 12.032H26.6179ZM26.3085 10.5462C26.115 10.0744 25.8463 9.65763 25.5016 9.3007L24.7822 9.9953C25.035 10.257 25.2356 10.5656 25.3834 10.9258L26.3085 10.5462ZM25.5016 9.3007C25.1527 8.93933 24.7367 8.66112 24.2597 8.46542L23.8802 9.39058C24.2351 9.53622 24.5338 9.73801 24.7822 9.9953L25.5016 9.3007ZM24.2597 8.46542C23.7837 8.27014 23.2873 8.172 22.7739 8.172V9.172C23.1566 9.172 23.5242 9.24453 23.8802 9.39058L24.2597 8.46542ZM30.3157 15.776L30.1125 16.2331L30.1248 16.2381L30.3157 15.776ZM29.0197 14.896L29.3682 14.5375L29.3681 14.5374L29.0197 14.896ZM28.1397 13.616L27.6796 13.8118L27.6812 13.8154L28.1397 13.616ZM28.1397 10.496L28.5982 10.6954L28.5998 10.6918L28.1397 10.496ZM29.0197 9.2L29.3681 9.55864L29.3682 9.5585L29.0197 9.2ZM30.3157 8.336L30.5102 8.79665L30.5151 8.79453L30.3157 8.336ZM33.4677 8.336L33.2683 8.79455L33.2719 8.79608L33.4677 8.336ZM34.7957 9.248L35.0483 9.67951L35.5993 9.35695L35.1541 8.89932L34.7957 9.248ZM34.1397 9.632L33.7926 9.99192L34.0653 10.2549L34.3923 10.0635L34.1397 9.632ZM33.1157 8.976L33.2969 8.51L33.2969 8.51L33.1157 8.976ZM30.6037 9.008L30.4097 8.54716L30.4052 8.54907L30.6037 9.008ZM29.5477 9.712L29.895 10.0717L29.895 10.0717L29.5477 9.712ZM28.8117 10.768L28.3552 10.5638L28.3509 10.574L28.8117 10.768ZM28.8117 13.328L28.3508 13.5221L28.3553 13.5322L28.8117 13.328ZM29.5477 14.384L29.2004 14.7437L29.2004 14.7437L29.5477 14.384ZM30.6037 15.088L30.4052 15.5469L30.4097 15.5488L30.6037 15.088ZM33.1157 15.12L33.2969 15.586L33.2969 15.586L33.1157 15.12ZM34.1397 14.464L34.3923 14.0325L34.0653 13.8411L33.7926 14.1041L34.1397 14.464ZM34.7957 14.848L35.1541 15.1967L35.5993 14.739L35.0483 14.4165L34.7957 14.848ZM33.4677 15.76L33.2719 15.2999L33.2683 15.3015L33.4677 15.76ZM31.8837 15.58C31.3915 15.58 30.934 15.4904 30.5066 15.3139L30.1248 16.2381C30.6787 16.4669 31.2665 16.58 31.8837 16.58V15.58ZM30.5188 15.3191C30.0937 15.1302 29.7108 14.8705 29.3682 14.5375L28.6711 15.2545C29.0966 15.6681 29.5776 15.9951 30.1126 16.2329L30.5188 15.3191ZM29.3681 14.5374C29.0428 14.2214 28.7863 13.8492 28.5982 13.4166L27.6812 13.8154C27.9197 14.3641 28.2499 14.8453 28.6713 15.2546L29.3681 14.5374ZM28.5998 13.4202C28.4127 12.9807 28.3197 12.5246 28.3197 12.048H27.3197C27.3197 12.6594 27.44 13.2486 27.6796 13.8118L28.5998 13.4202ZM28.3197 12.048C28.3197 11.5714 28.4127 11.122 28.5982 10.6954L27.6812 10.2966C27.44 10.8513 27.3197 11.4366 27.3197 12.048H28.3197ZM28.5998 10.6918C28.7883 10.2487 29.0447 9.87283 29.3681 9.55864L28.6713 8.84136C28.2481 9.25251 27.9177 9.74063 27.6796 10.3002L28.5998 10.6918ZM29.3682 9.5585C29.7089 9.22725 30.089 8.97444 30.5102 8.79662L30.1212 7.87537C29.5823 8.10289 29.0984 8.42608 28.6711 8.8415L29.3682 9.5585ZM30.5151 8.79453C30.9405 8.60956 31.395 8.516 31.8837 8.516V7.516C31.263 7.516 30.6722 7.63577 30.1163 7.87746L30.5151 8.79453ZM31.8837 8.516C32.3844 8.516 32.8441 8.61009 33.2683 8.79453L33.6671 7.87746C33.11 7.63525 32.5137 7.516 31.8837 7.516V8.516ZM33.2719 8.79608C33.7115 8.98315 34.0991 9.24904 34.4373 9.59668L35.1541 8.89932C34.7243 8.45762 34.2265 8.11552 33.6635 7.87592L33.2719 8.79608ZM34.5431 8.81649L33.8871 9.20049L34.3923 10.0635L35.0483 9.67951L34.5431 8.81649ZM34.4868 9.27208C34.1407 8.93841 33.7431 8.68352 33.2969 8.51L32.9345 9.442C33.2563 9.56714 33.5413 9.74959 33.7926 9.99192L34.4868 9.27208ZM33.2969 8.51C32.8517 8.33684 32.3792 8.252 31.8837 8.252V9.252C32.2629 9.252 32.6117 9.31649 32.9345 9.442L33.2969 8.51ZM31.8837 8.252C31.3703 8.252 30.8776 8.35016 30.4097 8.54718L30.7977 9.46882C31.1405 9.3245 31.5011 9.252 31.8837 9.252V8.252ZM30.4052 8.54907C29.9554 8.7436 29.553 9.01188 29.2004 9.3523L29.895 10.0717C30.1611 9.81479 30.4627 9.61374 30.8021 9.46693L30.4052 8.54907ZM29.2004 9.3523C28.8436 9.69681 28.5618 10.1021 28.3553 10.5638L29.2681 10.9722C29.4242 10.6232 29.6331 10.3245 29.895 10.0717L29.2004 9.3523ZM28.3509 10.574C28.1539 11.0419 28.0557 11.5346 28.0557 12.048H29.0557C29.0557 11.6654 29.1282 11.3048 29.2725 10.962L28.3509 10.574ZM28.0557 12.048C28.0557 12.5614 28.1539 13.0541 28.3509 13.522L29.2725 13.134C29.1282 12.7912 29.0557 12.4306 29.0557 12.048H28.0557ZM28.3553 13.5322C28.5618 13.9939 28.8436 14.3992 29.2004 14.7437L29.895 14.0243C29.6331 13.7715 29.4242 13.4728 29.2681 13.1238L28.3553 13.5322ZM29.2004 14.7437C29.553 15.0841 29.9554 15.3524 30.4052 15.5469L30.8021 14.6291C30.4627 14.4823 30.1611 14.2812 29.895 14.0243L29.2004 14.7437ZM30.4097 15.5488C30.8776 15.7458 31.3703 15.844 31.8837 15.844V14.844C31.5011 14.844 31.1405 14.7715 30.7977 14.6272L30.4097 15.5488ZM31.8837 15.844C32.3792 15.844 32.8517 15.7592 33.2969 15.586L32.9345 14.654C32.6117 14.7795 32.2629 14.844 31.8837 14.844V15.844ZM33.2969 15.586C33.7431 15.4125 34.1407 15.1576 34.4868 14.8239L33.7926 14.1041C33.5413 14.3464 33.2563 14.5289 32.9345 14.654L33.2969 15.586ZM33.8871 14.8955L34.5431 15.2795L35.0483 14.4165L34.3923 14.0325L33.8871 14.8955ZM34.4373 14.4993C34.0991 14.847 33.7115 15.1129 33.2719 15.2999L33.6635 16.2201C34.2265 15.9805 34.7243 15.6384 35.1541 15.1967L34.4373 14.4993ZM33.2683 15.3015C32.8441 15.4859 32.3844 15.58 31.8837 15.58V16.58C32.5137 16.58 33.11 16.4608 33.6671 16.2185L33.2683 15.3015ZM41.6857 15.92H41.1857V16.42H41.6857V15.92ZM41.6857 14.816H42.1857V13.4153L41.2987 14.4994L41.6857 14.816ZM40.5177 15.792L40.7264 16.2463L40.5177 15.792ZM38.0057 15.824L37.8026 16.2809L37.8102 16.2843L37.8178 16.2874L38.0057 15.824ZM36.9977 15.136L37.3512 14.7824L37.3512 14.7824L36.9977 15.136ZM36.3097 14.144L35.8481 14.3363L35.8514 14.3442L35.855 14.3519L36.3097 14.144ZM36.0697 8V7.5H35.5697V8H36.0697ZM36.8217 8H37.3217V7.5H36.8217V8ZM37.0137 13.856L36.5568 14.0591L36.5568 14.0591L37.0137 13.856ZM37.5417 14.624L37.9033 14.2785L37.8952 14.2704L37.5417 14.624ZM40.9657 14.624L41.3192 14.9776L41.3192 14.9776L40.9657 14.624ZM41.4937 13.856L41.0368 13.6529L41.0368 13.6529L41.4937 13.856ZM41.6857 8V7.5H41.1857V8H41.6857ZM42.4217 8H42.9217V7.5H42.4217V8ZM42.4217 15.92V16.42H42.9217V15.92H42.4217ZM42.1857 15.92V14.816H41.1857V15.92H42.1857ZM41.2987 14.4994C40.945 14.9317 40.6127 15.1981 40.3089 15.3377L40.7264 16.2463C41.212 16.0232 41.6584 15.6389 42.0727 15.1326L41.2987 14.4994ZM40.3089 15.3377C39.9818 15.488 39.632 15.564 39.2537 15.564V16.564C39.7714 16.564 40.2642 16.4587 40.7264 16.2463L40.3089 15.3377ZM39.2537 15.564C38.879 15.564 38.5269 15.4958 38.1935 15.3606L37.8178 16.2874C38.2738 16.4722 38.7537 16.564 39.2537 16.564V15.564ZM38.2088 15.3671C37.879 15.2205 37.5945 15.0257 37.3512 14.7824L36.6441 15.4896C36.9769 15.8223 37.3644 16.0861 37.8026 16.2809L38.2088 15.3671ZM37.3512 14.7824C37.1057 14.5369 36.9105 14.2557 36.7644 13.9361L35.855 14.3519C36.0502 14.779 36.3137 15.1591 36.6441 15.4896L37.3512 14.7824ZM36.7712 13.9517C36.6366 13.6286 36.5697 13.294 36.5697 12.944H35.5697C35.5697 13.426 35.6628 13.8914 35.8481 14.3363L36.7712 13.9517ZM36.5697 12.944V8H35.5697V12.944H36.5697ZM36.0697 8.5H36.8217V7.5H36.0697V8.5ZM36.3217 8V12.944H37.3217V8H36.3217ZM36.3217 12.944C36.3217 13.3329 36.3999 13.7061 36.5568 14.0591L37.4706 13.6529C37.3715 13.4299 37.3217 13.1951 37.3217 12.944H36.3217ZM36.5568 14.0591C36.7098 14.4034 36.921 14.7104 37.1881 14.9776L37.8952 14.2704C37.7144 14.0896 37.5735 13.8846 37.4706 13.6529L36.5568 14.0591ZM37.1802 14.9694C37.7362 15.5513 38.4388 15.844 39.2537 15.844V14.844C38.7032 14.844 38.2646 14.6567 37.9032 14.2786L37.1802 14.9694ZM39.2537 15.844C39.6425 15.844 40.0187 15.7658 40.3786 15.6116L39.9847 14.6924C39.7473 14.7942 39.5049 14.844 39.2537 14.844V15.844ZM40.3786 15.6116C40.7342 15.4592 41.0491 15.2477 41.3192 14.9776L40.6121 14.2704C40.4343 14.4483 40.2265 14.5888 39.9847 14.6924L40.3786 15.6116ZM41.3192 14.9776C41.5864 14.7104 41.7975 14.4034 41.9506 14.0591L41.0368 13.6529C40.9338 13.8846 40.793 14.0896 40.6121 14.2704L41.3192 14.9776ZM41.9506 14.0591C42.1075 13.7061 42.1857 13.3329 42.1857 12.944H41.1857C41.1857 13.1951 41.1359 13.4299 41.0368 13.6529L41.9506 14.0591ZM42.1857 12.944V8H41.1857V12.944H42.1857ZM41.6857 8.5H42.4217V7.5H41.6857V8.5ZM41.9217 8V15.92H42.9217V8H41.9217ZM42.4217 15.42H41.6857V16.42H42.4217V15.42ZM53.9466 16H53.4466V16.5H53.9466V16ZM53.7706 10.064L53.3063 10.2497L53.3095 10.2576L53.3129 10.2654L53.7706 10.064ZM53.3226 9.36L53.6857 9.016L53.6761 9.00645L53.3226 9.36ZM52.6506 8.912L52.4422 9.36653L52.4502 9.37018L52.4583 9.37354L52.6506 8.912ZM50.3306 9.36L50.6841 9.71355L50.6841 9.71355L50.3306 9.36ZM49.8666 10.048L49.4088 9.84659L49.405 9.85569L49.8666 10.048ZM49.7066 16V16.5H50.2066V16H49.7066ZM48.9866 16H48.4866V16.5H48.9866V16ZM48.8106 10.048L48.3463 10.2337L48.3509 10.2451L48.356 10.2563L48.8106 10.048ZM47.6746 8.912L47.4662 9.36653L47.4774 9.37166L47.4889 9.37624L47.6746 8.912ZM46.0586 8.912L46.2509 9.37354L46.2589 9.37018L46.2669 9.36653L46.0586 8.912ZM45.3706 9.376L45.0169 9.02232L45.0076 9.03213L45.3706 9.376ZM44.9066 10.096L44.446 9.90114L44.4423 9.9103L44.9066 10.096ZM44.7466 16V16.5H45.2466V16H44.7466ZM44.0266 16H43.5266V16.5H44.0266V16ZM44.0266 8.224V7.724H43.5266V8.224H44.0266ZM44.7466 8.224H45.2466V7.724H44.7466V8.224ZM44.7466 9.248H44.2466L45.1893 9.48042L44.7466 9.248ZM45.6746 8.304L45.4509 7.85676L45.4462 7.85922L45.6746 8.304ZM49.3386 9.44L48.9311 9.72976L49.3323 10.294L49.7418 9.73568L49.3386 9.44ZM52.9226 8.224L52.7221 8.68224L52.7344 8.68723L52.9226 8.224ZM53.8346 8.832L54.1881 8.47845L54.1881 8.47845L53.8346 8.832ZM54.4426 9.776L53.9755 9.95457L53.9788 9.96298L53.9823 9.97127L54.4426 9.776ZM54.6666 16V16.5H55.1666V16H54.6666ZM54.4466 16V10.896H53.4466V16H54.4466ZM54.4466 10.896C54.4466 10.5378 54.3731 10.192 54.2282 9.86263L53.3129 10.2654C53.4026 10.4693 53.4466 10.6782 53.4466 10.896H54.4466ZM54.2348 9.8783C54.1054 9.55471 53.9222 9.26598 53.6855 9.01613L52.9596 9.70387C53.1069 9.85936 53.2224 10.04 53.3063 10.2497L54.2348 9.8783ZM53.6761 9.00645C53.4369 8.76727 53.1578 8.5817 52.8429 8.45046L52.4583 9.37354C52.6553 9.45564 52.8242 9.56873 52.969 9.71355L53.6761 9.00645ZM52.8589 8.45747C52.536 8.30948 52.1928 8.236 51.8346 8.236V9.236C52.0523 9.236 52.2531 9.27985 52.4422 9.36653L52.8589 8.45747ZM51.8346 8.236C51.1149 8.236 50.4865 8.49697 49.977 9.00645L50.6841 9.71355C51.0066 9.39102 51.3809 9.236 51.8346 9.236V8.236ZM49.977 9.00645C49.7381 9.24539 49.5494 9.52739 49.4089 9.84663L50.3242 10.2494C50.4184 10.0353 50.5391 9.85861 50.6841 9.71355L49.977 9.00645ZM49.405 9.85569C49.272 10.175 49.2066 10.5126 49.2066 10.864H50.2066C50.2066 10.6394 50.2478 10.433 50.3281 10.2403L49.405 9.85569ZM49.2066 10.864V16H50.2066V10.864H49.2066ZM49.7066 15.5H48.9866V16.5H49.7066V15.5ZM49.4866 16V10.864H48.4866V16H49.4866ZM49.4866 10.864C49.4866 10.5058 49.4131 10.1625 49.2651 9.83967L48.356 10.2563C48.4427 10.4455 48.4866 10.6462 48.4866 10.864H49.4866ZM49.2748 9.8623C49.1445 9.53646 48.9587 9.24906 48.7161 9.00645L48.009 9.71355C48.1504 9.85494 48.2633 10.0262 48.3463 10.2337L49.2748 9.8623ZM48.7161 9.00645C48.4735 8.76383 48.1861 8.5781 47.8603 8.44776L47.4889 9.37624C47.6964 9.45923 47.8676 9.57217 48.009 9.71355L48.7161 9.00645ZM47.8829 8.45747C47.56 8.30948 47.2168 8.236 46.8586 8.236V9.236C47.0763 9.236 47.2771 9.27985 47.4662 9.36653L47.8829 8.45747ZM46.8586 8.236C46.5082 8.236 46.1706 8.31065 45.8502 8.45747L46.2669 9.36653C46.4586 9.27868 46.6543 9.236 46.8586 9.236V8.236ZM45.8663 8.45046C45.5479 8.58309 45.2643 8.77518 45.017 9.02245L45.7241 9.72955C45.8822 9.57149 46.0572 9.45424 46.2509 9.37354L45.8663 8.45046ZM45.0076 9.03213C44.7713 9.28155 44.5849 9.57308 44.4461 9.90118L45.367 10.2908C45.4629 10.0643 45.5858 9.87579 45.7335 9.71987L45.0076 9.03213ZM44.4423 9.9103C44.312 10.2362 44.2466 10.5766 44.2466 10.928H45.2466C45.2466 10.7034 45.2878 10.4891 45.3708 10.2817L44.4423 9.9103ZM44.2466 10.928V16H45.2466V10.928H44.2466ZM44.7466 15.5H44.0266V16.5H44.7466V15.5ZM44.5266 16V8.224H43.5266V16H44.5266ZM44.0266 8.724H44.7466V7.724H44.0266V8.724ZM44.2466 8.224V9.248H45.2466V8.224H44.2466ZM45.1893 9.48042C45.3697 9.13666 45.6079 8.90033 45.903 8.74878L45.4462 7.85922C44.9519 8.11301 44.5714 8.50601 44.3039 9.01558L45.1893 9.48042ZM45.8982 8.75121C46.2465 8.57704 46.565 8.5 46.8586 8.5V7.5C46.3841 7.5 45.9133 7.62563 45.451 7.85679L45.8982 8.75121ZM46.8586 8.5C47.6319 8.5 48.3196 8.8698 48.9311 9.72976L49.746 9.15024C48.9922 8.0902 48.0266 7.5 46.8586 7.5V8.5ZM49.7418 9.73568C50.3768 8.86969 51.0722 8.5 51.8346 8.5V7.5C50.6769 7.5 49.7083 8.09031 48.9354 9.14432L49.7418 9.73568ZM51.8346 8.5C52.1518 8.5 52.446 8.56125 52.7222 8.68208L53.123 7.76592C52.7165 7.58808 52.2854 7.5 51.8346 7.5V8.5ZM52.7344 8.68723C53.0123 8.80015 53.2604 8.96498 53.481 9.18555L54.1881 8.47845C53.8754 8.16568 53.5155 7.92518 53.1108 7.76077L52.7344 8.68723ZM53.481 9.18555C53.6965 9.40103 53.8612 9.65557 53.9755 9.95457L54.9096 9.59743C54.7466 9.1711 54.506 8.7963 54.1881 8.47845L53.481 9.18555ZM53.9823 9.97127C54.1046 10.2595 54.1666 10.5662 54.1666 10.896H55.1666C55.1666 10.4364 55.0792 9.99649 54.9029 9.58072L53.9823 9.97127ZM54.1666 10.896V16H55.1666V10.896H54.1666ZM54.6666 15.5H53.9466V16.5H54.6666V15.5ZM56.8529 12.416V11.916H56.2473L56.362 12.5106L56.8529 12.416ZM58.0209 14.544L58.354 14.171L58.3507 14.1681L58.0209 14.544ZM61.6529 14.976L61.8888 15.4169L61.8888 15.4169L61.6529 14.976ZM62.8209 13.968L63.0619 13.5299L62.6815 13.3206L62.4209 13.668L62.8209 13.968ZM63.4609 14.32L63.8694 14.6083L64.192 14.1514L63.7019 13.8819L63.4609 14.32ZM62.0209 15.616L62.2575 16.0565L62.2638 16.0531L62.0209 15.616ZM58.5809 15.776L58.3815 16.2346L58.3901 16.2381L58.5809 15.776ZM57.2849 14.896L57.6385 14.5424L57.6385 14.5424L57.2849 14.896ZM56.4049 13.6L55.9427 13.7909L55.9464 13.7994L56.4049 13.6ZM56.4049 10.496L55.9448 10.3002L55.9428 10.3051L56.4049 10.496ZM57.2849 9.184L57.6385 9.53759L57.6436 9.53239L57.2849 9.184ZM58.5649 8.32L58.3775 7.85643L58.3741 7.85787L58.5649 8.32ZM61.6849 8.32L61.4941 8.78214L61.4975 8.78355L61.6849 8.32ZM62.9809 9.184L63.3399 8.83593L63.3396 8.83561L62.9809 9.184ZM63.8289 10.544L63.3653 10.7313L63.3685 10.7388L63.8289 10.544ZM64.1809 12.16L64.68 12.1912L64.6809 12.1756V12.16H64.1809ZM64.1649 12.416V12.916H64.6347L64.664 12.4472L64.1649 12.416ZM58.0209 9.536L58.3507 9.91189L58.3539 9.90897L58.0209 9.536ZM56.8529 11.664L56.362 11.5694L56.2473 12.164H56.8529V11.664ZM63.4129 11.664V12.164H64.0185L63.9039 11.5694L63.4129 11.664ZM62.2449 9.536L61.9119 9.90898L61.9152 9.91188L62.2449 9.536ZM56.362 12.5106C56.5511 13.4918 56.9901 14.3049 57.6912 14.9199L58.3507 14.1681C57.8357 13.7164 57.4961 13.1109 57.3439 12.3214L56.362 12.5106ZM57.6879 14.917C58.3781 15.5332 59.2011 15.844 60.1329 15.844V14.844C59.4434 14.844 58.8584 14.6214 58.3539 14.171L57.6879 14.917ZM60.1329 15.844C60.7643 15.844 61.3528 15.7036 61.8888 15.4169L61.4171 14.5351C61.0358 14.7391 60.6109 14.844 60.1329 14.844V15.844ZM61.8888 15.4169C62.4134 15.1363 62.8583 14.7515 63.2209 14.268L62.4209 13.668C62.1436 14.0378 61.8098 14.3251 61.4171 14.5351L61.8888 15.4169ZM62.58 14.4061L63.22 14.7581L63.7019 13.8819L63.0619 13.5299L62.58 14.4061ZM63.0525 14.0317C62.7113 14.5149 62.2877 14.8958 61.7781 15.1789L62.2638 16.0531C62.9062 15.6962 63.4426 15.2131 63.8694 14.6083L63.0525 14.0317ZM61.7844 15.1755C61.2844 15.444 60.7368 15.58 60.1329 15.58V16.58C60.8944 16.58 61.6055 16.4066 62.2575 16.0565L61.7844 15.1755ZM60.1329 15.58C59.6528 15.58 59.2004 15.4909 58.7718 15.3139L58.3901 16.2381C58.9428 16.4664 59.5251 16.58 60.1329 16.58V15.58ZM58.7803 15.3175C58.3464 15.1288 57.9669 14.8708 57.6385 14.5424L56.9314 15.2496C57.3497 15.6678 57.8342 15.9965 58.3816 16.2345L58.7803 15.3175ZM57.6385 14.5424C57.3101 14.2141 57.0521 13.8346 56.8635 13.4006L55.9464 13.7994C56.1844 14.3468 56.5131 14.8313 56.9314 15.2496L57.6385 14.5424ZM56.8671 13.4091C56.69 12.9805 56.6009 12.5282 56.6009 12.048H55.6009C55.6009 12.6558 55.7145 13.2382 55.9428 13.7909L56.8671 13.4091ZM56.6009 12.048C56.6009 11.5678 56.69 11.1155 56.8671 10.6869L55.9428 10.3051C55.7145 10.8578 55.6009 11.4402 55.6009 12.048H56.6009ZM56.865 10.6918C57.0541 10.2475 57.3119 9.86415 57.6385 9.53755L56.9314 8.83045C56.5113 9.25052 56.1825 9.74188 55.9449 10.3002L56.865 10.6918ZM57.6436 9.53239C57.9577 9.20902 58.327 8.95927 58.7558 8.78213L58.3741 7.85787C57.8216 8.08606 57.3375 8.41231 56.9263 8.83561L57.6436 9.53239ZM58.7523 8.78355C59.1938 8.60511 59.6528 8.516 60.1329 8.516V7.516C59.5251 7.516 58.9388 7.62956 58.3775 7.85644L58.7523 8.78355ZM60.1329 8.516C60.6131 8.516 61.0654 8.60509 61.4941 8.78213L61.8758 7.85787C61.3231 7.62958 60.7408 7.516 60.1329 7.516V8.516ZM61.4975 8.78355C61.937 8.9612 62.31 9.21089 62.6223 9.53239L63.3396 8.83561C62.9266 8.41045 62.4356 8.08413 61.8723 7.85644L61.4975 8.78355ZM62.622 9.53207C62.9097 9.82874 63.1603 10.2236 63.3653 10.7312L64.2926 10.3568C64.0496 9.75504 63.7349 9.24326 63.3399 8.83593L62.622 9.53207ZM63.3685 10.7388C63.581 11.2412 63.6809 11.7137 63.6809 12.16H64.6809C64.6809 11.561 64.5462 10.9562 64.2894 10.3492L63.3685 10.7388ZM63.6819 12.1288L63.6659 12.3848L64.664 12.4472L64.68 12.1912L63.6819 12.1288ZM64.1649 11.916H56.8529V12.916H64.1649V11.916ZM60.1329 8.236C59.2011 8.236 58.3781 8.54678 57.6879 9.16303L58.3539 9.90897C58.8584 9.45856 59.4434 9.236 60.1329 9.236V8.236ZM57.6912 9.16012C56.9901 9.7751 56.5511 10.5882 56.362 11.5694L57.3439 11.7586C57.4961 10.9691 57.8357 10.3636 58.3507 9.91188L57.6912 9.16012ZM56.8529 12.164H63.4129V11.164H56.8529V12.164ZM63.9039 11.5694C63.7148 10.5882 63.2757 9.7751 62.5747 9.16012L61.9152 9.91188C62.4301 10.3636 62.7698 10.9691 62.922 11.7586L63.9039 11.5694ZM62.5779 9.16303C61.8877 8.54678 61.0648 8.236 60.1329 8.236V9.236C60.8224 9.236 61.4075 9.45856 61.9119 9.90897L62.5779 9.16303ZM71.2203 16H70.7203V16.5H71.2203V16ZM71.0283 10.208L70.5653 10.3966L70.5682 10.4039L70.5714 10.4111L71.0283 10.208ZM69.7163 8.928L69.5194 9.38757L69.5291 9.39174L69.539 9.3955L69.7163 8.928ZM67.5883 9.056L67.8364 9.49012L67.8364 9.49012L67.5883 9.056ZM66.6923 9.92L66.2669 9.65725L66.6923 9.92ZM66.3563 16V16.5H66.8563V16H66.3563ZM65.6203 16H65.1203V16.5H65.6203V16ZM65.6203 8.224V7.724H65.1203V8.224H65.6203ZM66.3563 8.224H66.8563V7.724H66.3563V8.224ZM66.3563 9.312H65.8563V11.029L66.7781 9.58044L66.3563 9.312ZM67.4443 8.304L67.2341 7.85032L67.2298 7.85236L67.4443 8.304ZM70.0043 8.24L69.812 8.70156L69.8165 8.70337L70.0043 8.24ZM71.0443 8.912L71.3979 8.55839L71.3914 8.55208L71.0443 8.912ZM71.7163 9.92L71.2546 10.1124L71.2594 10.1231L71.7163 9.92ZM71.9723 16V16.5H72.4723V16H71.9723ZM71.7203 16V11.12H70.7203V16H71.7203ZM71.7203 11.12C71.7203 10.7311 71.6421 10.3579 71.4852 10.0049L70.5714 10.4111C70.6705 10.6341 70.7203 10.8689 70.7203 11.12H71.7203ZM71.4914 10.0194C71.3484 9.66847 71.1401 9.35667 70.8699 9.08645L70.1628 9.79355C70.3405 9.97133 70.4736 10.1715 70.5653 10.3966L71.4914 10.0194ZM70.8699 9.08645C70.5936 8.8102 70.2661 8.60178 69.8936 8.4605L69.539 9.3955C69.7852 9.48888 69.991 9.62179 70.1628 9.79355L70.8699 9.08645ZM69.9133 8.46843C69.5534 8.31418 69.1771 8.236 68.7883 8.236V9.236C69.0395 9.236 69.2819 9.28582 69.5194 9.38757L69.9133 8.46843ZM68.7883 8.236C68.2739 8.236 67.7885 8.36573 67.3402 8.62188L67.8364 9.49012C68.1348 9.31961 68.4494 9.236 68.7883 9.236V8.236ZM67.3402 8.62188C66.8951 8.87626 66.5352 9.22291 66.2669 9.65725L67.1177 10.1827C67.2974 9.89176 67.5349 9.66241 67.8364 9.49012L67.3402 8.62188ZM66.2669 9.65725C65.9928 10.101 65.8563 10.5924 65.8563 11.12H66.8563C66.8563 10.7729 66.9438 10.4643 67.1177 10.1827L66.2669 9.65725ZM65.8563 11.12V16H66.8563V11.12H65.8563ZM66.3563 15.5H65.6203V16.5H66.3563V15.5ZM66.1203 16V8.224H65.1203V16H66.1203ZM65.6203 8.724H66.3563V7.724H65.6203V8.724ZM65.8563 8.224V9.312H66.8563V8.224H65.8563ZM66.7781 9.58044C67.0354 9.17614 67.3312 8.91124 67.6588 8.75564L67.2298 7.85236C66.704 8.10209 66.2745 8.50919 65.9345 9.04356L66.7781 9.58044ZM67.6545 8.75765C68.0294 8.58393 68.4059 8.5 68.7883 8.5V7.5C68.2533 7.5 67.7339 7.61874 67.2341 7.85034L67.6545 8.75765ZM68.7883 8.5C69.1507 8.5 69.4905 8.56759 69.812 8.70154L70.1966 7.77846C69.7501 7.59241 69.2793 7.5 68.7883 7.5V8.5ZM69.8165 8.70337C70.1535 8.84002 70.4458 9.02944 70.6972 9.27192L71.3914 8.55208C71.0455 8.21856 70.6444 7.95998 70.1922 7.77663L69.8165 8.70337ZM70.6908 9.26555C70.9316 9.50637 71.1193 9.78727 71.2548 10.1123L72.1779 9.72769C71.9933 9.28473 71.733 8.89363 71.3979 8.55845L70.6908 9.26555ZM71.2594 10.1231C71.402 10.4438 71.4723 10.7747 71.4723 11.12H72.4723C72.4723 10.6333 72.372 10.1642 72.1732 9.71693L71.2594 10.1231ZM71.4723 11.12V16H72.4723V11.12H71.4723ZM71.9723 15.5H71.2203V16.5H71.9723V15.5ZM75.5132 8.72V8.22H75.0132V8.72H75.5132ZM75.5132 16V16.5H76.0132V16H75.5132ZM74.7772 16H74.2772V16.5H74.7772V16ZM74.7772 8.72H75.2772V8.22H74.7772V8.72ZM73.2572 8.72H72.7572V9.22H73.2572V8.72ZM73.2572 8V7.5H72.7572V8H73.2572ZM74.7772 8V8.5H75.2772V8H74.7772ZM74.7772 5.36V4.86H74.2772V5.36H74.7772ZM75.5132 5.36H76.0132V4.86H75.5132V5.36ZM75.5132 8H75.0132V8.5H75.5132V8ZM77.0172 8H77.5172V7.5H77.0172V8ZM77.0172 8.72V9.22H77.5172V8.72H77.0172ZM75.0132 8.72V16H76.0132V8.72H75.0132ZM75.5132 15.5H74.7772V16.5H75.5132V15.5ZM75.2772 16V8.72H74.2772V16H75.2772ZM74.7772 8.22H73.2572V9.22H74.7772V8.22ZM73.7572 8.72V8H72.7572V8.72H73.7572ZM73.2572 8.5H74.7772V7.5H73.2572V8.5ZM75.2772 8V5.36H74.2772V8H75.2772ZM74.7772 5.86H75.5132V4.86H74.7772V5.86ZM75.0132 5.36V8H76.0132V5.36H75.0132ZM75.5132 8.5H77.0172V7.5H75.5132V8.5ZM76.5172 8V8.72H77.5172V8H76.5172ZM77.0172 8.22H75.5132V9.22H77.0172V8.22ZM82.6997 15.376L83.0376 15.7446L83.0447 15.7379L82.6997 15.376ZM78.5237 15.36L78.1757 15.7192L78.1817 15.7248L78.5237 15.36ZM77.8357 14.144V13.644H77.1987L77.35 14.2627L77.8357 14.144ZM78.6197 14.144L79.0953 13.9897L78.9832 13.644H78.6197V14.144ZM79.3717 15.056L79.1236 15.4902L79.1331 15.4954L79.3717 15.056ZM82.1237 14.896L82.4374 15.2854L82.4403 15.283L82.1237 14.896ZM82.0277 12.608L82.2558 12.1631L82.2479 12.159L82.2399 12.1553L82.0277 12.608ZM79.0997 12.176L78.8891 12.6295L78.8959 12.6326L78.9027 12.6356L79.0997 12.176ZM78.3317 11.616L77.9484 11.9371L77.9549 11.9449L77.9617 11.9523L78.3317 11.616ZM78.0597 9.184L78.5128 9.39546L78.5154 9.38979L78.0597 9.184ZM78.6997 8.4L78.416 7.98824L78.4151 7.9889L78.6997 8.4ZM82.2037 8.288L81.9511 8.71953L81.9556 8.72212L82.2037 8.288ZM82.9877 9.056L83.4118 8.79093L83.4057 8.78167L82.9877 9.056ZM83.3237 9.872V10.372H83.947L83.8118 9.76353L83.3237 9.872ZM82.5397 9.872L82.0608 10.0157L82.1677 10.372H82.5397V9.872ZM82.3477 9.408L81.9289 9.68115L81.9317 9.68535L82.3477 9.408ZM80.6677 8.624L80.6877 8.1244L80.6777 8.124H80.6677V8.624ZM79.4997 8.8L79.311 8.33695L79.3038 8.33991L79.2966 8.34309L79.4997 8.8ZM78.6517 10.592L79.1341 10.4604L79.1304 10.4471L79.126 10.4339L78.6517 10.592ZM79.4837 11.488L79.6565 11.0188L79.6421 11.0135L79.6274 11.0091L79.4837 11.488ZM80.1557 11.616L80.134 12.1155L80.1349 12.1156L80.1557 11.616ZM80.6037 11.632L80.6293 11.1327L80.6165 11.132H80.6037V11.632ZM81.6117 11.728L81.5295 12.2212L81.5295 12.2212L81.6117 11.728ZM82.4117 12L82.641 11.5557L82.6353 11.5528L82.4117 12ZM83.4037 13.84L83.9037 13.8491V13.84H83.4037ZM82.3618 15.0074C81.9597 15.3761 81.4168 15.58 80.6837 15.58V16.58C81.6146 16.58 82.4157 16.3146 83.0376 15.7446L82.3618 15.0074ZM80.6837 15.58C79.8407 15.58 79.2583 15.3633 78.8657 14.9952L78.1817 15.7248C78.8131 16.3167 79.6707 16.58 80.6837 16.58V15.58ZM78.8716 15.0009C78.6007 14.7384 78.4173 14.4176 78.3214 14.0253L77.35 14.2627C77.4888 14.8304 77.764 15.3202 78.1758 15.7191L78.8716 15.0009ZM77.8357 14.644H78.6197V13.644H77.8357V14.644ZM78.1441 14.2983C78.312 14.8159 78.6466 15.2175 79.1236 15.4901L79.6198 14.6219C79.3501 14.4678 79.1834 14.2614 79.0953 13.9897L78.1441 14.2983ZM79.1331 15.4954C79.5872 15.7419 80.0919 15.86 80.6357 15.86V14.86C80.2408 14.86 79.9029 14.7754 79.6102 14.6166L79.1331 15.4954ZM80.6357 15.86C81.3304 15.86 81.9453 15.6818 82.4374 15.2854L81.81 14.5066C81.5341 14.7289 81.1569 14.86 80.6357 14.86V15.86ZM82.4403 15.283C82.8996 14.9072 83.1517 14.4116 83.1517 13.824H82.1517C82.1517 14.0897 82.0518 14.3088 81.8071 14.509L82.4403 15.283ZM83.1517 13.824C83.1517 13.1007 82.8872 12.4869 82.2558 12.1631L81.7995 13.0529C82.0001 13.1558 82.1517 13.3526 82.1517 13.824H83.1517ZM82.2399 12.1553C81.7997 11.9489 81.2111 11.868 80.5237 11.868V12.868C81.1589 12.868 81.5731 12.9471 81.8155 13.0607L82.2399 12.1553ZM80.5237 11.868C79.8864 11.868 79.4974 11.8025 79.2966 11.7164L78.9027 12.6356C79.2993 12.8055 79.8596 12.868 80.5237 12.868V11.868ZM79.3102 11.7225C79.0696 11.6108 78.8685 11.4632 78.7017 11.2797L77.9617 11.9523C78.2216 12.2382 78.5324 12.4639 78.8891 12.6295L79.3102 11.7225ZM78.7149 11.2949C78.4642 10.9956 78.3357 10.6418 78.3357 10.208H77.3357C77.3357 10.8622 77.5379 11.4471 77.9484 11.9371L78.7149 11.2949ZM78.3357 10.208C78.3357 9.91636 78.3952 9.64742 78.5128 9.39544L77.6066 8.97256C77.4255 9.36058 77.3357 9.7743 77.3357 10.208H78.3357ZM78.5154 9.38979C78.6303 9.13533 78.7872 8.94754 78.9843 8.8111L78.4151 7.9889C78.0575 8.23646 77.7877 8.57134 77.604 8.97821L78.5154 9.38979ZM78.9833 8.81175C79.3571 8.55427 79.8732 8.404 80.5717 8.404V7.404C79.7342 7.404 79.0023 7.58439 78.416 7.98825L78.9833 8.81175ZM80.5717 8.404C81.1583 8.404 81.6092 8.51939 81.9511 8.71951L82.4563 7.85649C81.9235 7.54461 81.2864 7.404 80.5717 7.404V8.404ZM81.9556 8.72212C82.1741 8.847 82.3809 9.04267 82.5697 9.33033L83.4057 8.78167C83.1465 8.38667 82.8306 8.07034 82.4518 7.85388L81.9556 8.72212ZM82.5637 9.321C82.6943 9.52998 82.7842 9.7492 82.8356 9.98046L83.8118 9.76353C83.7352 9.4188 83.6011 9.09402 83.4117 8.791L82.5637 9.321ZM83.3237 9.372H82.5397V10.372H83.3237V9.372ZM83.0186 9.72833C82.951 9.503 82.8701 9.2902 82.7637 9.13065L81.9317 9.68535C81.9533 9.7178 82.0004 9.81433 82.0608 10.0157L83.0186 9.72833ZM82.7665 9.13487C82.3279 8.46237 81.585 8.16029 80.6877 8.1244L80.6477 9.1236C81.3503 9.1517 81.7275 9.37229 81.9289 9.68113L82.7665 9.13487ZM80.6677 8.124C80.1455 8.124 79.6834 8.18523 79.311 8.33695L79.6883 9.26305C79.8919 9.1801 80.2086 9.124 80.6677 9.124V8.124ZM79.2966 8.34309C78.9275 8.50715 78.6256 8.75457 78.4089 9.08687L79.2465 9.63313C79.3498 9.47477 79.4959 9.34885 79.7028 9.25691L79.2966 8.34309ZM78.4089 9.08687C78.1969 9.41198 78.0877 9.77327 78.0877 10.16H79.0877C79.0877 9.97073 79.1385 9.79869 79.2465 9.63313L78.4089 9.08687ZM78.0877 10.16C78.0877 10.364 78.1149 10.5627 78.1773 10.7501L79.126 10.4339C79.1032 10.3653 79.0877 10.276 79.0877 10.16H78.0877ZM78.1693 10.7236C78.3377 11.341 78.7306 11.7841 79.34 11.9669L79.6274 11.0091C79.3834 10.9359 79.2217 10.7817 79.1341 10.4604L78.1693 10.7236ZM79.3108 11.9572C79.5681 12.052 79.8439 12.1029 80.134 12.1155L80.1774 11.1165C79.9768 11.1077 79.8046 11.0734 79.6565 11.0188L79.3108 11.9572ZM80.1349 12.1156C80.3844 12.126 80.5477 12.132 80.6037 12.132V11.132C80.5743 11.132 80.439 11.1274 80.1765 11.1164L80.1349 12.1156ZM80.5781 12.1313C80.985 12.1522 81.2999 12.1829 81.5295 12.2212L81.6939 11.2348C81.4114 11.1877 81.0544 11.1545 80.6293 11.1327L80.5781 12.1313ZM81.5295 12.2212C81.7278 12.2543 81.9469 12.3266 82.1881 12.4472L82.6353 11.5528C82.3218 11.396 82.0075 11.2871 81.6939 11.2348L81.5295 12.2212ZM82.1824 12.4443C82.6425 12.6818 82.9037 13.0988 82.9037 13.84H83.9037C83.9037 12.8105 83.5035 12.0009 82.641 11.5557L82.1824 12.4443ZM82.9038 13.8309C82.8957 14.2726 82.7252 14.6608 82.3547 15.0141L83.0447 15.7379C83.5915 15.2165 83.8903 14.5807 83.9036 13.8491L82.9038 13.8309Z" fill="white"/>
<path d="M16 30L11.6699 22.5H20.3301L16 30Z" fill="#FD841F"/>
</svg>
