<svg width="58" height="30" viewBox="0 0 58 30" fill="none" xmlns="http://www.w3.org/2000/svg">
<rect width="58" height="23" fill="#FD841F"/>
<path d="M14.6242 15.984H13.4562L9.71219 5.344H10.4962L14.0482 15.328L17.6002 5.344H18.3682L14.6242 15.984ZM20.0374 7.152C19.8988 7.152 19.7868 7.10933 19.7014 7.024C19.6161 6.928 19.5734 6.81067 19.5734 6.672C19.5734 6.53333 19.6161 6.42133 19.7014 6.336C19.7868 6.24 19.8988 6.192 20.0374 6.192C20.1761 6.192 20.2934 6.24 20.3894 6.336C20.4854 6.42133 20.5334 6.53333 20.5334 6.672C20.5334 6.81067 20.4854 6.928 20.3894 7.024C20.2934 7.10933 20.1761 7.152 20.0374 7.152ZM19.6694 16V8H20.4054V16H19.6694ZM25.5396 16.08C24.9956 16.08 24.4729 15.9733 23.9716 15.76C23.4702 15.5467 23.0382 15.2587 22.6756 14.896C22.3022 14.5227 22.0089 14.096 21.7956 13.616C21.5929 13.1253 21.4916 12.6133 21.4916 12.08C21.4916 11.5467 21.5929 11.04 21.7956 10.56C22.0089 10.0693 22.3022 9.63733 22.6756 9.264C23.0382 8.90133 23.4702 8.61333 23.9716 8.4C24.4729 8.18667 24.9956 8.08 25.5396 8.08C26.3182 8.08 26.9796 8.224 27.5236 8.512C28.0782 8.78933 28.5369 9.248 28.8996 9.888V5.376H29.6036V16H28.8996V14.336C28.5476 14.9653 28.0889 15.4133 27.5236 15.68C26.9582 15.9467 26.2969 16.08 25.5396 16.08ZM25.5396 8.816C25.0916 8.816 24.6649 8.90133 24.2596 9.072C23.8542 9.24267 23.5022 9.47733 23.2036 9.776C22.8942 10.0853 22.6542 10.4373 22.4836 10.832C22.3129 11.2267 22.2276 11.6427 22.2276 12.08C22.2276 12.5173 22.3129 12.9387 22.4836 13.344C22.6649 13.7493 22.9049 14.1013 23.2036 14.4C23.5022 14.6987 23.8542 14.9333 24.2596 15.104C24.6649 15.2747 25.0916 15.36 25.5396 15.36C25.9876 15.36 26.4142 15.2747 26.8196 15.104C27.2356 14.9333 27.5929 14.6987 27.8916 14.4C28.1902 14.1013 28.4249 13.7493 28.5956 13.344C28.7769 12.9387 28.8676 12.5173 28.8676 12.08C28.8676 11.6427 28.7769 11.2267 28.5956 10.832C28.4249 10.4267 28.1849 10.0747 27.8756 9.776C27.5662 9.47733 27.2089 9.24267 26.8036 9.072C26.4089 8.90133 25.9876 8.816 25.5396 8.816ZM31.7904 12.416C31.9611 13.3013 32.3504 14.0107 32.9584 14.544C33.5558 15.0773 34.2598 15.344 35.0704 15.344C35.6251 15.344 36.1318 15.2213 36.5904 14.976C37.0491 14.7307 37.4384 14.3947 37.7584 13.968L38.3984 14.32C38.0144 14.864 37.5344 15.296 36.9584 15.616C36.3824 15.9253 35.7531 16.08 35.0704 16.08C34.5264 16.08 34.0091 15.9787 33.5184 15.776C33.0278 15.5627 32.5958 15.2693 32.2224 14.896C31.8491 14.5227 31.5558 14.0907 31.3424 13.6C31.1398 13.1093 31.0384 12.592 31.0384 12.048C31.0384 11.504 31.1398 10.9867 31.3424 10.496C31.5558 9.99467 31.8491 9.55733 32.2224 9.184C32.5851 8.81067 33.0118 8.52267 33.5024 8.32C34.0038 8.11733 34.5264 8.016 35.0704 8.016C35.6144 8.016 36.1318 8.11733 36.6224 8.32C37.1238 8.52267 37.5558 8.81067 37.9184 9.184C38.2598 9.536 38.5424 9.98933 38.7664 10.544C39.0011 11.0987 39.1184 11.6373 39.1184 12.16L39.1024 12.416H31.7904ZM35.0704 8.736C34.2598 8.736 33.5558 9.00267 32.9584 9.536C32.3504 10.0693 31.9611 10.7787 31.7904 11.664H38.3504C38.1798 10.7787 37.7904 10.0693 37.1824 9.536C36.5851 9.00267 35.8811 8.736 35.0704 8.736ZM44.2896 16.08C43.7456 16.08 43.2282 15.9733 42.7376 15.76C42.2469 15.5467 41.8149 15.2533 41.4416 14.88C41.0682 14.5067 40.7749 14.0747 40.5616 13.584C40.3482 13.0933 40.2416 12.576 40.2416 12.032C40.2416 11.4773 40.3482 10.9493 40.5616 10.448C40.7749 9.94667 41.0682 9.50933 41.4416 9.136C41.8149 8.76267 42.2469 8.47467 42.7376 8.272C43.2282 8.05867 43.7456 7.952 44.2896 7.952C44.8442 7.952 45.3722 8.05867 45.8736 8.272C46.3749 8.47467 46.8122 8.76267 47.1856 9.136C47.5589 9.50933 47.8469 9.94667 48.0496 10.448C48.2629 10.9493 48.3696 11.4773 48.3696 12.032C48.3696 12.576 48.2629 13.0933 48.0496 13.584C47.8469 14.0747 47.5589 14.5067 47.1856 14.88C46.8122 15.2533 46.3749 15.5467 45.8736 15.76C45.3722 15.9733 44.8442 16.08 44.2896 16.08ZM44.2896 8.672C43.8416 8.672 43.4149 8.75733 43.0096 8.928C42.6149 9.09867 42.2629 9.33867 41.9536 9.648C41.6442 9.95733 41.3989 10.32 41.2176 10.736C41.0469 11.152 40.9616 11.584 40.9616 12.032C40.9616 12.48 41.0469 12.9067 41.2176 13.312C41.3989 13.7173 41.6442 14.0747 41.9536 14.384C42.2629 14.6933 42.6149 14.9387 43.0096 15.12C43.4149 15.2907 43.8416 15.376 44.2896 15.376C44.7376 15.376 45.1696 15.2907 45.5856 15.12C46.0016 14.9387 46.3589 14.6933 46.6576 14.384C46.9669 14.0747 47.2069 13.7173 47.3776 13.312C47.5482 12.9067 47.6336 12.48 47.6336 12.032C47.6336 11.584 47.5429 11.152 47.3616 10.736C47.1909 10.32 46.9562 9.95733 46.6576 9.648C46.3589 9.33867 46.0016 9.09867 45.5856 8.928C45.1696 8.75733 44.7376 8.672 44.2896 8.672Z" fill="white"/>
<path d="M14.6242 15.984V16.484H14.9783L15.0958 16.15L14.6242 15.984ZM13.4562 15.984L12.9845 16.15L13.1021 16.484H13.4562V15.984ZM9.71219 5.344V4.844H9.0062L9.24054 5.50996L9.71219 5.344ZM10.4962 5.344L10.9673 5.17641L10.849 4.844H10.4962V5.344ZM14.0482 15.328L13.5771 15.4956L14.0482 16.8197L14.5193 15.4956L14.0482 15.328ZM17.6002 5.344V4.844H17.2474L17.1291 5.17641L17.6002 5.344ZM18.3682 5.344L18.8398 5.50996L19.0742 4.844H18.3682V5.344ZM14.6242 15.484H13.4562V16.484H14.6242V15.484ZM13.9278 15.818L10.1838 5.17804L9.24054 5.50996L12.9845 16.15L13.9278 15.818ZM9.71219 5.844H10.4962V4.844H9.71219V5.844ZM10.0251 5.51159L13.5771 15.4956L14.5193 15.1604L10.9673 5.17641L10.0251 5.51159ZM14.5193 15.4956L18.0713 5.51159L17.1291 5.17641L13.5771 15.1604L14.5193 15.4956ZM17.6002 5.844H18.3682V4.844H17.6002V5.844ZM17.8965 5.17804L14.1525 15.818L15.0958 16.15L18.8398 5.50996L17.8965 5.17804ZM19.7014 7.024L19.3277 7.35618L19.3375 7.36716L19.3479 7.37755L19.7014 7.024ZM19.7014 6.336L20.055 6.68955L20.0654 6.67916L20.0751 6.66818L19.7014 6.336ZM20.3894 6.336L20.0359 6.68955L20.0463 6.69994L20.0573 6.7097L20.3894 6.336ZM20.3894 7.024L20.7216 7.3977L20.7326 7.38794L20.743 7.37755L20.3894 7.024ZM19.6694 16H19.1694V16.5H19.6694V16ZM19.6694 8V7.5H19.1694V8H19.6694ZM20.4054 8H20.9054V7.5H20.4054V8ZM20.4054 16V16.5H20.9054V16H20.4054ZM20.0374 6.652C20.0195 6.652 20.0184 6.64932 20.0274 6.65276C20.0318 6.65441 20.037 6.65696 20.0425 6.66052C20.048 6.66407 20.0522 6.66766 20.055 6.67045L19.3479 7.37755C19.5411 7.5708 19.7876 7.652 20.0374 7.652V6.652ZM20.0751 6.69182C20.0738 6.69028 20.0737 6.68993 20.0742 6.69075C20.0747 6.6916 20.0751 6.69253 20.0753 6.69313C20.0755 6.69368 20.0751 6.69278 20.0746 6.6898C20.0741 6.68675 20.0734 6.68099 20.0734 6.672H19.0734C19.0734 6.92255 19.1543 7.16105 19.3277 7.35618L20.0751 6.69182ZM20.0734 6.672C20.0734 6.65409 20.0761 6.65298 20.0727 6.662C20.071 6.66633 20.0685 6.67161 20.0649 6.67709C20.0614 6.68257 20.0578 6.68677 20.055 6.68955L19.3479 5.98245C19.1546 6.17569 19.0734 6.42216 19.0734 6.672H20.0734ZM20.0751 6.66818C20.074 6.66946 20.0708 6.67282 20.0652 6.67689C20.0595 6.68102 20.0531 6.68472 20.0464 6.68757C20.0321 6.69368 20.0265 6.692 20.0374 6.692V5.692C19.7688 5.692 19.5161 5.79187 19.3277 6.00382L20.0751 6.66818ZM20.0374 6.692C20.0432 6.692 20.0456 6.69249 20.0453 6.69244C20.0449 6.69237 20.043 6.69194 20.0401 6.69077C20.0373 6.6896 20.035 6.6883 20.0337 6.68742C20.0325 6.68659 20.0333 6.68692 20.0359 6.68955L20.743 5.98245C20.551 5.79045 20.3055 5.692 20.0374 5.692V6.692ZM20.0573 6.7097C20.056 6.70856 20.0526 6.70531 20.0485 6.69973C20.0444 6.69408 20.0407 6.68763 20.0379 6.68096C20.0318 6.6667 20.0334 6.66107 20.0334 6.672H21.0334C21.0334 6.40331 20.9336 6.1507 20.7216 5.9623L20.0573 6.7097ZM20.0334 6.672C20.0334 6.67774 20.033 6.68013 20.033 6.67986C20.0331 6.67949 20.0335 6.67753 20.0347 6.67468C20.0358 6.67182 20.0371 6.66957 20.038 6.66826C20.0388 6.66703 20.0385 6.66782 20.0359 6.67045L20.743 7.37755C20.935 7.18556 21.0334 6.9401 21.0334 6.672H20.0334ZM20.0573 6.65029C20.0557 6.65166 20.0554 6.65174 20.0562 6.65125C20.057 6.65075 20.058 6.65032 20.0586 6.6501C20.0591 6.6499 20.0582 6.65031 20.0552 6.6508C20.0522 6.65131 20.0464 6.652 20.0374 6.652V7.652C20.288 7.652 20.5265 7.57116 20.7216 7.3977L20.0573 6.65029ZM20.1694 16V8H19.1694V16H20.1694ZM19.6694 8.5H20.4054V7.5H19.6694V8.5ZM19.9054 8V16H20.9054V8H19.9054ZM20.4054 15.5H19.6694V16.5H20.4054V15.5ZM23.9716 15.76L24.1673 15.2999L24.1673 15.2999L23.9716 15.76ZM22.6756 14.896L23.0291 14.5424L23.0291 14.5424L22.6756 14.896ZM21.7956 13.616L21.3333 13.8069L21.3387 13.8191L21.7956 13.616ZM21.7956 10.56L21.337 10.3606L21.3349 10.3655L21.7956 10.56ZM22.6756 9.264L22.322 8.91045L22.322 8.91045L22.6756 9.264ZM27.5236 8.512L27.2896 8.95401L27.3 8.95921L27.5236 8.512ZM28.8996 9.888L28.4646 10.1345L29.3996 11.7845V9.888H28.8996ZM28.8996 5.376V4.876H28.3996V5.376H28.8996ZM29.6036 5.376H30.1036V4.876H29.6036V5.376ZM29.6036 16V16.5H30.1036V16H29.6036ZM28.8996 16H28.3996V16.5H28.8996V16ZM28.8996 14.336H29.3996V12.4178L28.4632 14.0919L28.8996 14.336ZM27.5236 15.68L27.3103 15.2278L27.3103 15.2278L27.5236 15.68ZM23.2036 9.776L22.85 9.42245L22.85 9.42245L23.2036 9.776ZM22.4836 13.344L22.0226 13.5381L22.0272 13.5482L22.4836 13.344ZM23.2036 14.4L22.85 14.7536L22.85 14.7536L23.2036 14.4ZM24.2596 15.104L24.0655 15.5648L24.0655 15.5648L24.2596 15.104ZM26.8196 15.104L26.6298 14.6414L26.6255 14.6432L26.8196 15.104ZM27.8916 14.4L28.2451 14.7536L28.2451 14.7536L27.8916 14.4ZM28.5956 13.344L28.139 13.1398L28.1347 13.15L28.5956 13.344ZM28.5956 10.832L28.1347 11.026L28.1379 11.0334L28.1412 11.0408L28.5956 10.832ZM27.8756 9.776L27.5283 10.1357L27.5283 10.1357L27.8756 9.776ZM26.8036 9.072L26.6051 9.53095L26.6095 9.53282L26.8036 9.072ZM25.5396 15.58C25.0629 15.58 24.6069 15.487 24.1673 15.2999L23.7758 16.2201C24.3389 16.4597 24.9282 16.58 25.5396 16.58V15.58ZM24.1673 15.2999C23.7212 15.1101 23.3437 14.8571 23.0291 14.5424L22.322 15.2496C22.7327 15.6603 23.2192 15.9832 23.7758 16.2201L24.1673 15.2999ZM23.0291 14.5424C22.6989 14.2123 22.4407 13.8366 22.2525 13.4129L21.3387 13.8191C21.577 14.3554 21.9055 14.8331 22.322 15.2496L23.0291 14.5424ZM22.2577 13.4251C22.0801 12.9953 21.9916 12.5482 21.9916 12.08H20.9916C20.9916 12.6785 21.1056 13.2554 21.3334 13.8069L22.2577 13.4251ZM21.9916 12.08C21.9916 11.6119 22.0801 11.1715 22.2562 10.7545L21.3349 10.3655C21.1057 10.9085 20.9916 11.4815 20.9916 12.08H21.9916ZM22.2541 10.7594C22.4428 10.3254 22.7007 9.94593 23.0291 9.61755L22.322 8.91045C21.9037 9.32874 21.575 9.81323 21.337 10.3606L22.2541 10.7594ZM23.0291 9.61755C23.3437 9.30294 23.7212 9.04992 24.1673 8.86008L23.7758 7.93992C23.2192 8.17675 22.7327 8.49973 22.322 8.91045L23.0291 9.61755ZM24.1673 8.86008C24.6069 8.67305 25.0629 8.58 25.5396 8.58V7.58C24.9282 7.58 24.3389 7.70029 23.7758 7.93992L24.1673 8.86008ZM25.5396 8.58C26.2578 8.58 26.8343 8.71284 27.2896 8.95389L27.7575 8.07011C27.1248 7.73516 26.3787 7.58 25.5396 7.58V8.58ZM27.3 8.95921C27.7503 9.18438 28.1416 9.56452 28.4646 10.1345L29.3346 9.64149C28.9322 8.93148 28.4062 8.39428 27.7472 8.06479L27.3 8.95921ZM29.3996 9.888V5.376H28.3996V9.888H29.3996ZM28.8996 5.876H29.6036V4.876H28.8996V5.876ZM29.1036 5.376V16H30.1036V5.376H29.1036ZM29.6036 15.5H28.8996V16.5H29.6036V15.5ZM29.3996 16V14.336H28.3996V16H29.3996ZM28.4632 14.0919C28.154 14.6448 27.7674 15.0121 27.3103 15.2278L27.7369 16.1322C28.4104 15.8145 28.9412 15.2859 29.3359 14.5801L28.4632 14.0919ZM27.3103 15.2278C26.8242 15.457 26.2385 15.58 25.5396 15.58V16.58C26.3553 16.58 27.0922 16.4363 27.7369 16.1322L27.3103 15.2278ZM25.5396 8.316C25.0262 8.316 24.5335 8.41416 24.0655 8.61118L24.4536 9.53282C24.7963 9.3885 25.1569 9.316 25.5396 9.316V8.316ZM24.0655 8.61118C23.6031 8.80589 23.1963 9.07616 22.85 9.42245L23.5571 10.1296C23.8082 9.8785 24.1054 9.67944 24.4536 9.53282L24.0655 8.61118ZM22.85 9.42245C22.4969 9.77558 22.2208 10.18 22.0246 10.6335L22.9425 11.0305C23.0877 10.6947 23.2916 10.3951 23.5571 10.1296L22.85 9.42245ZM22.0246 10.6335C21.8264 11.092 21.7276 11.5756 21.7276 12.08H22.7276C22.7276 11.7097 22.7994 11.3614 22.9425 11.0305L22.0246 10.6335ZM21.7276 12.08C21.7276 12.5844 21.8264 13.0716 22.0227 13.538L22.9444 13.15C22.7994 12.8057 22.7276 12.4503 22.7276 12.08H21.7276ZM22.0272 13.5482C22.2321 14.0063 22.5061 14.4096 22.85 14.7536L23.5571 14.0464C23.3037 13.7931 23.0977 13.4924 22.94 13.1398L22.0272 13.5482ZM22.85 14.7536C23.1963 15.0998 23.6031 15.3701 24.0655 15.5648L24.4536 14.6432C24.1054 14.4966 23.8082 14.2975 23.5571 14.0464L22.85 14.7536ZM24.0655 15.5648C24.5335 15.7618 25.0262 15.86 25.5396 15.86V14.86C25.1569 14.86 24.7963 14.7875 24.4536 14.6432L24.0655 15.5648ZM25.5396 15.86C26.0529 15.86 26.5457 15.7618 27.0136 15.5648L26.6255 14.6432C26.2828 14.7875 25.9222 14.86 25.5396 14.86V15.86ZM27.0093 15.5666C27.4826 15.3724 27.8966 15.102 28.2451 14.7536L27.538 14.0464C27.2891 14.2953 26.9885 14.4942 26.6298 14.6414L27.0093 15.5666ZM28.2451 14.7536C28.5914 14.4073 28.8617 14.0005 29.0564 13.538L28.1347 13.15C27.9881 13.4982 27.7891 13.7954 27.538 14.0464L28.2451 14.7536ZM29.052 13.5482C29.2616 13.0796 29.3676 12.5888 29.3676 12.08H28.3676C28.3676 12.4459 28.2922 12.7977 28.1392 13.1398L29.052 13.5482ZM29.3676 12.08C29.3676 11.5711 29.2615 11.0839 29.0499 10.6232L28.1412 11.0408C28.2923 11.3695 28.3676 11.7142 28.3676 12.08H29.3676ZM29.0564 10.638C28.8601 10.1718 28.582 9.76303 28.2229 9.4163L27.5283 10.1357C27.7878 10.3863 27.9897 10.6816 28.1347 11.026L29.0564 10.638ZM28.2229 9.4163C27.8681 9.07377 27.4585 8.80525 26.9976 8.61118L26.6095 9.53282C26.9593 9.68009 27.2644 9.8809 27.5283 10.1357L28.2229 9.4163ZM27.002 8.61307C26.5421 8.41417 26.0529 8.316 25.5396 8.316V9.316C25.9222 9.316 26.2757 9.38849 26.6051 9.53093L27.002 8.61307ZM31.7904 12.416V11.916H31.1848L31.2995 12.5106L31.7904 12.416ZM32.9584 14.544L33.2915 14.171L33.2882 14.1681L32.9584 14.544ZM36.5904 14.976L36.8263 15.4169L36.8263 15.4169L36.5904 14.976ZM37.7584 13.968L37.9994 13.5299L37.619 13.3206L37.3584 13.668L37.7584 13.968ZM38.3984 14.32L38.8069 14.6083L39.1295 14.1514L38.6394 13.8819L38.3984 14.32ZM36.9584 15.616L37.195 16.0565L37.2013 16.0531L36.9584 15.616ZM33.5184 15.776L33.319 16.2346L33.3276 16.2381L33.5184 15.776ZM32.2224 14.896L32.576 14.5424L32.576 14.5424L32.2224 14.896ZM31.3424 13.6L30.8802 13.7909L30.8839 13.7994L31.3424 13.6ZM31.3424 10.496L30.8823 10.3002L30.8803 10.3051L31.3424 10.496ZM32.2224 9.184L32.576 9.53759L32.5811 9.53239L32.2224 9.184ZM33.5024 8.32L33.315 7.85643L33.3116 7.85787L33.5024 8.32ZM36.6224 8.32L36.4316 8.78214L36.435 8.78355L36.6224 8.32ZM37.9184 9.184L38.2774 8.83593L38.2771 8.83561L37.9184 9.184ZM38.7664 10.544L38.3028 10.7313L38.306 10.7388L38.7664 10.544ZM39.1184 12.16L39.6175 12.1912L39.6184 12.1756V12.16H39.1184ZM39.1024 12.416V12.916H39.5722L39.6015 12.4472L39.1024 12.416ZM32.9584 9.536L33.2882 9.91189L33.2914 9.90897L32.9584 9.536ZM31.7904 11.664L31.2995 11.5694L31.1848 12.164H31.7904V11.664ZM38.3504 11.664V12.164H38.956L38.8414 11.5694L38.3504 11.664ZM37.1824 9.536L36.8494 9.90898L36.8527 9.91188L37.1824 9.536ZM31.2995 12.5106C31.4886 13.4918 31.9276 14.3049 32.6287 14.9199L33.2882 14.1681C32.7732 13.7164 32.4336 13.1109 32.2814 12.3214L31.2995 12.5106ZM32.6254 14.917C33.3156 15.5332 34.1386 15.844 35.0704 15.844V14.844C34.3809 14.844 33.7959 14.6214 33.2914 14.171L32.6254 14.917ZM35.0704 15.844C35.7018 15.844 36.2903 15.7036 36.8263 15.4169L36.3546 14.5351C35.9733 14.7391 35.5484 14.844 35.0704 14.844V15.844ZM36.8263 15.4169C37.3509 15.1363 37.7958 14.7515 38.1584 14.268L37.3584 13.668C37.0811 14.0378 36.7473 14.3251 36.3546 14.5351L36.8263 15.4169ZM37.5175 14.4061L38.1575 14.7581L38.6394 13.8819L37.9994 13.5299L37.5175 14.4061ZM37.99 14.0317C37.6488 14.5149 37.2252 14.8958 36.7156 15.1789L37.2013 16.0531C37.8437 15.6962 38.3801 15.2131 38.8069 14.6083L37.99 14.0317ZM36.7219 15.1755C36.2219 15.444 35.6743 15.58 35.0704 15.58V16.58C35.8319 16.58 36.543 16.4066 37.195 16.0565L36.7219 15.1755ZM35.0704 15.58C34.5903 15.58 34.1379 15.4909 33.7093 15.3139L33.3276 16.2381C33.8803 16.4664 34.4626 16.58 35.0704 16.58V15.58ZM33.7178 15.3175C33.2839 15.1288 32.9044 14.8708 32.576 14.5424L31.8689 15.2496C32.2872 15.6678 32.7717 15.9965 33.3191 16.2345L33.7178 15.3175ZM32.576 14.5424C32.2476 14.2141 31.9896 13.8346 31.801 13.4006L30.8839 13.7994C31.1219 14.3468 31.4506 14.8313 31.8689 15.2496L32.576 14.5424ZM31.8046 13.4091C31.6275 12.9805 31.5384 12.5282 31.5384 12.048H30.5384C30.5384 12.6558 30.652 13.2382 30.8803 13.7909L31.8046 13.4091ZM31.5384 12.048C31.5384 11.5678 31.6275 11.1155 31.8046 10.6869L30.8803 10.3051C30.652 10.8578 30.5384 11.4402 30.5384 12.048H31.5384ZM31.8025 10.6918C31.9916 10.2475 32.2494 9.86415 32.576 9.53755L31.8689 8.83045C31.4488 9.25052 31.12 9.74188 30.8824 10.3002L31.8025 10.6918ZM32.5811 9.53239C32.8952 9.20902 33.2645 8.95927 33.6933 8.78213L33.3116 7.85787C32.7591 8.08606 32.275 8.41231 31.8638 8.83561L32.5811 9.53239ZM33.6898 8.78355C34.1313 8.60511 34.5903 8.516 35.0704 8.516V7.516C34.4626 7.516 33.8763 7.62956 33.315 7.85644L33.6898 8.78355ZM35.0704 8.516C35.5506 8.516 36.0029 8.60509 36.4316 8.78213L36.8133 7.85787C36.2606 7.62958 35.6783 7.516 35.0704 7.516V8.516ZM36.435 8.78355C36.8745 8.9612 37.2475 9.21089 37.5598 9.53239L38.2771 8.83561C37.8641 8.41045 37.3731 8.08413 36.8098 7.85644L36.435 8.78355ZM37.5595 9.53207C37.8472 9.82874 38.0978 10.2236 38.3028 10.7312L39.2301 10.3568C38.9871 9.75504 38.6724 9.24326 38.2774 8.83593L37.5595 9.53207ZM38.306 10.7388C38.5185 11.2412 38.6184 11.7137 38.6184 12.16H39.6184C39.6184 11.561 39.4837 10.9562 39.2269 10.3492L38.306 10.7388ZM38.6194 12.1288L38.6034 12.3848L39.6015 12.4472L39.6175 12.1912L38.6194 12.1288ZM39.1024 11.916H31.7904V12.916H39.1024V11.916ZM35.0704 8.236C34.1386 8.236 33.3156 8.54678 32.6254 9.16303L33.2914 9.90897C33.7959 9.45856 34.3809 9.236 35.0704 9.236V8.236ZM32.6287 9.16012C31.9276 9.7751 31.4886 10.5882 31.2995 11.5694L32.2814 11.7586C32.4336 10.9691 32.7732 10.3636 33.2882 9.91188L32.6287 9.16012ZM31.7904 12.164H38.3504V11.164H31.7904V12.164ZM38.8414 11.5694C38.6523 10.5882 38.2132 9.7751 37.5122 9.16012L36.8527 9.91188C37.3676 10.3636 37.7073 10.9691 37.8595 11.7586L38.8414 11.5694ZM37.5154 9.16303C36.8252 8.54678 36.0023 8.236 35.0704 8.236V9.236C35.7599 9.236 36.345 9.45856 36.8494 9.90897L37.5154 9.16303ZM42.7376 15.76L42.9369 15.3015L42.7376 15.76ZM41.4416 14.88L41.088 15.2336L41.088 15.2336L41.4416 14.88ZM40.5616 13.584L40.103 13.7834L40.103 13.7834L40.5616 13.584ZM40.5616 10.448L41.0216 10.6438L41.0216 10.6438L40.5616 10.448ZM41.4416 9.136L41.088 8.78245L41.088 8.78245L41.4416 9.136ZM42.7376 8.272L42.9285 8.73421L42.9369 8.73053L42.7376 8.272ZM45.8736 8.272L45.6778 8.73215L45.6862 8.73555L45.8736 8.272ZM47.1856 9.136L47.5391 8.78245L47.5391 8.78245L47.1856 9.136ZM48.0496 10.448L47.5859 10.6354L47.5895 10.6438L48.0496 10.448ZM48.0496 13.584L47.5909 13.3846L47.5874 13.3931L48.0496 13.584ZM47.1856 14.88L47.5391 15.2336L47.5391 15.2336L47.1856 14.88ZM45.8736 15.76L45.6778 15.2999L45.6778 15.2999L45.8736 15.76ZM43.0096 8.928L42.8155 8.46716L42.8111 8.46907L43.0096 8.928ZM41.9536 9.648L42.3071 10.0016L42.3071 10.0016L41.9536 9.648ZM41.2176 10.736L40.7591 10.5362L40.755 10.5462L41.2176 10.736ZM41.2176 13.312L40.7566 13.5061L40.7612 13.5162L41.2176 13.312ZM41.9536 14.384L41.6 14.7376L41.6 14.7376L41.9536 14.384ZM43.0096 15.12L42.8008 15.5743L42.8081 15.5777L42.8155 15.5808L43.0096 15.12ZM45.5856 15.12L45.7754 15.5827L45.7854 15.5783L45.5856 15.12ZM46.6576 14.384L46.304 14.0304L46.2979 14.0367L46.6576 14.384ZM47.3616 10.736L46.8989 10.9258L46.9032 10.9358L47.3616 10.736ZM46.6576 9.648L46.2979 9.9953L46.2979 9.9953L46.6576 9.648ZM44.2896 15.58C43.813 15.58 43.3636 15.487 42.9369 15.3015L42.5382 16.2185C43.0928 16.4597 43.6781 16.58 44.2896 16.58V15.58ZM42.9369 15.3015C42.503 15.1128 42.1235 14.8548 41.7951 14.5264L41.088 15.2336C41.5063 15.6518 41.9908 15.9805 42.5382 16.2185L42.9369 15.3015ZM41.7951 14.5264C41.4667 14.1981 41.2088 13.8186 41.0201 13.3846L40.103 13.7834C40.341 14.3308 40.6697 14.8153 41.088 15.2336L41.7951 14.5264ZM41.0201 13.3846C40.8346 12.958 40.7416 12.5086 40.7416 12.032H39.7416C39.7416 12.6434 39.8619 13.2287 40.103 13.7834L41.0201 13.3846ZM40.7416 12.032C40.7416 11.5434 40.8351 11.0821 41.0216 10.6438L40.1015 10.2522C39.8613 10.8166 39.7416 11.4113 39.7416 12.032H40.7416ZM41.0216 10.6438C41.2107 10.1995 41.4685 9.81615 41.7951 9.48955L41.088 8.78245C40.6679 9.20252 40.3391 9.69388 40.1015 10.2522L41.0216 10.6438ZM41.7951 9.48955C42.1216 9.16303 42.4983 8.91181 42.9284 8.73413L42.5467 7.80987C41.9955 8.03752 41.5082 8.3623 41.088 8.78245L41.7951 9.48955ZM42.9369 8.73053C43.3636 8.54502 43.813 8.452 44.2896 8.452V7.452C43.6781 7.452 43.0928 7.57231 42.5382 7.81346L42.9369 8.73053ZM44.2896 8.452C44.7782 8.452 45.2395 8.54557 45.6778 8.73208L46.0693 7.81192C45.505 7.57176 44.9103 7.452 44.2896 7.452V8.452ZM45.6862 8.73555C46.1268 8.9137 46.5073 9.16483 46.832 9.48955L47.5391 8.78245C47.1172 8.36051 46.623 8.03563 46.061 7.80844L45.6862 8.73555ZM46.832 9.48955C47.1567 9.81428 47.4079 10.1947 47.586 10.6354L48.5131 10.2606C48.2859 9.69861 47.9611 9.20439 47.5391 8.78245L46.832 9.48955ZM47.5895 10.6438C47.776 11.0821 47.8696 11.5434 47.8696 12.032H48.8696C48.8696 11.4113 48.7498 10.8166 48.5096 10.2522L47.5895 10.6438ZM47.8696 12.032C47.8696 12.5086 47.7765 12.958 47.591 13.3846L48.5081 13.7834C48.7492 13.2287 48.8696 12.6434 48.8696 12.032H47.8696ZM47.5874 13.3931C47.4098 13.8233 47.1585 14.1999 46.832 14.5264L47.5391 15.2336C47.9593 14.8134 48.284 14.326 48.5117 13.7749L47.5874 13.3931ZM46.832 14.5264C46.5054 14.853 46.1221 15.1108 45.6778 15.2999L46.0693 16.2201C46.6277 15.9825 47.119 15.6536 47.5391 15.2336L46.832 14.5264ZM45.6778 15.2999C45.2395 15.4864 44.7782 15.58 44.2896 15.58V16.58C44.9103 16.58 45.505 16.4602 46.0693 16.2201L45.6778 15.2999ZM44.2896 8.172C43.7762 8.172 43.2835 8.27016 42.8155 8.46718L43.2036 9.38882C43.5463 9.2445 43.9069 9.172 44.2896 9.172V8.172ZM42.8111 8.46907C42.3575 8.66521 41.9531 8.94131 41.6 9.29445L42.3071 10.0016C42.5727 9.73602 42.8723 9.53212 43.208 9.38693L42.8111 8.46907ZM41.6 9.29445C41.2448 9.64967 40.9646 10.065 40.7592 10.5362L41.6759 10.9358C41.8332 10.575 42.0437 10.265 42.3071 10.0016L41.6 9.29445ZM40.755 10.5462C40.5597 11.0222 40.4616 11.5187 40.4616 12.032H41.4616C41.4616 11.6493 41.5341 11.2818 41.6801 10.9258L40.755 10.5462ZM40.4616 12.032C40.4616 12.5454 40.5597 13.0381 40.7567 13.506L41.6784 13.118C41.5341 12.7752 41.4616 12.4146 41.4616 12.032H40.4616ZM40.7612 13.5162C40.967 13.9763 41.2469 14.3845 41.6 14.7376L42.3071 14.0304C42.0415 13.7649 41.8308 13.4584 41.674 13.1078L40.7612 13.5162ZM41.6 14.7376C41.9509 15.0885 42.3519 15.3681 42.8008 15.5743L43.2183 14.6657C42.8779 14.5093 42.5748 14.2982 42.3071 14.0304L41.6 14.7376ZM42.8155 15.5808C43.2835 15.7778 43.7762 15.876 44.2896 15.876V14.876C43.9069 14.876 43.5463 14.8035 43.2036 14.6592L42.8155 15.5808ZM44.2896 15.876C44.8029 15.876 45.2993 15.7779 45.7753 15.5826L45.3958 14.6574C45.0398 14.8035 44.6722 14.876 44.2896 14.876V15.876ZM45.7854 15.5783C46.258 15.3723 46.6706 15.0903 47.0173 14.7313L46.2979 14.0367C46.0472 14.2963 45.7451 14.505 45.3858 14.6617L45.7854 15.5783ZM47.0111 14.7376C47.3664 14.3822 47.6428 13.9706 47.8384 13.506L46.9167 13.118C46.771 13.464 46.5674 13.7671 46.304 14.0304L47.0111 14.7376ZM47.8384 13.506C48.0354 13.0381 48.1336 12.5454 48.1336 12.032H47.1336C47.1336 12.4146 47.0611 12.7752 46.9167 13.118L47.8384 13.506ZM48.1336 12.032C48.1336 11.5143 48.0284 11.0144 47.8199 10.5362L46.9032 10.9358C47.0574 11.2896 47.1336 11.6537 47.1336 12.032H48.1336ZM47.8241 10.5462C47.6306 10.0744 47.3619 9.65763 47.0173 9.3007L46.2979 9.9953C46.5506 10.257 46.7512 10.5656 46.899 10.9258L47.8241 10.5462ZM47.0173 9.3007C46.6683 8.93933 46.2524 8.66112 45.7753 8.46542L45.3958 9.39058C45.7508 9.53622 46.0494 9.73801 46.2979 9.9953L47.0173 9.3007ZM45.7753 8.46542C45.2993 8.27014 44.8029 8.172 44.2896 8.172V9.172C44.6722 9.172 45.0398 9.24453 45.3958 9.39058L45.7753 8.46542Z" fill="white"/>
<path d="M16 30L11.6699 22.5H20.3301L16 30Z" fill="#FD841F"/>
</svg>
