<svg width="16" height="16" viewBox="0 0 16 16" fill="none" xmlns="http://www.w3.org/2000/svg">
<g clip-path="url(#clip0_260_2549)">
<path d="M9.745 4.41912C9.66891 4.37635 9.58294 4.35424 9.49565 4.355C9.40836 4.35576 9.32279 4.37936 9.24745 4.42345C9.17211 4.46754 9.10963 4.53059 9.06622 4.60632C9.02281 4.68205 8.99998 4.76783 9 4.85512V11.1451C8.99998 11.2324 9.02281 11.3182 9.06622 11.3939C9.10963 11.4697 9.17211 11.5327 9.24745 11.5768C9.32279 11.6209 9.40836 11.6445 9.49565 11.6452C9.58294 11.646 9.66891 11.6239 9.745 11.5811L15.336 8.43612C15.4134 8.39265 15.4779 8.32936 15.5227 8.25273C15.5676 8.1761 15.5912 8.08891 15.5912 8.00012C15.5912 7.91133 15.5676 7.82414 15.5227 7.74751C15.4779 7.67088 15.4134 7.60758 15.336 7.56412L9.745 4.41912Z" fill="#FD841F"/>
<path d="M9.5 7H0.5C0.223858 7 0 7.22386 0 7.5V8.5C0 8.77614 0.223858 9 0.5 9H9.5C9.77614 9 10 8.77614 10 8.5V7.5C10 7.22386 9.77614 7 9.5 7Z" fill="#FD841F"/>
</g>
<defs>
<clipPath id="clip0_260_2549">
<rect width="16" height="16" fill="white"/>
</clipPath>
</defs>
</svg>
