<svg width="293" height="298" viewBox="0 0 293 298" fill="none" xmlns="http://www.w3.org/2000/svg">
<g filter="url(#filter0_d_1058_103)">
<rect x="10" y="5" width="262.5" height="268" rx="10" fill="white" shape-rendering="crispEdges"/>
<path d="M100.544 164.192C102.96 164.192 104.48 162.608 104.48 160.816C104.48 159.216 103.744 158.192 102.176 157.36C102.048 157.28 100.704 156.576 100.576 156.512C99.952 156.176 99.744 155.888 99.744 155.488C99.744 155.072 100.096 154.816 100.56 154.816C101.072 154.816 101.424 155.152 101.632 155.664L103.728 154.592C103.216 153.344 102.272 152.608 100.56 152.608C98.496 152.608 97.136 153.808 97.136 155.52C97.136 157.136 98.048 158.048 99.072 158.576C99.264 158.688 100.416 159.264 100.64 159.376C101.584 159.856 101.904 160.288 101.904 160.832C101.904 161.504 101.344 161.936 100.544 161.936C99.632 161.936 98.848 161.344 98.544 160.352L96.368 161.248C97.008 163.072 98.256 164.192 100.544 164.192ZM105.978 155.008H108.474V152.656H105.978V155.008ZM106.01 164H108.442V156H106.01V164ZM114.092 167.392C116.364 167.392 118.124 165.984 118.124 163.824C118.124 162.608 117.436 161.488 116.572 161.04C117.132 160.704 117.548 159.936 117.548 159.216C117.548 158.592 117.292 158.064 116.988 157.728L118.092 157.504V155.808H114.076C111.932 155.808 110.588 157.216 110.588 158.96C110.588 159.808 110.956 160.56 111.58 161.04C110.716 161.6 110.028 162.576 110.028 163.824C110.028 165.984 111.804 167.392 114.092 167.392ZM114.076 160.368C113.356 160.368 112.812 159.792 112.812 159.072C112.812 158.368 113.372 157.744 114.076 157.744C114.812 157.744 115.276 158.368 115.276 159.072C115.276 159.792 114.828 160.368 114.076 160.368ZM114.092 165.344C113.18 165.344 112.396 164.72 112.396 163.776C112.396 162.8 113.196 162.176 114.092 162.176C114.972 162.176 115.756 162.8 115.756 163.776C115.756 164.72 114.988 165.344 114.092 165.344ZM119.822 164H122.254V160.16C122.254 158.656 122.926 157.968 123.694 157.968C124.398 157.968 124.766 158.416 124.766 159.344V164H127.198V160.112C127.198 158.608 127.87 157.968 128.638 157.968C129.342 157.968 129.71 158.416 129.71 159.344V164H132.126V158.976C132.126 156.832 130.878 155.808 129.214 155.808C127.998 155.808 127.118 156.4 126.75 157.024C126.302 156.24 125.534 155.808 124.526 155.808C123.39 155.808 122.542 156.4 122.158 157.024L121.87 156H119.822V164ZM138.133 162.08C137.045 162.08 136.213 161.264 136.213 160C136.213 158.736 137.045 157.92 138.133 157.92C139.205 157.92 140.037 158.736 140.037 160C140.037 161.264 139.205 162.08 138.133 162.08ZM137.525 164.192C138.789 164.192 139.557 163.68 139.909 163.28L140.245 164H142.373V156H140.149L139.909 156.672C139.493 156.224 138.661 155.808 137.621 155.808C135.701 155.808 133.765 157.312 133.765 160C133.765 162.528 135.493 164.192 137.525 164.192ZM148.653 164H151.229V157.232L155.149 164H157.997V152.8H155.421V159.776L151.517 152.8H148.653V164ZM163.747 164.192C166.163 164.192 167.683 162.608 167.683 160.816C167.683 159.216 166.947 158.192 165.379 157.36C165.251 157.28 163.907 156.576 163.779 156.512C163.155 156.176 162.947 155.888 162.947 155.488C162.947 155.072 163.299 154.816 163.763 154.816C164.275 154.816 164.627 155.152 164.835 155.664L166.931 154.592C166.419 153.344 165.475 152.608 163.763 152.608C161.699 152.608 160.339 153.808 160.339 155.52C160.339 157.136 161.251 158.048 162.275 158.576C162.467 158.688 163.619 159.264 163.843 159.376C164.787 159.856 165.107 160.288 165.107 160.832C165.107 161.504 164.547 161.936 163.747 161.936C162.835 161.936 162.051 161.344 161.747 160.352L159.571 161.248C160.211 163.072 161.459 164.192 163.747 164.192ZM172.701 164.192C175.133 164.192 176.845 162.512 176.845 160.288C176.845 158.048 175.389 156.384 173.229 156.384C172.493 156.384 171.741 156.64 171.373 156.992L171.693 155.088H175.997V152.8H169.789L169.053 159.04L171.181 159.44C171.469 158.848 172.061 158.576 172.685 158.576C173.613 158.576 174.301 159.248 174.301 160.224C174.301 161.2 173.613 161.872 172.685 161.872C171.821 161.872 171.245 161.392 171.037 160.64L168.781 161.376C169.165 163.04 170.509 164.192 172.701 164.192ZM181.934 164.192C184.302 164.192 186.03 162.656 186.03 160.368C186.03 158.544 184.766 157.296 183.118 157.008L185.422 154.832V152.8H178.718V154.992H182.398L180.398 156.976V158.624L181.934 158.784C182.942 158.88 183.486 159.616 183.486 160.336C183.486 161.232 182.846 161.872 181.902 161.872C181.07 161.872 180.478 161.264 180.318 160.56L177.998 161.344C178.43 162.976 179.646 164.192 181.934 164.192Z" fill="#FD841F"/>
<path d="M71.2663 201H74.1463C77.7463 201 80.0503 198.664 80.0503 195.4C80.0503 192.168 77.9063 189.8 74.1463 189.8H71.2663V201ZM72.7863 199.576V191.224H74.2903C76.8663 191.224 78.5143 192.824 78.5143 195.4C78.5143 197.976 76.8503 199.576 74.2903 199.576H72.7863ZM82.7351 201H84.2391V192.296L89.5031 201H91.1191V189.8H89.6151V198.52L84.3831 189.8H82.7351V201ZM97.2043 201.192C99.3163 201.192 100.676 199.72 100.676 197.944C100.676 196.552 100.004 195.592 98.5643 194.808C98.4203 194.728 97.0763 193.992 96.9323 193.912C96.0203 193.432 95.6363 193.016 95.6363 192.28C95.6363 191.592 96.2443 191.048 96.9803 191.048C97.8603 191.048 98.3083 191.528 98.6123 192.28L99.9563 191.608C99.4123 190.344 98.4523 189.608 97.0283 189.608C95.3163 189.608 94.1163 190.76 94.1163 192.344C94.1163 193.496 94.7883 194.472 95.8923 195.048C96.1163 195.176 97.2203 195.752 97.4603 195.88C98.4683 196.392 99.1563 196.936 99.1563 197.96C99.1563 199.016 98.2763 199.752 97.1883 199.752C95.7803 199.752 95.0443 198.76 94.7883 197.88L93.3963 198.424C93.9563 200.168 95.1883 201.192 97.2043 201.192ZM110.326 199.896C108.742 199.896 107.67 198.616 107.67 197C107.67 195.384 108.742 194.104 110.326 194.104C111.926 194.104 112.982 195.384 112.982 197C112.982 198.616 111.926 199.896 110.326 199.896ZM110.214 201.192C111.462 201.192 112.454 200.488 112.902 199.864L113.094 201H114.294V189.56H112.87V194.024C112.47 193.528 111.59 192.808 110.214 192.808C107.846 192.808 106.23 194.664 106.23 197C106.23 199.336 107.766 201.192 110.214 201.192ZM120.765 201.192C123.197 201.192 124.909 199.336 124.909 197C124.909 194.664 123.197 192.808 120.765 192.808C118.333 192.808 116.637 194.664 116.637 197C116.637 199.336 118.333 201.192 120.765 201.192ZM120.765 199.896C119.245 199.896 118.093 198.696 118.093 197C118.093 195.304 119.245 194.104 120.765 194.104C122.285 194.104 123.453 195.304 123.453 197C123.453 198.696 122.285 199.896 120.765 199.896ZM127.246 201H128.67V197.208C128.67 195.08 129.566 194.104 130.654 194.104C131.63 194.104 132.286 194.728 132.286 196.072V201H133.71V197.208C133.71 195.08 134.622 194.104 135.694 194.104C136.67 194.104 137.326 194.728 137.326 196.072V201H138.766V196.136C138.766 194.088 137.87 192.808 135.886 192.808C134.558 192.808 133.758 193.464 133.358 194.152C132.958 193.304 132.254 192.808 130.99 192.808C129.854 192.808 129.134 193.304 128.654 194.024L128.446 193H127.246V201ZM145.061 199.896C143.461 199.896 142.405 198.616 142.405 197C142.405 195.384 143.461 194.104 145.061 194.104C146.645 194.104 147.717 195.384 147.717 197C147.717 198.616 146.645 199.896 145.061 199.896ZM144.917 201.192C146.117 201.192 147.157 200.584 147.605 199.928L147.813 201H149.029V193H147.813L147.605 194.008C147.205 193.48 146.293 192.808 144.917 192.808C142.581 192.808 140.949 194.664 140.949 197C140.949 199.336 142.485 201.192 144.917 201.192ZM151.915 191.368H153.515V189.8H151.915V191.368ZM152.011 201H153.435V193H152.011V201ZM156.418 201H157.842V197.208C157.842 195.032 158.85 194.104 159.954 194.104C161.058 194.104 161.826 194.888 161.826 196.312V201H163.25V196.184C163.25 194.136 162.258 192.808 160.258 192.808C159.106 192.808 158.306 193.272 157.826 193.992L157.618 193H156.418V201ZM170.106 201H171.53V197.208C171.53 195.032 172.538 194.104 173.642 194.104C174.746 194.104 175.514 194.888 175.514 196.312V201H176.938V196.184C176.938 194.136 175.946 192.808 173.946 192.808C172.794 192.808 171.994 193.272 171.514 193.992L171.306 193H170.106V201ZM183.249 199.896C181.649 199.896 180.593 198.616 180.593 197C180.593 195.384 181.649 194.104 183.249 194.104C184.833 194.104 185.905 195.384 185.905 197C185.905 198.616 184.833 199.896 183.249 199.896ZM183.105 201.192C184.305 201.192 185.345 200.584 185.793 199.928L186.001 201H187.217V193H186.001L185.793 194.008C185.393 193.48 184.481 192.808 183.105 192.808C180.769 192.808 179.137 194.664 179.137 197C179.137 199.336 180.673 201.192 183.105 201.192ZM190.215 201H191.639V197.208C191.639 195.08 192.535 194.104 193.623 194.104C194.599 194.104 195.255 194.728 195.255 196.072V201H196.679V197.208C196.679 195.08 197.591 194.104 198.663 194.104C199.639 194.104 200.295 194.728 200.295 196.072V201H201.735V196.136C201.735 194.088 200.839 192.808 198.855 192.808C197.527 192.808 196.727 193.464 196.327 194.152C195.927 193.304 195.223 192.808 193.959 192.808C192.823 192.808 192.103 193.304 191.623 194.024L191.415 193H190.215V201ZM207.886 201.192C209.63 201.192 210.846 200.28 211.454 199.032L210.286 198.456C209.758 199.384 209.006 199.896 207.95 199.896C206.462 199.896 205.454 198.936 205.342 197.464H211.646C211.662 197.272 211.678 197.016 211.678 196.824C211.678 194.584 210.318 192.808 207.886 192.808C205.406 192.808 203.918 194.664 203.918 197C203.918 199.368 205.358 201.192 207.886 201.192ZM205.358 196.296C205.502 194.984 206.51 194.104 207.902 194.104C209.278 194.104 210.158 194.984 210.27 196.296H205.358ZM54.9806 217H56.4046V212.824C56.4046 211.096 57.2206 210.264 58.2606 210.264C58.6446 210.264 59.0766 210.36 59.3966 210.536L59.8606 209.128C59.5726 208.968 59.0606 208.808 58.5646 208.808C57.5246 208.808 56.8206 209.288 56.3886 210.072L56.1806 209H54.9806V217ZM64.3234 217.192C66.0674 217.192 67.2834 216.28 67.8914 215.032L66.7234 214.456C66.1954 215.384 65.4434 215.896 64.3874 215.896C62.8994 215.896 61.8914 214.936 61.7794 213.464H68.0834C68.0994 213.272 68.1154 213.016 68.1154 212.824C68.1154 210.584 66.7554 208.808 64.3234 208.808C61.8434 208.808 60.3554 210.664 60.3554 213C60.3554 215.368 61.7954 217.192 64.3234 217.192ZM61.7954 212.296C61.9394 210.984 62.9474 210.104 64.3394 210.104C65.7154 210.104 66.5954 210.984 66.7074 212.296H61.7954ZM72.2592 217.192C73.9712 217.192 75.0592 216.12 75.0592 214.728C75.0592 213.56 74.3552 212.808 73.3952 212.408L72.2272 211.944C71.7632 211.752 71.2992 211.512 71.2992 210.936C71.2992 210.456 71.7152 210.072 72.2272 210.072C72.7552 210.072 73.1712 210.376 73.4112 210.952L74.5472 210.296C74.0992 209.368 73.3472 208.808 72.2272 208.808C70.9312 208.808 69.9392 209.736 69.9392 210.888C69.9392 211.864 70.5152 212.616 71.3472 212.936L72.3712 213.352C73.2992 213.72 73.6992 214.072 73.6992 214.744C73.6992 215.4 73.1552 215.928 72.3392 215.928C71.4112 215.928 70.8192 215.416 70.5632 214.568L69.3632 215.064C69.8112 216.328 70.7552 217.192 72.2592 217.192ZM80.7959 217.192C83.2279 217.192 84.9399 215.336 84.9399 213C84.9399 210.664 83.2279 208.808 80.7959 208.808C78.3639 208.808 76.6679 210.664 76.6679 213C76.6679 215.336 78.3639 217.192 80.7959 217.192ZM80.7959 215.896C79.2759 215.896 78.1239 214.696 78.1239 213C78.1239 211.304 79.2759 210.104 80.7959 210.104C82.3159 210.104 83.4839 211.304 83.4839 213C83.4839 214.696 82.3159 215.896 80.7959 215.896ZM87.2774 217H88.7014V205.56H87.2774V217ZM94.5473 217.192C95.6993 217.192 96.5473 216.696 96.9953 216.008L97.2193 217H98.4193V209H96.9953V213.096C96.9953 214.92 96.0833 215.896 94.8513 215.896C93.7473 215.896 92.9313 215.16 92.9313 213.736V209H91.5073V213.752C91.5073 215.832 92.4513 217.192 94.5473 217.192ZM101.642 217H103.082V210.296H104.81V209H103.082V206.536L101.642 206.808V209H100.602V210.296H101.642V217ZM106.587 207.368H108.187V205.8H106.587V207.368ZM106.683 217H108.107V209H106.683V217ZM114.546 217.192C116.978 217.192 118.69 215.336 118.69 213C118.69 210.664 116.978 208.808 114.546 208.808C112.114 208.808 110.418 210.664 110.418 213C110.418 215.336 112.114 217.192 114.546 217.192ZM114.546 215.896C113.026 215.896 111.874 214.696 111.874 213C111.874 211.304 113.026 210.104 114.546 210.104C116.066 210.104 117.234 211.304 117.234 213C117.234 214.696 116.066 215.896 114.546 215.896ZM121.027 217H122.451V213.208C122.451 211.032 123.459 210.104 124.563 210.104C125.667 210.104 126.435 210.888 126.435 212.312V217H127.859V212.184C127.859 210.136 126.867 208.808 124.867 208.808C123.715 208.808 122.915 209.272 122.435 209.992L122.227 209H121.027V217ZM136.603 217.192C138.315 217.192 139.403 216.12 139.403 214.728C139.403 213.56 138.699 212.808 137.739 212.408L136.571 211.944C136.107 211.752 135.643 211.512 135.643 210.936C135.643 210.456 136.059 210.072 136.571 210.072C137.099 210.072 137.515 210.376 137.755 210.952L138.891 210.296C138.443 209.368 137.691 208.808 136.571 208.808C135.275 208.808 134.283 209.736 134.283 210.888C134.283 211.864 134.859 212.616 135.691 212.936L136.715 213.352C137.643 213.72 138.043 214.072 138.043 214.744C138.043 215.4 137.499 215.928 136.683 215.928C135.755 215.928 135.163 215.416 134.907 214.568L133.707 215.064C134.155 216.328 135.099 217.192 136.603 217.192ZM143.672 220.2L147.72 209H146.232L144.104 215.08L141.784 209H140.264L143.368 216.904L142.2 220.2H143.672ZM151.4 217.192C153.112 217.192 154.2 216.12 154.2 214.728C154.2 213.56 153.496 212.808 152.536 212.408L151.368 211.944C150.904 211.752 150.44 211.512 150.44 210.936C150.44 210.456 150.856 210.072 151.368 210.072C151.896 210.072 152.312 210.376 152.552 210.952L153.688 210.296C153.24 209.368 152.488 208.808 151.368 208.808C150.072 208.808 149.08 209.736 149.08 210.888C149.08 211.864 149.656 212.616 150.488 212.936L151.512 213.352C152.44 213.72 152.84 214.072 152.84 214.744C152.84 215.4 152.296 215.928 151.48 215.928C150.552 215.928 149.96 215.416 149.704 214.568L148.504 215.064C148.952 216.328 149.896 217.192 151.4 217.192ZM156.564 217H158.004V210.296H159.732V209H158.004V206.536L156.564 206.808V209H155.524V210.296H156.564V217ZM164.761 217.192C166.505 217.192 167.721 216.28 168.329 215.032L167.161 214.456C166.633 215.384 165.881 215.896 164.825 215.896C163.337 215.896 162.329 214.936 162.217 213.464H168.521C168.537 213.272 168.553 213.016 168.553 212.824C168.553 210.584 167.193 208.808 164.761 208.808C162.281 208.808 160.793 210.664 160.793 213C160.793 215.368 162.233 217.192 164.761 217.192ZM162.233 212.296C162.377 210.984 163.385 210.104 164.777 210.104C166.153 210.104 167.033 210.984 167.145 212.296H162.233ZM170.809 217H172.233V213.208C172.233 211.08 173.129 210.104 174.217 210.104C175.193 210.104 175.849 210.728 175.849 212.072V217H177.273V213.208C177.273 211.08 178.185 210.104 179.257 210.104C180.233 210.104 180.889 210.728 180.889 212.072V217H182.329V212.136C182.329 210.088 181.433 208.808 179.449 208.808C178.121 208.808 177.321 209.464 176.921 210.152C176.521 209.304 175.817 208.808 174.553 208.808C173.417 208.808 172.697 209.304 172.217 210.024L172.009 209H170.809V217ZM189.168 217H190.592V213.208C190.592 211.048 191.632 210.104 192.72 210.104C193.824 210.104 194.624 210.888 194.624 212.312V217H196.064V212.184C196.064 210.136 195.088 208.808 193.024 208.808C191.968 208.808 191.056 209.288 190.592 209.992V205.56H189.168V217ZM202.214 217.192C203.958 217.192 205.174 216.28 205.782 215.032L204.614 214.456C204.086 215.384 203.334 215.896 202.278 215.896C200.79 215.896 199.782 214.936 199.67 213.464H205.974C205.99 213.272 206.006 213.016 206.006 212.824C206.006 210.584 204.646 208.808 202.214 208.808C199.734 208.808 198.246 210.664 198.246 213C198.246 215.368 199.686 217.192 202.214 217.192ZM199.686 212.296C199.83 210.984 200.838 210.104 202.23 210.104C203.606 210.104 204.486 210.984 204.598 212.296H199.686ZM208.262 217H209.686V205.56H208.262V217ZM216.636 215.896C215.052 215.896 213.98 214.616 213.98 213C213.98 211.384 215.068 210.104 216.652 210.104C218.22 210.104 219.308 211.384 219.308 213C219.308 214.616 218.236 215.896 216.636 215.896ZM212.684 220.2H214.108V215.96C214.492 216.488 215.388 217.192 216.764 217.192C219.132 217.192 220.748 215.336 220.748 213C220.748 210.664 219.26 208.808 216.828 208.808C215.628 208.808 214.572 209.448 214.06 210.136L213.884 209H212.684V220.2ZM225.072 217.192C226.784 217.192 227.872 216.12 227.872 214.728C227.872 213.56 227.168 212.808 226.208 212.408L225.04 211.944C224.576 211.752 224.112 211.512 224.112 210.936C224.112 210.456 224.528 210.072 225.04 210.072C225.568 210.072 225.984 210.376 226.224 210.952L227.36 210.296C226.912 209.368 226.16 208.808 225.04 208.808C223.744 208.808 222.752 209.736 222.752 210.888C222.752 211.864 223.328 212.616 224.16 212.936L225.184 213.352C226.112 213.72 226.512 214.072 226.512 214.744C226.512 215.4 225.968 215.928 225.152 215.928C224.224 215.928 223.632 215.416 223.376 214.568L222.176 215.064C222.624 216.328 223.568 217.192 225.072 217.192ZM43.2559 233.192C45.5919 233.192 47.2399 231.336 47.2399 229C47.2399 226.664 45.7839 224.808 43.2879 224.808C42.1039 224.808 41.1119 225.464 40.5999 226.104V221.56H39.1759V233H40.3759L40.5519 231.912C40.9359 232.44 41.8799 233.192 43.2559 233.192ZM43.1279 231.896C41.5439 231.896 40.4719 230.616 40.4719 229C40.4719 227.384 41.5919 226.104 43.1759 226.104C44.7759 226.104 45.7999 227.384 45.7999 229C45.7999 230.616 44.6959 231.896 43.1279 231.896ZM53.1784 231.896C51.5784 231.896 50.5224 230.616 50.5224 229C50.5224 227.384 51.5784 226.104 53.1784 226.104C54.7624 226.104 55.8344 227.384 55.8344 229C55.8344 230.616 54.7624 231.896 53.1784 231.896ZM53.0344 233.192C54.2344 233.192 55.2744 232.584 55.7224 231.928L55.9304 233H57.1464V225H55.9304L55.7224 226.008C55.3224 225.48 54.4104 224.808 53.0344 224.808C50.6984 224.808 49.0664 226.664 49.0664 229C49.0664 231.336 50.6024 233.192 53.0344 233.192ZM60.1446 233H61.5686V221.56H60.1446V233ZM68.0065 231.896C66.4065 231.896 65.3505 230.616 65.3505 229C65.3505 227.384 66.4065 226.104 68.0065 226.104C69.5905 226.104 70.6625 227.384 70.6625 229C70.6625 230.616 69.5905 231.896 68.0065 231.896ZM67.8625 233.192C69.0625 233.192 70.1025 232.584 70.5505 231.928L70.7585 233H71.9745V225H70.7585L70.5505 226.008C70.1505 225.48 69.2385 224.808 67.8625 224.808C65.5265 224.808 63.8945 226.664 63.8945 229C63.8945 231.336 65.4305 233.192 67.8625 233.192ZM74.9728 233H76.3968V229.208C76.3968 227.032 77.4048 226.104 78.5088 226.104C79.6128 226.104 80.3808 226.888 80.3808 228.312V233H81.8048V228.184C81.8048 226.136 80.8128 224.808 78.8128 224.808C77.6608 224.808 76.8608 225.272 76.3808 225.992L76.1728 225H74.9728V233ZM88.0199 233.192C89.7799 233.192 90.9799 232.2 91.5719 231.032L90.3079 230.456C89.9719 231.192 89.1879 231.896 88.0199 231.896C86.5159 231.896 85.4599 230.696 85.4599 229C85.4599 227.304 86.5159 226.104 87.9719 226.104C89.1079 226.104 89.7799 226.648 90.2279 227.528L91.5079 226.952C90.8839 225.528 89.6039 224.808 88.0199 224.808C85.6039 224.808 84.0039 226.664 84.0039 229C84.0039 231.336 85.6039 233.192 88.0199 233.192ZM96.8469 233.192C98.5909 233.192 99.8069 232.28 100.415 231.032L99.2469 230.456C98.7189 231.384 97.9669 231.896 96.9109 231.896C95.4229 231.896 94.4149 230.936 94.3029 229.464H100.607C100.623 229.272 100.639 229.016 100.639 228.824C100.639 226.584 99.2789 224.808 96.8469 224.808C94.3669 224.808 92.8789 226.664 92.8789 229C92.8789 231.368 94.3189 233.192 96.8469 233.192ZM94.3189 228.296C94.4629 226.984 95.4709 226.104 96.8629 226.104C98.2389 226.104 99.1189 226.984 99.2309 228.296H94.3189ZM106.879 233H108.303V221.56H106.879V233ZM114.757 233.192C117.189 233.192 118.901 231.336 118.901 229C118.901 226.664 117.189 224.808 114.757 224.808C112.325 224.808 110.629 226.664 110.629 229C110.629 231.336 112.325 233.192 114.757 233.192ZM114.757 231.896C113.237 231.896 112.085 230.696 112.085 229C112.085 227.304 113.237 226.104 114.757 226.104C116.277 226.104 117.445 227.304 117.445 229C117.445 230.696 116.277 231.896 114.757 231.896ZM124.835 231.896C123.235 231.896 122.179 230.616 122.179 229C122.179 227.384 123.235 226.104 124.835 226.104C126.419 226.104 127.491 227.384 127.491 229C127.491 230.616 126.419 231.896 124.835 231.896ZM124.691 233.192C125.891 233.192 126.931 232.584 127.379 231.928L127.587 233H128.803V225H127.587L127.379 226.008C126.979 225.48 126.067 224.808 124.691 224.808C122.355 224.808 120.723 226.664 120.723 229C120.723 231.336 122.259 233.192 124.691 233.192ZM135.225 231.896C133.641 231.896 132.569 230.616 132.569 229C132.569 227.384 133.641 226.104 135.225 226.104C136.825 226.104 137.881 227.384 137.881 229C137.881 230.616 136.825 231.896 135.225 231.896ZM135.113 233.192C136.361 233.192 137.353 232.488 137.801 231.864L137.993 233H139.193V221.56H137.769V226.024C137.369 225.528 136.489 224.808 135.113 224.808C132.745 224.808 131.129 226.664 131.129 229C131.129 231.336 132.665 233.192 135.113 233.192ZM149.632 231.896C148.032 231.896 146.976 230.616 146.976 229C146.976 227.384 148.032 226.104 149.632 226.104C151.216 226.104 152.288 227.384 152.288 229C152.288 230.616 151.216 231.896 149.632 231.896ZM149.488 233.192C150.688 233.192 151.728 232.584 152.176 231.928L152.384 233H153.6V225H152.384L152.176 226.008C151.776 225.48 150.864 224.808 149.488 224.808C147.152 224.808 145.52 226.664 145.52 229C145.52 231.336 147.056 233.192 149.488 233.192ZM156.598 233H158.022V229.208C158.022 227.032 159.03 226.104 160.134 226.104C161.238 226.104 162.006 226.888 162.006 228.312V233H163.43V228.184C163.43 226.136 162.438 224.808 160.438 224.808C159.286 224.808 158.486 225.272 158.006 225.992L157.798 225H156.598V233ZM169.725 231.896C168.141 231.896 167.069 230.616 167.069 229C167.069 227.384 168.141 226.104 169.725 226.104C171.325 226.104 172.381 227.384 172.381 229C172.381 230.616 171.325 231.896 169.725 231.896ZM169.613 233.192C170.861 233.192 171.853 232.488 172.301 231.864L172.493 233H173.693V221.56H172.269V226.024C171.869 225.528 170.989 224.808 169.613 224.808C167.245 224.808 165.629 226.664 165.629 229C165.629 231.336 167.165 233.192 169.613 233.192ZM184.148 233.192C186.58 233.192 188.292 231.336 188.292 229C188.292 226.664 186.58 224.808 184.148 224.808C181.716 224.808 180.02 226.664 180.02 229C180.02 231.336 181.716 233.192 184.148 233.192ZM184.148 231.896C182.628 231.896 181.476 230.696 181.476 229C181.476 227.304 182.628 226.104 184.148 226.104C185.668 226.104 186.836 227.304 186.836 229C186.836 230.696 185.668 231.896 184.148 231.896ZM194.581 231.896C192.997 231.896 191.925 230.616 191.925 229C191.925 227.384 193.013 226.104 194.597 226.104C196.165 226.104 197.253 227.384 197.253 229C197.253 230.616 196.181 231.896 194.581 231.896ZM190.629 236.2H192.053V231.96C192.437 232.488 193.333 233.192 194.709 233.192C197.077 233.192 198.693 231.336 198.693 229C198.693 226.664 197.205 224.808 194.773 224.808C193.573 224.808 192.517 225.448 192.005 226.136L191.829 225H190.629V236.2ZM201.087 233H202.527V226.296H204.255V225H202.527V222.536L201.087 222.808V225H200.047V226.296H201.087V233ZM206.033 223.368H207.633V221.8H206.033V223.368ZM206.129 233H207.553V225H206.129V233ZM210.535 233H211.959V229.208C211.959 227.08 212.855 226.104 213.943 226.104C214.919 226.104 215.575 226.728 215.575 228.072V233H216.999V229.208C216.999 227.08 217.911 226.104 218.983 226.104C219.959 226.104 220.615 226.728 220.615 228.072V233H222.055V228.136C222.055 226.088 221.159 224.808 219.175 224.808C217.847 224.808 217.047 225.464 216.647 226.152C216.247 225.304 215.543 224.808 214.279 224.808C213.143 224.808 212.423 225.304 211.943 226.024L211.735 225H210.535V233ZM224.798 223.368H226.398V221.8H224.798V223.368ZM224.894 233H226.318V225H224.894V233ZM228.325 233H234.533V231.704H230.133L234.421 226.136V225H228.645V226.296H232.597L228.325 231.864V233ZM239.784 233.192C241.528 233.192 242.744 232.28 243.352 231.032L242.184 230.456C241.656 231.384 240.904 231.896 239.848 231.896C238.36 231.896 237.352 230.936 237.24 229.464H243.544C243.56 229.272 243.576 229.016 243.576 228.824C243.576 226.584 242.216 224.808 239.784 224.808C237.304 224.808 235.816 226.664 235.816 229C235.816 231.368 237.256 233.192 239.784 233.192ZM237.256 228.296C237.4 226.984 238.408 226.104 239.8 226.104C241.176 226.104 242.056 226.984 242.168 228.296H237.256ZM50.8217 249.192C52.5337 249.192 53.6217 248.12 53.6217 246.728C53.6217 245.56 52.9177 244.808 51.9577 244.408L50.7897 243.944C50.3257 243.752 49.8617 243.512 49.8617 242.936C49.8617 242.456 50.2777 242.072 50.7897 242.072C51.3177 242.072 51.7337 242.376 51.9737 242.952L53.1097 242.296C52.6617 241.368 51.9097 240.808 50.7897 240.808C49.4937 240.808 48.5017 241.736 48.5017 242.888C48.5017 243.864 49.0777 244.616 49.9097 244.936L50.9337 245.352C51.8617 245.72 52.2617 246.072 52.2617 246.744C52.2617 247.4 51.7177 247.928 50.9017 247.928C49.9737 247.928 49.3817 247.416 49.1257 246.568L47.9257 247.064C48.3737 248.328 49.3177 249.192 50.8217 249.192ZM59.1984 249.192C60.9424 249.192 62.1584 248.28 62.7664 247.032L61.5984 246.456C61.0704 247.384 60.3184 247.896 59.2624 247.896C57.7744 247.896 56.7664 246.936 56.6544 245.464H62.9584C62.9744 245.272 62.9904 245.016 62.9904 244.824C62.9904 242.584 61.6304 240.808 59.1984 240.808C56.7184 240.808 55.2304 242.664 55.2304 245C55.2304 247.368 56.6704 249.192 59.1984 249.192ZM56.6704 244.296C56.8144 242.984 57.8224 242.104 59.2144 242.104C60.5904 242.104 61.4704 242.984 61.5824 244.296H56.6704ZM65.2462 249H66.6702V244.824C66.6702 243.096 67.4862 242.264 68.5262 242.264C68.9102 242.264 69.3422 242.36 69.6622 242.536L70.1262 241.128C69.8382 240.968 69.3262 240.808 68.8302 240.808C67.7902 240.808 67.0862 241.288 66.6542 242.072L66.4462 241H65.2462V249ZM73.5534 249H74.9774L78.0174 241H76.5614L74.2894 247.416L71.9854 241H70.5294L73.5534 249ZM82.9172 249.192C84.6612 249.192 85.8772 248.28 86.4852 247.032L85.3172 246.456C84.7892 247.384 84.0372 247.896 82.9812 247.896C81.4932 247.896 80.4852 246.936 80.3732 245.464H86.6772C86.6932 245.272 86.7092 245.016 86.7092 244.824C86.7092 242.584 85.3492 240.808 82.9172 240.808C80.4372 240.808 78.9492 242.664 78.9492 245C78.9492 247.368 80.3892 249.192 82.9172 249.192ZM80.3892 244.296C80.5332 242.984 81.5412 242.104 82.9332 242.104C84.3092 242.104 85.1892 242.984 85.3012 244.296H80.3892ZM88.9649 249H90.3889V244.824C90.3889 243.096 91.2049 242.264 92.2449 242.264C92.6289 242.264 93.0609 242.36 93.3809 242.536L93.8449 241.128C93.5569 240.968 93.0449 240.808 92.5489 240.808C91.5089 240.808 90.8049 241.288 90.3729 242.072L90.1649 241H88.9649V249ZM103.077 247.896C101.477 247.896 100.421 246.616 100.421 245C100.421 243.384 101.477 242.104 103.077 242.104C104.661 242.104 105.733 243.384 105.733 245C105.733 246.616 104.661 247.896 103.077 247.896ZM102.933 249.192C104.133 249.192 105.173 248.584 105.621 247.928L105.829 249H107.045V241H105.829L105.621 242.008C105.221 241.48 104.309 240.808 102.933 240.808C100.597 240.808 98.9648 242.664 98.9648 245C98.9648 247.336 100.501 249.192 102.933 249.192ZM113.387 249.192C115.147 249.192 116.347 248.2 116.939 247.032L115.675 246.456C115.339 247.192 114.555 247.896 113.387 247.896C111.883 247.896 110.827 246.696 110.827 245C110.827 243.304 111.883 242.104 113.339 242.104C114.475 242.104 115.147 242.648 115.595 243.528L116.875 242.952C116.251 241.528 114.971 240.808 113.387 240.808C110.971 240.808 109.371 242.664 109.371 245C109.371 247.336 110.971 249.192 113.387 249.192ZM122.262 249.192C124.022 249.192 125.222 248.2 125.814 247.032L124.55 246.456C124.214 247.192 123.43 247.896 122.262 247.896C120.758 247.896 119.702 246.696 119.702 245C119.702 243.304 120.758 242.104 122.214 242.104C123.35 242.104 124.022 242.648 124.47 243.528L125.75 242.952C125.126 241.528 123.846 240.808 122.262 240.808C119.846 240.808 118.246 242.664 118.246 245C118.246 247.336 119.846 249.192 122.262 249.192ZM131.089 249.192C132.833 249.192 134.049 248.28 134.657 247.032L133.489 246.456C132.961 247.384 132.209 247.896 131.153 247.896C129.665 247.896 128.657 246.936 128.545 245.464H134.849C134.865 245.272 134.881 245.016 134.881 244.824C134.881 242.584 133.521 240.808 131.089 240.808C128.609 240.808 127.121 242.664 127.121 245C127.121 247.368 128.561 249.192 131.089 249.192ZM128.561 244.296C128.705 242.984 129.713 242.104 131.105 242.104C132.481 242.104 133.361 242.984 133.473 244.296H128.561ZM139.025 249.192C140.737 249.192 141.825 248.12 141.825 246.728C141.825 245.56 141.121 244.808 140.161 244.408L138.993 243.944C138.529 243.752 138.065 243.512 138.065 242.936C138.065 242.456 138.481 242.072 138.993 242.072C139.521 242.072 139.937 242.376 140.177 242.952L141.313 242.296C140.865 241.368 140.113 240.808 138.993 240.808C137.697 240.808 136.705 241.736 136.705 242.888C136.705 243.864 137.281 244.616 138.113 244.936L139.137 245.352C140.065 245.72 140.465 246.072 140.465 246.744C140.465 247.4 139.921 247.928 139.105 247.928C138.177 247.928 137.585 247.416 137.329 246.568L136.129 247.064C136.577 248.328 137.521 249.192 139.025 249.192ZM145.869 249.192C147.581 249.192 148.669 248.12 148.669 246.728C148.669 245.56 147.965 244.808 147.005 244.408L145.837 243.944C145.373 243.752 144.909 243.512 144.909 242.936C144.909 242.456 145.325 242.072 145.837 242.072C146.365 242.072 146.781 242.376 147.021 242.952L148.157 242.296C147.709 241.368 146.957 240.808 145.837 240.808C144.541 240.808 143.549 241.736 143.549 242.888C143.549 243.864 144.125 244.616 144.957 244.936L145.981 245.352C146.909 245.72 147.309 246.072 147.309 246.744C147.309 247.4 146.765 247.928 145.949 247.928C145.021 247.928 144.429 247.416 144.173 246.568L142.973 247.064C143.421 248.328 144.365 249.192 145.869 249.192ZM154.809 249H156.233V245.208C156.233 243.032 157.241 242.104 158.345 242.104C159.449 242.104 160.217 242.888 160.217 244.312V249H161.641V244.184C161.641 242.136 160.649 240.808 158.649 240.808C157.497 240.808 156.697 241.272 156.217 241.992L156.009 241H154.809V249ZM167.952 247.896C166.352 247.896 165.296 246.616 165.296 245C165.296 243.384 166.352 242.104 167.952 242.104C169.536 242.104 170.608 243.384 170.608 245C170.608 246.616 169.536 247.896 167.952 247.896ZM167.808 249.192C169.008 249.192 170.048 248.584 170.496 247.928L170.704 249H171.92V241H170.704L170.496 242.008C170.096 241.48 169.184 240.808 167.808 240.808C165.472 240.808 163.84 242.664 163.84 245C163.84 247.336 165.376 249.192 167.808 249.192ZM176.694 249H178.118L181.158 241H179.702L177.43 247.416L175.126 241H173.67L176.694 249ZM182.806 239.368H184.406V237.8H182.806V239.368ZM182.902 249H184.326V241H182.902V249ZM190.317 252.392C192.349 252.392 193.981 251.016 193.981 249.048C193.981 247.624 193.117 246.552 192.189 246.12C192.781 245.768 193.469 244.888 193.469 243.864C193.469 242.952 193.053 242.36 192.669 241.992L193.965 241.768V240.808H190.317C188.589 240.808 187.085 242.056 187.085 243.816C187.085 244.952 187.789 245.752 188.381 246.152C187.469 246.584 186.573 247.704 186.573 249.048C186.573 251.016 188.285 252.392 190.317 252.392ZM190.317 245.608C189.229 245.608 188.445 244.792 188.445 243.848C188.445 242.872 189.245 242.072 190.317 242.072C191.453 242.072 192.109 242.872 192.109 243.848C192.109 244.792 191.469 245.608 190.317 245.608ZM190.317 251.128C189.053 251.128 187.981 250.232 187.981 249C187.981 247.768 189.085 246.84 190.317 246.84C191.629 246.84 192.621 247.768 192.621 249C192.621 250.232 191.645 251.128 190.317 251.128ZM199.811 247.896C198.211 247.896 197.155 246.616 197.155 245C197.155 243.384 198.211 242.104 199.811 242.104C201.395 242.104 202.467 243.384 202.467 245C202.467 246.616 201.395 247.896 199.811 247.896ZM199.667 249.192C200.867 249.192 201.907 248.584 202.355 247.928L202.563 249H203.779V241H202.563L202.355 242.008C201.955 241.48 201.043 240.808 199.667 240.808C197.331 240.808 195.699 242.664 195.699 245C195.699 247.336 197.235 249.192 199.667 249.192ZM206.985 249H208.425V242.296H210.153V241H208.425V238.536L206.985 238.808V241H205.945V242.296H206.985V249ZM211.931 239.368H213.531V237.8H211.931V239.368ZM212.027 249H213.451V241H212.027V249ZM219.89 249.192C222.322 249.192 224.034 247.336 224.034 245C224.034 242.664 222.322 240.808 219.89 240.808C217.458 240.808 215.762 242.664 215.762 245C215.762 247.336 217.458 249.192 219.89 249.192ZM219.89 247.896C218.37 247.896 217.218 246.696 217.218 245C217.218 243.304 218.37 242.104 219.89 242.104C221.41 242.104 222.578 243.304 222.578 245C222.578 246.696 221.41 247.896 219.89 247.896ZM226.371 249H227.795V245.208C227.795 243.032 228.803 242.104 229.907 242.104C231.011 242.104 231.779 242.888 231.779 244.312V249H233.203V244.184C233.203 242.136 232.211 240.808 230.211 240.808C229.059 240.808 228.259 241.272 227.779 241.992L227.571 241H226.371V249Z" fill="#4D4D4D"/>
<g clip-path="url(#clip0_1058_103)">
<path d="M107.613 93.0645H110.516V95.9677H107.613V93.0645Z" fill="#4D4D4D"/>
<path d="M101.806 93.0645H104.71V95.9677H101.806V93.0645Z" fill="#4D4D4D"/>
<path d="M107.613 116.29H110.516V119.194H107.613V116.29Z" fill="#4D4D4D"/>
<path d="M101.806 116.29H104.71V119.194H101.806V116.29Z" fill="#4D4D4D"/>
<path d="M113.419 104.677H116.323V107.581H113.419V104.677Z" fill="#4D4D4D"/>
<path d="M119.226 104.677H122.129V107.581H119.226V104.677Z" fill="#4D4D4D"/>
<path d="M165.677 93.0645H168.581V95.9677H165.677V93.0645Z" fill="#4D4D4D"/>
<path d="M159.871 93.0645H162.774V95.9677H159.871V93.0645Z" fill="#4D4D4D"/>
<path d="M159.871 116.29H162.774V119.194H159.871V116.29Z" fill="#4D4D4D"/>
<path d="M165.677 116.29H168.581V119.194H165.677V116.29Z" fill="#4D4D4D"/>
<path d="M171.484 104.677H174.387V107.581H171.484V104.677Z" fill="#4D4D4D"/>
<path d="M177.29 104.677H180.194V107.581H177.29V104.677Z" fill="#4D4D4D"/>
<path d="M130.839 125H151.161V98.871H130.839V125ZM133.742 101.774H148.258V122.097H133.742V101.774Z" fill="#FD841F"/>
<path d="M136.645 116.29H145.355V119.194H136.645V116.29Z" fill="#4D4D4D"/>
<path d="M136.645 110.484H145.355V113.387H136.645V110.484Z" fill="#FD841F"/>
<path d="M136.645 104.677H145.355V107.581H136.645V104.677Z" fill="#4D4D4D"/>
<path d="M171.484 52.4194H180.194V55.3226H171.484V52.4194Z" fill="#4D4D4D"/>
<path d="M171.484 46.6129H180.194V49.5161H171.484V46.6129Z" fill="#4D4D4D"/>
<path d="M171.484 40.8065H180.194V43.7097H171.484V40.8065Z" fill="#4D4D4D"/>
<path d="M101.806 52.4194H110.516V55.3226H101.806V52.4194Z" fill="#4D4D4D"/>
<path d="M101.806 46.6129H110.516V49.5161H101.806V46.6129Z" fill="#4D4D4D"/>
<path d="M101.806 40.8065H110.516V43.7097H101.806V40.8065Z" fill="#4D4D4D"/>
<path d="M141 64.0322C135.397 64.0322 130.839 68.5917 130.839 74.1935C130.839 79.7953 135.397 84.3548 141 84.3548C146.603 84.3548 151.161 79.7953 151.161 74.1935C151.161 68.5917 146.603 64.0322 141 64.0322ZM141 81.4516C136.998 81.4516 133.742 78.1956 133.742 74.1935C133.742 70.1914 136.998 66.9355 141 66.9355C145.002 66.9355 148.258 70.1914 148.258 74.1935C148.258 78.1956 145.002 81.4516 141 81.4516Z" fill="#FD841F"/>
<path d="M141 69.8387C138.599 69.8387 136.645 71.7926 136.645 74.1935C136.645 76.5945 138.599 78.5484 141 78.5484C143.401 78.5484 145.355 76.5945 145.355 74.1935C145.355 71.7926 143.401 69.8387 141 69.8387ZM141 75.6451C140.2 75.6451 139.548 74.9948 139.548 74.1935C139.548 73.3922 140.2 72.7419 141 72.7419C141.8 72.7419 142.452 73.3922 142.452 74.1935C142.452 74.9948 141.8 75.6451 141 75.6451Z" fill="#FD841F"/>
<path d="M136.895 46.8626L138.947 48.9151C140.045 47.8177 141.955 47.8177 143.053 48.9151L145.105 46.8626C142.912 44.6677 139.088 44.6677 136.895 46.8626Z" fill="#FD841F"/>
<path d="M147.159 44.8086L149.212 42.756C144.684 38.2284 137.317 38.2284 132.79 42.756L134.842 44.8086C138.238 41.4118 143.762 41.4118 147.159 44.8086Z" fill="#FD841F"/>
<path d="M177.29 75.6452V61.129H186V35H165.677V61.129H174.387V72.7419H159.871V70.2437L156.088 68.9823C155.878 68.3697 155.634 67.776 155.356 67.204L157.138 63.6418L151.552 58.056L147.991 59.8371C147.419 59.5613 146.825 59.316 146.211 59.1055L144.95 55.3226H137.052L135.79 59.1055C135.176 59.316 134.581 59.5598 134.01 59.8371L130.45 58.056L124.864 63.6418L126.645 67.204C126.369 67.776 126.124 68.3697 125.913 68.9823L122.129 70.2437V72.7419H107.613V61.129H116.323V35H96V61.129H104.71V75.6452H110.516V87.2581H100.355C97.9539 87.2581 96 89.2119 96 91.6129V97.4194C96 98.5386 96.4369 99.5503 97.1323 100.323C96.4369 101.095 96 102.107 96 103.226V109.032C96 110.151 96.4369 111.163 97.1323 111.935C96.4369 112.708 96 113.72 96 114.839V120.645C96 123.046 97.9539 125 100.355 125H123.581C125.982 125 127.935 123.046 127.935 120.645V114.839C127.935 113.72 127.499 112.708 126.803 111.935C127.5 111.163 127.935 110.151 127.935 109.032V103.226C127.935 102.107 127.499 101.095 126.803 100.323C127.5 99.5503 127.935 98.5386 127.935 97.4194V91.6129C127.935 89.2119 125.982 87.2581 123.581 87.2581H113.419V75.6452H122.129V78.1434L125.912 79.4048C126.122 80.0174 126.366 80.6111 126.644 81.1831L124.862 84.7453L130.448 90.3311L134.009 88.55C134.581 88.8258 135.176 89.0711 135.789 89.2816L137.05 93.0645H144.948L146.21 89.2816C146.822 89.0711 147.419 88.8273 147.99 88.55L151.55 90.3311L157.136 84.7453L155.355 81.1831C155.631 80.6111 155.876 80.0174 156.087 79.4048L159.871 78.1434V75.6452H168.581V87.2581H158.419C156.018 87.2581 154.065 89.2119 154.065 91.6129V97.4194C154.065 98.5386 154.501 99.5503 155.197 100.323C154.5 101.095 154.065 102.107 154.065 103.226V109.032C154.065 110.151 154.501 111.163 155.197 111.935C154.5 112.708 154.065 113.72 154.065 114.839V120.645C154.065 123.046 156.018 125 158.419 125H181.645C184.046 125 186 123.046 186 120.645V114.839C186 113.72 185.563 112.708 184.868 111.935C185.565 111.163 186 110.151 186 109.032V103.226C186 102.107 185.563 101.095 184.868 100.323C185.565 99.5503 186 98.5386 186 97.4194V91.6129C186 89.2119 184.046 87.2581 181.645 87.2581H171.484V75.6452H177.29ZM168.581 37.9032H183.097V58.2258H168.581V37.9032ZM98.9032 37.9032H113.419V58.2258H98.9032V37.9032ZM125.032 103.226V109.032C125.032 109.834 124.38 110.484 123.581 110.484H100.355C99.555 110.484 98.9032 109.834 98.9032 109.032V103.226C98.9032 102.425 99.555 101.774 100.355 101.774H123.581C124.38 101.774 125.032 102.425 125.032 103.226ZM125.032 120.645C125.032 121.446 124.38 122.097 123.581 122.097H100.355C99.555 122.097 98.9032 121.446 98.9032 120.645V114.839C98.9032 114.037 99.555 113.387 100.355 113.387H123.581C124.38 113.387 125.032 114.037 125.032 114.839V120.645ZM125.032 91.6129V97.4194C125.032 98.2206 124.38 98.871 123.581 98.871H100.355C99.555 98.871 98.9032 98.2206 98.9032 97.4194V91.6129C98.9032 90.8116 99.555 90.1613 100.355 90.1613H123.581C124.38 90.1613 125.032 90.8116 125.032 91.6129ZM156.968 76.0502L153.747 77.1229L153.535 77.8531C153.263 78.7821 152.9 79.6632 152.456 80.4732L152.09 81.1395L153.604 84.1719L150.978 86.7979L147.947 85.2824L147.28 85.6497C146.47 86.0953 145.589 86.4582 144.661 86.7282L143.931 86.9402L142.857 90.1613H139.142L138.069 86.9402L137.339 86.7282C136.41 86.4568 135.529 86.0939 134.72 85.6497L134.053 85.2824L131.022 86.7979L128.396 84.1719L129.91 81.1395L129.544 80.4732C129.098 79.6632 128.735 78.7821 128.465 77.8531L128.253 77.1229L125.032 76.0502V72.3355L128.253 71.2627L128.465 70.5326C128.737 69.6035 129.1 68.7224 129.544 67.9124L129.91 67.2461L128.396 64.2137L131.022 61.5877L134.053 63.1032L134.719 62.736C135.527 62.2903 136.409 61.9274 137.338 61.6574L138.068 61.4455L139.143 58.2258H142.858L143.932 61.4469L144.662 61.6589C145.591 61.9303 146.473 62.2932 147.281 62.7374L147.947 63.1047L150.978 61.5892L153.604 64.2152L152.09 67.2476L152.456 67.9139C152.902 68.7239 153.265 69.605 153.535 70.534L153.747 71.2642L156.968 72.3369V76.0502ZM183.097 103.226V109.032C183.097 109.834 182.445 110.484 181.645 110.484H158.419C157.62 110.484 156.968 109.834 156.968 109.032V103.226C156.968 102.425 157.62 101.774 158.419 101.774H181.645C182.445 101.774 183.097 102.425 183.097 103.226ZM183.097 120.645C183.097 121.446 182.445 122.097 181.645 122.097H158.419C157.62 122.097 156.968 121.446 156.968 120.645V114.839C156.968 114.037 157.62 113.387 158.419 113.387H181.645C182.445 113.387 183.097 114.037 183.097 114.839V120.645ZM183.097 91.6129V97.4194C183.097 98.2206 182.445 98.871 181.645 98.871H158.419C157.62 98.871 156.968 98.2206 156.968 97.4194V91.6129C156.968 90.8116 157.62 90.1613 158.419 90.1613H181.645C182.445 90.1613 183.097 90.8116 183.097 91.6129Z" fill="#4D4D4D"/>
</g>
</g>
<defs>
<filter id="filter0_d_1058_103" x="0" y="0" width="292.5" height="298" filterUnits="userSpaceOnUse" color-interpolation-filters="sRGB">
<feFlood flood-opacity="0" result="BackgroundImageFix"/>
<feColorMatrix in="SourceAlpha" type="matrix" values="0 0 0 0 0 0 0 0 0 0 0 0 0 0 0 0 0 0 127 0" result="hardAlpha"/>
<feOffset dx="5" dy="10"/>
<feGaussianBlur stdDeviation="7.5"/>
<feComposite in2="hardAlpha" operator="out"/>
<feColorMatrix type="matrix" values="0 0 0 0 0 0 0 0 0 0 0 0 0 0 0 0 0 0 0.25 0"/>
<feBlend mode="normal" in2="BackgroundImageFix" result="effect1_dropShadow_1058_103"/>
<feBlend mode="normal" in="SourceGraphic" in2="effect1_dropShadow_1058_103" result="shape"/>
</filter>
<clipPath id="clip0_1058_103">
<rect width="90" height="90" fill="white" transform="translate(96 35)"/>
</clipPath>
</defs>
</svg>
