<svg width="293" height="298" viewBox="0 0 293 298" fill="none" xmlns="http://www.w3.org/2000/svg">
<g filter="url(#filter0_d_1058_263)">
<rect x="10" y="5" width="262.5" height="268" rx="10" fill="white"/>
<path d="M34.544 164.192C36.96 164.192 38.48 162.608 38.48 160.816C38.48 159.216 37.744 158.192 36.176 157.36C36.048 157.28 34.704 156.576 34.576 156.512C33.952 156.176 33.744 155.888 33.744 155.488C33.744 155.072 34.096 154.816 34.56 154.816C35.072 154.816 35.424 155.152 35.632 155.664L37.728 154.592C37.216 153.344 36.272 152.608 34.56 152.608C32.496 152.608 31.136 153.808 31.136 155.52C31.136 157.136 32.048 158.048 33.072 158.576C33.264 158.688 34.416 159.264 34.64 159.376C35.584 159.856 35.904 160.288 35.904 160.832C35.904 161.504 35.344 161.936 34.544 161.936C33.632 161.936 32.848 161.344 32.544 160.352L30.368 161.248C31.008 163.072 32.256 164.192 34.544 164.192ZM39.9775 155.008H42.4735V152.656H39.9775V155.008ZM40.0095 164H42.4415V156H40.0095V164ZM48.0916 167.392C50.3636 167.392 52.1236 165.984 52.1236 163.824C52.1236 162.608 51.4356 161.488 50.5716 161.04C51.1316 160.704 51.5476 159.936 51.5476 159.216C51.5476 158.592 51.2916 158.064 50.9876 157.728L52.0916 157.504V155.808H48.0756C45.9316 155.808 44.5876 157.216 44.5876 158.96C44.5876 159.808 44.9556 160.56 45.5796 161.04C44.7156 161.6 44.0276 162.576 44.0276 163.824C44.0276 165.984 45.8036 167.392 48.0916 167.392ZM48.0756 160.368C47.3556 160.368 46.8116 159.792 46.8116 159.072C46.8116 158.368 47.3716 157.744 48.0756 157.744C48.8116 157.744 49.2756 158.368 49.2756 159.072C49.2756 159.792 48.8276 160.368 48.0756 160.368ZM48.0916 165.344C47.1796 165.344 46.3956 164.72 46.3956 163.776C46.3956 162.8 47.1956 162.176 48.0916 162.176C48.9716 162.176 49.7556 162.8 49.7556 163.776C49.7556 164.72 48.9876 165.344 48.0916 165.344ZM53.8224 164H56.2544V160.16C56.2544 158.656 56.9264 157.968 57.6944 157.968C58.3984 157.968 58.7664 158.416 58.7664 159.344V164H61.1984V160.112C61.1984 158.608 61.8704 157.968 62.6384 157.968C63.3424 157.968 63.7104 158.416 63.7104 159.344V164H66.1264V158.976C66.1264 156.832 64.8784 155.808 63.2144 155.808C61.9984 155.808 61.1184 156.4 60.7504 157.024C60.3024 156.24 59.5344 155.808 58.5264 155.808C57.3904 155.808 56.5424 156.4 56.1584 157.024L55.8704 156H53.8224V164ZM72.1334 162.08C71.0454 162.08 70.2134 161.264 70.2134 160C70.2134 158.736 71.0454 157.92 72.1334 157.92C73.2054 157.92 74.0374 158.736 74.0374 160C74.0374 161.264 73.2054 162.08 72.1334 162.08ZM71.5254 164.192C72.7894 164.192 73.5574 163.68 73.9094 163.28L74.2454 164H76.3734V156H74.1494L73.9094 156.672C73.4934 156.224 72.6614 155.808 71.6214 155.808C69.7014 155.808 67.7654 157.312 67.7654 160C67.7654 162.528 69.4934 164.192 71.5254 164.192ZM85.6451 159.504L86.8771 155.888L88.1091 159.504H85.6451ZM81.4851 164H84.0771L84.8771 161.792H88.8771L89.6611 164H92.2851L88.1571 152.8H85.6611L81.4851 164ZM96.1685 164.192C97.3045 164.192 98.2645 163.616 98.6645 162.976L98.9365 164H100.985V156H98.5525V159.904C98.5525 161.344 97.8805 162.032 97.0485 162.032C96.2325 162.032 95.7365 161.52 95.7365 160.528V156H93.3045V160.96C93.3045 163.136 94.4725 164.192 96.1685 164.192ZM107.102 162.064C106.014 162.064 105.166 161.248 105.166 160C105.166 158.752 106.014 157.936 107.102 157.936C108.19 157.936 109.022 158.752 109.022 160C109.022 161.248 108.19 162.064 107.102 162.064ZM106.558 164.192C107.694 164.192 108.638 163.632 109.054 163.088L109.326 164H111.358V152.56H108.942V156.72C108.542 156.24 107.742 155.808 106.638 155.808C104.702 155.808 102.734 157.216 102.734 160C102.734 162.624 104.494 164.192 106.558 164.192ZM113.509 155.008H116.005V152.656H113.509V155.008ZM113.541 164H115.973V156H113.541V164ZM122.023 164.192C124.439 164.192 126.343 162.48 126.343 160C126.343 157.52 124.439 155.808 122.023 155.808C119.591 155.808 117.703 157.52 117.703 160C117.703 162.48 119.591 164.192 122.023 164.192ZM122.023 162.064C120.935 162.064 120.151 161.2 120.151 160C120.151 158.784 120.935 157.936 122.023 157.936C123.095 157.936 123.895 158.784 123.895 160C123.895 161.2 123.095 162.064 122.023 162.064ZM135.273 164H137.529L138.553 161.104L139.545 164H141.721L145.961 152.8H143.449L140.633 160.64L139.753 158.016L141.753 152.8H139.497L138.665 155.216L137.865 152.8H135.433L137.449 158.224L136.585 160.72L133.753 152.8H131.097L135.273 164ZM150.196 162.08C149.108 162.08 148.276 161.264 148.276 160C148.276 158.736 149.108 157.92 150.196 157.92C151.268 157.92 152.1 158.736 152.1 160C152.1 161.264 151.268 162.08 150.196 162.08ZM149.588 164.192C150.852 164.192 151.62 163.68 151.972 163.28L152.308 164H154.436V156H152.212L151.972 156.672C151.556 156.224 150.724 155.808 149.684 155.808C147.764 155.808 145.828 157.312 145.828 160C145.828 162.528 147.556 164.192 149.588 164.192ZM156.619 164H159.051V160C159.051 158.8 159.707 158.224 160.571 158.224C161.003 158.224 161.403 158.336 161.691 158.48L162.155 156C161.867 155.888 161.451 155.808 161.035 155.808C160.155 155.808 159.323 156.208 158.891 157.04L158.683 156H156.619V164ZM163.739 164H166.155V157.904H167.851V156H166.155V153.424L163.739 153.888V156H162.587V157.904H163.739V164ZM172.658 164.192C174.45 164.192 175.762 163.44 176.45 162.128L174.45 161.152C174.13 161.696 173.65 162.096 172.786 162.096C171.826 162.096 171.138 161.552 171.01 160.64H176.658C176.722 160.368 176.754 160.032 176.754 159.744C176.754 157.696 175.41 155.808 172.658 155.808C170.226 155.808 168.578 157.52 168.578 160C168.578 162.496 170.226 164.192 172.658 164.192ZM171.026 158.992C171.122 158.32 171.762 157.728 172.658 157.728C173.538 157.728 174.178 158.304 174.274 158.992H171.026ZM178.416 164H180.848V160C180.848 158.8 181.504 158.224 182.368 158.224C182.8 158.224 183.2 158.336 183.488 158.48L183.952 156C183.664 155.888 183.248 155.808 182.832 155.808C181.952 155.808 181.12 156.208 180.688 157.04L180.48 156H178.416V164ZM189.356 164H191.836V157.408L194.108 164H196.38L198.652 157.408V164H201.132V152.8H197.9L195.244 160.544L192.78 152.8H189.356V164ZM207.321 162.08C206.233 162.08 205.401 161.264 205.401 160C205.401 158.736 206.233 157.92 207.321 157.92C208.393 157.92 209.225 158.736 209.225 160C209.225 161.264 208.393 162.08 207.321 162.08ZM206.713 164.192C207.977 164.192 208.745 163.68 209.097 163.28L209.433 164H211.561V156H209.337L209.097 156.672C208.681 156.224 207.849 155.808 206.809 155.808C204.889 155.808 202.953 157.312 202.953 160C202.953 162.528 204.681 164.192 206.713 164.192ZM213.744 164H216.176V160C216.176 158.8 216.832 158.224 217.696 158.224C218.128 158.224 218.528 158.336 218.816 158.48L219.28 156C218.992 155.888 218.576 155.808 218.16 155.808C217.28 155.808 216.448 156.208 216.016 157.04L215.808 156H213.744V164ZM220.588 164H223.02V160.976L225.324 164H228.38L224.876 159.696L228.204 156H225.244L223.02 158.688V152.56H220.588V164ZM229.696 155.008H232.192V152.656H229.696V155.008ZM229.728 164H232.16V156H229.728V164ZM234.322 164H236.754V160.16C236.754 158.656 237.442 157.968 238.226 157.968C239.058 157.968 239.506 158.528 239.506 159.52V164H241.938V158.976C241.938 156.832 240.77 155.808 239.106 155.808C237.986 155.808 237.042 156.384 236.658 157.024L236.37 156H234.322V164ZM247.467 167.392C249.739 167.392 251.499 165.984 251.499 163.824C251.499 162.608 250.811 161.488 249.947 161.04C250.507 160.704 250.923 159.936 250.923 159.216C250.923 158.592 250.667 158.064 250.363 157.728L251.467 157.504V155.808H247.451C245.307 155.808 243.963 157.216 243.963 158.96C243.963 159.808 244.331 160.56 244.955 161.04C244.091 161.6 243.403 162.576 243.403 163.824C243.403 165.984 245.179 167.392 247.467 167.392ZM247.451 160.368C246.731 160.368 246.187 159.792 246.187 159.072C246.187 158.368 246.747 157.744 247.451 157.744C248.187 157.744 248.651 158.368 248.651 159.072C248.651 159.792 248.203 160.368 247.451 160.368ZM247.467 165.344C246.555 165.344 245.771 164.72 245.771 163.776C245.771 162.8 246.571 162.176 247.467 162.176C248.347 162.176 249.131 162.8 249.131 163.776C249.131 164.72 248.363 165.344 247.467 165.344Z" fill="#FD841F"/>
<path d="M45.1334 198.904L47.0374 193.544L48.9254 198.904H45.1334ZM42.0134 203H43.6614L44.6374 200.312H49.4214L50.3974 203H52.0774L47.9014 191.8H46.1894L42.0134 203ZM56.6723 203.192C57.8243 203.192 58.6723 202.696 59.1203 202.008L59.3443 203H60.5443V195H59.1203V199.096C59.1203 200.92 58.2083 201.896 56.9763 201.896C55.8723 201.896 55.0563 201.16 55.0563 199.736V195H53.6323V199.752C53.6323 201.832 54.5763 203.192 56.6723 203.192ZM66.9827 201.896C65.3987 201.896 64.3267 200.616 64.3267 199C64.3267 197.384 65.3987 196.104 66.9827 196.104C68.5827 196.104 69.6387 197.384 69.6387 199C69.6387 200.616 68.5827 201.896 66.9827 201.896ZM66.8707 203.192C68.1187 203.192 69.1107 202.488 69.5587 201.864L69.7507 203H70.9507V191.56H69.5267V196.024C69.1267 195.528 68.2467 194.808 66.8707 194.808C64.5027 194.808 62.8867 196.664 62.8867 199C62.8867 201.336 64.4227 203.192 66.8707 203.192ZM73.8529 193.368H75.4529V191.8H73.8529V193.368ZM73.9489 203H75.3729V195H73.9489V203ZM81.8116 203.192C84.2436 203.192 85.9556 201.336 85.9556 199C85.9556 196.664 84.2436 194.808 81.8116 194.808C79.3796 194.808 77.6836 196.664 77.6836 199C77.6836 201.336 79.3796 203.192 81.8116 203.192ZM81.8116 201.896C80.2916 201.896 79.1396 200.696 79.1396 199C79.1396 197.304 80.2916 196.104 81.8116 196.104C83.3316 196.104 84.4996 197.304 84.4996 199C84.4996 200.696 83.3316 201.896 81.8116 201.896ZM94.1654 203.192C95.8774 203.192 96.9654 202.12 96.9654 200.728C96.9654 199.56 96.2614 198.808 95.3014 198.408L94.1334 197.944C93.6694 197.752 93.2054 197.512 93.2054 196.936C93.2054 196.456 93.6214 196.072 94.1334 196.072C94.6614 196.072 95.0774 196.376 95.3174 196.952L96.4534 196.296C96.0054 195.368 95.2534 194.808 94.1334 194.808C92.8374 194.808 91.8454 195.736 91.8454 196.888C91.8454 197.864 92.4214 198.616 93.2534 198.936L94.2774 199.352C95.2054 199.72 95.6054 200.072 95.6054 200.744C95.6054 201.4 95.0614 201.928 94.2454 201.928C93.3174 201.928 92.7254 201.416 92.4694 200.568L91.2694 201.064C91.7174 202.328 92.6614 203.192 94.1654 203.192ZM99.0092 193.368H100.609V191.8H99.0092V193.368ZM99.1052 203H100.529V195H99.1052V203ZM106.52 206.392C108.552 206.392 110.184 205.016 110.184 203.048C110.184 201.624 109.32 200.552 108.392 200.12C108.984 199.768 109.672 198.888 109.672 197.864C109.672 196.952 109.256 196.36 108.872 195.992L110.168 195.768V194.808H106.52C104.792 194.808 103.288 196.056 103.288 197.816C103.288 198.952 103.992 199.752 104.584 200.152C103.672 200.584 102.776 201.704 102.776 203.048C102.776 205.016 104.488 206.392 106.52 206.392ZM106.52 199.608C105.432 199.608 104.648 198.792 104.648 197.848C104.648 196.872 105.448 196.072 106.52 196.072C107.656 196.072 108.312 196.872 108.312 197.848C108.312 198.792 107.672 199.608 106.52 199.608ZM106.52 205.128C105.256 205.128 104.184 204.232 104.184 203C104.184 201.768 105.288 200.84 106.52 200.84C107.832 200.84 108.824 201.768 108.824 203C108.824 204.232 107.848 205.128 106.52 205.128ZM112.574 203H113.998V199.208C113.998 197.032 115.006 196.104 116.11 196.104C117.214 196.104 117.982 196.888 117.982 198.312V203H119.406V198.184C119.406 196.136 118.414 194.808 116.414 194.808C115.262 194.808 114.462 195.272 113.982 195.992L113.774 195H112.574V203ZM125.717 201.896C124.117 201.896 123.061 200.616 123.061 199C123.061 197.384 124.117 196.104 125.717 196.104C127.301 196.104 128.373 197.384 128.373 199C128.373 200.616 127.301 201.896 125.717 201.896ZM125.573 203.192C126.773 203.192 127.813 202.584 128.261 201.928L128.469 203H129.685V195H128.469L128.261 196.008C127.861 195.48 126.949 194.808 125.573 194.808C123.237 194.808 121.605 196.664 121.605 199C121.605 201.336 123.141 203.192 125.573 203.192ZM132.684 203H134.108V191.56H132.684V203ZM145.042 201.896C143.458 201.896 142.386 200.616 142.386 199C142.386 197.384 143.474 196.104 145.058 196.104C146.626 196.104 147.714 197.384 147.714 199C147.714 200.616 146.642 201.896 145.042 201.896ZM141.09 206.2H142.514V201.96C142.898 202.488 143.794 203.192 145.17 203.192C147.538 203.192 149.154 201.336 149.154 199C149.154 196.664 147.666 194.808 145.234 194.808C144.034 194.808 142.978 195.448 142.466 196.136L142.29 195H141.09V206.2ZM151.496 203H152.92V198.824C152.92 197.096 153.736 196.264 154.776 196.264C155.16 196.264 155.592 196.36 155.912 196.536L156.376 195.128C156.088 194.968 155.576 194.808 155.08 194.808C154.04 194.808 153.336 195.288 152.904 196.072L152.696 195H151.496V203ZM160.999 203.192C163.431 203.192 165.143 201.336 165.143 199C165.143 196.664 163.431 194.808 160.999 194.808C158.567 194.808 156.871 196.664 156.871 199C156.871 201.336 158.567 203.192 160.999 203.192ZM160.999 201.896C159.479 201.896 158.327 200.696 158.327 199C158.327 197.304 159.479 196.104 160.999 196.104C162.519 196.104 163.687 197.304 163.687 199C163.687 200.696 162.519 201.896 160.999 201.896ZM170.981 203.192C172.741 203.192 173.941 202.2 174.533 201.032L173.269 200.456C172.933 201.192 172.149 201.896 170.981 201.896C169.477 201.896 168.421 200.696 168.421 199C168.421 197.304 169.477 196.104 170.933 196.104C172.069 196.104 172.741 196.648 173.189 197.528L174.469 196.952C173.845 195.528 172.565 194.808 170.981 194.808C168.565 194.808 166.965 196.664 166.965 199C166.965 201.336 168.565 203.192 170.981 203.192ZM179.808 203.192C181.552 203.192 182.768 202.28 183.376 201.032L182.208 200.456C181.68 201.384 180.928 201.896 179.872 201.896C178.384 201.896 177.376 200.936 177.264 199.464H183.568C183.584 199.272 183.6 199.016 183.6 198.824C183.6 196.584 182.24 194.808 179.808 194.808C177.328 194.808 175.84 196.664 175.84 199C175.84 201.368 177.28 203.192 179.808 203.192ZM177.28 198.296C177.424 196.984 178.432 196.104 179.824 196.104C181.2 196.104 182.08 196.984 182.192 198.296H177.28ZM187.744 203.192C189.456 203.192 190.544 202.12 190.544 200.728C190.544 199.56 189.84 198.808 188.88 198.408L187.712 197.944C187.248 197.752 186.784 197.512 186.784 196.936C186.784 196.456 187.2 196.072 187.712 196.072C188.24 196.072 188.656 196.376 188.896 196.952L190.032 196.296C189.584 195.368 188.832 194.808 187.712 194.808C186.416 194.808 185.424 195.736 185.424 196.888C185.424 197.864 186 198.616 186.832 198.936L187.856 199.352C188.784 199.72 189.184 200.072 189.184 200.744C189.184 201.4 188.64 201.928 187.824 201.928C186.896 201.928 186.304 201.416 186.048 200.568L184.848 201.064C185.296 202.328 186.24 203.192 187.744 203.192ZM194.587 203.192C196.299 203.192 197.387 202.12 197.387 200.728C197.387 199.56 196.683 198.808 195.723 198.408L194.555 197.944C194.091 197.752 193.627 197.512 193.627 196.936C193.627 196.456 194.043 196.072 194.555 196.072C195.083 196.072 195.499 196.376 195.739 196.952L196.875 196.296C196.427 195.368 195.675 194.808 194.555 194.808C193.259 194.808 192.267 195.736 192.267 196.888C192.267 197.864 192.843 198.616 193.675 198.936L194.699 199.352C195.627 199.72 196.027 200.072 196.027 200.744C196.027 201.4 195.483 201.928 194.667 201.928C193.739 201.928 193.147 201.416 192.891 200.568L191.691 201.064C192.139 202.328 193.083 203.192 194.587 203.192ZM199.431 193.368H201.031V191.8H199.431V193.368ZM199.527 203H200.951V195H199.527V203ZM203.934 203H205.358V199.208C205.358 197.032 206.366 196.104 207.47 196.104C208.574 196.104 209.342 196.888 209.342 198.312V203H210.766V198.184C210.766 196.136 209.774 194.808 207.774 194.808C206.622 194.808 205.822 195.272 205.342 195.992L205.134 195H203.934V203ZM216.645 206.392C218.677 206.392 220.309 205.016 220.309 203.048C220.309 201.624 219.445 200.552 218.517 200.12C219.109 199.768 219.797 198.888 219.797 197.864C219.797 196.952 219.381 196.36 218.997 195.992L220.293 195.768V194.808H216.645C214.917 194.808 213.413 196.056 213.413 197.816C213.413 198.952 214.117 199.752 214.709 200.152C213.797 200.584 212.901 201.704 212.901 203.048C212.901 205.016 214.613 206.392 216.645 206.392ZM216.645 199.608C215.557 199.608 214.773 198.792 214.773 197.848C214.773 196.872 215.573 196.072 216.645 196.072C217.781 196.072 218.437 196.872 218.437 197.848C218.437 198.792 217.797 199.608 216.645 199.608ZM216.645 205.128C215.381 205.128 214.309 204.232 214.309 203C214.309 201.768 215.413 200.84 216.645 200.84C217.957 200.84 218.949 201.768 218.949 203C218.949 204.232 217.973 205.128 216.645 205.128ZM226.892 203H228.332V196.296H230.06V195H228.332V192.536L226.892 192.808V195H225.852V196.296H226.892V203ZM235.249 203.192C237.681 203.192 239.393 201.336 239.393 199C239.393 196.664 237.681 194.808 235.249 194.808C232.817 194.808 231.121 196.664 231.121 199C231.121 201.336 232.817 203.192 235.249 203.192ZM235.249 201.896C233.729 201.896 232.577 200.696 232.577 199C232.577 197.304 233.729 196.104 235.249 196.104C236.769 196.104 237.937 197.304 237.937 199C237.937 200.696 236.769 201.896 235.249 201.896ZM68.4983 221.896C66.9143 221.896 65.8423 220.616 65.8423 219C65.8423 217.384 66.9143 216.104 68.4983 216.104C70.0983 216.104 71.1543 217.384 71.1543 219C71.1543 220.616 70.0983 221.896 68.4983 221.896ZM68.3863 223.192C69.6343 223.192 70.6263 222.488 71.0743 221.864L71.2663 223H72.4663V211.56H71.0423V216.024C70.6423 215.528 69.7623 214.808 68.3863 214.808C66.0183 214.808 64.4023 216.664 64.4023 219C64.4023 221.336 65.9383 223.192 68.3863 223.192ZM78.7766 223.192C80.5206 223.192 81.7366 222.28 82.3446 221.032L81.1766 220.456C80.6486 221.384 79.8966 221.896 78.8406 221.896C77.3526 221.896 76.3446 220.936 76.2326 219.464H82.5366C82.5526 219.272 82.5686 219.016 82.5686 218.824C82.5686 216.584 81.2086 214.808 78.7766 214.808C76.2966 214.808 74.8086 216.664 74.8086 219C74.8086 221.368 76.2486 223.192 78.7766 223.192ZM76.2486 218.296C76.3926 216.984 77.4006 216.104 78.7926 216.104C80.1686 216.104 81.0486 216.984 81.1606 218.296H76.2486ZM85.0323 223H86.4723V216.296H88.2003V215H86.4723V212.536L85.0323 212.808V215H83.9923V216.296H85.0323V223ZM93.2297 223.192C94.9737 223.192 96.1897 222.28 96.7977 221.032L95.6297 220.456C95.1017 221.384 94.3497 221.896 93.2937 221.896C91.8057 221.896 90.7977 220.936 90.6857 219.464H96.9897C97.0057 219.272 97.0217 219.016 97.0217 218.824C97.0217 216.584 95.6617 214.808 93.2297 214.808C90.7497 214.808 89.2617 216.664 89.2617 219C89.2617 221.368 90.7017 223.192 93.2297 223.192ZM90.7017 218.296C90.8457 216.984 91.8537 216.104 93.2457 216.104C94.6217 216.104 95.5017 216.984 95.6137 218.296H90.7017ZM99.2774 223H100.701V218.824C100.701 217.096 101.517 216.264 102.557 216.264C102.941 216.264 103.373 216.36 103.693 216.536L104.157 215.128C103.869 214.968 103.357 214.808 102.861 214.808C101.821 214.808 101.117 215.288 100.685 216.072L100.477 215H99.2774V223ZM105.965 223H107.389V219.208C107.389 217.08 108.285 216.104 109.373 216.104C110.349 216.104 111.005 216.728 111.005 218.072V223H112.429V219.208C112.429 217.08 113.341 216.104 114.413 216.104C115.389 216.104 116.045 216.728 116.045 218.072V223H117.485V218.136C117.485 216.088 116.589 214.808 114.605 214.808C113.277 214.808 112.477 215.464 112.077 216.152C111.677 215.304 110.973 214.808 109.709 214.808C108.573 214.808 107.853 215.304 107.373 216.024L107.165 215H105.965V223ZM120.228 213.368H121.828V211.8H120.228V213.368ZM120.324 223H121.748V215H120.324V223ZM124.731 223H126.155V219.208C126.155 217.032 127.163 216.104 128.267 216.104C129.371 216.104 130.139 216.888 130.139 218.312V223H131.563V218.184C131.563 216.136 130.571 214.808 128.571 214.808C127.419 214.808 126.619 215.272 126.139 215.992L125.931 215H124.731V223ZM137.73 223.192C139.474 223.192 140.69 222.28 141.298 221.032L140.13 220.456C139.602 221.384 138.85 221.896 137.794 221.896C136.306 221.896 135.298 220.936 135.186 219.464H141.49C141.506 219.272 141.522 219.016 141.522 218.824C141.522 216.584 140.162 214.808 137.73 214.808C135.25 214.808 133.762 216.664 133.762 219C133.762 221.368 135.202 223.192 137.73 223.192ZM135.202 218.296C135.346 216.984 136.354 216.104 137.746 216.104C139.122 216.104 140.002 216.984 140.114 218.296H135.202ZM151.106 223.192C152.866 223.192 154.066 222.2 154.658 221.032L153.394 220.456C153.058 221.192 152.274 221.896 151.106 221.896C149.602 221.896 148.546 220.696 148.546 219C148.546 217.304 149.602 216.104 151.058 216.104C152.194 216.104 152.866 216.648 153.314 217.528L154.594 216.952C153.97 215.528 152.69 214.808 151.106 214.808C148.69 214.808 147.09 216.664 147.09 219C147.09 221.336 148.69 223.192 151.106 223.192ZM160.093 223.192C162.525 223.192 164.237 221.336 164.237 219C164.237 216.664 162.525 214.808 160.093 214.808C157.661 214.808 155.965 216.664 155.965 219C155.965 221.336 157.661 223.192 160.093 223.192ZM160.093 221.896C158.573 221.896 157.421 220.696 157.421 219C157.421 217.304 158.573 216.104 160.093 216.104C161.613 216.104 162.781 217.304 162.781 219C162.781 220.696 161.613 221.896 160.093 221.896ZM170.526 221.896C168.942 221.896 167.87 220.616 167.87 219C167.87 217.384 168.958 216.104 170.542 216.104C172.11 216.104 173.198 217.384 173.198 219C173.198 220.616 172.126 221.896 170.526 221.896ZM166.574 226.2H167.998V221.96C168.382 222.488 169.278 223.192 170.654 223.192C173.022 223.192 174.638 221.336 174.638 219C174.638 216.664 173.15 214.808 170.718 214.808C169.518 214.808 168.462 215.448 167.95 216.136L167.774 215H166.574V226.2ZM179 226.2L183.048 215H181.56L179.432 221.08L177.112 215H175.592L178.696 222.904L177.528 226.2H179ZM184.84 223H186.264V218.824C186.264 217.096 187.08 216.264 188.12 216.264C188.504 216.264 188.936 216.36 189.256 216.536L189.72 215.128C189.432 214.968 188.92 214.808 188.424 214.808C187.384 214.808 186.68 215.288 186.248 216.072L186.04 215H184.84V223ZM191.353 213.368H192.953V211.8H191.353V213.368ZM191.449 223H192.873V215H191.449V223ZM198.864 226.392C200.896 226.392 202.528 225.016 202.528 223.048C202.528 221.624 201.664 220.552 200.736 220.12C201.328 219.768 202.016 218.888 202.016 217.864C202.016 216.952 201.6 216.36 201.216 215.992L202.512 215.768V214.808H198.864C197.136 214.808 195.632 216.056 195.632 217.816C195.632 218.952 196.336 219.752 196.928 220.152C196.016 220.584 195.12 221.704 195.12 223.048C195.12 225.016 196.832 226.392 198.864 226.392ZM198.864 219.608C197.776 219.608 196.992 218.792 196.992 217.848C196.992 216.872 197.792 216.072 198.864 216.072C200 216.072 200.656 216.872 200.656 217.848C200.656 218.792 200.016 219.608 198.864 219.608ZM198.864 225.128C197.6 225.128 196.528 224.232 196.528 223C196.528 221.768 197.632 220.84 198.864 220.84C200.176 220.84 201.168 221.768 201.168 223C201.168 224.232 200.192 225.128 198.864 225.128ZM204.918 223H206.342V219.208C206.342 217.048 207.382 216.104 208.47 216.104C209.574 216.104 210.374 216.888 210.374 218.312V223H211.814V218.184C211.814 216.136 210.838 214.808 208.774 214.808C207.718 214.808 206.806 215.288 206.342 215.992V211.56H204.918V223ZM214.876 223H216.316V216.296H218.044V215H216.316V212.536L214.876 212.808V215H213.836V216.296H214.876V223Z" fill="#4D4D4D"/>
<path d="M180 35H102C100.409 35.0018 98.8842 35.6345 97.7593 36.7593C96.6345 37.8842 96.0018 39.4092 96 41V104C96.0018 105.591 96.6345 107.116 97.7593 108.241C98.8842 109.365 100.409 109.998 102 110H180C181.591 109.998 183.116 109.365 184.241 108.241C185.365 107.116 185.998 105.591 186 104V41C185.998 39.4092 185.365 37.8842 184.241 36.7593C183.116 35.6345 181.591 35.0018 180 35ZM102 38H180C180.795 38.0009 181.558 38.3173 182.12 38.8797C182.683 39.4421 182.999 40.2046 183 41V47H99V41C99.0009 40.2046 99.3173 39.4421 99.8797 38.8797C100.442 38.3173 101.205 38.0009 102 38ZM180 107H102C101.205 106.999 100.442 106.683 99.8797 106.12C99.3173 105.558 99.0009 104.795 99 104V50H183V104C182.999 104.795 182.683 105.558 182.12 106.12C181.558 106.683 180.795 106.999 180 107Z" fill="#4D4D4D"/>
<path d="M103.5 44C104.328 44 105 43.3284 105 42.5C105 41.6716 104.328 41 103.5 41C102.672 41 102 41.6716 102 42.5C102 43.3284 102.672 44 103.5 44Z" fill="#4D4D4D"/>
<path d="M108 44C108.828 44 109.5 43.3284 109.5 42.5C109.5 41.6716 108.828 41 108 41C107.172 41 106.5 41.6716 106.5 42.5C106.5 43.3284 107.172 44 108 44Z" fill="#4D4D4D"/>
<path d="M112.5 44C113.328 44 114 43.3284 114 42.5C114 41.6716 113.328 41 112.5 41C111.672 41 111 41.6716 111 42.5C111 43.3284 111.672 44 112.5 44Z" fill="#4D4D4D"/>
<path d="M129.561 64C128.426 64 127.472 64.7816 127.202 65.8341L118.769 70.7372H113.822C112.817 70.7372 112 71.5542 112 72.5588V82.8266C112 83.8313 112.817 84.6483 113.822 84.6483H118.769L127.202 89.5509C127.472 90.6038 128.425 91.3855 129.561 91.3855C130.906 91.3855 132 90.2916 132 88.9468V85.818C132 85.3182 131.595 84.9136 131.095 84.9136C130.596 84.9136 130.191 85.3182 130.191 85.818V88.9468C130.191 89.2939 129.908 89.5767 129.561 89.5767C129.214 89.5767 128.931 89.2939 128.931 88.9468V66.4382C128.931 66.0911 129.214 65.8088 129.561 65.8088C129.908 65.8088 130.191 66.0911 130.191 66.4382V82.08C130.191 82.5793 130.596 82.9843 131.095 82.9843C131.595 82.9843 132 82.5793 132 82.08V66.4382C132 65.0938 130.906 64 129.561 64ZM118.109 82.8395H113.822C113.814 82.8395 113.809 82.834 113.809 82.8271V72.5588C113.809 72.5519 113.815 72.5459 113.822 72.5459H118.109V73.7193C118.109 74.2191 118.513 74.6237 119.013 74.6237C119.513 74.6237 119.917 74.2191 119.917 73.7193V72.162L127.123 67.9725V87.413L119.917 83.2239V77.9341C119.917 77.4343 119.513 77.0297 119.013 77.0297C118.513 77.0297 118.109 77.4343 118.109 77.9341V82.8395Z" fill="#FD841F"/>
<path d="M165.569 71C164.03 71 163.595 73.4387 162.9 78.1117C162.693 79.5049 162.478 80.9453 162.23 82.0706C162.022 83.0087 161.839 83.495 161.716 83.7434C161.592 83.495 161.409 83.0087 161.202 82.0703C160.953 80.9453 160.739 79.5049 160.532 78.1117C159.836 73.4384 159.401 71 157.863 71C156.324 71 155.89 73.4387 155.194 78.1117C154.987 79.5049 154.773 80.9453 154.524 82.0703C154.317 83.0083 154.134 83.495 154.011 83.7434C153.887 83.495 153.704 83.0083 153.497 82.0703C153.249 80.9453 153.034 79.5049 152.827 78.1117C152.131 73.4387 151.697 71 150.158 71C148.62 71 148.185 73.4387 147.49 78.1117C147.283 79.5049 147.068 80.9453 146.82 82.0703C146.613 83.0083 146.429 83.495 146.306 83.7434C146.183 83.495 146 83.0083 145.792 82.0703C145.544 80.9453 145.33 79.5049 145.122 78.1117C144.427 73.4387 143.992 71 142.454 71C140.916 71 140.481 73.4384 139.786 78.1117C139.579 79.5049 139.364 80.9453 139.116 82.0703C138.909 83.0083 138.726 83.4947 138.602 83.7434C138.479 83.4947 138.296 83.0083 138.089 82.0703C137.84 80.9453 137.626 79.5049 137.418 78.1117C136.723 73.4384 136.288 71 134.75 71C134.336 71 134 71.3357 134 71.7504C134 72.1211 134.269 72.429 134.623 72.49C134.712 72.6006 134.962 73.01 135.264 74.3741C135.513 75.4991 135.727 76.9395 135.934 78.3326C136.629 83.0056 137.064 85.4444 138.602 85.4444C140.141 85.4444 140.575 83.0056 141.27 78.3326C141.478 76.9395 141.692 75.4991 141.941 74.3741C142.148 73.4361 142.331 72.9497 142.454 72.701C142.577 72.9497 142.76 73.4361 142.968 74.3741C143.216 75.4991 143.431 76.9395 143.638 78.3326C144.333 83.0056 144.768 85.4444 146.306 85.4444C147.844 85.4444 148.279 83.006 148.974 78.3326C149.182 76.9395 149.396 75.4991 149.645 74.3741C149.852 73.4361 150.035 72.9493 150.158 72.701C150.282 72.9493 150.465 73.4361 150.672 74.3741C150.92 75.4991 151.135 76.9395 151.342 78.3326C152.038 83.0056 152.472 85.4444 154.011 85.4444C155.549 85.4444 155.984 83.006 156.679 78.3326C156.886 76.9395 157.101 75.4991 157.349 74.3741C157.557 73.4357 157.74 72.9493 157.863 72.701C157.986 72.9493 158.17 73.4357 158.377 74.3741C158.625 75.4991 158.84 76.9395 159.047 78.3326C159.743 83.006 160.177 85.4444 161.716 85.4444C163.254 85.4444 163.689 83.006 164.384 78.3326C164.592 76.9395 164.806 75.4991 165.055 74.3741C165.356 73.0096 165.606 72.6003 165.696 72.49C166.05 72.4294 166.319 72.1211 166.319 71.7504C166.319 71.3357 165.983 71 165.569 71Z" fill="#A5A5A5" fill-opacity="0.6"/>
<path d="M168.569 71C167.03 71 166.595 73.4387 165.9 78.1117C165.693 79.5049 165.478 80.9453 165.23 82.0706C165.022 83.0087 164.839 83.495 164.716 83.7434C164.592 83.495 164.409 83.0087 164.202 82.0703C163.953 80.9453 163.739 79.5049 163.532 78.1117C162.836 73.4384 162.401 71 160.863 71C159.324 71 158.89 73.4387 158.194 78.1117C157.987 79.5049 157.773 80.9453 157.524 82.0703C157.317 83.0083 157.134 83.495 157.011 83.7434C156.887 83.495 156.704 83.0083 156.497 82.0703C156.249 80.9453 156.034 79.5049 155.827 78.1117C155.131 73.4387 154.697 71 153.158 71C151.62 71 151.185 73.4387 150.49 78.1117C150.283 79.5049 150.068 80.9453 149.82 82.0703C149.613 83.0083 149.429 83.495 149.306 83.7434C149.183 83.495 149 83.0083 148.792 82.0703C148.544 80.9453 148.33 79.5049 148.122 78.1117C147.427 73.4387 146.992 71 145.454 71C143.916 71 143.481 73.4384 142.786 78.1117C142.579 79.5049 142.364 80.9453 142.116 82.0703C141.909 83.0083 141.726 83.4947 141.602 83.7434C141.479 83.4947 141.296 83.0083 141.089 82.0703C140.84 80.9453 140.626 79.5049 140.418 78.1117C139.723 73.4384 139.288 71 137.75 71C137.336 71 137 71.3357 137 71.7504C137 72.1211 137.269 72.429 137.623 72.49C137.712 72.6006 137.962 73.01 138.264 74.3741C138.513 75.4991 138.727 76.9395 138.934 78.3326C139.629 83.0056 140.064 85.4444 141.602 85.4444C143.141 85.4444 143.575 83.0056 144.27 78.3326C144.478 76.9395 144.692 75.4991 144.941 74.3741C145.148 73.4361 145.331 72.9497 145.454 72.701C145.577 72.9497 145.76 73.4361 145.968 74.3741C146.216 75.4991 146.431 76.9395 146.638 78.3326C147.333 83.0056 147.768 85.4444 149.306 85.4444C150.844 85.4444 151.279 83.006 151.974 78.3326C152.182 76.9395 152.396 75.4991 152.645 74.3741C152.852 73.4361 153.035 72.9493 153.158 72.701C153.282 72.9493 153.465 73.4361 153.672 74.3741C153.92 75.4991 154.135 76.9395 154.342 78.3326C155.038 83.0056 155.472 85.4444 157.011 85.4444C158.549 85.4444 158.984 83.006 159.679 78.3326C159.886 76.9395 160.101 75.4991 160.349 74.3741C160.557 73.4357 160.74 72.9493 160.863 72.701C160.986 72.9493 161.17 73.4357 161.377 74.3741C161.625 75.4991 161.84 76.9395 162.047 78.3326C162.743 83.006 163.177 85.4444 164.716 85.4444C166.254 85.4444 166.689 83.006 167.384 78.3326C167.592 76.9395 167.806 75.4991 168.055 74.3741C168.356 73.0096 168.606 72.6003 168.696 72.49C169.05 72.4294 169.319 72.1211 169.319 71.7504C169.319 71.3357 168.983 71 168.569 71Z" fill="#FD841F"/>
</g>
<defs>
<filter id="filter0_d_1058_263" x="0" y="0" width="292.5" height="298" filterUnits="userSpaceOnUse" color-interpolation-filters="sRGB">
<feFlood flood-opacity="0" result="BackgroundImageFix"/>
<feColorMatrix in="SourceAlpha" type="matrix" values="0 0 0 0 0 0 0 0 0 0 0 0 0 0 0 0 0 0 127 0" result="hardAlpha"/>
<feOffset dx="5" dy="10"/>
<feGaussianBlur stdDeviation="7.5"/>
<feComposite in2="hardAlpha" operator="out"/>
<feColorMatrix type="matrix" values="0 0 0 0 0 0 0 0 0 0 0 0 0 0 0 0 0 0 0.25 0"/>
<feBlend mode="normal" in2="BackgroundImageFix" result="effect1_dropShadow_1058_263"/>
<feBlend mode="normal" in="SourceGraphic" in2="effect1_dropShadow_1058_263" result="shape"/>
</filter>
</defs>
</svg>
