<svg width="293" height="298" viewBox="0 0 293 298" fill="none" xmlns="http://www.w3.org/2000/svg">
<g filter="url(#filter0_d_1058_5)">
<rect x="10" y="5" width="262.5" height="268" rx="10" fill="white" shape-rendering="crispEdges"/>
<path d="M55.544 164.192C57.96 164.192 59.48 162.608 59.48 160.816C59.48 159.216 58.744 158.192 57.176 157.36C57.048 157.28 55.704 156.576 55.576 156.512C54.952 156.176 54.744 155.888 54.744 155.488C54.744 155.072 55.096 154.816 55.56 154.816C56.072 154.816 56.424 155.152 56.632 155.664L58.728 154.592C58.216 153.344 57.272 152.608 55.56 152.608C53.496 152.608 52.136 153.808 52.136 155.52C52.136 157.136 53.048 158.048 54.072 158.576C54.264 158.688 55.416 159.264 55.64 159.376C56.584 159.856 56.904 160.288 56.904 160.832C56.904 161.504 56.344 161.936 55.544 161.936C54.632 161.936 53.848 161.344 53.544 160.352L51.368 161.248C52.008 163.072 53.256 164.192 55.544 164.192ZM60.9775 155.008H63.4735V152.656H60.9775V155.008ZM61.0095 164H63.4415V156H61.0095V164ZM69.0916 167.392C71.3636 167.392 73.1236 165.984 73.1236 163.824C73.1236 162.608 72.4356 161.488 71.5716 161.04C72.1316 160.704 72.5476 159.936 72.5476 159.216C72.5476 158.592 72.2916 158.064 71.9876 157.728L73.0916 157.504V155.808H69.0756C66.9316 155.808 65.5876 157.216 65.5876 158.96C65.5876 159.808 65.9556 160.56 66.5796 161.04C65.7156 161.6 65.0276 162.576 65.0276 163.824C65.0276 165.984 66.8036 167.392 69.0916 167.392ZM69.0756 160.368C68.3556 160.368 67.8116 159.792 67.8116 159.072C67.8116 158.368 68.3716 157.744 69.0756 157.744C69.8116 157.744 70.2756 158.368 70.2756 159.072C70.2756 159.792 69.8276 160.368 69.0756 160.368ZM69.0916 165.344C68.1796 165.344 67.3956 164.72 67.3956 163.776C67.3956 162.8 68.1956 162.176 69.0916 162.176C69.9716 162.176 70.7556 162.8 70.7556 163.776C70.7556 164.72 69.9876 165.344 69.0916 165.344ZM74.8224 164H77.2544V160.16C77.2544 158.656 77.9264 157.968 78.6944 157.968C79.3984 157.968 79.7664 158.416 79.7664 159.344V164H82.1984V160.112C82.1984 158.608 82.8704 157.968 83.6384 157.968C84.3424 157.968 84.7104 158.416 84.7104 159.344V164H87.1264V158.976C87.1264 156.832 85.8784 155.808 84.2144 155.808C82.9984 155.808 82.1184 156.4 81.7504 157.024C81.3024 156.24 80.5344 155.808 79.5264 155.808C78.3904 155.808 77.5424 156.4 77.1584 157.024L76.8704 156H74.8224V164ZM93.1334 162.08C92.0454 162.08 91.2134 161.264 91.2134 160C91.2134 158.736 92.0454 157.92 93.1334 157.92C94.2054 157.92 95.0374 158.736 95.0374 160C95.0374 161.264 94.2054 162.08 93.1334 162.08ZM92.5254 164.192C93.7894 164.192 94.5574 163.68 94.9094 163.28L95.2454 164H97.3734V156H95.1494L94.9094 156.672C94.4934 156.224 93.6614 155.808 92.6214 155.808C90.7014 155.808 88.7654 157.312 88.7654 160C88.7654 162.528 90.4934 164.192 92.5254 164.192ZM108.933 164.192C112.341 164.192 114.709 161.664 114.709 158.4C114.709 155.104 112.421 152.608 108.933 152.608C105.445 152.608 103.173 155.104 103.173 158.4C103.173 161.664 105.525 164.192 108.933 164.192ZM108.949 161.904C107.317 161.904 105.797 160.624 105.797 158.4C105.797 156.176 107.333 154.896 108.949 154.896C110.549 154.896 112.069 156.176 112.069 158.4C112.069 160.624 110.565 161.904 108.949 161.904ZM116.51 164H118.942V160C118.942 158.8 119.598 158.224 120.462 158.224C120.894 158.224 121.294 158.336 121.582 158.48L122.046 156C121.758 155.888 121.342 155.808 120.926 155.808C120.046 155.808 119.214 156.208 118.782 157.04L118.574 156H116.51V164ZM123.071 155.008H125.567V152.656H123.071V155.008ZM123.103 164H125.535V156H123.103V164ZM131.185 167.392C133.457 167.392 135.217 165.984 135.217 163.824C135.217 162.608 134.529 161.488 133.665 161.04C134.225 160.704 134.641 159.936 134.641 159.216C134.641 158.592 134.385 158.064 134.081 157.728L135.185 157.504V155.808H131.169C129.025 155.808 127.681 157.216 127.681 158.96C127.681 159.808 128.049 160.56 128.673 161.04C127.809 161.6 127.121 162.576 127.121 163.824C127.121 165.984 128.897 167.392 131.185 167.392ZM131.169 160.368C130.449 160.368 129.905 159.792 129.905 159.072C129.905 158.368 130.465 157.744 131.169 157.744C131.905 157.744 132.369 158.368 132.369 159.072C132.369 159.792 131.921 160.368 131.169 160.368ZM131.185 165.344C130.273 165.344 129.489 164.72 129.489 163.776C129.489 162.8 130.289 162.176 131.185 162.176C132.065 162.176 132.849 162.8 132.849 163.776C132.849 164.72 132.081 165.344 131.185 165.344ZM136.868 155.008H139.364V152.656H136.868V155.008ZM136.9 164H139.332V156H136.9V164ZM141.494 164H143.926V160.16C143.926 158.656 144.614 157.968 145.398 157.968C146.23 157.968 146.678 158.528 146.678 159.52V164H149.11V158.976C149.11 156.832 147.942 155.808 146.278 155.808C145.158 155.808 144.214 156.384 143.83 157.024L143.542 156H141.494V164ZM149.966 164.56H152.495L159.199 152.24H156.655L149.966 164.56ZM160.309 164H162.933V159.696H164.245C166.581 159.696 168.149 158.256 168.149 156.16C168.149 154.24 166.805 152.8 164.341 152.8H160.309V164ZM162.933 157.424V155.088H164.293C165.045 155.088 165.525 155.632 165.525 156.256C165.525 156.864 165.045 157.424 164.293 157.424H162.933ZM173.227 162.08C172.139 162.08 171.307 161.264 171.307 160C171.307 158.736 172.139 157.92 173.227 157.92C174.299 157.92 175.131 158.736 175.131 160C175.131 161.264 174.299 162.08 173.227 162.08ZM172.619 164.192C173.883 164.192 174.651 163.68 175.003 163.28L175.339 164H177.467V156H175.243L175.003 156.672C174.587 156.224 173.755 155.808 172.715 155.808C170.795 155.808 168.859 157.312 168.859 160C168.859 162.528 170.587 164.192 172.619 164.192ZM183.411 164.192C185.331 164.192 186.691 163.168 187.235 161.904L185.027 161.008C184.787 161.6 184.259 162.064 183.459 162.064C182.403 162.064 181.667 161.2 181.667 160C181.667 158.784 182.355 157.936 183.411 157.936C184.211 157.936 184.707 158.368 184.963 159.04L187.187 158.128C186.579 156.704 185.267 155.808 183.459 155.808C181.059 155.808 179.219 157.536 179.219 160C179.219 162.464 181.011 164.192 183.411 164.192ZM188.791 164H191.223V160.976L193.527 164H196.583L193.079 159.696L196.407 156H193.447L191.223 158.688V152.56H188.791V164ZM201.165 162.08C200.077 162.08 199.245 161.264 199.245 160C199.245 158.736 200.077 157.92 201.165 157.92C202.237 157.92 203.069 158.736 203.069 160C203.069 161.264 202.237 162.08 201.165 162.08ZM200.557 164.192C201.821 164.192 202.589 163.68 202.941 163.28L203.277 164H205.405V156H203.181L202.941 156.672C202.525 156.224 201.693 155.808 200.653 155.808C198.733 155.808 196.797 157.312 196.797 160C196.797 162.528 198.525 164.192 200.557 164.192ZM211.076 167.392C213.348 167.392 215.108 165.984 215.108 163.824C215.108 162.608 214.42 161.488 213.556 161.04C214.116 160.704 214.532 159.936 214.532 159.216C214.532 158.592 214.276 158.064 213.972 157.728L215.076 157.504V155.808H211.06C208.916 155.808 207.572 157.216 207.572 158.96C207.572 159.808 207.94 160.56 208.564 161.04C207.7 161.6 207.012 162.576 207.012 163.824C207.012 165.984 208.788 167.392 211.076 167.392ZM211.06 160.368C210.34 160.368 209.796 159.792 209.796 159.072C209.796 158.368 210.356 157.744 211.06 157.744C211.796 157.744 212.26 158.368 212.26 159.072C212.26 159.792 211.812 160.368 211.06 160.368ZM211.076 165.344C210.164 165.344 209.38 164.72 209.38 163.776C209.38 162.8 210.18 162.176 211.076 162.176C211.956 162.176 212.74 162.8 212.74 163.776C212.74 164.72 211.972 165.344 211.076 165.344ZM220.455 164.192C222.247 164.192 223.559 163.44 224.247 162.128L222.247 161.152C221.927 161.696 221.447 162.096 220.583 162.096C219.623 162.096 218.935 161.552 218.807 160.64H224.455C224.519 160.368 224.551 160.032 224.551 159.744C224.551 157.696 223.207 155.808 220.455 155.808C218.023 155.808 216.375 157.52 216.375 160C216.375 162.496 218.023 164.192 220.455 164.192ZM218.823 158.992C218.919 158.32 219.559 157.728 220.455 157.728C221.335 157.728 221.975 158.304 222.071 158.992H218.823ZM226.213 164H228.645V160C228.645 158.8 229.301 158.224 230.165 158.224C230.597 158.224 230.997 158.336 231.285 158.48L231.749 156C231.461 155.888 231.045 155.808 230.629 155.808C229.749 155.808 228.917 156.208 228.485 157.04L228.277 156H226.213V164Z" fill="#FD841F"/>
<path d="M36.4929 201H38.0129V195.912H39.8049C41.6449 195.912 42.9889 194.584 42.9889 192.824C42.9889 191.128 41.6609 189.8 39.8049 189.8H36.4929V201ZM38.0129 194.504V191.224H39.7569C40.8609 191.224 41.4689 191.992 41.4689 192.872C41.4689 193.736 40.8609 194.504 39.7569 194.504H38.0129ZM48.2096 199.896C46.6096 199.896 45.5536 198.616 45.5536 197C45.5536 195.384 46.6096 194.104 48.2096 194.104C49.7936 194.104 50.8656 195.384 50.8656 197C50.8656 198.616 49.7936 199.896 48.2096 199.896ZM48.0656 201.192C49.2656 201.192 50.3056 200.584 50.7536 199.928L50.9616 201H52.1776V193H50.9616L50.7536 194.008C50.3536 193.48 49.4416 192.808 48.0656 192.808C45.7296 192.808 44.0976 194.664 44.0976 197C44.0976 199.336 45.6336 201.192 48.0656 201.192ZM58.5199 201.192C60.2799 201.192 61.4799 200.2 62.0719 199.032L60.8079 198.456C60.4719 199.192 59.6879 199.896 58.5199 199.896C57.0159 199.896 55.9599 198.696 55.9599 197C55.9599 195.304 57.0159 194.104 58.4719 194.104C59.6079 194.104 60.2799 194.648 60.7279 195.528L62.0079 194.952C61.3839 193.528 60.1039 192.808 58.5199 192.808C56.1039 192.808 54.5039 194.664 54.5039 197C54.5039 199.336 56.1039 201.192 58.5199 201.192ZM64.2071 201H65.6311V197.24L68.9431 201H70.7511L66.8631 196.632L70.3831 193H68.5591L65.6311 196.088V189.56H64.2071V201ZM78.3269 201H79.7509L82.7909 193H81.3349L79.0629 199.416L76.7589 193H75.3029L78.3269 201ZM84.4389 191.368H86.0389V189.8H84.4389V191.368ZM84.5349 201H85.9589V193H84.5349V201ZM92.3655 199.896C90.7815 199.896 89.7095 198.616 89.7095 197C89.7095 195.384 90.7815 194.104 92.3655 194.104C93.9655 194.104 95.0215 195.384 95.0215 197C95.0215 198.616 93.9655 199.896 92.3655 199.896ZM92.2535 201.192C93.5015 201.192 94.4935 200.488 94.9415 199.864L95.1335 201H96.3335V189.56H94.9095V194.024C94.5095 193.528 93.6295 192.808 92.2535 192.808C89.8855 192.808 88.2695 194.664 88.2695 197C88.2695 199.336 89.8055 201.192 92.2535 201.192ZM102.644 201.192C104.388 201.192 105.604 200.28 106.212 199.032L105.044 198.456C104.516 199.384 103.764 199.896 102.708 199.896C101.22 199.896 100.212 198.936 100.1 197.464H106.404C106.42 197.272 106.436 197.016 106.436 196.824C106.436 194.584 105.076 192.808 102.644 192.808C100.164 192.808 98.6758 194.664 98.6758 197C98.6758 199.368 100.116 201.192 102.644 201.192ZM100.116 196.296C100.26 194.984 101.268 194.104 102.66 194.104C104.036 194.104 104.916 194.984 105.028 196.296H100.116ZM112.148 201.192C114.58 201.192 116.292 199.336 116.292 197C116.292 194.664 114.58 192.808 112.148 192.808C109.716 192.808 108.02 194.664 108.02 197C108.02 199.336 109.716 201.192 112.148 201.192ZM112.148 199.896C110.628 199.896 109.476 198.696 109.476 197C109.476 195.304 110.628 194.104 112.148 194.104C113.668 194.104 114.836 195.304 114.836 197C114.836 198.696 113.668 199.896 112.148 199.896ZM120.611 201.192C122.323 201.192 123.411 200.12 123.411 198.728C123.411 197.56 122.707 196.808 121.747 196.408L120.579 195.944C120.115 195.752 119.651 195.512 119.651 194.936C119.651 194.456 120.067 194.072 120.579 194.072C121.107 194.072 121.523 194.376 121.763 194.952L122.899 194.296C122.451 193.368 121.699 192.808 120.579 192.808C119.283 192.808 118.291 193.736 118.291 194.888C118.291 195.864 118.867 196.616 119.699 196.936L120.723 197.352C121.651 197.72 122.051 198.072 122.051 198.744C122.051 199.4 121.507 199.928 120.691 199.928C119.763 199.928 119.171 199.416 118.915 198.568L117.715 199.064C118.163 200.328 119.107 201.192 120.611 201.192ZM132.991 199.896C131.391 199.896 130.335 198.616 130.335 197C130.335 195.384 131.391 194.104 132.991 194.104C134.575 194.104 135.647 195.384 135.647 197C135.647 198.616 134.575 199.896 132.991 199.896ZM132.847 201.192C134.047 201.192 135.087 200.584 135.535 199.928L135.743 201H136.959V193H135.743L135.535 194.008C135.135 193.48 134.223 192.808 132.847 192.808C130.511 192.808 128.879 194.664 128.879 197C128.879 199.336 130.415 201.192 132.847 201.192ZM139.957 201H141.381V197.208C141.381 195.032 142.389 194.104 143.493 194.104C144.597 194.104 145.365 194.888 145.365 196.312V201H146.789V196.184C146.789 194.136 145.797 192.808 143.797 192.808C142.645 192.808 141.845 193.272 141.365 193.992L141.157 193H139.957V201ZM153.084 199.896C151.5 199.896 150.428 198.616 150.428 197C150.428 195.384 151.5 194.104 153.084 194.104C154.684 194.104 155.74 195.384 155.74 197C155.74 198.616 154.684 199.896 153.084 199.896ZM152.972 201.192C154.22 201.192 155.212 200.488 155.66 199.864L155.852 201H157.052V189.56H155.628V194.024C155.228 193.528 154.348 192.808 152.972 192.808C150.604 192.808 148.988 194.664 148.988 197C148.988 199.336 150.524 201.192 152.972 201.192ZM164.051 201H165.475V197.208C165.475 195.08 166.371 194.104 167.459 194.104C168.435 194.104 169.091 194.728 169.091 196.072V201H170.515V197.208C170.515 195.08 171.427 194.104 172.499 194.104C173.475 194.104 174.131 194.728 174.131 196.072V201H175.571V196.136C175.571 194.088 174.675 192.808 172.691 192.808C171.363 192.808 170.563 193.464 170.163 194.152C169.763 193.304 169.059 192.808 167.795 192.808C166.659 192.808 165.939 193.304 165.459 194.024L165.251 193H164.051V201ZM181.866 199.896C180.266 199.896 179.21 198.616 179.21 197C179.21 195.384 180.266 194.104 181.866 194.104C183.45 194.104 184.522 195.384 184.522 197C184.522 198.616 183.45 199.896 181.866 199.896ZM181.722 201.192C182.922 201.192 183.962 200.584 184.41 199.928L184.618 201H185.834V193H184.618L184.41 194.008C184.01 193.48 183.098 192.808 181.722 192.808C179.386 192.808 177.754 194.664 177.754 197C177.754 199.336 179.29 201.192 181.722 201.192ZM188.832 201H190.256V197.24L193.568 201H195.376L191.488 196.632L195.008 193H193.184L190.256 196.088V189.56H188.832V201ZM199.941 201.192C201.685 201.192 202.901 200.28 203.509 199.032L202.341 198.456C201.813 199.384 201.061 199.896 200.005 199.896C198.517 199.896 197.509 198.936 197.397 197.464H203.701C203.717 197.272 203.733 197.016 203.733 196.824C203.733 194.584 202.373 192.808 199.941 192.808C197.461 192.808 195.973 194.664 195.973 197C195.973 199.368 197.413 201.192 199.941 201.192ZM197.413 196.296C197.557 194.984 198.565 194.104 199.957 194.104C201.333 194.104 202.213 194.984 202.325 196.296H197.413ZM210.181 201H211.621V194.296H213.349V193H211.621V190.536L210.181 190.808V193H209.141V194.296H210.181V201ZM215.238 201H216.662V197.208C216.662 195.048 217.702 194.104 218.79 194.104C219.894 194.104 220.694 194.888 220.694 196.312V201H222.134V196.184C222.134 194.136 221.158 192.808 219.094 192.808C218.038 192.808 217.126 193.288 216.662 193.992V189.56H215.238V201ZM228.284 201.192C230.028 201.192 231.244 200.28 231.852 199.032L230.684 198.456C230.156 199.384 229.404 199.896 228.348 199.896C226.86 199.896 225.852 198.936 225.74 197.464H232.044C232.06 197.272 232.076 197.016 232.076 196.824C232.076 194.584 230.716 192.808 228.284 192.808C225.804 192.808 224.316 194.664 224.316 197C224.316 199.368 225.756 201.192 228.284 201.192ZM225.756 196.296C225.9 194.984 226.908 194.104 228.3 194.104C229.676 194.104 230.556 194.984 230.668 196.296H225.756ZM234.332 201H235.756V197.208C235.756 195.08 236.652 194.104 237.74 194.104C238.716 194.104 239.372 194.728 239.372 196.072V201H240.796V197.208C240.796 195.08 241.708 194.104 242.78 194.104C243.756 194.104 244.412 194.728 244.412 196.072V201H245.852V196.136C245.852 194.088 244.956 192.808 242.972 192.808C241.644 192.808 240.844 193.464 240.444 194.152C240.044 193.304 239.34 192.808 238.076 192.808C236.94 192.808 236.22 193.304 235.74 194.024L235.532 193H234.332V201ZM60.9652 217.192C62.7252 217.192 63.9252 216.2 64.5172 215.032L63.2532 214.456C62.9172 215.192 62.1332 215.896 60.9652 215.896C59.4612 215.896 58.4052 214.696 58.4052 213C58.4052 211.304 59.4612 210.104 60.9172 210.104C62.0532 210.104 62.7252 210.648 63.1732 211.528L64.4532 210.952C63.8292 209.528 62.5492 208.808 60.9652 208.808C58.5492 208.808 56.9492 210.664 56.9492 213C56.9492 215.336 58.5492 217.192 60.9652 217.192ZM69.9522 217.192C72.3842 217.192 74.0962 215.336 74.0962 213C74.0962 210.664 72.3842 208.808 69.9522 208.808C67.5202 208.808 65.8242 210.664 65.8242 213C65.8242 215.336 67.5202 217.192 69.9522 217.192ZM69.9522 215.896C68.4322 215.896 67.2802 214.696 67.2802 213C67.2802 211.304 68.4322 210.104 69.9522 210.104C71.4722 210.104 72.6402 211.304 72.6402 213C72.6402 214.696 71.4722 215.896 69.9522 215.896ZM76.4337 217H77.8577V213.208C77.8577 211.08 78.7537 210.104 79.8417 210.104C80.8177 210.104 81.4737 210.728 81.4737 212.072V217H82.8977V213.208C82.8977 211.08 83.8097 210.104 84.8817 210.104C85.8577 210.104 86.5137 210.728 86.5137 212.072V217H87.9537V212.136C87.9537 210.088 87.0577 208.808 85.0737 208.808C83.7457 208.808 82.9457 209.464 82.5457 210.152C82.1457 209.304 81.4417 208.808 80.1777 208.808C79.0417 208.808 78.3217 209.304 77.8417 210.024L77.6337 209H76.4337V217ZM94.7607 215.896C93.1767 215.896 92.1047 214.616 92.1047 213C92.1047 211.384 93.1927 210.104 94.7767 210.104C96.3447 210.104 97.4327 211.384 97.4327 213C97.4327 214.616 96.3607 215.896 94.7607 215.896ZM90.8087 220.2H92.2327V215.96C92.6167 216.488 93.5127 217.192 94.8887 217.192C97.2567 217.192 98.8727 215.336 98.8727 213C98.8727 210.664 97.3847 208.808 94.9527 208.808C93.7527 208.808 92.6967 209.448 92.1847 210.136L92.0087 209H90.8087V220.2ZM104.811 215.896C103.211 215.896 102.155 214.616 102.155 213C102.155 211.384 103.211 210.104 104.811 210.104C106.395 210.104 107.467 211.384 107.467 213C107.467 214.616 106.395 215.896 104.811 215.896ZM104.667 217.192C105.867 217.192 106.907 216.584 107.355 215.928L107.563 217H108.779V209H107.563L107.355 210.008C106.955 209.48 106.043 208.808 104.667 208.808C102.331 208.808 100.699 210.664 100.699 213C100.699 215.336 102.235 217.192 104.667 217.192ZM111.985 217H113.425V210.296H115.153V209H113.425V206.536L111.985 206.808V209H110.945V210.296H111.985V217ZM116.931 207.368H118.531V205.8H116.931V207.368ZM117.027 217H118.451V209H117.027V217ZM125.514 217.192C127.85 217.192 129.498 215.336 129.498 213C129.498 210.664 128.042 208.808 125.546 208.808C124.362 208.808 123.37 209.464 122.858 210.104V205.56H121.434V217H122.634L122.81 215.912C123.194 216.44 124.138 217.192 125.514 217.192ZM125.386 215.896C123.802 215.896 122.73 214.616 122.73 213C122.73 211.384 123.85 210.104 125.434 210.104C127.034 210.104 128.058 211.384 128.058 213C128.058 214.616 126.954 215.896 125.386 215.896ZM131.84 217H133.264V205.56H131.84V217ZM139.558 217.192C141.302 217.192 142.518 216.28 143.126 215.032L141.958 214.456C141.43 215.384 140.678 215.896 139.622 215.896C138.134 215.896 137.126 214.936 137.014 213.464H143.318C143.334 213.272 143.35 213.016 143.35 212.824C143.35 210.584 141.99 208.808 139.558 208.808C137.078 208.808 135.59 210.664 135.59 213C135.59 215.368 137.03 217.192 139.558 217.192ZM137.03 212.296C137.174 210.984 138.182 210.104 139.574 210.104C140.95 210.104 141.83 210.984 141.942 212.296H137.03ZM151.142 217H152.502L154.07 212.648L155.622 217H156.998L159.654 209H158.214L156.294 215.272L154.15 209H152.758L153.462 210.936L151.862 215.272L149.878 209H148.422L151.142 217ZM161.384 207.368H162.984V205.8H161.384V207.368ZM161.48 217H162.904V209H161.48V217ZM166.095 217H167.535V210.296H169.263V209H167.535V206.536L166.095 206.808V209H165.055V210.296H166.095V217ZM171.152 217H172.576V213.208C172.576 211.048 173.616 210.104 174.704 210.104C175.808 210.104 176.608 210.888 176.608 212.312V217H178.048V212.184C178.048 210.136 177.072 208.808 175.008 208.808C173.952 208.808 173.04 209.288 172.576 209.992V205.56H171.152V217ZM184.887 217H186.311V213.208C186.311 211.08 187.207 210.104 188.295 210.104C189.271 210.104 189.927 210.728 189.927 212.072V217H191.351V213.208C191.351 211.08 192.263 210.104 193.335 210.104C194.311 210.104 194.967 210.728 194.967 212.072V217H196.407V212.136C196.407 210.088 195.511 208.808 193.527 208.808C192.199 208.808 191.399 209.464 190.999 210.152C190.599 209.304 189.895 208.808 188.631 208.808C187.495 208.808 186.775 209.304 186.295 210.024L186.087 209H184.887V217ZM202.702 215.896C201.102 215.896 200.046 214.616 200.046 213C200.046 211.384 201.102 210.104 202.702 210.104C204.286 210.104 205.358 211.384 205.358 213C205.358 214.616 204.286 215.896 202.702 215.896ZM202.558 217.192C203.758 217.192 204.798 216.584 205.246 215.928L205.454 217H206.67V209H205.454L205.246 210.008C204.846 209.48 203.934 208.808 202.558 208.808C200.222 208.808 198.59 210.664 198.59 213C198.59 215.336 200.126 217.192 202.558 217.192ZM209.668 217H211.092V213.208C211.092 211.032 212.1 210.104 213.204 210.104C214.308 210.104 215.076 210.888 215.076 212.312V217H216.5V212.184C216.5 210.136 215.508 208.808 213.508 208.808C212.356 208.808 211.556 209.272 211.076 209.992L210.868 209H209.668V217ZM221.547 220.2L225.595 209H224.107L221.979 215.08L219.659 209H218.139L221.243 216.904L220.075 220.2H221.547ZM60.7022 233.192C63.1342 233.192 64.8462 231.336 64.8462 229C64.8462 226.664 63.1342 224.808 60.7022 224.808C58.2702 224.808 56.5742 226.664 56.5742 229C56.5742 231.336 58.2702 233.192 60.7022 233.192ZM60.7022 231.896C59.1822 231.896 58.0302 230.696 58.0302 229C58.0302 227.304 59.1822 226.104 60.7022 226.104C62.2222 226.104 63.3902 227.304 63.3902 229C63.3902 230.696 62.2222 231.896 60.7022 231.896ZM71.1357 231.896C69.5517 231.896 68.4797 230.616 68.4797 229C68.4797 227.384 69.5677 226.104 71.1517 226.104C72.7197 226.104 73.8077 227.384 73.8077 229C73.8077 230.616 72.7357 231.896 71.1357 231.896ZM67.1837 236.2H68.6077V231.96C68.9917 232.488 69.8877 233.192 71.2637 233.192C73.6317 233.192 75.2477 231.336 75.2477 229C75.2477 226.664 73.7597 224.808 71.3277 224.808C70.1277 224.808 69.0717 225.448 68.5597 226.136L68.3837 225H67.1837V236.2ZM81.0422 233.192C82.7862 233.192 84.0022 232.28 84.6102 231.032L83.4422 230.456C82.9142 231.384 82.1622 231.896 81.1062 231.896C79.6182 231.896 78.6102 230.936 78.4982 229.464H84.8022C84.8182 229.272 84.8342 229.016 84.8342 228.824C84.8342 226.584 83.4742 224.808 81.0422 224.808C78.5622 224.808 77.0742 226.664 77.0742 229C77.0742 231.368 78.5142 233.192 81.0422 233.192ZM78.5142 228.296C78.6582 226.984 79.6662 226.104 81.0582 226.104C82.4342 226.104 83.3142 226.984 83.4262 228.296H78.5142ZM87.0899 233H88.5139V228.824C88.5139 227.096 89.3299 226.264 90.3699 226.264C90.7539 226.264 91.1859 226.36 91.5059 226.536L91.9699 225.128C91.6819 224.968 91.1699 224.808 90.6739 224.808C89.6339 224.808 88.9299 225.288 88.4979 226.072L88.2899 225H87.0899V233ZM96.5768 231.896C94.9768 231.896 93.9208 230.616 93.9208 229C93.9208 227.384 94.9768 226.104 96.5768 226.104C98.1608 226.104 99.2328 227.384 99.2328 229C99.2328 230.616 98.1608 231.896 96.5768 231.896ZM96.4328 233.192C97.6328 233.192 98.6728 232.584 99.1208 231.928L99.3288 233H100.545V225H99.3288L99.1208 226.008C98.7208 225.48 97.8088 224.808 96.4328 224.808C94.0968 224.808 92.4648 226.664 92.4648 229C92.4648 231.336 94.0008 233.192 96.4328 233.192ZM103.751 233H105.191V226.296H106.919V225H105.191V222.536L103.751 222.808V225H102.711V226.296H103.751V233ZM108.697 223.368H110.297V221.8H108.697V223.368ZM108.793 233H110.217V225H108.793V233ZM113.199 233H114.623V229.208C114.623 227.032 115.631 226.104 116.735 226.104C117.839 226.104 118.607 226.888 118.607 228.312V233H120.031V228.184C120.031 226.136 119.039 224.808 117.039 224.808C115.887 224.808 115.087 225.272 114.607 225.992L114.399 225H113.199V233ZM125.91 236.392C127.942 236.392 129.574 235.016 129.574 233.048C129.574 231.624 128.71 230.552 127.782 230.12C128.374 229.768 129.062 228.888 129.062 227.864C129.062 226.952 128.646 226.36 128.262 225.992L129.558 225.768V224.808H125.91C124.182 224.808 122.678 226.056 122.678 227.816C122.678 228.952 123.382 229.752 123.974 230.152C123.062 230.584 122.166 231.704 122.166 233.048C122.166 235.016 123.878 236.392 125.91 236.392ZM125.91 229.608C124.822 229.608 124.038 228.792 124.038 227.848C124.038 226.872 124.838 226.072 125.91 226.072C127.046 226.072 127.702 226.872 127.702 227.848C127.702 228.792 127.062 229.608 125.91 229.608ZM125.91 235.128C124.646 235.128 123.574 234.232 123.574 233C123.574 231.768 124.678 230.84 125.91 230.84C127.222 230.84 128.214 231.768 128.214 233C128.214 234.232 127.238 235.128 125.91 235.128ZM137.837 233.192C139.549 233.192 140.637 232.12 140.637 230.728C140.637 229.56 139.933 228.808 138.973 228.408L137.805 227.944C137.341 227.752 136.877 227.512 136.877 226.936C136.877 226.456 137.293 226.072 137.805 226.072C138.333 226.072 138.749 226.376 138.989 226.952L140.125 226.296C139.677 225.368 138.925 224.808 137.805 224.808C136.509 224.808 135.517 225.736 135.517 226.888C135.517 227.864 136.093 228.616 136.925 228.936L137.949 229.352C138.877 229.72 139.277 230.072 139.277 230.744C139.277 231.4 138.733 231.928 137.917 231.928C136.989 231.928 136.397 231.416 136.141 230.568L134.941 231.064C135.389 232.328 136.333 233.192 137.837 233.192ZM144.907 236.2L148.955 225H147.467L145.339 231.08L143.019 225H141.499L144.603 232.904L143.435 236.2H144.907ZM152.634 233.192C154.346 233.192 155.434 232.12 155.434 230.728C155.434 229.56 154.73 228.808 153.77 228.408L152.602 227.944C152.138 227.752 151.674 227.512 151.674 226.936C151.674 226.456 152.09 226.072 152.602 226.072C153.13 226.072 153.546 226.376 153.786 226.952L154.922 226.296C154.474 225.368 153.722 224.808 152.602 224.808C151.306 224.808 150.314 225.736 150.314 226.888C150.314 227.864 150.89 228.616 151.722 228.936L152.746 229.352C153.674 229.72 154.074 230.072 154.074 230.744C154.074 231.4 153.53 231.928 152.714 231.928C151.786 231.928 151.194 231.416 150.938 230.568L149.738 231.064C150.186 232.328 151.13 233.192 152.634 233.192ZM157.798 233H159.238V226.296H160.966V225H159.238V222.536L157.798 222.808V225H156.758V226.296H157.798V233ZM165.995 233.192C167.739 233.192 168.955 232.28 169.563 231.032L168.395 230.456C167.867 231.384 167.115 231.896 166.059 231.896C164.571 231.896 163.563 230.936 163.451 229.464H169.755C169.771 229.272 169.787 229.016 169.787 228.824C169.787 226.584 168.427 224.808 165.995 224.808C163.515 224.808 162.027 226.664 162.027 229C162.027 231.368 163.467 233.192 165.995 233.192ZM163.467 228.296C163.611 226.984 164.619 226.104 166.011 226.104C167.387 226.104 168.267 226.984 168.379 228.296H163.467ZM172.043 233H173.467V229.208C173.467 227.08 174.363 226.104 175.451 226.104C176.427 226.104 177.083 226.728 177.083 228.072V233H178.507V229.208C178.507 227.08 179.419 226.104 180.491 226.104C181.467 226.104 182.123 226.728 182.123 228.072V233H183.563V228.136C183.563 226.088 182.667 224.808 180.683 224.808C179.355 224.808 178.555 225.464 178.155 226.152C177.755 225.304 177.051 224.808 175.787 224.808C174.651 224.808 173.931 225.304 173.451 226.024L173.243 225H172.043V233ZM188.306 233.192C190.018 233.192 191.106 232.12 191.106 230.728C191.106 229.56 190.402 228.808 189.442 228.408L188.274 227.944C187.81 227.752 187.346 227.512 187.346 226.936C187.346 226.456 187.762 226.072 188.274 226.072C188.802 226.072 189.218 226.376 189.458 226.952L190.594 226.296C190.146 225.368 189.394 224.808 188.274 224.808C186.978 224.808 185.986 225.736 185.986 226.888C185.986 227.864 186.562 228.616 187.394 228.936L188.418 229.352C189.346 229.72 189.746 230.072 189.746 230.744C189.746 231.4 189.202 231.928 188.386 231.928C187.458 231.928 186.866 231.416 186.61 230.568L185.41 231.064C185.858 232.328 186.802 233.192 188.306 233.192ZM200.686 231.896C199.086 231.896 198.03 230.616 198.03 229C198.03 227.384 199.086 226.104 200.686 226.104C202.27 226.104 203.342 227.384 203.342 229C203.342 230.616 202.27 231.896 200.686 231.896ZM200.542 233.192C201.742 233.192 202.782 232.584 203.23 231.928L203.438 233H204.654V225H203.438L203.23 226.008C202.83 225.48 201.918 224.808 200.542 224.808C198.206 224.808 196.574 226.664 196.574 229C196.574 231.336 198.11 233.192 200.542 233.192ZM207.652 233H209.076V229.208C209.076 227.032 210.084 226.104 211.188 226.104C212.292 226.104 213.06 226.888 213.06 228.312V233H214.484V228.184C214.484 226.136 213.492 224.808 211.492 224.808C210.34 224.808 209.54 225.272 209.06 225.992L208.852 225H207.652V233ZM220.78 231.896C219.196 231.896 218.124 230.616 218.124 229C218.124 227.384 219.196 226.104 220.78 226.104C222.38 226.104 223.436 227.384 223.436 229C223.436 230.616 222.38 231.896 220.78 231.896ZM220.668 233.192C221.916 233.192 222.908 232.488 223.356 231.864L223.548 233H224.748V221.56H223.324V226.024C222.924 225.528 222.044 224.808 220.668 224.808C218.3 224.808 216.684 226.664 216.684 229C216.684 231.336 218.22 233.192 220.668 233.192ZM117.405 247.896C115.821 247.896 114.749 246.616 114.749 245C114.749 243.384 115.821 242.104 117.405 242.104C119.005 242.104 120.061 243.384 120.061 245C120.061 246.616 119.005 247.896 117.405 247.896ZM117.293 249.192C118.541 249.192 119.533 248.488 119.981 247.864L120.173 249H121.373V237.56H119.949V242.024C119.549 241.528 118.669 240.808 117.293 240.808C114.925 240.808 113.309 242.664 113.309 245C113.309 247.336 114.845 249.192 117.293 249.192ZM127.683 249.192C129.427 249.192 130.643 248.28 131.251 247.032L130.083 246.456C129.555 247.384 128.803 247.896 127.747 247.896C126.259 247.896 125.251 246.936 125.139 245.464H131.443C131.459 245.272 131.475 245.016 131.475 244.824C131.475 242.584 130.115 240.808 127.683 240.808C125.203 240.808 123.715 242.664 123.715 245C123.715 247.368 125.155 249.192 127.683 249.192ZM125.155 244.296C125.299 242.984 126.307 242.104 127.699 242.104C129.075 242.104 129.955 242.984 130.067 244.296H125.155ZM135.35 249H136.774L139.814 241H138.358L136.086 247.416L133.782 241H132.326L135.35 249ZM141.462 239.368H143.062V237.8H141.462V239.368ZM141.558 249H142.982V241H141.558V249ZM149.309 249.192C151.069 249.192 152.269 248.2 152.861 247.032L151.597 246.456C151.261 247.192 150.477 247.896 149.309 247.896C147.805 247.896 146.749 246.696 146.749 245C146.749 243.304 147.805 242.104 149.261 242.104C150.397 242.104 151.069 242.648 151.517 243.528L152.797 242.952C152.173 241.528 150.893 240.808 149.309 240.808C146.893 240.808 145.293 242.664 145.293 245C145.293 247.336 146.893 249.192 149.309 249.192ZM158.136 249.192C159.88 249.192 161.096 248.28 161.704 247.032L160.536 246.456C160.008 247.384 159.256 247.896 158.2 247.896C156.712 247.896 155.704 246.936 155.592 245.464H161.896C161.912 245.272 161.928 245.016 161.928 244.824C161.928 242.584 160.568 240.808 158.136 240.808C155.656 240.808 154.168 242.664 154.168 245C154.168 247.368 155.608 249.192 158.136 249.192ZM155.608 244.296C155.752 242.984 156.76 242.104 158.152 242.104C159.528 242.104 160.408 242.984 160.52 244.296H155.608ZM166.072 249.192C167.784 249.192 168.872 248.12 168.872 246.728C168.872 245.56 168.168 244.808 167.208 244.408L166.04 243.944C165.576 243.752 165.112 243.512 165.112 242.936C165.112 242.456 165.528 242.072 166.04 242.072C166.568 242.072 166.984 242.376 167.224 242.952L168.36 242.296C167.912 241.368 167.16 240.808 166.04 240.808C164.744 240.808 163.752 241.736 163.752 242.888C163.752 243.864 164.328 244.616 165.16 244.936L166.184 245.352C167.112 245.72 167.512 246.072 167.512 246.744C167.512 247.4 166.968 247.928 166.152 247.928C165.224 247.928 164.632 247.416 164.376 246.568L163.176 247.064C163.624 248.328 164.568 249.192 166.072 249.192Z" fill="#4D4D4D"/>
<mask id="mask0_1058_5" style="mask-type:luminance" maskUnits="userSpaceOnUse" x="96" y="35" width="90" height="90">
<path d="M184.5 123.5V36.5H97.5V123.5H184.5Z" fill="white" stroke="white" stroke-width="3"/>
</mask>
<g mask="url(#mask0_1058_5)">
<path d="M109.704 89.0135H106.332V123.209C106.332 123.47 106.543 123.682 106.804 123.682H141V89.0135H115.856" stroke="#4D4D4D" stroke-width="2.5" stroke-miterlimit="10" stroke-linecap="round" stroke-linejoin="round"/>
<path d="M175.668 105.142V123.209C175.668 123.47 175.457 123.682 175.196 123.682H141" stroke="#4D4D4D" stroke-width="2.5" stroke-miterlimit="10" stroke-linecap="round" stroke-linejoin="round"/>
<path d="M141 89.0136H175.668V98.9895" stroke="#4D4D4D" stroke-width="2.5" stroke-miterlimit="10" stroke-linecap="round" stroke-linejoin="round"/>
<path d="M125.794 112.753H135.333C135.55 112.753 135.727 112.929 135.727 113.146V118.015C135.727 118.232 135.55 118.408 135.333 118.408H125.794C125.576 118.408 125.4 118.232 125.4 118.015V113.146C125.4 112.929 125.576 112.753 125.794 112.753Z" stroke="#FD841F" stroke-width="2.5" stroke-miterlimit="10" stroke-linecap="round" stroke-linejoin="round"/>
<path d="M169.761 118.408H166.501C166.151 118.408 165.867 118.124 165.867 117.774V114.515C165.867 114.164 166.151 113.88 166.501 113.88H169.761C170.111 113.88 170.395 114.164 170.395 114.515V117.774C170.395 118.124 170.111 118.408 169.761 118.408Z" stroke="#FD841F" stroke-width="2.5" stroke-miterlimit="10" stroke-linecap="round" stroke-linejoin="round"/>
<path d="M160.839 118.408H157.579C157.229 118.408 156.945 118.124 156.945 117.774V114.515C156.945 114.164 157.229 113.88 157.579 113.88H160.839C161.189 113.88 161.473 114.164 161.473 114.515V117.774C161.473 118.124 161.189 118.408 160.839 118.408Z" stroke="#FD841F" stroke-width="2.5" stroke-miterlimit="10" stroke-linecap="round" stroke-linejoin="round"/>
<path d="M106.332 89.0135L100.571 80.3581C100.127 79.692 100.605 78.8007 101.405 78.8007H133.665C134.001 78.8007 134.314 78.9684 134.5 79.2475L141 89.0135" stroke="#4D4D4D" stroke-width="2.5" stroke-miterlimit="10" stroke-linecap="round" stroke-linejoin="round"/>
<path d="M175.668 89.0135L181.429 80.3581C181.873 79.692 181.395 78.8007 180.595 78.8007H148.335C147.999 78.8007 147.686 78.9684 147.5 79.2475L141 89.0135" stroke="#4D4D4D" stroke-width="2.5" stroke-miterlimit="10" stroke-linecap="round" stroke-linejoin="round"/>
</g>
<path d="M159.828 35H122.172C121.525 35 121 35.5246 121 36.1719V67.2223C121 67.8696 121.525 68.3942 122.172 68.3942H159.828C160.475 68.3942 161 67.8696 161 67.2223V36.1719C161 35.5246 160.475 35 159.828 35ZM133.622 64.01V66.0504H129.69V64.01H133.622ZM135.966 64.01H139.898V66.0504H135.966V64.01ZM142.242 64.01H146.174V66.0504H142.242V64.01ZM148.518 64.01H152.45V66.0504H148.518V64.01ZM123.344 61.6663V41.7279H158.656V61.6663H123.344ZM148.518 39.3842V37.3438H152.45V39.3842H148.518ZM146.174 39.3842H142.242V37.3438H146.174V39.3842ZM139.898 39.3842H135.966V37.3438H139.898V39.3842ZM133.622 39.3842H129.69V37.3438H133.622V39.3842ZM158.656 39.3842H154.794V37.3438H158.656V39.3842ZM127.346 37.3438V39.3842H123.344V37.3438H127.346ZM123.344 64.01H127.346V66.0504H123.344V64.01ZM154.794 66.0504V64.01H158.656V66.0504H154.794Z" fill="#4D4D4D"/>
<path d="M145.334 50.4898C145.302 50.4666 145.269 50.445 145.235 50.4251L138.529 46.5109C138.043 46.1932 137.405 46.1572 136.88 46.4246C136.363 46.6873 136.042 47.2003 136.042 47.7631V55.6314C136.042 56.1942 136.363 56.7069 136.88 56.9699C137.115 57.0895 137.373 57.1484 137.63 57.1484C137.946 57.1484 138.261 57.059 138.529 56.8832L145.235 52.9694C145.269 52.9495 145.302 52.9279 145.334 52.9047C145.73 52.6157 145.958 52.1759 145.958 51.6974C145.958 51.2189 145.73 50.7785 145.334 50.4898ZM138.386 54.2529V49.1412L142.765 51.6971L138.386 54.2529Z" fill="#FD841F"/>
</g>
<defs>
<filter id="filter0_d_1058_5" x="0" y="0" width="292.5" height="298" filterUnits="userSpaceOnUse" color-interpolation-filters="sRGB">
<feFlood flood-opacity="0" result="BackgroundImageFix"/>
<feColorMatrix in="SourceAlpha" type="matrix" values="0 0 0 0 0 0 0 0 0 0 0 0 0 0 0 0 0 0 127 0" result="hardAlpha"/>
<feOffset dx="5" dy="10"/>
<feGaussianBlur stdDeviation="7.5"/>
<feComposite in2="hardAlpha" operator="out"/>
<feColorMatrix type="matrix" values="0 0 0 0 0 0 0 0 0 0 0 0 0 0 0 0 0 0 0.25 0"/>
<feBlend mode="normal" in2="BackgroundImageFix" result="effect1_dropShadow_1058_5"/>
<feBlend mode="normal" in="SourceGraphic" in2="effect1_dropShadow_1058_5" result="shape"/>
</filter>
</defs>
</svg>
