<svg width="293" height="298" viewBox="0 0 293 298" fill="none" xmlns="http://www.w3.org/2000/svg">
<g filter="url(#filter0_d_1058_202)">
<rect x="10" y="5" width="262.5" height="268" rx="10" fill="white"/>
<path d="M45.544 164.192C47.96 164.192 49.48 162.608 49.48 160.816C49.48 159.216 48.744 158.192 47.176 157.36C47.048 157.28 45.704 156.576 45.576 156.512C44.952 156.176 44.744 155.888 44.744 155.488C44.744 155.072 45.096 154.816 45.56 154.816C46.072 154.816 46.424 155.152 46.632 155.664L48.728 154.592C48.216 153.344 47.272 152.608 45.56 152.608C43.496 152.608 42.136 153.808 42.136 155.52C42.136 157.136 43.048 158.048 44.072 158.576C44.264 158.688 45.416 159.264 45.64 159.376C46.584 159.856 46.904 160.288 46.904 160.832C46.904 161.504 46.344 161.936 45.544 161.936C44.632 161.936 43.848 161.344 43.544 160.352L41.368 161.248C42.008 163.072 43.256 164.192 45.544 164.192ZM50.9775 155.008H53.4735V152.656H50.9775V155.008ZM51.0095 164H53.4415V156H51.0095V164ZM59.0916 167.392C61.3636 167.392 63.1236 165.984 63.1236 163.824C63.1236 162.608 62.4356 161.488 61.5716 161.04C62.1316 160.704 62.5476 159.936 62.5476 159.216C62.5476 158.592 62.2916 158.064 61.9876 157.728L63.0916 157.504V155.808H59.0756C56.9316 155.808 55.5876 157.216 55.5876 158.96C55.5876 159.808 55.9556 160.56 56.5796 161.04C55.7156 161.6 55.0276 162.576 55.0276 163.824C55.0276 165.984 56.8036 167.392 59.0916 167.392ZM59.0756 160.368C58.3556 160.368 57.8116 159.792 57.8116 159.072C57.8116 158.368 58.3716 157.744 59.0756 157.744C59.8116 157.744 60.2756 158.368 60.2756 159.072C60.2756 159.792 59.8276 160.368 59.0756 160.368ZM59.0916 165.344C58.1796 165.344 57.3956 164.72 57.3956 163.776C57.3956 162.8 58.1956 162.176 59.0916 162.176C59.9716 162.176 60.7556 162.8 60.7556 163.776C60.7556 164.72 59.9876 165.344 59.0916 165.344ZM64.8224 164H67.2544V160.16C67.2544 158.656 67.9264 157.968 68.6944 157.968C69.3984 157.968 69.7664 158.416 69.7664 159.344V164H72.1984V160.112C72.1984 158.608 72.8704 157.968 73.6384 157.968C74.3424 157.968 74.7104 158.416 74.7104 159.344V164H77.1264V158.976C77.1264 156.832 75.8784 155.808 74.2144 155.808C72.9984 155.808 72.1184 156.4 71.7504 157.024C71.3024 156.24 70.5344 155.808 69.5264 155.808C68.3904 155.808 67.5424 156.4 67.1584 157.024L66.8704 156H64.8224V164ZM83.1334 162.08C82.0454 162.08 81.2134 161.264 81.2134 160C81.2134 158.736 82.0454 157.92 83.1334 157.92C84.2054 157.92 85.0374 158.736 85.0374 160C85.0374 161.264 84.2054 162.08 83.1334 162.08ZM82.5254 164.192C83.7894 164.192 84.5574 163.68 84.9094 163.28L85.2454 164H87.3734V156H85.1494L84.9094 156.672C84.4934 156.224 83.6614 155.808 82.6214 155.808C80.7014 155.808 78.7654 157.312 78.7654 160C78.7654 162.528 80.4934 164.192 82.5254 164.192ZM93.6531 164H97.3971C101.013 164 103.205 161.632 103.205 158.4C103.205 155.184 101.125 152.8 97.3971 152.8H93.6531V164ZM96.2771 161.712V155.088H97.4611C99.2851 155.088 100.565 156.176 100.565 158.4C100.565 160.624 99.2851 161.712 97.4611 161.712H96.2771ZM108.07 167.2L112.294 156H109.766L108.134 160.944L106.358 156H103.766L106.934 163.584L105.606 167.2H108.07ZM113.401 164H115.833V160.16C115.833 158.656 116.521 157.968 117.305 157.968C118.137 157.968 118.585 158.528 118.585 159.52V164H121.017V158.976C121.017 156.832 119.849 155.808 118.185 155.808C117.065 155.808 116.121 156.384 115.737 157.024L115.449 156H113.401V164ZM126.993 162.08C125.905 162.08 125.073 161.264 125.073 160C125.073 158.736 125.905 157.92 126.993 157.92C128.065 157.92 128.897 158.736 128.897 160C128.897 161.264 128.065 162.08 126.993 162.08ZM126.385 164.192C127.649 164.192 128.417 163.68 128.769 163.28L129.105 164H131.233V156H129.009L128.769 156.672C128.353 156.224 127.521 155.808 126.481 155.808C124.561 155.808 122.625 157.312 122.625 160C122.625 162.528 124.353 164.192 126.385 164.192ZM133.416 164H135.848V160.16C135.848 158.656 136.52 157.968 137.288 157.968C137.992 157.968 138.36 158.416 138.36 159.344V164H140.792V160.112C140.792 158.608 141.464 157.968 142.232 157.968C142.936 157.968 143.304 158.416 143.304 159.344V164H145.72V158.976C145.72 156.832 144.472 155.808 142.808 155.808C141.592 155.808 140.712 156.4 140.344 157.024C139.896 156.24 139.128 155.808 138.12 155.808C136.984 155.808 136.136 156.4 135.752 157.024L135.464 156H133.416V164ZM147.743 155.008H150.239V152.656H147.743V155.008ZM147.775 164H150.207V156H147.775V164ZM156.129 164.192C158.049 164.192 159.409 163.168 159.953 161.904L157.745 161.008C157.505 161.6 156.977 162.064 156.177 162.064C155.121 162.064 154.385 161.2 154.385 160C154.385 158.784 155.073 157.936 156.129 157.936C156.929 157.936 157.425 158.368 157.681 159.04L159.905 158.128C159.297 156.704 157.985 155.808 156.177 155.808C153.777 155.808 151.937 157.536 151.937 160C151.937 162.464 153.729 164.192 156.129 164.192ZM168.598 159.504L169.83 155.888L171.062 159.504H168.598ZM164.438 164H167.03L167.83 161.792H171.83L172.614 164H175.238L171.11 152.8H168.614L164.438 164ZM180.133 162.064C179.045 162.064 178.197 161.248 178.197 160C178.197 158.752 179.045 157.936 180.133 157.936C181.221 157.936 182.053 158.752 182.053 160C182.053 161.248 181.221 162.064 180.133 162.064ZM179.589 164.192C180.725 164.192 181.669 163.632 182.085 163.088L182.357 164H184.389V152.56H181.973V156.72C181.573 156.24 180.773 155.808 179.669 155.808C177.733 155.808 175.765 157.216 175.765 160C175.765 162.624 177.525 164.192 179.589 164.192ZM189.1 164.192C191.004 164.192 192.252 163.12 192.252 161.632C192.252 160.224 191.468 159.472 190.236 159.024L189.116 158.608C188.78 158.48 188.604 158.336 188.604 158.064C188.604 157.808 188.828 157.616 189.164 157.616C189.532 157.616 189.82 157.872 189.98 158.256L191.74 157.296C191.276 156.336 190.412 155.808 189.1 155.808C187.532 155.808 186.38 156.768 186.38 158.064C186.38 159.232 187.004 160.016 188.044 160.4L189.084 160.784C189.772 161.04 190.044 161.28 190.044 161.648C190.044 161.968 189.756 162.272 189.148 162.272C188.54 162.272 187.996 161.936 187.692 161.232L185.868 162.08C186.3 163.344 187.388 164.192 189.1 164.192ZM197.981 164H200.605V152.8H197.981V164ZM202.901 164H205.333V160.16C205.333 158.656 206.021 157.968 206.805 157.968C207.637 157.968 208.085 158.528 208.085 159.52V164H210.517V158.976C210.517 156.832 209.349 155.808 207.685 155.808C206.565 155.808 205.621 156.384 205.237 157.024L204.949 156H202.901V164ZM215.069 164.192C216.973 164.192 218.221 163.12 218.221 161.632C218.221 160.224 217.437 159.472 216.205 159.024L215.085 158.608C214.749 158.48 214.573 158.336 214.573 158.064C214.573 157.808 214.797 157.616 215.133 157.616C215.501 157.616 215.789 157.872 215.949 158.256L217.709 157.296C217.245 156.336 216.381 155.808 215.069 155.808C213.501 155.808 212.349 156.768 212.349 158.064C212.349 159.232 212.973 160.016 214.013 160.4L215.053 160.784C215.741 161.04 216.013 161.28 216.013 161.648C216.013 161.968 215.725 162.272 215.117 162.272C214.509 162.272 213.965 161.936 213.661 161.232L211.837 162.08C212.269 163.344 213.357 164.192 215.069 164.192ZM223.533 164.192C225.325 164.192 226.637 163.44 227.325 162.128L225.325 161.152C225.005 161.696 224.525 162.096 223.661 162.096C222.701 162.096 222.013 161.552 221.885 160.64H227.533C227.597 160.368 227.629 160.032 227.629 159.744C227.629 157.696 226.285 155.808 223.533 155.808C221.101 155.808 219.453 157.52 219.453 160C219.453 162.496 221.101 164.192 223.533 164.192ZM221.901 158.992C221.997 158.32 222.637 157.728 223.533 157.728C224.413 157.728 225.053 158.304 225.149 158.992H221.901ZM229.291 164H231.723V160C231.723 158.8 232.379 158.224 233.243 158.224C233.675 158.224 234.075 158.336 234.363 158.48L234.827 156C234.539 155.888 234.123 155.808 233.707 155.808C232.827 155.808 231.995 156.208 231.563 157.04L231.355 156H229.291V164ZM236.411 164H238.827V157.904H240.523V156H238.827V153.424L236.411 153.888V156H235.259V157.904H236.411V164Z" fill="#FD841F"/>
<path d="M53.7903 203.192C55.9023 203.192 57.2623 201.72 57.2623 199.944C57.2623 198.552 56.5903 197.592 55.1503 196.808C55.0063 196.728 53.6623 195.992 53.5182 195.912C52.6063 195.432 52.2223 195.016 52.2223 194.28C52.2223 193.592 52.8303 193.048 53.5663 193.048C54.4463 193.048 54.8943 193.528 55.1983 194.28L56.5423 193.608C55.9983 192.344 55.0383 191.608 53.6143 191.608C51.9023 191.608 50.7023 192.76 50.7023 194.344C50.7023 195.496 51.3743 196.472 52.4783 197.048C52.7023 197.176 53.8063 197.752 54.0463 197.88C55.0543 198.392 55.7423 198.936 55.7423 199.96C55.7423 201.016 54.8623 201.752 53.7743 201.752C52.3663 201.752 51.6303 200.76 51.3743 199.88L49.9823 200.424C50.5423 202.168 51.7743 203.192 53.7903 203.192ZM62.8313 203.192C64.5753 203.192 65.7913 202.28 66.3993 201.032L65.2313 200.456C64.7033 201.384 63.9513 201.896 62.8953 201.896C61.4073 201.896 60.3993 200.936 60.2873 199.464H66.5913C66.6073 199.272 66.6233 199.016 66.6233 198.824C66.6233 196.584 65.2633 194.808 62.8313 194.808C60.3513 194.808 58.8633 196.664 58.8633 199C58.8633 201.368 60.3033 203.192 62.8313 203.192ZM60.3033 198.296C60.4473 196.984 61.4553 196.104 62.8473 196.104C64.2233 196.104 65.1033 196.984 65.2153 198.296H60.3033ZM68.879 203H70.303V198.824C70.303 197.096 71.119 196.264 72.159 196.264C72.543 196.264 72.975 196.36 73.295 196.536L73.759 195.128C73.471 194.968 72.959 194.808 72.463 194.808C71.423 194.808 70.719 195.288 70.287 196.072L70.079 195H68.879V203ZM77.1863 203H78.6102L81.6503 195H80.1943L77.9223 201.416L75.6183 195H74.1623L77.1863 203ZM86.55 203.192C88.294 203.192 89.51 202.28 90.118 201.032L88.95 200.456C88.422 201.384 87.67 201.896 86.614 201.896C85.126 201.896 84.118 200.936 84.006 199.464H90.31C90.326 199.272 90.342 199.016 90.342 198.824C90.342 196.584 88.982 194.808 86.55 194.808C84.07 194.808 82.582 196.664 82.582 199C82.582 201.368 84.022 203.192 86.55 203.192ZM84.022 198.296C84.166 196.984 85.174 196.104 86.566 196.104C87.942 196.104 88.822 196.984 88.934 198.296H84.022ZM92.5978 203H94.0218V198.824C94.0218 197.096 94.8378 196.264 95.8778 196.264C96.2618 196.264 96.6938 196.36 97.0138 196.536L97.4778 195.128C97.1898 194.968 96.6778 194.808 96.1818 194.808C95.1418 194.808 94.4378 195.288 94.0058 196.072L93.7978 195H92.5978V203ZM98.3886 199.608H103.093V198.264H98.3886V199.608ZM108.728 203.192C110.84 203.192 112.2 201.72 112.2 199.944C112.2 198.552 111.528 197.592 110.088 196.808C109.944 196.728 108.6 195.992 108.456 195.912C107.544 195.432 107.16 195.016 107.16 194.28C107.16 193.592 107.768 193.048 108.504 193.048C109.384 193.048 109.832 193.528 110.136 194.28L111.48 193.608C110.936 192.344 109.976 191.608 108.552 191.608C106.84 191.608 105.64 192.76 105.64 194.344C105.64 195.496 106.312 196.472 107.416 197.048C107.64 197.176 108.744 197.752 108.984 197.88C109.992 198.392 110.68 198.936 110.68 199.96C110.68 201.016 109.8 201.752 108.712 201.752C107.304 201.752 106.568 200.76 106.312 199.88L104.92 200.424C105.48 202.168 106.712 203.192 108.728 203.192ZM114.33 193.368H115.93V191.8H114.33V193.368ZM114.426 203H115.85V195H114.426V203ZM122.256 201.896C120.672 201.896 119.6 200.616 119.6 199C119.6 197.384 120.672 196.104 122.256 196.104C123.856 196.104 124.912 197.384 124.912 199C124.912 200.616 123.856 201.896 122.256 201.896ZM122.144 203.192C123.392 203.192 124.384 202.488 124.832 201.864L125.024 203H126.224V191.56H124.8V196.024C124.4 195.528 123.52 194.808 122.144 194.808C119.776 194.808 118.16 196.664 118.16 199C118.16 201.336 119.696 203.192 122.144 203.192ZM132.534 203.192C134.278 203.192 135.494 202.28 136.102 201.032L134.934 200.456C134.406 201.384 133.654 201.896 132.598 201.896C131.11 201.896 130.102 200.936 129.99 199.464H136.294C136.31 199.272 136.326 199.016 136.326 198.824C136.326 196.584 134.966 194.808 132.534 194.808C130.054 194.808 128.566 196.664 128.566 199C128.566 201.368 130.006 203.192 132.534 203.192ZM130.006 198.296C130.15 196.984 131.158 196.104 132.55 196.104C133.926 196.104 134.806 196.984 134.918 198.296H130.006ZM144.423 198.904L146.327 193.544L148.215 198.904H144.423ZM141.303 203H142.951L143.927 200.312H148.711L149.687 203H151.367L147.191 191.8H145.479L141.303 203ZM156.381 201.896C154.797 201.896 153.725 200.616 153.725 199C153.725 197.384 154.797 196.104 156.381 196.104C157.981 196.104 159.037 197.384 159.037 199C159.037 200.616 157.981 201.896 156.381 201.896ZM156.269 203.192C157.517 203.192 158.509 202.488 158.957 201.864L159.149 203H160.349V191.56H158.925V196.024C158.525 195.528 157.645 194.808 156.269 194.808C153.901 194.808 152.285 196.664 152.285 199C152.285 201.336 153.821 203.192 156.269 203.192ZM167.54 203H169.06V191.8H167.54V203ZM172.254 203H173.678V199.208C173.678 197.032 174.686 196.104 175.79 196.104C176.894 196.104 177.662 196.888 177.662 198.312V203H179.086V198.184C179.086 196.136 178.094 194.808 176.094 194.808C174.942 194.808 174.142 195.272 173.662 195.992L173.454 195H172.254V203ZM183.845 203.192C185.557 203.192 186.645 202.12 186.645 200.728C186.645 199.56 185.941 198.808 184.981 198.408L183.813 197.944C183.349 197.752 182.885 197.512 182.885 196.936C182.885 196.456 183.301 196.072 183.813 196.072C184.341 196.072 184.757 196.376 184.997 196.952L186.133 196.296C185.685 195.368 184.933 194.808 183.813 194.808C182.517 194.808 181.525 195.736 181.525 196.888C181.525 197.864 182.101 198.616 182.933 198.936L183.957 199.352C184.885 199.72 185.285 200.072 185.285 200.744C185.285 201.4 184.741 201.928 183.925 201.928C182.997 201.928 182.405 201.416 182.149 200.568L180.949 201.064C181.397 202.328 182.341 203.192 183.845 203.192ZM192.222 203.192C193.966 203.192 195.182 202.28 195.79 201.032L194.622 200.456C194.094 201.384 193.342 201.896 192.286 201.896C190.798 201.896 189.79 200.936 189.678 199.464H195.982C195.998 199.272 196.014 199.016 196.014 198.824C196.014 196.584 194.654 194.808 192.222 194.808C189.742 194.808 188.254 196.664 188.254 199C188.254 201.368 189.694 203.192 192.222 203.192ZM189.694 198.296C189.838 196.984 190.846 196.104 192.238 196.104C193.614 196.104 194.494 196.984 194.606 198.296H189.694ZM198.27 203H199.694V198.824C199.694 197.096 200.51 196.264 201.55 196.264C201.934 196.264 202.366 196.36 202.686 196.536L203.15 195.128C202.862 194.968 202.35 194.808 201.854 194.808C200.814 194.808 200.11 195.288 199.678 196.072L199.47 195H198.27V203ZM205.009 203H206.449V196.296H208.177V195H206.449V192.536L205.009 192.808V195H203.969V196.296H205.009V203ZM209.955 193.368H211.555V191.8H209.955V193.368ZM210.051 203H211.475V195H210.051V203ZM217.913 203.192C220.345 203.192 222.057 201.336 222.057 199C222.057 196.664 220.345 194.808 217.913 194.808C215.481 194.808 213.785 196.664 213.785 199C213.785 201.336 215.481 203.192 217.913 203.192ZM217.913 201.896C216.393 201.896 215.241 200.696 215.241 199C215.241 197.304 216.393 196.104 217.913 196.104C219.433 196.104 220.601 197.304 220.601 199C220.601 200.696 219.433 201.896 217.913 201.896ZM224.395 203H225.819V199.208C225.819 197.032 226.827 196.104 227.931 196.104C229.035 196.104 229.803 196.888 229.803 198.312V203H231.227V198.184C231.227 196.136 230.235 194.808 228.235 194.808C227.083 194.808 226.283 195.272 225.803 195.992L225.595 195H224.395V203ZM58.9465 223.192C61.0585 223.192 62.4185 221.72 62.4185 219.944C62.4185 218.552 61.7465 217.592 60.3065 216.808C60.1625 216.728 58.8185 215.992 58.6745 215.912C57.7625 215.432 57.3785 215.016 57.3785 214.28C57.3785 213.592 57.9865 213.048 58.7225 213.048C59.6025 213.048 60.0505 213.528 60.3545 214.28L61.6985 213.608C61.1545 212.344 60.1945 211.608 58.7705 211.608C57.0585 211.608 55.8585 212.76 55.8585 214.344C55.8585 215.496 56.5305 216.472 57.6345 217.048C57.8585 217.176 58.9625 217.752 59.2025 217.88C60.2105 218.392 60.8985 218.936 60.8985 219.96C60.8985 221.016 60.0185 221.752 58.9305 221.752C57.5225 221.752 56.7865 220.76 56.5305 219.88L55.1385 220.424C55.6985 222.168 56.9305 223.192 58.9465 223.192ZM68.1475 223.192C70.5795 223.192 72.2915 221.336 72.2915 219C72.2915 216.664 70.5795 214.808 68.1475 214.808C65.7155 214.808 64.0195 216.664 64.0195 219C64.0195 221.336 65.7155 223.192 68.1475 223.192ZM68.1475 221.896C66.6275 221.896 65.4755 220.696 65.4755 219C65.4755 217.304 66.6275 216.104 68.1475 216.104C69.6675 216.104 70.8355 217.304 70.8355 219C70.8355 220.696 69.6675 221.896 68.1475 221.896ZM74.629 223H76.053V211.56H74.629V223ZM81.8989 223.192C83.0509 223.192 83.8989 222.696 84.3469 222.008L84.5709 223H85.7709V215H84.3469V219.096C84.3469 220.92 83.4349 221.896 82.2029 221.896C81.0989 221.896 80.2829 221.16 80.2829 219.736V215H78.8589V219.752C78.8589 221.832 79.8029 223.192 81.8989 223.192ZM88.9933 223H90.4333V216.296H92.1613V215H90.4333V212.536L88.9933 212.808V215H87.9533V216.296H88.9933V223ZM93.9389 213.368H95.5389V211.8H93.9389V213.368ZM94.0349 223H95.4589V215H94.0349V223ZM101.898 223.192C104.33 223.192 106.042 221.336 106.042 219C106.042 216.664 104.33 214.808 101.898 214.808C99.4655 214.808 97.7695 216.664 97.7695 219C97.7695 221.336 99.4655 223.192 101.898 223.192ZM101.898 221.896C100.378 221.896 99.2255 220.696 99.2255 219C99.2255 217.304 100.378 216.104 101.898 216.104C103.418 216.104 104.586 217.304 104.586 219C104.586 220.696 103.418 221.896 101.898 221.896ZM108.379 223H109.803V219.208C109.803 217.032 110.811 216.104 111.915 216.104C113.019 216.104 113.787 216.888 113.787 218.312V223H115.211V218.184C115.211 216.136 114.219 214.808 112.219 214.808C111.067 214.808 110.267 215.272 109.787 215.992L109.579 215H108.379V223ZM125.363 223.192C127.107 223.192 128.323 222.28 128.931 221.032L127.763 220.456C127.235 221.384 126.483 221.896 125.427 221.896C123.939 221.896 122.931 220.936 122.819 219.464H129.123C129.139 219.272 129.155 219.016 129.155 218.824C129.155 216.584 127.795 214.808 125.363 214.808C122.883 214.808 121.395 216.664 121.395 219C121.395 221.368 122.835 223.192 125.363 223.192ZM122.835 218.296C122.979 216.984 123.987 216.104 125.379 216.104C126.755 216.104 127.635 216.984 127.747 218.296H122.835ZM130.21 223H131.81L133.842 219.88L135.89 223H137.49L134.642 218.776L137.218 215H135.634L133.858 217.688L132.066 215H130.482L133.042 218.792L130.21 223ZM142.332 223.192C144.092 223.192 145.292 222.2 145.884 221.032L144.62 220.456C144.284 221.192 143.5 221.896 142.332 221.896C140.828 221.896 139.772 220.696 139.772 219C139.772 217.304 140.828 216.104 142.284 216.104C143.42 216.104 144.092 216.648 144.54 217.528L145.82 216.952C145.196 215.528 143.916 214.808 142.332 214.808C139.916 214.808 138.316 216.664 138.316 219C138.316 221.336 139.916 223.192 142.332 223.192ZM148.02 223H149.444V211.56H148.02V223ZM155.29 223.192C156.442 223.192 157.29 222.696 157.738 222.008L157.962 223H159.161V215H157.738V219.096C157.738 220.92 156.826 221.896 155.594 221.896C154.49 221.896 153.674 221.16 153.674 219.736V215H152.25V219.752C152.25 221.832 153.194 223.192 155.29 223.192ZM164.064 223.192C165.776 223.192 166.864 222.12 166.864 220.728C166.864 219.56 166.16 218.808 165.2 218.408L164.032 217.944C163.568 217.752 163.104 217.512 163.104 216.936C163.104 216.456 163.52 216.072 164.032 216.072C164.56 216.072 164.976 216.376 165.216 216.952L166.352 216.296C165.904 215.368 165.152 214.808 164.032 214.808C162.736 214.808 161.744 215.736 161.744 216.888C161.744 217.864 162.32 218.616 163.152 218.936L164.176 219.352C165.104 219.72 165.504 220.072 165.504 220.744C165.504 221.4 164.96 221.928 164.144 221.928C163.216 221.928 162.624 221.416 162.368 220.568L161.168 221.064C161.616 222.328 162.56 223.192 164.064 223.192ZM168.908 213.368H170.508V211.8H168.908V213.368ZM169.004 223H170.428V215H169.004V223ZM175.186 223H176.61L179.65 215H178.194L175.922 221.416L173.618 215H172.162L175.186 223ZM184.55 223.192C186.294 223.192 187.51 222.28 188.118 221.032L186.95 220.456C186.422 221.384 185.67 221.896 184.614 221.896C183.126 221.896 182.118 220.936 182.006 219.464H188.31C188.326 219.272 188.342 219.016 188.342 218.824C188.342 216.584 186.982 214.808 184.55 214.808C182.07 214.808 180.582 216.664 180.582 219C180.582 221.368 182.022 223.192 184.55 223.192ZM182.022 218.296C182.166 216.984 183.174 216.104 184.566 216.104C185.942 216.104 186.822 216.984 186.934 218.296H182.022ZM190.598 223H192.022V211.56H190.598V223ZM197.196 226.2L201.244 215H199.756L197.628 221.08L195.308 215H193.788L196.892 222.904L195.724 226.2H197.196ZM207.292 223H208.732V216.296H210.716V215H208.732V214.232C208.732 213.432 209.164 212.936 209.884 212.936C210.172 212.936 210.476 213.032 210.764 213.176V211.784C210.492 211.672 210.172 211.608 209.772 211.608C208.188 211.608 207.292 212.504 207.292 214.376V215H206.172V216.296H207.292V223ZM215.773 223.192C218.205 223.192 219.917 221.336 219.917 219C219.917 216.664 218.205 214.808 215.773 214.808C213.341 214.808 211.645 216.664 211.645 219C211.645 221.336 213.341 223.192 215.773 223.192ZM215.773 221.896C214.253 221.896 213.101 220.696 213.101 219C213.101 217.304 214.253 216.104 215.773 216.104C217.293 216.104 218.461 217.304 218.461 219C218.461 220.696 217.293 221.896 215.773 221.896ZM222.254 223H223.678V218.824C223.678 217.096 224.494 216.264 225.534 216.264C225.918 216.264 226.35 216.36 226.67 216.536L227.134 215.128C226.846 214.968 226.334 214.808 225.838 214.808C224.798 214.808 224.094 215.288 223.662 216.072L223.454 215H222.254V223ZM50.9002 243H52.4202V233.224H55.5562V231.8H47.8762V233.224H50.9002V243ZM59.7141 243.192C61.4581 243.192 62.6741 242.28 63.2821 241.032L62.1141 240.456C61.5861 241.384 60.8341 241.896 59.7781 241.896C58.2901 241.896 57.2821 240.936 57.1701 239.464H63.4741C63.4901 239.272 63.5061 239.016 63.5061 238.824C63.5061 236.584 62.1461 234.808 59.7141 234.808C57.2341 234.808 55.7461 236.664 55.7461 239C55.7461 241.368 57.1861 243.192 59.7141 243.192ZM57.1861 238.296C57.3301 236.984 58.3381 236.104 59.7301 236.104C61.1061 236.104 61.9861 236.984 62.0981 238.296H57.1861ZM65.7618 243H67.1858V231.56H65.7618V243ZM73.4797 243.192C75.2237 243.192 76.4397 242.28 77.0477 241.032L75.8797 240.456C75.3517 241.384 74.5997 241.896 73.5437 241.896C72.0557 241.896 71.0477 240.936 70.9357 239.464H77.2397C77.2557 239.272 77.2717 239.016 77.2717 238.824C77.2717 236.584 75.9117 234.808 73.4797 234.808C70.9997 234.808 69.5117 236.664 69.5117 239C69.5117 241.368 70.9517 243.192 73.4797 243.192ZM70.9517 238.296C71.0957 236.984 72.1037 236.104 73.4957 236.104C74.8717 236.104 75.7517 236.984 75.8637 238.296H70.9517ZM81.1472 243H82.5712L85.6112 235H84.1552L81.8832 241.416L79.5792 235H78.1232L81.1472 243ZM87.2592 233.368H88.8592V231.8H87.2592V233.368ZM87.3552 243H88.7792V235H87.3552V243ZM93.6498 243.192C95.3618 243.192 96.4498 242.12 96.4498 240.728C96.4498 239.56 95.7458 238.808 94.7858 238.408L93.6178 237.944C93.1538 237.752 92.6898 237.512 92.6898 236.936C92.6898 236.456 93.1058 236.072 93.6178 236.072C94.1458 236.072 94.5618 236.376 94.8018 236.952L95.9378 236.296C95.4898 235.368 94.7378 234.808 93.6178 234.808C92.3218 234.808 91.3298 235.736 91.3298 236.888C91.3298 237.864 91.9058 238.616 92.7378 238.936L93.7618 239.352C94.6898 239.72 95.0898 240.072 95.0898 240.744C95.0898 241.4 94.5458 241.928 93.7298 241.928C92.8018 241.928 92.2098 241.416 91.9538 240.568L90.7538 241.064C91.2018 242.328 92.1458 243.192 93.6498 243.192ZM98.4936 233.368H100.094V231.8H98.4936V233.368ZM98.5896 243H100.014V235H98.5896V243ZM106.452 243.192C108.884 243.192 110.596 241.336 110.596 239C110.596 236.664 108.884 234.808 106.452 234.808C104.02 234.808 102.324 236.664 102.324 239C102.324 241.336 104.02 243.192 106.452 243.192ZM106.452 241.896C104.932 241.896 103.78 240.696 103.78 239C103.78 237.304 104.932 236.104 106.452 236.104C107.972 236.104 109.14 237.304 109.14 239C109.14 240.696 107.972 241.896 106.452 241.896ZM112.934 243H114.358V239.208C114.358 237.032 115.366 236.104 116.47 236.104C117.574 236.104 118.342 236.888 118.342 238.312V243H119.766V238.184C119.766 236.136 118.774 234.808 116.774 234.808C115.622 234.808 114.822 235.272 114.342 235.992L114.134 235H112.934V243ZM121.997 245.08H123.101L124.557 241.384H122.861L121.997 245.08ZM131.235 243H137.139V241.576H132.755V231.8H131.235V243ZM138.884 233.368H140.484V231.8H138.884V233.368ZM138.98 243H140.404V235H138.98V243ZM145.163 243H146.587L149.627 235H148.171L145.899 241.416L143.595 235H142.139L145.163 243ZM154.527 243.192C156.271 243.192 157.487 242.28 158.095 241.032L156.927 240.456C156.399 241.384 155.647 241.896 154.591 241.896C153.103 241.896 152.095 240.936 151.983 239.464H158.287C158.303 239.272 158.319 239.016 158.319 238.824C158.319 236.584 156.959 234.808 154.527 234.808C152.047 234.808 150.559 236.664 150.559 239C150.559 241.368 151.999 243.192 154.527 243.192ZM151.999 238.296C152.143 236.984 153.151 236.104 154.543 236.104C155.919 236.104 156.799 236.984 156.911 238.296H151.999ZM162.462 243.192C164.174 243.192 165.262 242.12 165.262 240.728C165.262 239.56 164.558 238.808 163.598 238.408L162.43 237.944C161.966 237.752 161.502 237.512 161.502 236.936C161.502 236.456 161.918 236.072 162.43 236.072C162.958 236.072 163.374 236.376 163.614 236.952L164.75 236.296C164.302 235.368 163.55 234.808 162.43 234.808C161.134 234.808 160.142 235.736 160.142 236.888C160.142 237.864 160.718 238.616 161.55 238.936L162.574 239.352C163.502 239.72 163.902 240.072 163.902 240.744C163.902 241.4 163.358 241.928 162.542 241.928C161.614 241.928 161.022 241.416 160.766 240.568L159.566 241.064C160.014 242.328 160.958 243.192 162.462 243.192ZM167.626 243H169.066V236.296H170.794V235H169.066V232.536L167.626 232.808V235H166.586V236.296H167.626V243ZM172.684 243H174.108V238.824C174.108 237.096 174.924 236.264 175.964 236.264C176.348 236.264 176.78 236.36 177.1 236.536L177.564 235.128C177.276 234.968 176.764 234.808 176.268 234.808C175.228 234.808 174.524 235.288 174.092 236.072L173.884 235H172.684V243ZM182.027 243.192C183.771 243.192 184.987 242.28 185.595 241.032L184.427 240.456C183.899 241.384 183.147 241.896 182.091 241.896C180.603 241.896 179.595 240.936 179.483 239.464H185.787C185.803 239.272 185.819 239.016 185.819 238.824C185.819 236.584 184.459 234.808 182.027 234.808C179.547 234.808 178.059 236.664 178.059 239C178.059 241.368 179.499 243.192 182.027 243.192ZM179.499 238.296C179.643 236.984 180.651 236.104 182.043 236.104C183.419 236.104 184.299 236.984 184.411 238.296H179.499ZM191.514 241.896C189.914 241.896 188.858 240.616 188.858 239C188.858 237.384 189.914 236.104 191.514 236.104C193.098 236.104 194.17 237.384 194.17 239C194.17 240.616 193.098 241.896 191.514 241.896ZM191.37 243.192C192.57 243.192 193.61 242.584 194.058 241.928L194.266 243H195.482V235H194.266L194.058 236.008C193.658 235.48 192.746 234.808 191.37 234.808C189.034 234.808 187.402 236.664 187.402 239C187.402 241.336 188.938 243.192 191.37 243.192ZM198.481 243H199.905V239.208C199.905 237.08 200.801 236.104 201.889 236.104C202.865 236.104 203.521 236.728 203.521 238.072V243H204.945V239.208C204.945 237.08 205.857 236.104 206.929 236.104C207.905 236.104 208.561 236.728 208.561 238.072V243H210.001V238.136C210.001 236.088 209.105 234.808 207.121 234.808C205.793 234.808 204.993 235.464 204.593 236.152C204.193 235.304 203.489 234.808 202.225 234.808C201.089 234.808 200.369 235.304 199.889 236.024L199.681 235H198.481V243ZM212.744 233.368H214.344V231.8H212.744V233.368ZM212.84 243H214.264V235H212.84V243ZM217.246 243H218.67V239.208C218.67 237.032 219.678 236.104 220.782 236.104C221.886 236.104 222.654 236.888 222.654 238.312V243H224.078V238.184C224.078 236.136 223.086 234.808 221.086 234.808C219.934 234.808 219.134 235.272 218.654 235.992L218.446 235H217.246V243ZM229.957 246.392C231.989 246.392 233.621 245.016 233.621 243.048C233.621 241.624 232.757 240.552 231.829 240.12C232.421 239.768 233.109 238.888 233.109 237.864C233.109 236.952 232.693 236.36 232.309 235.992L233.605 235.768V234.808H229.957C228.229 234.808 226.725 236.056 226.725 237.816C226.725 238.952 227.429 239.752 228.021 240.152C227.109 240.584 226.213 241.704 226.213 243.048C226.213 245.016 227.925 246.392 229.957 246.392ZM229.957 239.608C228.869 239.608 228.085 238.792 228.085 237.848C228.085 236.872 228.885 236.072 229.957 236.072C231.093 236.072 231.749 236.872 231.749 237.848C231.749 238.792 231.109 239.608 229.957 239.608ZM229.957 245.128C228.693 245.128 227.621 244.232 227.621 243C227.621 241.768 228.725 240.84 229.957 240.84C231.269 240.84 232.261 241.768 232.261 243C232.261 244.232 231.285 245.128 229.957 245.128ZM83.6569 263H89.9609V261.576H85.1769V257.912H89.6409V256.472H85.1769V253.224H89.9609V251.8H83.6569V263ZM94.2253 263H95.6493L98.6893 255H97.2333L94.9613 261.416L92.6573 255H91.2013L94.2253 263ZM103.589 263.192C105.333 263.192 106.549 262.28 107.157 261.032L105.989 260.456C105.461 261.384 104.709 261.896 103.653 261.896C102.165 261.896 101.157 260.936 101.045 259.464H107.349C107.365 259.272 107.381 259.016 107.381 258.824C107.381 256.584 106.021 254.808 103.589 254.808C101.109 254.808 99.6211 256.664 99.6211 259C99.6211 261.368 101.061 263.192 103.589 263.192ZM101.061 258.296C101.205 256.984 102.213 256.104 103.605 256.104C104.981 256.104 105.861 256.984 105.973 258.296H101.061ZM109.637 263H111.061V259.208C111.061 257.032 112.069 256.104 113.173 256.104C114.277 256.104 115.045 256.888 115.045 258.312V263H116.469V258.184C116.469 256.136 115.477 254.808 113.477 254.808C112.325 254.808 111.525 255.272 111.045 255.992L110.837 255H109.637V263ZM119.548 263H120.988V256.296H122.716V255H120.988V252.536L119.548 252.808V255H118.508V256.296H119.548V263ZM136.014 261.896C134.414 261.896 133.358 260.616 133.358 259C133.358 257.384 134.414 256.104 136.014 256.104C137.598 256.104 138.67 257.384 138.67 259C138.67 260.616 137.598 261.896 136.014 261.896ZM135.87 263.192C137.07 263.192 138.11 262.584 138.558 261.928L138.766 263H139.982V255H138.766L138.558 256.008C138.158 255.48 137.246 254.808 135.87 254.808C133.534 254.808 131.902 256.664 131.902 259C131.902 261.336 133.438 263.192 135.87 263.192ZM142.981 263H144.405V259.208C144.405 257.032 145.413 256.104 146.517 256.104C147.621 256.104 148.389 256.888 148.389 258.312V263H149.813V258.184C149.813 256.136 148.821 254.808 146.821 254.808C145.669 254.808 144.869 255.272 144.389 255.992L144.181 255H142.981V263ZM156.108 261.896C154.524 261.896 153.452 260.616 153.452 259C153.452 257.384 154.524 256.104 156.108 256.104C157.708 256.104 158.764 257.384 158.764 259C158.764 260.616 157.708 261.896 156.108 261.896ZM155.996 263.192C157.244 263.192 158.236 262.488 158.684 261.864L158.876 263H160.076V251.56H158.652V256.024C158.252 255.528 157.372 254.808 155.996 254.808C153.628 254.808 152.012 256.664 152.012 259C152.012 261.336 153.548 263.192 155.996 263.192ZM169.746 263H171.378L175.218 251.8H173.57L170.578 260.936L167.586 251.8H165.938L169.746 263ZM182.006 263.192C185.254 263.192 187.574 260.616 187.574 257.4C187.574 254.168 185.35 251.608 182.006 251.608C178.662 251.608 176.422 254.168 176.422 257.4C176.422 260.616 178.742 263.192 182.006 263.192ZM182.006 261.768C179.638 261.768 177.958 259.944 177.958 257.4C177.958 254.856 179.67 253.032 182.006 253.032C184.326 253.032 186.038 254.856 186.038 257.4C186.038 259.944 184.358 261.768 182.006 261.768ZM190.266 263H193.146C196.746 263 199.05 260.664 199.05 257.4C199.05 254.168 196.906 251.8 193.146 251.8H190.266V263ZM191.786 261.576V253.224H193.29C195.866 253.224 197.514 254.824 197.514 257.4C197.514 259.976 195.85 261.576 193.29 261.576H191.786Z" fill="#4D4D4D"/>
<mask id="mask0_1058_202" style="mask-type:luminance" maskUnits="userSpaceOnUse" x="96" y="35" width="90" height="90">
<path d="M184.5 123.5V36.5H97.5V123.5H184.5Z" fill="white" stroke="white" stroke-width="3"/>
</mask>
<g mask="url(#mask0_1058_202)">
<path d="M173.14 49.7341C173.488 49.7341 173.77 49.4517 173.77 49.1032C173.77 48.7547 173.488 48.4724 173.14 48.4724C172.791 48.4724 172.509 48.7548 172.509 49.1032C172.509 49.4516 172.792 49.7341 173.14 49.7341Z" fill="#4D4D4D" stroke="#4D4D4D" stroke-width="3"/>
<path d="M165.86 49.7341C166.208 49.7341 166.49 49.4515 166.49 49.1032C166.49 48.7549 166.208 48.4724 165.86 48.4724C165.511 48.4724 165.229 48.7548 165.229 49.1032C165.229 49.4516 165.511 49.7341 165.86 49.7341Z" fill="#4D4D4D" stroke="#4D4D4D" stroke-width="3"/>
<path d="M158.579 49.7341C158.927 49.7341 159.21 49.4516 159.21 49.1032C159.21 48.7548 158.927 48.4724 158.579 48.4724C158.231 48.4724 157.948 48.7549 157.948 49.1032C157.948 49.4515 158.231 49.7341 158.579 49.7341Z" fill="#4D4D4D" stroke="#4D4D4D" stroke-width="3"/>
<path d="M97.3184 56.3835V45.3743C97.3184 43.4129 98.9083 41.823 100.87 41.823H181.13C183.092 41.823 184.682 43.4129 184.682 45.3743V56.3835" stroke="#4D4D4D" stroke-width="3" stroke-miterlimit="10" stroke-linecap="round" stroke-linejoin="round"/>
<path d="M97.3184 103.143V56.3839H184.682V64.6719" stroke="#4D4D4D" stroke-width="3" stroke-miterlimit="10" stroke-linecap="round" stroke-linejoin="round"/>
<path d="M184.682 70.8242V114.625C184.682 116.587 183.091 118.176 181.131 118.176H100.869C98.9092 118.176 97.3184 116.587 97.3184 114.625V109.296" stroke="#4D4D4D" stroke-width="3" stroke-miterlimit="10" stroke-linecap="round" stroke-linejoin="round"/>
<path d="M163.391 87.2809H148.272" stroke="#FD841F" stroke-width="3" stroke-miterlimit="10" stroke-linecap="round" stroke-linejoin="round"/>
<path d="M171.364 95.8027V112.495H125.907V87.2808H142.12" stroke="#FD841F" stroke-width="3" stroke-miterlimit="10" stroke-linecap="round" stroke-linejoin="round"/>
<path d="M131.589 106.813L136.597 93.6625C136.7 93.4124 137.054 93.4121 137.157 93.662L142.12 106.813" stroke="#FD841F" stroke-width="3" stroke-miterlimit="10" stroke-linecap="round" stroke-linejoin="round"/>
<path d="M133.151 103.538H140.583" stroke="#FD841F" stroke-width="3" stroke-miterlimit="10" stroke-linecap="round" stroke-linejoin="round"/>
<path d="M165.406 99.3029C165.406 99.3029 163.908 98.0438 162.142 98.5759C160.52 99.0645 160.293 100.935 161.467 101.7C161.467 101.7 162.618 102.213 163.895 102.684C166.969 103.818 165.645 106.792 163.17 106.792C161.931 106.792 160.891 106.25 160.261 105.555" stroke="#FD841F" stroke-width="3" stroke-miterlimit="10" stroke-linecap="round" stroke-linejoin="round"/>
<path d="M154.85 94.2539V106.792" stroke="#FD841F" stroke-width="3" stroke-miterlimit="10" stroke-linecap="round" stroke-linejoin="round"/>
<path d="M154.85 102.588C154.85 104.91 152.968 106.792 150.646 106.792C148.324 106.792 146.442 104.91 146.442 102.588C146.442 100.266 148.324 98.3839 150.646 98.3839C152.968 98.3839 154.85 100.266 154.85 102.588Z" stroke="#FD841F" stroke-width="3" stroke-miterlimit="10" stroke-linecap="round" stroke-linejoin="round"/>
<path d="M179.355 87.813C179.355 92.226 175.777 95.8035 171.364 95.8035C166.951 95.8035 163.374 92.226 163.374 87.813C163.374 83.4 166.951 79.8223 171.364 79.8223C175.777 79.8223 179.355 83.4 179.355 87.813Z" stroke="#FD841F" stroke-width="3" stroke-miterlimit="10" stroke-linecap="round" stroke-linejoin="round"/>
<path d="M169.732 89.4452L171.364 87.8129L172.996 86.1806" stroke="#FD841F" stroke-width="3" stroke-miterlimit="10" stroke-linecap="round" stroke-linejoin="round"/>
<path d="M169.732 86.1807L171.364 87.813L172.996 89.4453" stroke="#FD841F" stroke-width="3" stroke-miterlimit="10" stroke-linecap="round" stroke-linejoin="round"/>
<path d="M114.542 62.0657H167.457V67.7479H114.542V62.0657Z" stroke="#4D4D4D" stroke-width="3" stroke-miterlimit="10" stroke-linecap="round" stroke-linejoin="round"/>
<path d="M149.168 81.598H103" stroke="#4D4D4D" stroke-width="3" stroke-miterlimit="10" stroke-linecap="round" stroke-linejoin="round"/>
<path d="M115.43 75.9159H149.168" stroke="#4D4D4D" stroke-width="3" stroke-miterlimit="10" stroke-linecap="round" stroke-linejoin="round"/>
<path d="M103 87.2803H120.224" stroke="#4D4D4D" stroke-width="3" stroke-miterlimit="10" stroke-linecap="round" stroke-linejoin="round"/>
<path d="M120.224 92.9624H103" stroke="#4D4D4D" stroke-width="3" stroke-miterlimit="10" stroke-linecap="round" stroke-linejoin="round"/>
<path d="M111.346 98.6445H103" stroke="#4D4D4D" stroke-width="3" stroke-miterlimit="10" stroke-linecap="round" stroke-linejoin="round"/>
</g>
</g>
<defs>
<filter id="filter0_d_1058_202" x="0" y="0" width="292.5" height="298" filterUnits="userSpaceOnUse" color-interpolation-filters="sRGB">
<feFlood flood-opacity="0" result="BackgroundImageFix"/>
<feColorMatrix in="SourceAlpha" type="matrix" values="0 0 0 0 0 0 0 0 0 0 0 0 0 0 0 0 0 0 127 0" result="hardAlpha"/>
<feOffset dx="5" dy="10"/>
<feGaussianBlur stdDeviation="7.5"/>
<feComposite in2="hardAlpha" operator="out"/>
<feColorMatrix type="matrix" values="0 0 0 0 0 0 0 0 0 0 0 0 0 0 0 0 0 0 0.25 0"/>
<feBlend mode="normal" in2="BackgroundImageFix" result="effect1_dropShadow_1058_202"/>
<feBlend mode="normal" in="SourceGraphic" in2="effect1_dropShadow_1058_202" result="shape"/>
</filter>
</defs>
</svg>
