<svg width="293" height="298" viewBox="0 0 293 298" fill="none" xmlns="http://www.w3.org/2000/svg">
<g filter="url(#filter0_d_1058_61)">
<rect x="10" y="5" width="262.5" height="268" rx="10" fill="white"/>
<path d="M65.544 164.192C67.96 164.192 69.48 162.608 69.48 160.816C69.48 159.216 68.744 158.192 67.176 157.36C67.048 157.28 65.704 156.576 65.576 156.512C64.952 156.176 64.744 155.888 64.744 155.488C64.744 155.072 65.096 154.816 65.56 154.816C66.072 154.816 66.424 155.152 66.632 155.664L68.728 154.592C68.216 153.344 67.272 152.608 65.56 152.608C63.496 152.608 62.136 153.808 62.136 155.52C62.136 157.136 63.048 158.048 64.072 158.576C64.264 158.688 65.416 159.264 65.64 159.376C66.584 159.856 66.904 160.288 66.904 160.832C66.904 161.504 66.344 161.936 65.544 161.936C64.632 161.936 63.848 161.344 63.544 160.352L61.368 161.248C62.008 163.072 63.256 164.192 65.544 164.192ZM70.9775 155.008H73.4735V152.656H70.9775V155.008ZM71.0095 164H73.4415V156H71.0095V164ZM79.0916 167.392C81.3636 167.392 83.1236 165.984 83.1236 163.824C83.1236 162.608 82.4356 161.488 81.5716 161.04C82.1316 160.704 82.5476 159.936 82.5476 159.216C82.5476 158.592 82.2916 158.064 81.9876 157.728L83.0916 157.504V155.808H79.0756C76.9316 155.808 75.5876 157.216 75.5876 158.96C75.5876 159.808 75.9556 160.56 76.5796 161.04C75.7156 161.6 75.0276 162.576 75.0276 163.824C75.0276 165.984 76.8036 167.392 79.0916 167.392ZM79.0756 160.368C78.3556 160.368 77.8116 159.792 77.8116 159.072C77.8116 158.368 78.3716 157.744 79.0756 157.744C79.8116 157.744 80.2756 158.368 80.2756 159.072C80.2756 159.792 79.8276 160.368 79.0756 160.368ZM79.0916 165.344C78.1796 165.344 77.3956 164.72 77.3956 163.776C77.3956 162.8 78.1956 162.176 79.0916 162.176C79.9716 162.176 80.7556 162.8 80.7556 163.776C80.7556 164.72 79.9876 165.344 79.0916 165.344ZM84.8224 164H87.2544V160.16C87.2544 158.656 87.9264 157.968 88.6944 157.968C89.3984 157.968 89.7664 158.416 89.7664 159.344V164H92.1984V160.112C92.1984 158.608 92.8704 157.968 93.6384 157.968C94.3424 157.968 94.7104 158.416 94.7104 159.344V164H97.1264V158.976C97.1264 156.832 95.8784 155.808 94.2144 155.808C92.9984 155.808 92.1184 156.4 91.7504 157.024C91.3024 156.24 90.5344 155.808 89.5264 155.808C88.3904 155.808 87.5424 156.4 87.1584 157.024L86.8704 156H84.8224V164ZM103.133 162.08C102.045 162.08 101.213 161.264 101.213 160C101.213 158.736 102.045 157.92 103.133 157.92C104.205 157.92 105.037 158.736 105.037 160C105.037 161.264 104.205 162.08 103.133 162.08ZM102.525 164.192C103.789 164.192 104.557 163.68 104.909 163.28L105.245 164H107.373V156H105.149L104.909 156.672C104.493 156.224 103.661 155.808 102.621 155.808C100.701 155.808 98.7654 157.312 98.7654 160C98.7654 162.528 100.493 164.192 102.525 164.192ZM113.653 164H120.901V161.712H116.277V152.8H113.653V164ZM122.04 155.008H124.536V152.656H122.04V155.008ZM122.072 164H124.504V156H122.072V164ZM128.522 164H131.098L134.01 156H131.546L129.818 161.456L128.058 156H125.61L128.522 164ZM138.627 164.192C140.419 164.192 141.731 163.44 142.419 162.128L140.419 161.152C140.099 161.696 139.619 162.096 138.755 162.096C137.795 162.096 137.107 161.552 136.979 160.64H142.627C142.691 160.368 142.723 160.032 142.723 159.744C142.723 157.696 141.379 155.808 138.627 155.808C136.195 155.808 134.547 157.52 134.547 160C134.547 162.496 136.195 164.192 138.627 164.192ZM136.995 158.992C137.091 158.32 137.731 157.728 138.627 157.728C139.507 157.728 140.147 158.304 140.243 158.992H136.995ZM146.897 164.192C148.801 164.192 150.049 163.12 150.049 161.632C150.049 160.224 149.265 159.472 148.033 159.024L146.913 158.608C146.577 158.48 146.401 158.336 146.401 158.064C146.401 157.808 146.625 157.616 146.961 157.616C147.329 157.616 147.617 157.872 147.777 158.256L149.537 157.296C149.073 156.336 148.209 155.808 146.897 155.808C145.329 155.808 144.177 156.768 144.177 158.064C144.177 159.232 144.801 160.016 145.841 160.4L146.881 160.784C147.569 161.04 147.841 161.28 147.841 161.648C147.841 161.968 147.553 162.272 146.945 162.272C146.337 162.272 145.793 161.936 145.489 161.232L143.665 162.08C144.097 163.344 145.185 164.192 146.897 164.192ZM152.114 164H154.53V157.904H156.226V156H154.53V153.424L152.114 153.888V156H150.962V157.904H152.114V164ZM157.541 164H159.973V160C159.973 158.8 160.629 158.224 161.493 158.224C161.925 158.224 162.325 158.336 162.613 158.48L163.077 156C162.789 155.888 162.373 155.808 161.957 155.808C161.077 155.808 160.245 156.208 159.813 157.04L159.605 156H157.541V164ZM167.392 164.192C169.184 164.192 170.496 163.44 171.184 162.128L169.184 161.152C168.864 161.696 168.384 162.096 167.52 162.096C166.56 162.096 165.872 161.552 165.744 160.64H171.392C171.456 160.368 171.488 160.032 171.488 159.744C171.488 157.696 170.144 155.808 167.392 155.808C164.96 155.808 163.312 157.52 163.312 160C163.312 162.496 164.96 164.192 167.392 164.192ZM165.76 158.992C165.856 158.32 166.496 157.728 167.392 157.728C168.272 157.728 168.912 158.304 169.008 158.992H165.76ZM177.087 162.08C175.999 162.08 175.167 161.264 175.167 160C175.167 158.736 175.999 157.92 177.087 157.92C178.159 157.92 178.991 158.736 178.991 160C178.991 161.264 178.159 162.08 177.087 162.08ZM176.479 164.192C177.743 164.192 178.511 163.68 178.863 163.28L179.199 164H181.327V156H179.103L178.863 156.672C178.447 156.224 177.615 155.808 176.575 155.808C174.655 155.808 172.719 157.312 172.719 160C172.719 162.528 174.447 164.192 176.479 164.192ZM183.51 164H185.942V160.16C185.942 158.656 186.614 157.968 187.382 157.968C188.086 157.968 188.454 158.416 188.454 159.344V164H190.886V160.112C190.886 158.608 191.558 157.968 192.326 157.968C193.03 157.968 193.398 158.416 193.398 159.344V164H195.814V158.976C195.814 156.832 194.566 155.808 192.902 155.808C191.686 155.808 190.806 156.4 190.438 157.024C189.99 156.24 189.222 155.808 188.214 155.808C187.078 155.808 186.23 156.4 185.846 157.024L185.558 156H183.51V164ZM197.837 155.008H200.333V152.656H197.837V155.008ZM197.869 164H200.301V156H197.869V164ZM202.463 164H204.895V160.16C204.895 158.656 205.583 157.968 206.367 157.968C207.199 157.968 207.647 158.528 207.647 159.52V164H210.079V158.976C210.079 156.832 208.911 155.808 207.247 155.808C206.127 155.808 205.183 156.384 204.799 157.024L204.511 156H202.463V164ZM215.607 167.392C217.879 167.392 219.639 165.984 219.639 163.824C219.639 162.608 218.951 161.488 218.087 161.04C218.647 160.704 219.063 159.936 219.063 159.216C219.063 158.592 218.807 158.064 218.503 157.728L219.607 157.504V155.808H215.591C213.447 155.808 212.103 157.216 212.103 158.96C212.103 159.808 212.471 160.56 213.095 161.04C212.231 161.6 211.543 162.576 211.543 163.824C211.543 165.984 213.319 167.392 215.607 167.392ZM215.591 160.368C214.871 160.368 214.327 159.792 214.327 159.072C214.327 158.368 214.887 157.744 215.591 157.744C216.327 157.744 216.791 158.368 216.791 159.072C216.791 159.792 216.343 160.368 215.591 160.368ZM215.607 165.344C214.695 165.344 213.911 164.72 213.911 163.776C213.911 162.8 214.711 162.176 215.607 162.176C216.487 162.176 217.271 162.8 217.271 163.776C217.271 164.72 216.503 165.344 215.607 165.344Z" fill="#FD841F"/>
<path d="M66.1798 201.192C67.5398 201.192 68.8837 200.632 69.7798 199.512L70.0838 201H71.2038V195.08H66.4998V196.504H69.6518C69.6038 198.488 68.2118 199.752 66.2438 199.752C64.0038 199.752 62.3718 197.976 62.3718 195.4C62.3718 192.856 63.9878 191.048 66.2918 191.048C68.0198 191.048 69.0118 191.976 69.6198 192.968L70.8838 192.104C70.0678 190.696 68.5158 189.608 66.3398 189.608C62.9798 189.608 60.8358 192.088 60.8358 195.4C60.8358 198.68 62.9318 201.192 66.1798 201.192ZM77.5069 201.192C79.9389 201.192 81.6509 199.336 81.6509 197C81.6509 194.664 79.9389 192.808 77.5069 192.808C75.0749 192.808 73.3789 194.664 73.3789 197C73.3789 199.336 75.0749 201.192 77.5069 201.192ZM77.5069 199.896C75.9869 199.896 74.8349 198.696 74.8349 197C74.8349 195.304 75.9869 194.104 77.5069 194.104C79.0269 194.104 80.1949 195.304 80.1949 197C80.1949 198.696 79.0269 199.896 77.5069 199.896ZM87.9728 201H89.3968V189.56H87.9728V201ZM92.2826 191.368H93.8826V189.8H92.2826V191.368ZM92.3786 201H93.8026V193H92.3786V201ZM98.5613 201H99.9852L103.025 193H101.569L99.2973 199.416L96.9933 193H95.5373L98.5613 201ZM107.925 201.192C109.669 201.192 110.885 200.28 111.493 199.032L110.325 198.456C109.797 199.384 109.045 199.896 107.989 199.896C106.501 199.896 105.493 198.936 105.381 197.464H111.685C111.701 197.272 111.717 197.016 111.717 196.824C111.717 194.584 110.357 192.808 107.925 192.808C105.445 192.808 103.957 194.664 103.957 197C103.957 199.368 105.397 201.192 107.925 201.192ZM105.397 196.296C105.541 194.984 106.549 194.104 107.941 194.104C109.317 194.104 110.197 194.984 110.309 196.296H105.397ZM119.509 201H120.869L122.437 196.648L123.989 201H125.365L128.021 193H126.581L124.661 199.272L122.517 193H121.125L121.829 194.936L120.229 199.272L118.245 193H116.789L119.509 201ZM129.751 191.368H131.351V189.8H129.751V191.368ZM129.847 201H131.271V193H129.847V201ZM134.462 201H135.902V194.296H137.63V193H135.902V190.536L134.462 190.808V193H133.422V194.296H134.462V201ZM139.52 201H140.944V197.208C140.944 195.048 141.984 194.104 143.072 194.104C144.176 194.104 144.976 194.888 144.976 196.312V201H146.416V196.184C146.416 194.136 145.44 192.808 143.376 192.808C142.32 192.808 141.408 193.288 140.944 193.992V189.56H139.52V201ZM153.254 201H154.678V196.824C154.678 195.096 155.494 194.264 156.534 194.264C156.918 194.264 157.35 194.36 157.67 194.536L158.134 193.128C157.846 192.968 157.334 192.808 156.838 192.808C155.798 192.808 155.094 193.288 154.662 194.072L154.454 193H153.254V201ZM162.597 201.192C164.341 201.192 165.557 200.28 166.165 199.032L164.997 198.456C164.469 199.384 163.717 199.896 162.661 199.896C161.173 199.896 160.165 198.936 160.053 197.464H166.357C166.373 197.272 166.389 197.016 166.389 196.824C166.389 194.584 165.029 192.808 162.597 192.808C160.117 192.808 158.629 194.664 158.629 197C158.629 199.368 160.069 201.192 162.597 201.192ZM160.069 196.296C160.213 194.984 161.221 194.104 162.613 194.104C163.989 194.104 164.869 194.984 164.981 196.296H160.069ZM171.989 201.192C173.749 201.192 174.949 200.2 175.541 199.032L174.277 198.456C173.941 199.192 173.157 199.896 171.989 199.896C170.485 199.896 169.429 198.696 169.429 197C169.429 195.304 170.485 194.104 171.941 194.104C173.077 194.104 173.749 194.648 174.197 195.528L175.477 194.952C174.853 193.528 173.573 192.808 171.989 192.808C169.573 192.808 167.973 194.664 167.973 197C167.973 199.336 169.573 201.192 171.989 201.192ZM180.976 201.192C183.408 201.192 185.12 199.336 185.12 197C185.12 194.664 183.408 192.808 180.976 192.808C178.544 192.808 176.848 194.664 176.848 197C176.848 199.336 178.544 201.192 180.976 201.192ZM180.976 199.896C179.456 199.896 178.304 198.696 178.304 197C178.304 195.304 179.456 194.104 180.976 194.104C182.496 194.104 183.664 195.304 183.664 197C183.664 198.696 182.496 199.896 180.976 199.896ZM187.457 201H188.881V196.824C188.881 195.096 189.697 194.264 190.737 194.264C191.121 194.264 191.553 194.36 191.873 194.536L192.337 193.128C192.049 192.968 191.537 192.808 191.041 192.808C190.001 192.808 189.297 193.288 188.865 194.072L188.657 193H187.457V201ZM196.928 199.896C195.344 199.896 194.272 198.616 194.272 197C194.272 195.384 195.344 194.104 196.928 194.104C198.528 194.104 199.584 195.384 199.584 197C199.584 198.616 198.528 199.896 196.928 199.896ZM196.816 201.192C198.064 201.192 199.056 200.488 199.504 199.864L199.696 201H200.896V189.56H199.472V194.024C199.072 193.528 198.192 192.808 196.816 192.808C194.448 192.808 192.832 194.664 192.832 197C192.832 199.336 194.368 201.192 196.816 201.192ZM207.206 201.192C208.95 201.192 210.166 200.28 210.774 199.032L209.606 198.456C209.078 199.384 208.326 199.896 207.27 199.896C205.782 199.896 204.774 198.936 204.662 197.464H210.966C210.982 197.272 210.998 197.016 210.998 196.824C210.998 194.584 209.638 192.808 207.206 192.808C204.726 192.808 203.238 194.664 203.238 197C203.238 199.368 204.678 201.192 207.206 201.192ZM204.678 196.296C204.822 194.984 205.83 194.104 207.222 194.104C208.598 194.104 209.478 194.984 209.59 196.296H204.678ZM216.678 199.896C215.094 199.896 214.022 198.616 214.022 197C214.022 195.384 215.094 194.104 216.678 194.104C218.278 194.104 219.334 195.384 219.334 197C219.334 198.616 218.278 199.896 216.678 199.896ZM216.566 201.192C217.814 201.192 218.806 200.488 219.254 199.864L219.446 201H220.646V189.56H219.222V194.024C218.822 193.528 217.942 192.808 216.566 192.808C214.198 192.808 212.582 194.664 212.582 197C212.582 199.336 214.118 201.192 216.566 201.192ZM49.223 217.192C50.983 217.192 52.183 216.2 52.775 215.032L51.511 214.456C51.175 215.192 50.391 215.896 49.223 215.896C47.719 215.896 46.663 214.696 46.663 213C46.663 211.304 47.719 210.104 49.175 210.104C50.311 210.104 50.983 210.648 51.431 211.528L52.711 210.952C52.087 209.528 50.807 208.808 49.223 208.808C46.807 208.808 45.207 210.664 45.207 213C45.207 215.336 46.807 217.192 49.223 217.192ZM58.21 217.192C60.642 217.192 62.354 215.336 62.354 213C62.354 210.664 60.642 208.808 58.21 208.808C55.778 208.808 54.082 210.664 54.082 213C54.082 215.336 55.778 217.192 58.21 217.192ZM58.21 215.896C56.69 215.896 55.538 214.696 55.538 213C55.538 211.304 56.69 210.104 58.21 210.104C59.73 210.104 60.898 211.304 60.898 213C60.898 214.696 59.73 215.896 58.21 215.896ZM64.6915 217H66.1155V213.208C66.1155 211.032 67.1235 210.104 68.2275 210.104C69.3315 210.104 70.0995 210.888 70.0995 212.312V217H71.5235V212.184C71.5235 210.136 70.5315 208.808 68.5315 208.808C67.3795 208.808 66.5795 209.272 66.0995 209.992L65.8915 209H64.6915V217ZM74.6026 217H76.0426V210.296H77.7706V209H76.0426V206.536L74.6026 206.808V209H73.5626V210.296H74.6026V217ZM82.8 217.192C84.544 217.192 85.76 216.28 86.368 215.032L85.2 214.456C84.672 215.384 83.92 215.896 82.864 215.896C81.376 215.896 80.368 214.936 80.256 213.464H86.56C86.576 213.272 86.592 213.016 86.592 212.824C86.592 210.584 85.232 208.808 82.8 208.808C80.32 208.808 78.832 210.664 78.832 213C78.832 215.368 80.272 217.192 82.8 217.192ZM80.272 212.296C80.416 210.984 81.424 210.104 82.816 210.104C84.192 210.104 85.072 210.984 85.184 212.296H80.272ZM88.8478 217H90.2718V213.208C90.2718 211.032 91.2798 210.104 92.3838 210.104C93.4878 210.104 94.2558 210.888 94.2558 212.312V217H95.6798V212.184C95.6798 210.136 94.6878 208.808 92.6878 208.808C91.5358 208.808 90.7358 209.272 90.2558 209.992L90.0478 209H88.8478V217ZM98.7589 217H100.199V210.296H101.927V209H100.199V206.536L98.7589 206.808V209H97.7189V210.296H98.7589V217ZM111.241 215.896C109.641 215.896 108.585 214.616 108.585 213C108.585 211.384 109.641 210.104 111.241 210.104C112.825 210.104 113.897 211.384 113.897 213C113.897 214.616 112.825 215.896 111.241 215.896ZM111.097 217.192C112.297 217.192 113.337 216.584 113.785 215.928L113.993 217H115.209V209H113.993L113.785 210.008C113.385 209.48 112.473 208.808 111.097 208.808C108.761 208.808 107.129 210.664 107.129 213C107.129 215.336 108.665 217.192 111.097 217.192ZM118.207 217H119.631V213.208C119.631 211.032 120.639 210.104 121.743 210.104C122.847 210.104 123.615 210.888 123.615 212.312V217H125.039V212.184C125.039 210.136 124.047 208.808 122.047 208.808C120.895 208.808 120.095 209.272 119.615 209.992L119.407 209H118.207V217ZM131.334 215.896C129.75 215.896 128.678 214.616 128.678 213C128.678 211.384 129.75 210.104 131.334 210.104C132.934 210.104 133.99 211.384 133.99 213C133.99 214.616 132.934 215.896 131.334 215.896ZM131.222 217.192C132.47 217.192 133.462 216.488 133.91 215.864L134.102 217H135.302V205.56H133.878V210.024C133.478 209.528 132.598 208.808 131.222 208.808C128.854 208.808 127.238 210.664 127.238 213C127.238 215.336 128.774 217.192 131.222 217.192ZM146.381 217.192C148.717 217.192 150.365 215.336 150.365 213C150.365 210.664 148.909 208.808 146.413 208.808C145.229 208.808 144.237 209.464 143.725 210.104V205.56H142.301V217H143.501L143.677 215.912C144.061 216.44 145.005 217.192 146.381 217.192ZM146.253 215.896C144.669 215.896 143.597 214.616 143.597 213C143.597 211.384 144.717 210.104 146.301 210.104C147.901 210.104 148.925 211.384 148.925 213C148.925 214.616 147.821 215.896 146.253 215.896ZM152.707 217H154.131V212.824C154.131 211.096 154.947 210.264 155.987 210.264C156.371 210.264 156.803 210.36 157.123 210.536L157.587 209.128C157.299 208.968 156.787 208.808 156.291 208.808C155.251 208.808 154.547 209.288 154.115 210.072L153.907 209H152.707V217ZM162.21 217.192C164.642 217.192 166.354 215.336 166.354 213C166.354 210.664 164.642 208.808 162.21 208.808C159.778 208.808 158.082 210.664 158.082 213C158.082 215.336 159.778 217.192 162.21 217.192ZM162.21 215.896C160.69 215.896 159.538 214.696 159.538 213C159.538 211.304 160.69 210.104 162.21 210.104C163.73 210.104 164.898 211.304 164.898 213C164.898 214.696 163.73 215.896 162.21 215.896ZM172.288 215.896C170.688 215.896 169.632 214.616 169.632 213C169.632 211.384 170.688 210.104 172.288 210.104C173.872 210.104 174.944 211.384 174.944 213C174.944 214.616 173.872 215.896 172.288 215.896ZM172.144 217.192C173.344 217.192 174.384 216.584 174.832 215.928L175.04 217H176.256V209H175.04L174.832 210.008C174.432 209.48 173.52 208.808 172.144 208.808C169.808 208.808 168.176 210.664 168.176 213C168.176 215.336 169.712 217.192 172.144 217.192ZM182.678 215.896C181.094 215.896 180.022 214.616 180.022 213C180.022 211.384 181.094 210.104 182.678 210.104C184.278 210.104 185.334 211.384 185.334 213C185.334 214.616 184.278 215.896 182.678 215.896ZM182.566 217.192C183.814 217.192 184.806 216.488 185.254 215.864L185.446 217H186.646V205.56H185.222V210.024C184.822 209.528 183.942 208.808 182.566 208.808C180.198 208.808 178.582 210.664 178.582 213C178.582 215.336 180.118 217.192 182.566 217.192ZM193.004 217.192C194.764 217.192 195.964 216.2 196.556 215.032L195.292 214.456C194.956 215.192 194.172 215.896 193.004 215.896C191.5 215.896 190.444 214.696 190.444 213C190.444 211.304 191.5 210.104 192.956 210.104C194.092 210.104 194.764 210.648 195.212 211.528L196.492 210.952C195.868 209.528 194.588 208.808 193.004 208.808C190.588 208.808 188.988 210.664 188.988 213C188.988 215.336 190.588 217.192 193.004 217.192ZM201.975 215.896C200.375 215.896 199.319 214.616 199.319 213C199.319 211.384 200.375 210.104 201.975 210.104C203.559 210.104 204.631 211.384 204.631 213C204.631 214.616 203.559 215.896 201.975 215.896ZM201.831 217.192C203.031 217.192 204.071 216.584 204.519 215.928L204.727 217H205.943V209H204.727L204.519 210.008C204.119 209.48 203.207 208.808 201.831 208.808C199.495 208.808 197.863 210.664 197.863 213C197.863 215.336 199.399 217.192 201.831 217.192ZM210.83 217.192C212.542 217.192 213.63 216.12 213.63 214.728C213.63 213.56 212.926 212.808 211.966 212.408L210.798 211.944C210.334 211.752 209.87 211.512 209.87 210.936C209.87 210.456 210.286 210.072 210.798 210.072C211.326 210.072 211.742 210.376 211.982 210.952L213.118 210.296C212.67 209.368 211.918 208.808 210.798 208.808C209.502 208.808 208.51 209.736 208.51 210.888C208.51 211.864 209.086 212.616 209.918 212.936L210.942 213.352C211.87 213.72 212.27 214.072 212.27 214.744C212.27 215.4 211.726 215.928 210.91 215.928C209.982 215.928 209.39 215.416 209.134 214.568L207.934 215.064C208.382 216.328 209.326 217.192 210.83 217.192ZM215.993 217H217.433V210.296H219.161V209H217.433V206.536L215.993 206.808V209H214.953V210.296H215.993V217ZM224.923 207.368H226.523V205.8H224.923V207.368ZM225.019 217H226.443V209H225.019V217ZM229.426 217H230.85V213.208C230.85 211.032 231.858 210.104 232.962 210.104C234.066 210.104 234.834 210.888 234.834 212.312V217H236.258V212.184C236.258 210.136 235.266 208.808 233.266 208.808C232.114 208.808 231.314 209.272 230.834 209.992L230.626 209H229.426V217ZM106.465 233H107.889V228.824C107.889 227.096 108.705 226.264 109.745 226.264C110.129 226.264 110.561 226.36 110.881 226.536L111.345 225.128C111.057 224.968 110.545 224.808 110.049 224.808C109.009 224.808 108.305 225.288 107.873 226.072L107.665 225H106.465V233ZM115.808 233.192C117.552 233.192 118.768 232.28 119.376 231.032L118.208 230.456C117.68 231.384 116.928 231.896 115.872 231.896C114.384 231.896 113.376 230.936 113.264 229.464H119.568C119.584 229.272 119.6 229.016 119.6 228.824C119.6 226.584 118.24 224.808 115.808 224.808C113.328 224.808 111.84 226.664 111.84 229C111.84 231.368 113.28 233.192 115.808 233.192ZM113.28 228.296C113.424 226.984 114.432 226.104 115.824 226.104C117.2 226.104 118.08 226.984 118.192 228.296H113.28ZM125.296 231.896C123.696 231.896 122.64 230.616 122.64 229C122.64 227.384 123.696 226.104 125.296 226.104C126.88 226.104 127.952 227.384 127.952 229C127.952 230.616 126.88 231.896 125.296 231.896ZM125.152 233.192C126.352 233.192 127.392 232.584 127.84 231.928L128.048 233H129.264V225H128.048L127.84 226.008C127.44 225.48 126.528 224.808 125.152 224.808C122.816 224.808 121.184 226.664 121.184 229C121.184 231.336 122.72 233.192 125.152 233.192ZM132.262 233H133.686V221.56H132.262V233ZM140.876 233H142.316V226.296H144.044V225H142.316V222.536L140.876 222.808V225H139.836V226.296H140.876V233ZM145.822 223.368H147.422V221.8H145.822V223.368ZM145.918 233H147.342V225H145.918V233ZM150.324 233H151.748V229.208C151.748 227.08 152.644 226.104 153.732 226.104C154.708 226.104 155.364 226.728 155.364 228.072V233H156.788V229.208C156.788 227.08 157.7 226.104 158.772 226.104C159.748 226.104 160.404 226.728 160.404 228.072V233H161.844V228.136C161.844 226.088 160.948 224.808 158.964 224.808C157.636 224.808 156.836 225.464 156.436 226.152C156.036 225.304 155.332 224.808 154.068 224.808C152.932 224.808 152.212 225.304 151.732 226.024L151.524 225H150.324V233ZM167.995 233.192C169.739 233.192 170.955 232.28 171.563 231.032L170.395 230.456C169.867 231.384 169.115 231.896 168.059 231.896C166.571 231.896 165.563 230.936 165.451 229.464H171.755C171.771 229.272 171.787 229.016 171.787 228.824C171.787 226.584 170.427 224.808 167.995 224.808C165.515 224.808 164.027 226.664 164.027 229C164.027 231.368 165.467 233.192 167.995 233.192ZM165.467 228.296C165.611 226.984 166.619 226.104 168.011 226.104C169.387 226.104 170.267 226.984 170.379 228.296H165.467ZM173.979 233H175.595V231.448H173.979V233Z" fill="#4D4D4D"/>
<mask id="mask0_1058_61" style="mask-type:luminance" maskUnits="userSpaceOnUse" x="96" y="28" width="90" height="90">
<path d="M184.5 116.5V29.5H97.5V116.5H184.5Z" fill="white" stroke="white" stroke-width="3"/>
</mask>
<g mask="url(#mask0_1058_61)">
<path d="M184.242 84.4258V93.2148C184.242 96.1275 181.881 98.4883 178.969 98.4883H103.031C100.119 98.4883 97.7578 96.1275 97.7578 93.2148V84.4258H184.242Z" stroke="#4D4D4D" stroke-width="3" stroke-miterlimit="10" stroke-linecap="round" stroke-linejoin="round"/>
<path d="M97.7578 84.4258V42.2383C97.7578 39.3256 100.119 36.9648 103.031 36.9648H178.969C181.881 36.9648 184.242 39.3256 184.242 42.2383V84.4258H97.7578Z" stroke="#4D4D4D" stroke-width="3" stroke-miterlimit="10" stroke-linecap="round" stroke-linejoin="round"/>
<path d="M133.024 91.457H148.976" stroke="#4D4D4D" stroke-width="3" stroke-miterlimit="10" stroke-linecap="round" stroke-linejoin="round"/>
<path d="M165.873 109.035H158.842L154.799 98.4883H161.83L165.873 109.035Z" stroke="#4D4D4D" stroke-width="3" stroke-miterlimit="10" stroke-linecap="round" stroke-linejoin="round"/>
<path d="M123.158 109.035H116.127L119.643 98.4883H126.674L123.158 109.035Z" stroke="#4D4D4D" stroke-width="3" stroke-miterlimit="10" stroke-linecap="round" stroke-linejoin="round"/>
<path d="M113.091 60.6953C113.091 62.637 111.517 64.2109 109.575 64.2109C107.634 64.2109 106.06 62.637 106.06 60.6953C106.06 58.7536 107.634 57.1797 109.575 57.1797C111.517 57.1797 113.091 58.7536 113.091 60.6953Z" stroke="#FD841F" stroke-width="3" stroke-miterlimit="10" stroke-linecap="round" stroke-linejoin="round"/>
<path d="M120.122 52.5215V68.8524C120.342 68.89 127.078 68.8524 127.078 68.8524" stroke="#FD841F" stroke-width="3" stroke-miterlimit="10" stroke-linecap="round" stroke-linejoin="round"/>
<path d="M134.14 52.5215V68.8691" stroke="#FD841F" stroke-width="3" stroke-miterlimit="10" stroke-linecap="round" stroke-linejoin="round"/>
<path d="M170.667 52.5215H162.297V68.8691H170.667" stroke="#FD841F" stroke-width="3" stroke-miterlimit="10" stroke-linecap="round" stroke-linejoin="round"/>
<path d="M170.05 60.6953H162.297" stroke="#FD841F" stroke-width="3" stroke-miterlimit="10" stroke-linecap="round" stroke-linejoin="round"/>
<path d="M141.329 52.5449L148.147 68.8691L155.109 52.5215" stroke="#FD841F" stroke-width="3" stroke-miterlimit="10" stroke-linecap="round" stroke-linejoin="round"/>
</g>
</g>
<defs>
<filter id="filter0_d_1058_61" x="0" y="0" width="292.5" height="298" filterUnits="userSpaceOnUse" color-interpolation-filters="sRGB">
<feFlood flood-opacity="0" result="BackgroundImageFix"/>
<feColorMatrix in="SourceAlpha" type="matrix" values="0 0 0 0 0 0 0 0 0 0 0 0 0 0 0 0 0 0 127 0" result="hardAlpha"/>
<feOffset dx="5" dy="10"/>
<feGaussianBlur stdDeviation="7.5"/>
<feComposite in2="hardAlpha" operator="out"/>
<feColorMatrix type="matrix" values="0 0 0 0 0 0 0 0 0 0 0 0 0 0 0 0 0 0 0.25 0"/>
<feBlend mode="normal" in2="BackgroundImageFix" result="effect1_dropShadow_1058_61"/>
<feBlend mode="normal" in="SourceGraphic" in2="effect1_dropShadow_1058_61" result="shape"/>
</filter>
</defs>
</svg>
