<svg width="293" height="298" viewBox="0 0 293 298" fill="none" xmlns="http://www.w3.org/2000/svg">
<g filter="url(#filter0_d_1058_35)">
<rect x="10" y="5" width="262.5" height="268" rx="10" fill="white"/>
<path d="M76.544 164.192C78.96 164.192 80.48 162.608 80.48 160.816C80.48 159.216 79.744 158.192 78.176 157.36C78.048 157.28 76.704 156.576 76.576 156.512C75.952 156.176 75.744 155.888 75.744 155.488C75.744 155.072 76.096 154.816 76.56 154.816C77.072 154.816 77.424 155.152 77.632 155.664L79.728 154.592C79.216 153.344 78.272 152.608 76.56 152.608C74.496 152.608 73.136 153.808 73.136 155.52C73.136 157.136 74.048 158.048 75.072 158.576C75.264 158.688 76.416 159.264 76.64 159.376C77.584 159.856 77.904 160.288 77.904 160.832C77.904 161.504 77.344 161.936 76.544 161.936C75.632 161.936 74.848 161.344 74.544 160.352L72.368 161.248C73.008 163.072 74.256 164.192 76.544 164.192ZM81.9775 155.008H84.4735V152.656H81.9775V155.008ZM82.0095 164H84.4415V156H82.0095V164ZM90.0916 167.392C92.3636 167.392 94.1236 165.984 94.1236 163.824C94.1236 162.608 93.4356 161.488 92.5716 161.04C93.1316 160.704 93.5476 159.936 93.5476 159.216C93.5476 158.592 93.2916 158.064 92.9876 157.728L94.0916 157.504V155.808H90.0756C87.9316 155.808 86.5876 157.216 86.5876 158.96C86.5876 159.808 86.9556 160.56 87.5796 161.04C86.7156 161.6 86.0276 162.576 86.0276 163.824C86.0276 165.984 87.8036 167.392 90.0916 167.392ZM90.0756 160.368C89.3556 160.368 88.8116 159.792 88.8116 159.072C88.8116 158.368 89.3716 157.744 90.0756 157.744C90.8116 157.744 91.2756 158.368 91.2756 159.072C91.2756 159.792 90.8276 160.368 90.0756 160.368ZM90.0916 165.344C89.1796 165.344 88.3956 164.72 88.3956 163.776C88.3956 162.8 89.1956 162.176 90.0916 162.176C90.9716 162.176 91.7556 162.8 91.7556 163.776C91.7556 164.72 90.9876 165.344 90.0916 165.344ZM95.8224 164H98.2544V160.16C98.2544 158.656 98.9264 157.968 99.6944 157.968C100.398 157.968 100.766 158.416 100.766 159.344V164H103.198V160.112C103.198 158.608 103.87 157.968 104.638 157.968C105.342 157.968 105.71 158.416 105.71 159.344V164H108.126V158.976C108.126 156.832 106.878 155.808 105.214 155.808C103.998 155.808 103.118 156.4 102.75 157.024C102.302 156.24 101.534 155.808 100.526 155.808C99.3904 155.808 98.5424 156.4 98.1584 157.024L97.8704 156H95.8224V164ZM114.133 162.08C113.045 162.08 112.213 161.264 112.213 160C112.213 158.736 113.045 157.92 114.133 157.92C115.205 157.92 116.037 158.736 116.037 160C116.037 161.264 115.205 162.08 114.133 162.08ZM113.525 164.192C114.789 164.192 115.557 163.68 115.909 163.28L116.245 164H118.373V156H116.149L115.909 156.672C115.493 156.224 114.661 155.808 113.621 155.808C111.701 155.808 109.765 157.312 109.765 160C109.765 162.528 111.493 164.192 113.525 164.192ZM126.461 164H129.069V155.088H131.997V152.8H123.629V155.088H126.461V164ZM131.979 164H134.411V160C134.411 158.8 135.067 158.224 135.931 158.224C136.363 158.224 136.763 158.336 137.051 158.48L137.515 156C137.227 155.888 136.811 155.808 136.395 155.808C135.515 155.808 134.683 156.208 134.251 157.04L134.043 156H131.979V164ZM142.118 162.08C141.03 162.08 140.198 161.264 140.198 160C140.198 158.736 141.03 157.92 142.118 157.92C143.19 157.92 144.022 158.736 144.022 160C144.022 161.264 143.19 162.08 142.118 162.08ZM141.51 164.192C142.774 164.192 143.542 163.68 143.894 163.28L144.23 164H146.358V156H144.134L143.894 156.672C143.478 156.224 142.646 155.808 141.606 155.808C139.686 155.808 137.75 157.312 137.75 160C137.75 162.528 139.478 164.192 141.51 164.192ZM148.541 164H150.973V160.16C150.973 158.656 151.661 157.968 152.445 157.968C153.277 157.968 153.725 158.528 153.725 159.52V164H156.157V158.976C156.157 156.832 154.989 155.808 153.325 155.808C152.205 155.808 151.261 156.384 150.877 157.024L150.589 156H148.541V164ZM160.709 164.192C162.613 164.192 163.861 163.12 163.861 161.632C163.861 160.224 163.077 159.472 161.845 159.024L160.725 158.608C160.389 158.48 160.213 158.336 160.213 158.064C160.213 157.808 160.437 157.616 160.773 157.616C161.141 157.616 161.429 157.872 161.589 158.256L163.349 157.296C162.885 156.336 162.021 155.808 160.709 155.808C159.141 155.808 157.989 156.768 157.989 158.064C157.989 159.232 158.613 160.016 159.653 160.4L160.693 160.784C161.381 161.04 161.653 161.28 161.653 161.648C161.653 161.968 161.365 162.272 160.757 162.272C160.149 162.272 159.605 161.936 159.301 161.232L157.477 162.08C157.909 163.344 158.997 164.192 160.709 164.192ZM169.286 164.192C171.206 164.192 172.566 163.168 173.11 161.904L170.902 161.008C170.662 161.6 170.134 162.064 169.334 162.064C168.278 162.064 167.542 161.2 167.542 160C167.542 158.784 168.23 157.936 169.286 157.936C170.086 157.936 170.582 158.368 170.838 159.04L173.062 158.128C172.454 156.704 171.142 155.808 169.334 155.808C166.934 155.808 165.094 157.536 165.094 160C165.094 162.464 166.886 164.192 169.286 164.192ZM178.398 164.192C180.814 164.192 182.718 162.48 182.718 160C182.718 157.52 180.814 155.808 178.398 155.808C175.966 155.808 174.078 157.52 174.078 160C174.078 162.48 175.966 164.192 178.398 164.192ZM178.398 162.064C177.31 162.064 176.526 161.2 176.526 160C176.526 158.784 177.31 157.936 178.398 157.936C179.47 157.936 180.27 158.784 180.27 160C180.27 161.2 179.47 162.064 178.398 162.064ZM188.54 162.064C187.452 162.064 186.604 161.248 186.604 160C186.604 158.752 187.452 157.936 188.54 157.936C189.628 157.936 190.46 158.752 190.46 160C190.46 161.248 189.628 162.064 188.54 162.064ZM187.996 164.192C189.132 164.192 190.076 163.632 190.492 163.088L190.764 164H192.796V152.56H190.38V156.72C189.98 156.24 189.18 155.808 188.076 155.808C186.14 155.808 184.172 157.216 184.172 160C184.172 162.624 185.932 164.192 187.996 164.192ZM198.642 164.192C200.434 164.192 201.746 163.44 202.434 162.128L200.434 161.152C200.114 161.696 199.634 162.096 198.77 162.096C197.81 162.096 197.122 161.552 196.994 160.64H202.642C202.706 160.368 202.738 160.032 202.738 159.744C202.738 157.696 201.394 155.808 198.642 155.808C196.21 155.808 194.562 157.52 194.562 160C194.562 162.496 196.21 164.192 198.642 164.192ZM197.01 158.992C197.106 158.32 197.746 157.728 198.642 157.728C199.522 157.728 200.162 158.304 200.258 158.992H197.01ZM204.401 164H206.833V160C206.833 158.8 207.489 158.224 208.353 158.224C208.785 158.224 209.185 158.336 209.473 158.48L209.937 156C209.649 155.888 209.233 155.808 208.817 155.808C207.937 155.808 207.105 156.208 206.673 157.04L206.465 156H204.401V164Z" fill="#FD841F"/>
<path d="M42.8913 201H49.1953V199.576H44.4113V195.912H48.8753V194.472H44.4113V191.224H49.1953V189.8H42.8913V201ZM51.8399 201H53.2639V197.208C53.2639 195.032 54.2719 194.104 55.3759 194.104C56.4799 194.104 57.2479 194.888 57.2479 196.312V201H58.6719V196.184C58.6719 194.136 57.6799 192.808 55.6799 192.808C54.5279 192.808 53.7279 193.272 53.2479 193.992L53.0399 193H51.8399V201ZM64.8871 201.192C66.6471 201.192 67.8471 200.2 68.4391 199.032L67.1751 198.456C66.8391 199.192 66.0551 199.896 64.8871 199.896C63.3831 199.896 62.3271 198.696 62.3271 197C62.3271 195.304 63.3831 194.104 64.8391 194.104C65.9751 194.104 66.6471 194.648 67.0951 195.528L68.3751 194.952C67.7511 193.528 66.4711 192.808 64.8871 192.808C62.4711 192.808 60.8711 194.664 60.8711 197C60.8711 199.336 62.4711 201.192 64.8871 201.192ZM73.8741 201.192C76.3061 201.192 78.0181 199.336 78.0181 197C78.0181 194.664 76.3061 192.808 73.8741 192.808C71.4421 192.808 69.7461 194.664 69.7461 197C69.7461 199.336 71.4421 201.192 73.8741 201.192ZM73.8741 199.896C72.3541 199.896 71.2021 198.696 71.2021 197C71.2021 195.304 72.3541 194.104 73.8741 194.104C75.3941 194.104 76.5621 195.304 76.5621 197C76.5621 198.696 75.3941 199.896 73.8741 199.896ZM83.9358 199.896C82.3518 199.896 81.2798 198.616 81.2798 197C81.2798 195.384 82.3518 194.104 83.9358 194.104C85.5358 194.104 86.5918 195.384 86.5918 197C86.5918 198.616 85.5358 199.896 83.9358 199.896ZM83.8238 201.192C85.0718 201.192 86.0638 200.488 86.5118 199.864L86.7038 201H87.9038V189.56H86.4798V194.024C86.0798 193.528 85.1998 192.808 83.8238 192.808C81.4558 192.808 79.8398 194.664 79.8398 197C79.8398 199.336 81.3758 201.192 83.8238 201.192ZM94.2141 201.192C95.9581 201.192 97.1741 200.28 97.7821 199.032L96.6141 198.456C96.0861 199.384 95.3341 199.896 94.2781 199.896C92.7901 199.896 91.7821 198.936 91.6701 197.464H97.9741C97.9901 197.272 98.0061 197.016 98.0061 196.824C98.0061 194.584 96.6461 192.808 94.2141 192.808C91.7341 192.808 90.2461 194.664 90.2461 197C90.2461 199.368 91.6861 201.192 94.2141 201.192ZM91.6861 196.296C91.8301 194.984 92.8381 194.104 94.2301 194.104C95.6061 194.104 96.4861 194.984 96.5981 196.296H91.6861ZM107.686 199.896C106.086 199.896 105.03 198.616 105.03 197C105.03 195.384 106.086 194.104 107.686 194.104C109.27 194.104 110.342 195.384 110.342 197C110.342 198.616 109.27 199.896 107.686 199.896ZM107.542 201.192C108.742 201.192 109.782 200.584 110.23 199.928L110.438 201H111.654V193H110.438L110.23 194.008C109.83 193.48 108.918 192.808 107.542 192.808C105.206 192.808 103.574 194.664 103.574 197C103.574 199.336 105.11 201.192 107.542 201.192ZM114.652 201H116.076V197.208C116.076 195.032 117.084 194.104 118.188 194.104C119.292 194.104 120.06 194.888 120.06 196.312V201H121.484V196.184C121.484 194.136 120.492 192.808 118.492 192.808C117.34 192.808 116.54 193.272 116.06 193.992L115.852 193H114.652V201ZM127.78 199.896C126.196 199.896 125.124 198.616 125.124 197C125.124 195.384 126.196 194.104 127.78 194.104C129.38 194.104 130.436 195.384 130.436 197C130.436 198.616 129.38 199.896 127.78 199.896ZM127.668 201.192C128.916 201.192 129.908 200.488 130.356 199.864L130.548 201H131.748V189.56H130.324V194.024C129.924 193.528 129.044 192.808 127.668 192.808C125.3 192.808 123.684 194.664 123.684 197C123.684 199.336 125.22 201.192 127.668 201.192ZM142.09 201.192C143.85 201.192 145.05 200.2 145.642 199.032L144.378 198.456C144.042 199.192 143.258 199.896 142.09 199.896C140.586 199.896 139.53 198.696 139.53 197C139.53 195.304 140.586 194.104 142.042 194.104C143.178 194.104 143.85 194.648 144.298 195.528L145.578 194.952C144.954 193.528 143.674 192.808 142.09 192.808C139.674 192.808 138.074 194.664 138.074 197C138.074 199.336 139.674 201.192 142.09 201.192ZM151.077 201.192C153.509 201.192 155.221 199.336 155.221 197C155.221 194.664 153.509 192.808 151.077 192.808C148.645 192.808 146.949 194.664 146.949 197C146.949 199.336 148.645 201.192 151.077 201.192ZM151.077 199.896C149.557 199.896 148.405 198.696 148.405 197C148.405 195.304 149.557 194.104 151.077 194.104C152.597 194.104 153.765 195.304 153.765 197C153.765 198.696 152.597 199.896 151.077 199.896ZM157.559 201H158.983V197.208C158.983 195.032 159.991 194.104 161.095 194.104C162.199 194.104 162.967 194.888 162.967 196.312V201H164.391V196.184C164.391 194.136 163.399 192.808 161.399 192.808C160.247 192.808 159.447 193.272 158.967 193.992L158.759 193H157.559V201ZM169.038 201H170.462L173.502 193H172.046L169.774 199.416L167.47 193H166.014L169.038 201ZM178.402 201.192C180.146 201.192 181.362 200.28 181.97 199.032L180.802 198.456C180.274 199.384 179.522 199.896 178.466 199.896C176.978 199.896 175.97 198.936 175.858 197.464H182.162C182.178 197.272 182.194 197.016 182.194 196.824C182.194 194.584 180.834 192.808 178.402 192.808C175.922 192.808 174.434 194.664 174.434 197C174.434 199.368 175.874 201.192 178.402 201.192ZM175.874 196.296C176.018 194.984 177.026 194.104 178.418 194.104C179.794 194.104 180.674 194.984 180.786 196.296H175.874ZM184.449 201H185.873V196.824C185.873 195.096 186.689 194.264 187.729 194.264C188.113 194.264 188.545 194.36 188.865 194.536L189.329 193.128C189.041 192.968 188.529 192.808 188.033 192.808C186.993 192.808 186.289 193.288 185.857 194.072L185.649 193H184.449V201ZM191.189 201H192.629V194.296H194.357V193H192.629V190.536L191.189 190.808V193H190.149V194.296H191.189V201ZM202.007 201H203.431L206.471 193H205.015L202.743 199.416L200.439 193H198.983L202.007 201ZM208.119 191.368H209.719V189.8H208.119V191.368ZM208.215 201H209.639V193H208.215V201ZM216.045 199.896C214.461 199.896 213.389 198.616 213.389 197C213.389 195.384 214.461 194.104 216.045 194.104C217.645 194.104 218.701 195.384 218.701 197C218.701 198.616 217.645 199.896 216.045 199.896ZM215.933 201.192C217.181 201.192 218.173 200.488 218.621 199.864L218.813 201H220.013V189.56H218.589V194.024C218.189 193.528 217.309 192.808 215.933 192.808C213.565 192.808 211.949 194.664 211.949 197C211.949 199.336 213.485 201.192 215.933 201.192ZM226.323 201.192C228.067 201.192 229.283 200.28 229.891 199.032L228.723 198.456C228.195 199.384 227.443 199.896 226.387 199.896C224.899 199.896 223.891 198.936 223.779 197.464H230.083C230.099 197.272 230.115 197.016 230.115 196.824C230.115 194.584 228.755 192.808 226.323 192.808C223.843 192.808 222.355 194.664 222.355 197C222.355 199.368 223.795 201.192 226.323 201.192ZM223.795 196.296C223.939 194.984 224.947 194.104 226.339 194.104C227.715 194.104 228.595 194.984 228.707 196.296H223.795ZM235.827 201.192C238.259 201.192 239.971 199.336 239.971 197C239.971 194.664 238.259 192.808 235.827 192.808C233.395 192.808 231.699 194.664 231.699 197C231.699 199.336 233.395 201.192 235.827 201.192ZM235.827 199.896C234.307 199.896 233.155 198.696 233.155 197C233.155 195.304 234.307 194.104 235.827 194.104C237.347 194.104 238.515 195.304 238.515 197C238.515 198.696 237.347 199.896 235.827 199.896ZM46.1736 207.368H47.7736V205.8H46.1736V207.368ZM40.8776 217H42.3176V210.296H44.3016V209H42.3176V208.232C42.3176 207.432 42.7496 206.936 43.4696 206.936C43.7576 206.936 44.0616 207.032 44.3496 207.176V205.784C44.0776 205.672 43.7576 205.608 43.3576 205.608C41.7736 205.608 40.8776 206.504 40.8776 208.376V209H39.7576V210.296H40.8776V217ZM46.2696 217H47.6936V209H46.2696V217ZM50.6681 217H52.0921V205.56H50.6681V217ZM58.3859 217.192C60.1299 217.192 61.3459 216.28 61.9539 215.032L60.7859 214.456C60.2579 215.384 59.5059 215.896 58.4499 215.896C56.9619 215.896 55.9539 214.936 55.8419 213.464H62.1459C62.1619 213.272 62.1779 213.016 62.1779 212.824C62.1779 210.584 60.8179 208.808 58.3859 208.808C55.9059 208.808 54.4179 210.664 54.4179 213C54.4179 215.368 55.8579 217.192 58.3859 217.192ZM55.8579 212.296C56.0019 210.984 57.0099 210.104 58.4019 210.104C59.7779 210.104 60.6579 210.984 60.7699 212.296H55.8579ZM66.3217 217.192C68.0337 217.192 69.1217 216.12 69.1217 214.728C69.1217 213.56 68.4177 212.808 67.4577 212.408L66.2897 211.944C65.8257 211.752 65.3617 211.512 65.3617 210.936C65.3617 210.456 65.7777 210.072 66.2897 210.072C66.8177 210.072 67.2337 210.376 67.4737 210.952L68.6097 210.296C68.1617 209.368 67.4097 208.808 66.2897 208.808C64.9937 208.808 64.0017 209.736 64.0017 210.888C64.0017 211.864 64.5777 212.616 65.4097 212.936L66.4337 213.352C67.3617 213.72 67.7617 214.072 67.7617 214.744C67.7617 215.4 67.2177 215.928 66.4017 215.928C65.4737 215.928 64.8817 215.416 64.6257 214.568L63.4257 215.064C63.8737 216.328 64.8177 217.192 66.3217 217.192ZM75.4698 217H76.9098V210.296H78.6378V209H76.9098V206.536L75.4698 206.808V209H74.4298V210.296H75.4698V217ZM83.8272 217.192C86.2592 217.192 87.9712 215.336 87.9712 213C87.9712 210.664 86.2592 208.808 83.8272 208.808C81.3952 208.808 79.6992 210.664 79.6992 213C79.6992 215.336 81.3952 217.192 83.8272 217.192ZM83.8272 215.896C82.3072 215.896 81.1552 214.696 81.1552 213C81.1552 211.304 82.3072 210.104 83.8272 210.104C85.3472 210.104 86.5152 211.304 86.5152 213C86.5152 214.696 85.3472 215.896 83.8272 215.896ZM94.2931 217H95.7171V213.208C95.7171 211.08 96.6131 210.104 97.7011 210.104C98.6771 210.104 99.3331 210.728 99.3331 212.072V217H100.757V213.208C100.757 211.08 101.669 210.104 102.741 210.104C103.717 210.104 104.373 210.728 104.373 212.072V217H105.813V212.136C105.813 210.088 104.917 208.808 102.933 208.808C101.605 208.808 100.805 209.464 100.405 210.152C100.005 209.304 99.3011 208.808 98.0371 208.808C96.9011 208.808 96.1811 209.304 95.7011 210.024L95.4931 209H94.2931V217ZM112.108 215.896C110.508 215.896 109.452 214.616 109.452 213C109.452 211.384 110.508 210.104 112.108 210.104C113.692 210.104 114.764 211.384 114.764 213C114.764 214.616 113.692 215.896 112.108 215.896ZM111.964 217.192C113.164 217.192 114.204 216.584 114.652 215.928L114.86 217H116.076V209H114.86L114.652 210.008C114.252 209.48 113.34 208.808 111.964 208.808C109.628 208.808 107.996 210.664 107.996 213C107.996 215.336 109.532 217.192 111.964 217.192ZM119.074 217H120.498V213.208C120.498 211.032 121.506 210.104 122.61 210.104C123.714 210.104 124.482 210.888 124.482 212.312V217H125.906V212.184C125.906 210.136 124.914 208.808 122.914 208.808C121.762 208.808 120.962 209.272 120.482 209.992L120.274 209H119.074V217ZM130.953 220.2L135.001 209H133.513L131.385 215.08L129.065 209H127.545L130.649 216.904L129.481 220.2H130.953ZM144.233 217.192C146.665 217.192 148.377 215.336 148.377 213C148.377 210.664 146.665 208.808 144.233 208.808C141.801 208.808 140.105 210.664 140.105 213C140.105 215.336 141.801 217.192 144.233 217.192ZM144.233 215.896C142.713 215.896 141.561 214.696 141.561 213C141.561 211.304 142.713 210.104 144.233 210.104C145.753 210.104 146.921 211.304 146.921 213C146.921 214.696 145.753 215.896 144.233 215.896ZM150.767 217H152.207V210.296H153.935V209H152.207V206.536L150.767 206.808V209H149.727V210.296H150.767V217ZM155.824 217H157.248V213.208C157.248 211.048 158.288 210.104 159.376 210.104C160.48 210.104 161.28 210.888 161.28 212.312V217H162.72V212.184C162.72 210.136 161.744 208.808 159.68 208.808C158.624 208.808 157.712 209.288 157.248 209.992V205.56H155.824V217ZM168.87 217.192C170.614 217.192 171.83 216.28 172.438 215.032L171.27 214.456C170.742 215.384 169.99 215.896 168.934 215.896C167.446 215.896 166.438 214.936 166.326 213.464H172.63C172.646 213.272 172.662 213.016 172.662 212.824C172.662 210.584 171.302 208.808 168.87 208.808C166.39 208.808 164.902 210.664 164.902 213C164.902 215.368 166.342 217.192 168.87 217.192ZM166.342 212.296C166.486 210.984 167.494 210.104 168.886 210.104C170.262 210.104 171.142 210.984 171.254 212.296H166.342ZM174.918 217H176.342V212.824C176.342 211.096 177.158 210.264 178.198 210.264C178.582 210.264 179.014 210.36 179.334 210.536L179.798 209.128C179.51 208.968 178.998 208.808 178.502 208.808C177.462 208.808 176.758 209.288 176.326 210.072L176.118 209H174.918V217ZM185.862 217H187.302V210.296H189.286V209H187.302V208.232C187.302 207.432 187.734 206.936 188.454 206.936C188.742 206.936 189.046 207.032 189.334 207.176V205.784C189.062 205.672 188.742 205.608 188.342 205.608C186.758 205.608 185.862 206.504 185.862 208.376V209H184.742V210.296H185.862V217ZM194.343 217.192C196.775 217.192 198.487 215.336 198.487 213C198.487 210.664 196.775 208.808 194.343 208.808C191.911 208.808 190.215 210.664 190.215 213C190.215 215.336 191.911 217.192 194.343 217.192ZM194.343 215.896C192.823 215.896 191.671 214.696 191.671 213C191.671 211.304 192.823 210.104 194.343 210.104C195.863 210.104 197.031 211.304 197.031 213C197.031 214.696 195.863 215.896 194.343 215.896ZM200.824 217H202.248V212.824C202.248 211.096 203.064 210.264 204.104 210.264C204.488 210.264 204.92 210.36 205.24 210.536L205.704 209.128C205.416 208.968 204.904 208.808 204.408 208.808C203.368 208.808 202.664 209.288 202.232 210.072L202.024 209H200.824V217ZM207.512 217H208.936V213.208C208.936 211.08 209.832 210.104 210.92 210.104C211.896 210.104 212.552 210.728 212.552 212.072V217H213.976V213.208C213.976 211.08 214.888 210.104 215.96 210.104C216.936 210.104 217.592 210.728 217.592 212.072V217H219.032V212.136C219.032 210.088 218.136 208.808 216.152 208.808C214.824 208.808 214.024 209.464 213.624 210.152C213.224 209.304 212.52 208.808 211.256 208.808C210.12 208.808 209.4 209.304 208.92 210.024L208.712 209H207.512V217ZM225.327 215.896C223.727 215.896 222.671 214.616 222.671 213C222.671 211.384 223.727 210.104 225.327 210.104C226.911 210.104 227.983 211.384 227.983 213C227.983 214.616 226.911 215.896 225.327 215.896ZM225.183 217.192C226.383 217.192 227.423 216.584 227.871 215.928L228.079 217H229.295V209H228.079L227.871 210.008C227.471 209.48 226.559 208.808 225.183 208.808C222.847 208.808 221.215 210.664 221.215 213C221.215 215.336 222.751 217.192 225.183 217.192ZM232.501 217H233.941V210.296H235.669V209H233.941V206.536L232.501 206.808V209H231.461V210.296H232.501V217ZM239.447 217.192C241.159 217.192 242.247 216.12 242.247 214.728C242.247 213.56 241.543 212.808 240.583 212.408L239.415 211.944C238.951 211.752 238.487 211.512 238.487 210.936C238.487 210.456 238.903 210.072 239.415 210.072C239.943 210.072 240.359 210.376 240.599 210.952L241.735 210.296C241.287 209.368 240.535 208.808 239.415 208.808C238.119 208.808 237.127 209.736 237.127 210.888C237.127 211.864 237.703 212.616 238.535 212.936L239.559 213.352C240.487 213.72 240.887 214.072 240.887 214.744C240.887 215.4 240.343 215.928 239.527 215.928C238.599 215.928 238.007 215.416 237.751 214.568L236.551 215.064C236.999 216.328 237.943 217.192 239.447 217.192Z" fill="#4D4D4D"/>
<path d="M180.375 36.4062H118.5C116.174 36.4062 114.281 38.2991 114.281 40.625V61.7188H104.438C100.56 61.7188 97.4062 64.873 97.4062 68.75V102.5C97.4062 106.377 100.56 109.531 104.438 109.531H117.954L116.08 115.156H111.469C109.143 115.156 107.25 117.049 107.25 119.375V123.594H149.438V119.375C149.438 117.049 147.545 115.156 145.219 115.156H140.608L138.733 109.531H152.25C156.127 109.531 159.281 106.377 159.281 102.5V101.094H180.375C182.701 101.094 184.594 99.2009 184.594 96.875V40.625C184.594 38.2991 182.701 36.4062 180.375 36.4062ZM118.5 39.2188H180.375C181.15 39.2188 181.781 39.8502 181.781 40.625V47.6562H117.094V40.625C117.094 39.8502 117.725 39.2188 118.5 39.2188ZM104.438 64.5312H152.25C154.576 64.5312 156.469 66.4241 156.469 68.75V95.4688H100.219V68.75C100.219 66.4241 102.112 64.5312 104.438 64.5312ZM159.281 72.9688H176.156V92.6562H159.281V72.9688ZM146.625 119.375V120.781H110.062V119.375C110.062 118.6 110.694 117.969 111.469 117.969H145.219C145.994 117.969 146.625 118.6 146.625 119.375ZM137.642 115.156H119.046L120.92 109.531H135.767L137.642 115.156ZM152.25 106.719H104.438C102.112 106.719 100.219 104.826 100.219 102.5V98.2812H156.469V102.5C156.469 104.826 154.576 106.719 152.25 106.719ZM180.375 98.2812H159.281V95.4688H178.969V70.1562H159.281V68.75C159.281 64.873 156.127 61.7188 152.25 61.7188H117.094V50.4688H181.781V96.875C181.781 97.6498 181.15 98.2812 180.375 98.2812Z" fill="#4D4D4D"/>
<path d="M121.312 101.094H124.125V103.906H121.312V101.094Z" fill="#4D4D4D"/>
<path d="M126.938 101.094H129.75V103.906H126.938V101.094Z" fill="#4D4D4D"/>
<path d="M132.562 101.094H135.375V103.906H132.562V101.094Z" fill="#4D4D4D"/>
<path d="M125.531 42.0312H128.344V44.8438H125.531V42.0312Z" fill="#4D4D4D"/>
<path d="M131.156 42.0312H133.969V44.8438H131.156V42.0312Z" fill="#4D4D4D"/>
<path d="M119.906 42.0312H122.719V44.8438H119.906V42.0312Z" fill="#4D4D4D"/>
<path d="M119.906 53.2812H122.719V56.0938H119.906V53.2812Z" fill="#4D4D4D"/>
<path d="M125.531 53.2812H178.969V56.0938H125.531V53.2812Z" fill="#FD841F"/>
<path d="M162.094 58.9062H178.969V61.7188H162.094V58.9062Z" fill="#4D4D4D"/>
<path d="M162.094 64.5312H178.969V67.3438H162.094V64.5312Z" fill="#4D4D4D"/>
<path d="M107.25 92.6562H135.375C137.701 92.6562 139.594 90.7634 139.594 88.4375V71.5625C139.594 69.2366 137.701 67.3438 135.375 67.3438H107.25C104.924 67.3438 103.031 69.2366 103.031 71.5625V88.4375C103.031 90.7634 104.924 92.6562 107.25 92.6562ZM105.844 71.5625C105.844 70.7877 106.475 70.1562 107.25 70.1562H135.375C136.15 70.1562 136.781 70.7877 136.781 71.5625V88.4375C136.781 89.2123 136.15 89.8438 135.375 89.8438H107.25C106.475 89.8438 105.844 89.2123 105.844 88.4375V71.5625Z" fill="#4D4D4D"/>
<path d="M117.174 87.9698L122.795 71.0894L125.464 71.9781L119.843 88.8586L117.174 87.9698Z" fill="#FD841F"/>
<path d="M127.932 86.6192L134.551 80L127.932 73.3807L125.943 75.3692L130.574 80L125.943 84.6307L127.932 86.6192Z" fill="#FD841F"/>
<path d="M116.682 84.6307L112.051 80L116.682 75.3692L114.693 73.3807L108.074 80L114.693 86.6192L116.682 84.6307Z" fill="#FD841F"/>
<path d="M142.406 67.3438H153.656V70.1562H142.406V67.3438Z" fill="#4D4D4D"/>
<path d="M142.406 72.9688H153.656V75.7812H142.406V72.9688Z" fill="#4D4D4D"/>
<path d="M142.406 78.5938H153.656V81.4062H142.406V78.5938Z" fill="#4D4D4D"/>
<path d="M142.406 84.2188H153.656V87.0312H142.406V84.2188Z" fill="#4D4D4D"/>
<path d="M145.219 89.8438H148.031V92.6562H145.219V89.8438Z" fill="#4D4D4D"/>
<path d="M150.844 89.8438H153.656V92.6562H150.844V89.8438Z" fill="#4D4D4D"/>
</g>
<defs>
<filter id="filter0_d_1058_35" x="0" y="0" width="292.5" height="298" filterUnits="userSpaceOnUse" color-interpolation-filters="sRGB">
<feFlood flood-opacity="0" result="BackgroundImageFix"/>
<feColorMatrix in="SourceAlpha" type="matrix" values="0 0 0 0 0 0 0 0 0 0 0 0 0 0 0 0 0 0 127 0" result="hardAlpha"/>
<feOffset dx="5" dy="10"/>
<feGaussianBlur stdDeviation="7.5"/>
<feComposite in2="hardAlpha" operator="out"/>
<feColorMatrix type="matrix" values="0 0 0 0 0 0 0 0 0 0 0 0 0 0 0 0 0 0 0.25 0"/>
<feBlend mode="normal" in2="BackgroundImageFix" result="effect1_dropShadow_1058_35"/>
<feBlend mode="normal" in="SourceGraphic" in2="effect1_dropShadow_1058_35" result="shape"/>
</filter>
</defs>
</svg>
