<svg width="293" height="298" viewBox="0 0 293 298" fill="none" xmlns="http://www.w3.org/2000/svg">
<g filter="url(#filter0_d_1058_136)">
<rect x="10" y="5" width="262.5" height="268" rx="10" fill="white"/>
<path d="M80.544 164.192C82.96 164.192 84.48 162.608 84.48 160.816C84.48 159.216 83.744 158.192 82.176 157.36C82.048 157.28 80.704 156.576 80.576 156.512C79.952 156.176 79.744 155.888 79.744 155.488C79.744 155.072 80.096 154.816 80.56 154.816C81.072 154.816 81.424 155.152 81.632 155.664L83.728 154.592C83.216 153.344 82.272 152.608 80.56 152.608C78.496 152.608 77.136 153.808 77.136 155.52C77.136 157.136 78.048 158.048 79.072 158.576C79.264 158.688 80.416 159.264 80.64 159.376C81.584 159.856 81.904 160.288 81.904 160.832C81.904 161.504 81.344 161.936 80.544 161.936C79.632 161.936 78.848 161.344 78.544 160.352L76.368 161.248C77.008 163.072 78.256 164.192 80.544 164.192ZM85.9775 155.008H88.4735V152.656H85.9775V155.008ZM86.0095 164H88.4415V156H86.0095V164ZM94.0916 167.392C96.3636 167.392 98.1236 165.984 98.1236 163.824C98.1236 162.608 97.4356 161.488 96.5716 161.04C97.1316 160.704 97.5476 159.936 97.5476 159.216C97.5476 158.592 97.2916 158.064 96.9876 157.728L98.0916 157.504V155.808H94.0756C91.9316 155.808 90.5876 157.216 90.5876 158.96C90.5876 159.808 90.9556 160.56 91.5796 161.04C90.7156 161.6 90.0276 162.576 90.0276 163.824C90.0276 165.984 91.8036 167.392 94.0916 167.392ZM94.0756 160.368C93.3556 160.368 92.8116 159.792 92.8116 159.072C92.8116 158.368 93.3716 157.744 94.0756 157.744C94.8116 157.744 95.2756 158.368 95.2756 159.072C95.2756 159.792 94.8276 160.368 94.0756 160.368ZM94.0916 165.344C93.1796 165.344 92.3956 164.72 92.3956 163.776C92.3956 162.8 93.1956 162.176 94.0916 162.176C94.9716 162.176 95.7556 162.8 95.7556 163.776C95.7556 164.72 94.9876 165.344 94.0916 165.344ZM99.8224 164H102.254V160.16C102.254 158.656 102.926 157.968 103.694 157.968C104.398 157.968 104.766 158.416 104.766 159.344V164H107.198V160.112C107.198 158.608 107.87 157.968 108.638 157.968C109.342 157.968 109.71 158.416 109.71 159.344V164H112.126V158.976C112.126 156.832 110.878 155.808 109.214 155.808C107.998 155.808 107.118 156.4 106.75 157.024C106.302 156.24 105.534 155.808 104.526 155.808C103.39 155.808 102.542 156.4 102.158 157.024L101.87 156H99.8224V164ZM118.133 162.08C117.045 162.08 116.213 161.264 116.213 160C116.213 158.736 117.045 157.92 118.133 157.92C119.205 157.92 120.037 158.736 120.037 160C120.037 161.264 119.205 162.08 118.133 162.08ZM117.525 164.192C118.789 164.192 119.557 163.68 119.909 163.28L120.245 164H122.373V156H120.149L119.909 156.672C119.493 156.224 118.661 155.808 117.621 155.808C115.701 155.808 113.765 157.312 113.765 160C113.765 162.528 115.493 164.192 117.525 164.192ZM128.653 164H131.133V157.408L133.405 164H135.677L137.949 157.408V164H140.429V152.8H137.197L134.541 160.544L132.077 152.8H128.653V164ZM145.45 164.192C146.586 164.192 147.546 163.616 147.946 162.976L148.218 164H150.266V156H147.834V159.904C147.834 161.344 147.162 162.032 146.33 162.032C145.514 162.032 145.018 161.52 145.018 160.528V156H142.586V160.96C142.586 163.136 143.754 164.192 145.45 164.192ZM152.447 164H154.879V152.56H152.447V164ZM157.489 164H159.905V157.904H161.601V156H159.905V153.424L157.489 153.888V156H156.337V157.904H157.489V164ZM162.868 155.008H165.364V152.656H162.868V155.008ZM162.9 164H165.332V156H162.9V164ZM176.599 164.192C179.143 164.192 180.887 163.04 181.703 161.328L179.431 160.288C178.951 161.232 178.023 161.872 176.775 161.872C175.191 161.872 173.735 160.624 173.735 158.4C173.735 156.272 175.111 154.928 176.695 154.928C178.055 154.928 178.839 155.568 179.319 156.576L181.543 155.312C180.695 153.584 179.031 152.608 176.775 152.608C173.319 152.608 171.111 155.072 171.111 158.4C171.111 161.696 173.335 164.192 176.599 164.192ZM183.184 164H186.928C190.544 164 192.736 161.632 192.736 158.4C192.736 155.184 190.656 152.8 186.928 152.8H183.184V164ZM185.808 161.712V155.088H186.992C188.816 155.088 190.096 156.176 190.096 158.4C190.096 160.624 188.816 161.712 186.992 161.712H185.808ZM194.653 164H197.229V157.232L201.149 164H203.997V152.8H201.421V159.776L197.517 152.8H194.653V164Z" fill="#FD841F"/>
<path d="M54.3885 201.192C57.6365 201.192 59.9565 198.616 59.9565 195.4C59.9565 192.168 57.7325 189.608 54.3885 189.608C51.0445 189.608 48.8045 192.168 48.8045 195.4C48.8045 198.616 51.1245 201.192 54.3885 201.192ZM54.3885 199.768C52.0205 199.768 50.3405 197.944 50.3405 195.4C50.3405 192.856 52.0525 191.032 54.3885 191.032C56.7085 191.032 58.4205 192.856 58.4205 195.4C58.4205 197.944 56.7405 199.768 54.3885 199.768ZM66.4091 199.896C64.8251 199.896 63.7531 198.616 63.7531 197C63.7531 195.384 64.8411 194.104 66.4251 194.104C67.9931 194.104 69.0811 195.384 69.0811 197C69.0811 198.616 68.0091 199.896 66.4091 199.896ZM62.4571 204.2H63.8811V199.96C64.2651 200.488 65.1611 201.192 66.5371 201.192C68.9051 201.192 70.5211 199.336 70.5211 197C70.5211 194.664 69.0331 192.808 66.6011 192.808C65.4011 192.808 64.3451 193.448 63.8331 194.136L63.6571 193H62.4571V204.2ZM72.9151 201H74.3551V194.296H76.0831V193H74.3551V190.536L72.9151 190.808V193H71.8751V194.296H72.9151V201ZM77.8608 191.368H79.4608V189.8H77.8608V191.368ZM77.9568 201H79.3808V193H77.9568V201ZM82.3634 201H83.7874V197.208C83.7874 195.08 84.6834 194.104 85.7714 194.104C86.7474 194.104 87.4034 194.728 87.4034 196.072V201H88.8274V197.208C88.8274 195.08 89.7394 194.104 90.8114 194.104C91.7874 194.104 92.4434 194.728 92.4434 196.072V201H93.8834V196.136C93.8834 194.088 92.9874 192.808 91.0034 192.808C89.6754 192.808 88.8754 193.464 88.4754 194.152C88.0754 193.304 87.3714 192.808 86.1074 192.808C84.9714 192.808 84.2514 193.304 83.7714 194.024L83.5634 193H82.3634V201ZM96.6264 191.368H98.2264V189.8H96.6264V191.368ZM96.7224 201H98.1464V193H96.7224V201ZM100.153 201H106.361V199.704H101.961L106.249 194.136V193H100.473V194.296H104.425L100.153 199.864V201ZM108.361 191.368H109.961V189.8H108.361V191.368ZM108.457 201H109.881V193H108.457V201ZM112.863 201H114.287V197.208C114.287 195.032 115.295 194.104 116.399 194.104C117.503 194.104 118.271 194.888 118.271 196.312V201H119.695V196.184C119.695 194.136 118.703 192.808 116.703 192.808C115.551 192.808 114.751 193.272 114.271 193.992L114.063 193H112.863V201ZM125.575 204.392C127.607 204.392 129.239 203.016 129.239 201.048C129.239 199.624 128.375 198.552 127.447 198.12C128.039 197.768 128.727 196.888 128.727 195.864C128.727 194.952 128.311 194.36 127.927 193.992L129.223 193.768V192.808H125.575C123.847 192.808 122.343 194.056 122.343 195.816C122.343 196.952 123.047 197.752 123.639 198.152C122.727 198.584 121.831 199.704 121.831 201.048C121.831 203.016 123.543 204.392 125.575 204.392ZM125.575 197.608C124.487 197.608 123.703 196.792 123.703 195.848C123.703 194.872 124.503 194.072 125.575 194.072C126.711 194.072 127.367 194.872 127.367 195.848C127.367 196.792 126.727 197.608 125.575 197.608ZM125.575 203.128C124.311 203.128 123.239 202.232 123.239 201C123.239 199.768 124.343 198.84 125.575 198.84C126.887 198.84 127.879 199.768 127.879 201C127.879 202.232 126.903 203.128 125.575 203.128ZM140.573 201.192C142.829 201.192 144.381 200.152 145.261 198.536L143.933 197.848C143.341 198.952 142.221 199.752 140.573 199.752C138.253 199.752 136.637 197.944 136.637 195.4C136.637 192.856 138.285 191.048 140.525 191.048C142.253 191.048 143.277 191.816 143.837 192.984L145.165 192.296C144.429 190.696 142.781 189.608 140.573 189.608C137.261 189.608 135.101 192.136 135.101 195.4C135.101 198.648 137.229 201.192 140.573 201.192ZM147.634 201H150.514C154.114 201 156.418 198.664 156.418 195.4C156.418 192.168 154.274 189.8 150.514 189.8H147.634V201ZM149.154 199.576V191.224H150.658C153.234 191.224 154.882 192.824 154.882 195.4C154.882 197.976 153.218 199.576 150.658 199.576H149.154ZM159.102 201H160.606V192.296L165.87 201H167.486V189.8H165.982V198.52L160.75 189.8H159.102V201ZM174.676 201H176.1V197.208C176.1 195.032 177.108 194.104 178.212 194.104C179.316 194.104 180.084 194.888 180.084 196.312V201H181.508V196.184C181.508 194.136 180.516 192.808 178.516 192.808C177.364 192.808 176.564 193.272 176.084 193.992L175.876 193H174.676V201ZM187.675 201.192C189.419 201.192 190.635 200.28 191.243 199.032L190.075 198.456C189.547 199.384 188.795 199.896 187.739 199.896C186.251 199.896 185.243 198.936 185.131 197.464H191.435C191.451 197.272 191.467 197.016 191.467 196.824C191.467 194.584 190.107 192.808 187.675 192.808C185.195 192.808 183.707 194.664 183.707 197C183.707 199.368 185.147 201.192 187.675 201.192ZM185.147 196.296C185.291 194.984 186.299 194.104 187.691 194.104C189.067 194.104 189.947 194.984 190.059 196.296H185.147ZM193.931 201H195.371V194.296H197.099V193H195.371V190.536L193.931 190.808V193H192.891V194.296H193.931V201ZM200.54 201H201.9L203.468 196.648L205.02 201H206.396L209.052 193H207.612L205.692 199.272L203.548 193H202.156L202.86 194.936L201.26 199.272L199.276 193H197.82L200.54 201ZM214.163 201.192C216.595 201.192 218.307 199.336 218.307 197C218.307 194.664 216.595 192.808 214.163 192.808C211.731 192.808 210.035 194.664 210.035 197C210.035 199.336 211.731 201.192 214.163 201.192ZM214.163 199.896C212.643 199.896 211.491 198.696 211.491 197C211.491 195.304 212.643 194.104 214.163 194.104C215.683 194.104 216.851 195.304 216.851 197C216.851 198.696 215.683 199.896 214.163 199.896ZM220.645 201H222.069V196.824C222.069 195.096 222.885 194.264 223.925 194.264C224.309 194.264 224.741 194.36 225.061 194.536L225.525 193.128C225.237 192.968 224.725 192.808 224.229 192.808C223.189 192.808 222.485 193.288 222.053 194.072L221.845 193H220.645V201ZM227.332 201H228.756V197.24L232.068 201H233.876L229.988 196.632L233.508 193H231.684L228.756 196.088V189.56H227.332V201ZM122.594 217.192C123.746 217.192 124.594 216.696 125.042 216.008L125.266 217H126.466V209H125.042V213.096C125.042 214.92 124.13 215.896 122.898 215.896C121.794 215.896 120.978 215.16 120.978 213.736V209H119.554V213.752C119.554 215.832 120.498 217.192 122.594 217.192ZM131.369 217.192C133.081 217.192 134.169 216.12 134.169 214.728C134.169 213.56 133.465 212.808 132.505 212.408L131.337 211.944C130.873 211.752 130.409 211.512 130.409 210.936C130.409 210.456 130.825 210.072 131.337 210.072C131.865 210.072 132.281 210.376 132.521 210.952L133.657 210.296C133.209 209.368 132.457 208.808 131.337 208.808C130.041 208.808 129.049 209.736 129.049 210.888C129.049 211.864 129.625 212.616 130.457 212.936L131.481 213.352C132.409 213.72 132.809 214.072 132.809 214.744C132.809 215.4 132.265 215.928 131.449 215.928C130.521 215.928 129.929 215.416 129.673 214.568L128.473 215.064C128.921 216.328 129.865 217.192 131.369 217.192ZM139.889 215.896C138.289 215.896 137.233 214.616 137.233 213C137.233 211.384 138.289 210.104 139.889 210.104C141.473 210.104 142.545 211.384 142.545 213C142.545 214.616 141.473 215.896 139.889 215.896ZM139.745 217.192C140.945 217.192 141.985 216.584 142.433 215.928L142.641 217H143.857V209H142.641L142.433 210.008C142.033 209.48 141.121 208.808 139.745 208.808C137.409 208.808 135.777 210.664 135.777 213C135.777 215.336 137.313 217.192 139.745 217.192ZM149.864 220.392C151.896 220.392 153.528 219.016 153.528 217.048C153.528 215.624 152.664 214.552 151.736 214.12C152.328 213.768 153.016 212.888 153.016 211.864C153.016 210.952 152.6 210.36 152.216 209.992L153.512 209.768V208.808H149.864C148.136 208.808 146.632 210.056 146.632 211.816C146.632 212.952 147.336 213.752 147.928 214.152C147.016 214.584 146.12 215.704 146.12 217.048C146.12 219.016 147.832 220.392 149.864 220.392ZM149.864 213.608C148.776 213.608 147.992 212.792 147.992 211.848C147.992 210.872 148.792 210.072 149.864 210.072C151 210.072 151.656 210.872 151.656 211.848C151.656 212.792 151.016 213.608 149.864 213.608ZM149.864 219.128C148.6 219.128 147.528 218.232 147.528 217C147.528 215.768 148.632 214.84 149.864 214.84C151.176 214.84 152.168 215.768 152.168 217C152.168 218.232 151.192 219.128 149.864 219.128ZM159.214 217.192C160.958 217.192 162.174 216.28 162.782 215.032L161.614 214.456C161.086 215.384 160.334 215.896 159.278 215.896C157.79 215.896 156.782 214.936 156.67 213.464H162.974C162.99 213.272 163.006 213.016 163.006 212.824C163.006 210.584 161.646 208.808 159.214 208.808C156.734 208.808 155.246 210.664 155.246 213C155.246 215.368 156.686 217.192 159.214 217.192ZM156.686 212.296C156.83 210.984 157.838 210.104 159.23 210.104C160.606 210.104 161.486 210.984 161.598 212.296H156.686Z" fill="#4D4D4D"/>
<mask id="mask0_1058_136" style="mask-type:luminance" maskUnits="userSpaceOnUse" x="96" y="35" width="90" height="90">
<path d="M96 35H186V125H96V35Z" fill="white"/>
</mask>
<g mask="url(#mask0_1058_136)">
<path d="M111.675 52.3784C113.161 50.6769 114.783 49.0976 116.523 47.6575" stroke="#4D4D4D" stroke-width="3" stroke-miterlimit="10" stroke-linecap="round" stroke-linejoin="round"/>
<path d="M102.396 70.5317C103.445 65.9679 105.237 61.6896 107.636 57.8321" stroke="#4D4D4D" stroke-width="3" stroke-miterlimit="10" stroke-linecap="round" stroke-linejoin="round"/>
<path d="M116.262 112.125C107.132 104.442 101.326 92.9025 101.326 80C101.326 79.5099 101.335 79.0218 101.351 78.5359" stroke="#4D4D4D" stroke-width="3" stroke-miterlimit="10" stroke-linecap="round" stroke-linejoin="round"/>
<path d="M163.2 116.645C157.217 119.981 150.331 121.882 143.004 121.882C135.701 121.882 128.838 119.994 122.869 116.679" stroke="#4D4D4D" stroke-width="3" stroke-miterlimit="10" stroke-linecap="round" stroke-linejoin="round"/>
<path d="M178.344 57.7884C182.36 64.2268 184.682 71.8409 184.682 80C184.682 92.8837 178.893 104.409 169.786 112.091" stroke="#4D4D4D" stroke-width="3" stroke-miterlimit="10" stroke-linecap="round" stroke-linejoin="round"/>
<path d="M169.115 47.355C170.658 48.6023 172.11 49.958 173.46 51.4101" stroke="#4D4D4D" stroke-width="3" stroke-miterlimit="10" stroke-linecap="round" stroke-linejoin="round"/>
<path d="M123.13 43.1778C129.037 39.9513 135.808 38.1185 143.004 38.1185C150.016 38.1185 156.623 39.8585 162.422 42.9322" stroke="#4D4D4D" stroke-width="3" stroke-miterlimit="10" stroke-linecap="round" stroke-linejoin="round"/>
<path d="M146.494 52.7593C151.188 49.838 156.36 47.542 161.917 46.0093" stroke="#4D4D4D" stroke-width="3" stroke-miterlimit="10" stroke-linecap="round" stroke-linejoin="round"/>
<path d="M129.417 68.9087C132.419 64.6472 135.982 60.7788 140.023 57.4251" stroke="#4D4D4D" stroke-width="3" stroke-miterlimit="10" stroke-linecap="round" stroke-linejoin="round"/>
<path d="M118.994 110.378C117.493 98.1121 119.865 86.1395 125.223 75.8076" stroke="#4D4D4D" stroke-width="3" stroke-miterlimit="10" stroke-linecap="round" stroke-linejoin="round"/>
<path d="M139.514 52.7593C134.661 49.7392 129.298 47.3875 123.526 45.8564" stroke="#4D4D4D" stroke-width="3" stroke-miterlimit="10" stroke-linecap="round" stroke-linejoin="round"/>
<path d="M162.319 78.9946C158.611 70.6717 153.026 63.2677 145.985 57.4254" stroke="#4D4D4D" stroke-width="3" stroke-miterlimit="10" stroke-linecap="round" stroke-linejoin="round"/>
<path d="M166.82 94.4679C166.425 91.7916 165.845 89.1431 165.088 86.546" stroke="#4D4D4D" stroke-width="3" stroke-miterlimit="10" stroke-linecap="round" stroke-linejoin="round"/>
<path d="M166.99 110.577C167.338 107.801 167.493 105 167.45 102.202" stroke="#4D4D4D" stroke-width="3" stroke-miterlimit="10" stroke-linecap="round" stroke-linejoin="round"/>
<path d="M123.398 71.5189C117.394 71.4883 111.3 72.1325 105.209 73.507" stroke="#4D4D4D" stroke-width="3" stroke-miterlimit="10" stroke-linecap="round" stroke-linejoin="round"/>
<path d="M160.361 80.7483C151.423 76.0623 141.602 73.0375 131.386 71.9596" stroke="#4D4D4D" stroke-width="3" stroke-miterlimit="10" stroke-linecap="round" stroke-linejoin="round"/>
<path d="M181.317 96.5101C177.074 92.079 172.357 88.1611 167.273 84.8187" stroke="#4D4D4D" stroke-width="3" stroke-miterlimit="10" stroke-linecap="round" stroke-linejoin="round"/>
<path d="M165.86 79.2257C169.791 72.8971 172.891 65.962 174.99 58.5595" stroke="#4D4D4D" stroke-width="3" stroke-miterlimit="10" stroke-linecap="round" stroke-linejoin="round"/>
<path d="M123.398 113.153C138.466 107.957 151.652 98.389 161.302 85.8131" stroke="#4D4D4D" stroke-width="3" stroke-miterlimit="10" stroke-linecap="round" stroke-linejoin="round"/>
<path d="M143.004 58.7633C140.794 58.7633 138.996 56.9566 138.996 54.7356C138.996 52.5148 140.794 50.7081 143.004 50.7081C145.214 50.7081 147.012 52.5148 147.012 54.7356C147.012 56.9566 145.214 58.7633 143.004 58.7633Z" stroke="#FD841F" stroke-width="3" stroke-miterlimit="10" stroke-linecap="round" stroke-linejoin="round"/>
<path d="M127.406 76.4598C125.196 76.4598 123.398 74.653 123.398 72.4322C123.398 70.2113 125.196 68.4045 127.406 68.4045C129.617 68.4045 131.414 70.2113 131.414 72.4322C131.414 74.653 129.617 76.4598 127.406 76.4598Z" stroke="#FD841F" stroke-width="3" stroke-miterlimit="10" stroke-linecap="round" stroke-linejoin="round"/>
<path d="M163.858 86.7406C161.648 86.7406 159.85 84.9337 159.85 82.7129C159.85 80.4921 161.648 78.6852 163.858 78.6852C166.068 78.6852 167.866 80.4921 167.866 82.7129C167.866 84.9337 166.068 86.7406 163.858 86.7406Z" stroke="#FD841F" stroke-width="3" stroke-miterlimit="10" stroke-linecap="round" stroke-linejoin="round"/>
<path d="M119.595 118.388C117.385 118.388 115.587 116.581 115.587 114.36C115.587 112.139 117.385 110.333 119.595 110.333C121.805 110.333 123.603 112.139 123.603 114.36C123.603 116.581 121.805 118.388 119.595 118.388Z" stroke="#FD841F" stroke-width="3" stroke-miterlimit="10" stroke-linecap="round" stroke-linejoin="round"/>
<path d="M166.645 118.617C164.435 118.617 162.637 116.81 162.637 114.589C162.637 112.368 164.435 110.561 166.645 110.561C168.855 110.561 170.653 112.368 170.653 114.589C170.653 116.81 168.855 118.617 166.645 118.617Z" stroke="#FD841F" stroke-width="3" stroke-miterlimit="10" stroke-linecap="round" stroke-linejoin="round"/>
<path d="M175.99 58.5594C173.78 58.5594 171.981 56.7525 171.981 54.5317C171.981 52.3109 173.78 50.504 175.99 50.504C178.2 50.504 179.998 52.3109 179.998 54.5317C179.998 56.7525 178.2 58.5594 175.99 58.5594Z" stroke="#FD841F" stroke-width="3" stroke-miterlimit="10" stroke-linecap="round" stroke-linejoin="round"/>
<path d="M165.815 49.1013C163.605 49.1013 161.807 47.2946 161.807 45.0736C161.807 42.8528 163.605 41.0461 165.815 41.0461C168.025 41.0461 169.823 42.8528 169.823 45.0736C169.823 47.2946 168.025 49.1013 165.815 49.1013Z" stroke="#FD841F" stroke-width="3" stroke-miterlimit="10" stroke-linecap="round" stroke-linejoin="round"/>
<path d="M119.595 49.1013C117.385 49.1013 115.587 47.2946 115.587 45.0736C115.587 42.8528 117.385 41.0461 119.595 41.0461C121.805 41.0461 123.603 42.8528 123.603 45.0736C123.603 47.2946 121.805 49.1013 119.595 49.1013Z" stroke="#FD841F" stroke-width="3" stroke-miterlimit="10" stroke-linecap="round" stroke-linejoin="round"/>
<path d="M101.326 78.5349C99.1162 78.5349 97.3184 76.7282 97.3184 74.5072C97.3184 72.2864 99.1162 70.4797 101.326 70.4797C103.536 70.4797 105.334 72.2864 105.334 74.5072C105.334 76.7282 103.536 78.5349 101.326 78.5349Z" stroke="#FD841F" stroke-width="3" stroke-miterlimit="10" stroke-linecap="round" stroke-linejoin="round"/>
</g>
</g>
<defs>
<filter id="filter0_d_1058_136" x="0" y="0" width="292.5" height="298" filterUnits="userSpaceOnUse" color-interpolation-filters="sRGB">
<feFlood flood-opacity="0" result="BackgroundImageFix"/>
<feColorMatrix in="SourceAlpha" type="matrix" values="0 0 0 0 0 0 0 0 0 0 0 0 0 0 0 0 0 0 127 0" result="hardAlpha"/>
<feOffset dx="5" dy="10"/>
<feGaussianBlur stdDeviation="7.5"/>
<feComposite in2="hardAlpha" operator="out"/>
<feColorMatrix type="matrix" values="0 0 0 0 0 0 0 0 0 0 0 0 0 0 0 0 0 0 0.25 0"/>
<feBlend mode="normal" in2="BackgroundImageFix" result="effect1_dropShadow_1058_136"/>
<feBlend mode="normal" in="SourceGraphic" in2="effect1_dropShadow_1058_136" result="shape"/>
</filter>
</defs>
</svg>
