<svg width="293" height="298" viewBox="0 0 293 298" fill="none" xmlns="http://www.w3.org/2000/svg">
<g filter="url(#filter0_d_1058_255)">
<rect x="10" y="5" width="262.5" height="268" rx="10" fill="white"/>
<path d="M77.544 164.192C79.96 164.192 81.48 162.608 81.48 160.816C81.48 159.216 80.744 158.192 79.176 157.36C79.048 157.28 77.704 156.576 77.576 156.512C76.952 156.176 76.744 155.888 76.744 155.488C76.744 155.072 77.096 154.816 77.56 154.816C78.072 154.816 78.424 155.152 78.632 155.664L80.728 154.592C80.216 153.344 79.272 152.608 77.56 152.608C75.496 152.608 74.136 153.808 74.136 155.52C74.136 157.136 75.048 158.048 76.072 158.576C76.264 158.688 77.416 159.264 77.64 159.376C78.584 159.856 78.904 160.288 78.904 160.832C78.904 161.504 78.344 161.936 77.544 161.936C76.632 161.936 75.848 161.344 75.544 160.352L73.368 161.248C74.008 163.072 75.256 164.192 77.544 164.192ZM82.9775 155.008H85.4735V152.656H82.9775V155.008ZM83.0095 164H85.4415V156H83.0095V164ZM91.0916 167.392C93.3636 167.392 95.1236 165.984 95.1236 163.824C95.1236 162.608 94.4356 161.488 93.5716 161.04C94.1316 160.704 94.5476 159.936 94.5476 159.216C94.5476 158.592 94.2916 158.064 93.9876 157.728L95.0916 157.504V155.808H91.0756C88.9316 155.808 87.5876 157.216 87.5876 158.96C87.5876 159.808 87.9556 160.56 88.5796 161.04C87.7156 161.6 87.0276 162.576 87.0276 163.824C87.0276 165.984 88.8036 167.392 91.0916 167.392ZM91.0756 160.368C90.3556 160.368 89.8116 159.792 89.8116 159.072C89.8116 158.368 90.3716 157.744 91.0756 157.744C91.8116 157.744 92.2756 158.368 92.2756 159.072C92.2756 159.792 91.8276 160.368 91.0756 160.368ZM91.0916 165.344C90.1796 165.344 89.3956 164.72 89.3956 163.776C89.3956 162.8 90.1956 162.176 91.0916 162.176C91.9716 162.176 92.7556 162.8 92.7556 163.776C92.7556 164.72 91.9876 165.344 91.0916 165.344ZM96.8224 164H99.2544V160.16C99.2544 158.656 99.9264 157.968 100.694 157.968C101.398 157.968 101.766 158.416 101.766 159.344V164H104.198V160.112C104.198 158.608 104.87 157.968 105.638 157.968C106.342 157.968 106.71 158.416 106.71 159.344V164H109.126V158.976C109.126 156.832 107.878 155.808 106.214 155.808C104.998 155.808 104.118 156.4 103.75 157.024C103.302 156.24 102.534 155.808 101.526 155.808C100.39 155.808 99.5424 156.4 99.1584 157.024L98.8704 156H96.8224V164ZM115.133 162.08C114.045 162.08 113.213 161.264 113.213 160C113.213 158.736 114.045 157.92 115.133 157.92C116.205 157.92 117.037 158.736 117.037 160C117.037 161.264 116.205 162.08 115.133 162.08ZM114.525 164.192C115.789 164.192 116.557 163.68 116.909 163.28L117.245 164H119.373V156H117.149L116.909 156.672C116.493 156.224 115.661 155.808 114.621 155.808C112.701 155.808 110.765 157.312 110.765 160C110.765 162.528 112.493 164.192 114.525 164.192ZM125.653 164H128.277V152.8H125.653V164ZM130.572 164H133.004V160.16C133.004 158.656 133.692 157.968 134.476 157.968C135.308 157.968 135.756 158.528 135.756 159.52V164H138.188V158.976C138.188 156.832 137.02 155.808 135.356 155.808C134.236 155.808 133.292 156.384 132.908 157.024L132.62 156H130.572V164ZM140.661 164H143.077V157.904H144.773V156H143.077V153.424L140.661 153.888V156H139.509V157.904H140.661V164ZM149.58 164.192C151.372 164.192 152.684 163.44 153.372 162.128L151.372 161.152C151.052 161.696 150.572 162.096 149.708 162.096C148.748 162.096 148.06 161.552 147.932 160.64H153.58C153.644 160.368 153.676 160.032 153.676 159.744C153.676 157.696 152.332 155.808 149.58 155.808C147.148 155.808 145.5 157.52 145.5 160C145.5 162.496 147.148 164.192 149.58 164.192ZM147.948 158.992C148.044 158.32 148.684 157.728 149.58 157.728C150.46 157.728 151.1 158.304 151.196 158.992H147.948ZM155.338 164H157.77V160C157.77 158.8 158.426 158.224 159.29 158.224C159.722 158.224 160.122 158.336 160.41 158.48L160.874 156C160.586 155.888 160.17 155.808 159.754 155.808C158.874 155.808 158.042 156.208 157.61 157.04L157.402 156H155.338V164ZM165.477 162.08C164.389 162.08 163.557 161.264 163.557 160C163.557 158.736 164.389 157.92 165.477 157.92C166.549 157.92 167.381 158.736 167.381 160C167.381 161.264 166.549 162.08 165.477 162.08ZM164.869 164.192C166.133 164.192 166.901 163.68 167.253 163.28L167.589 164H169.717V156H167.493L167.253 156.672C166.837 156.224 166.005 155.808 164.965 155.808C163.045 155.808 161.109 157.312 161.109 160C161.109 162.528 162.837 164.192 164.869 164.192ZM175.661 164.192C177.581 164.192 178.941 163.168 179.485 161.904L177.277 161.008C177.037 161.6 176.509 162.064 175.709 162.064C174.653 162.064 173.917 161.2 173.917 160C173.917 158.784 174.605 157.936 175.661 157.936C176.461 157.936 176.957 158.368 177.213 159.04L179.437 158.128C178.829 156.704 177.517 155.808 175.709 155.808C173.309 155.808 171.469 157.536 171.469 160C171.469 162.464 173.261 164.192 175.661 164.192ZM181.473 164H183.889V157.904H185.585V156H183.889V153.424L181.473 153.888V156H180.321V157.904H181.473V164ZM186.853 155.008H189.349V152.656H186.853V155.008ZM186.885 164H189.317V156H186.885V164ZM193.335 164H195.911L198.823 156H196.359L194.631 161.456L192.871 156H190.423L193.335 164ZM203.439 164.192C205.231 164.192 206.543 163.44 207.231 162.128L205.231 161.152C204.911 161.696 204.431 162.096 203.567 162.096C202.607 162.096 201.919 161.552 201.791 160.64H207.439C207.503 160.368 207.535 160.032 207.535 159.744C207.535 157.696 206.191 155.808 203.439 155.808C201.007 155.808 199.359 157.52 199.359 160C199.359 162.496 201.007 164.192 203.439 164.192ZM201.807 158.992C201.903 158.32 202.543 157.728 203.439 157.728C204.319 157.728 204.959 158.304 205.055 158.992H201.807Z" fill="#FD841F"/>
<path d="M77.8913 203H84.1953V201.576H79.4113V197.912H83.8753V196.472H79.4113V193.224H84.1953V191.8H77.8913V203ZM86.8399 203H88.2639V199.208C88.2639 197.032 89.2719 196.104 90.3759 196.104C91.4799 196.104 92.2479 196.888 92.2479 198.312V203H93.6719V198.184C93.6719 196.136 92.6799 194.808 90.6799 194.808C89.5279 194.808 88.7279 195.272 88.2479 195.992L88.0399 195H86.8399V203ZM99.9831 201.896C98.3831 201.896 97.3271 200.616 97.3271 199C97.3271 197.384 98.3831 196.104 99.9831 196.104C101.567 196.104 102.639 197.384 102.639 199C102.639 200.616 101.567 201.896 99.9831 201.896ZM99.8391 203.192C101.039 203.192 102.079 202.584 102.527 201.928L102.735 203H103.951V195H102.735L102.527 196.008C102.127 195.48 101.215 194.808 99.8391 194.808C97.5031 194.808 95.8711 196.664 95.8711 199C95.8711 201.336 97.4071 203.192 99.8391 203.192ZM111.029 203.192C113.365 203.192 115.013 201.336 115.013 199C115.013 196.664 113.557 194.808 111.061 194.808C109.877 194.808 108.885 195.464 108.373 196.104V191.56H106.949V203H108.149L108.325 201.912C108.709 202.44 109.653 203.192 111.029 203.192ZM110.901 201.896C109.317 201.896 108.245 200.616 108.245 199C108.245 197.384 109.365 196.104 110.949 196.104C112.549 196.104 113.573 197.384 113.573 199C113.573 200.616 112.469 201.896 110.901 201.896ZM117.356 203H118.78V191.56H117.356V203ZM125.073 203.192C126.817 203.192 128.033 202.28 128.641 201.032L127.473 200.456C126.945 201.384 126.193 201.896 125.137 201.896C123.649 201.896 122.641 200.936 122.529 199.464H128.833C128.849 199.272 128.865 199.016 128.865 198.824C128.865 196.584 127.505 194.808 125.073 194.808C122.593 194.808 121.105 196.664 121.105 199C121.105 201.368 122.545 203.192 125.073 203.192ZM122.545 198.296C122.689 196.984 123.697 196.104 125.089 196.104C126.465 196.104 127.345 196.984 127.457 198.296H122.545ZM138.546 201.896C136.946 201.896 135.89 200.616 135.89 199C135.89 197.384 136.946 196.104 138.546 196.104C140.13 196.104 141.202 197.384 141.202 199C141.202 200.616 140.13 201.896 138.546 201.896ZM138.402 203.192C139.602 203.192 140.642 202.584 141.09 201.928L141.298 203H142.514V195H141.298L141.09 196.008C140.69 195.48 139.778 194.808 138.402 194.808C136.066 194.808 134.434 196.664 134.434 199C134.434 201.336 135.97 203.192 138.402 203.192ZM148.36 203.192C149.512 203.192 150.36 202.696 150.808 202.008L151.032 203H152.232V195H150.808V199.096C150.808 200.92 149.896 201.896 148.664 201.896C147.56 201.896 146.744 201.16 146.744 199.736V195H145.32V199.752C145.32 201.832 146.264 203.192 148.36 203.192ZM158.67 201.896C157.086 201.896 156.014 200.616 156.014 199C156.014 197.384 157.086 196.104 158.67 196.104C160.27 196.104 161.326 197.384 161.326 199C161.326 200.616 160.27 201.896 158.67 201.896ZM158.558 203.192C159.806 203.192 160.798 202.488 161.246 201.864L161.438 203H162.638V191.56H161.214V196.024C160.814 195.528 159.934 194.808 158.558 194.808C156.19 194.808 154.574 196.664 154.574 199C154.574 201.336 156.11 203.192 158.558 203.192ZM165.54 193.368H167.14V191.8H165.54V193.368ZM165.636 203H167.06V195H165.636V203ZM173.339 203.192C175.083 203.192 176.299 202.28 176.907 201.032L175.739 200.456C175.211 201.384 174.459 201.896 173.403 201.896C171.915 201.896 170.907 200.936 170.795 199.464H177.099C177.115 199.272 177.131 199.016 177.131 198.824C177.131 196.584 175.771 194.808 173.339 194.808C170.859 194.808 169.371 196.664 169.371 199C169.371 201.368 170.811 203.192 173.339 203.192ZM170.811 198.296C170.955 196.984 171.963 196.104 173.355 196.104C174.731 196.104 175.611 196.984 175.723 198.296H170.811ZM179.387 203H180.811V199.208C180.811 197.032 181.819 196.104 182.923 196.104C184.027 196.104 184.795 196.888 184.795 198.312V203H186.219V198.184C186.219 196.136 185.227 194.808 183.227 194.808C182.075 194.808 181.275 195.272 180.795 195.992L180.587 195H179.387V203ZM192.434 203.192C194.194 203.192 195.394 202.2 195.986 201.032L194.722 200.456C194.386 201.192 193.602 201.896 192.434 201.896C190.93 201.896 189.874 200.696 189.874 199C189.874 197.304 190.93 196.104 192.386 196.104C193.522 196.104 194.194 196.648 194.642 197.528L195.922 196.952C195.298 195.528 194.018 194.808 192.434 194.808C190.018 194.808 188.418 196.664 188.418 199C188.418 201.336 190.018 203.192 192.434 203.192ZM201.261 203.192C203.005 203.192 204.221 202.28 204.829 201.032L203.661 200.456C203.133 201.384 202.381 201.896 201.325 201.896C199.837 201.896 198.829 200.936 198.717 199.464H205.021C205.037 199.272 205.053 199.016 205.053 198.824C205.053 196.584 203.693 194.808 201.261 194.808C198.781 194.808 197.293 196.664 197.293 199C197.293 201.368 198.733 203.192 201.261 203.192ZM198.733 198.296C198.877 196.984 199.885 196.104 201.277 196.104C202.653 196.104 203.533 196.984 203.645 198.296H198.733ZM41.0344 223.192C42.7784 223.192 43.9944 222.28 44.6024 221.032L43.4344 220.456C42.9064 221.384 42.1544 221.896 41.0984 221.896C39.6104 221.896 38.6024 220.936 38.4904 219.464H44.7944C44.8104 219.272 44.8264 219.016 44.8264 218.824C44.8264 216.584 43.4664 214.808 41.0344 214.808C38.5544 214.808 37.0664 216.664 37.0664 219C37.0664 221.368 38.5064 223.192 41.0344 223.192ZM38.5064 218.296C38.6504 216.984 39.6584 216.104 41.0504 216.104C42.4264 216.104 43.3064 216.984 43.4184 218.296H38.5064ZM47.0821 223H48.5061V219.208C48.5061 217.032 49.5141 216.104 50.6181 216.104C51.7221 216.104 52.4901 216.888 52.4901 218.312V223H53.9141V218.184C53.9141 216.136 52.9221 214.808 50.9221 214.808C49.7701 214.808 48.9701 215.272 48.4901 215.992L48.2821 215H47.0821V223ZM59.7933 226.392C61.8253 226.392 63.4573 225.016 63.4573 223.048C63.4573 221.624 62.5933 220.552 61.6653 220.12C62.2573 219.768 62.9453 218.888 62.9453 217.864C62.9453 216.952 62.5293 216.36 62.1453 215.992L63.4413 215.768V214.808H59.7933C58.0653 214.808 56.5613 216.056 56.5613 217.816C56.5613 218.952 57.2653 219.752 57.8573 220.152C56.9453 220.584 56.0493 221.704 56.0493 223.048C56.0493 225.016 57.7613 226.392 59.7933 226.392ZM59.7933 219.608C58.7053 219.608 57.9213 218.792 57.9213 217.848C57.9213 216.872 58.7213 216.072 59.7933 216.072C60.9293 216.072 61.5853 216.872 61.5853 217.848C61.5853 218.792 60.9453 219.608 59.7933 219.608ZM59.7933 225.128C58.5293 225.128 57.4573 224.232 57.4573 223C57.4573 221.768 58.5613 220.84 59.7933 220.84C61.1053 220.84 62.0973 221.768 62.0973 223C62.0973 224.232 61.1213 225.128 59.7933 225.128ZM69.2878 221.896C67.6878 221.896 66.6318 220.616 66.6318 219C66.6318 217.384 67.6878 216.104 69.2878 216.104C70.8718 216.104 71.9438 217.384 71.9438 219C71.9438 220.616 70.8718 221.896 69.2878 221.896ZM69.1438 223.192C70.3438 223.192 71.3838 222.584 71.8318 221.928L72.0398 223H73.2558V215H72.0398L71.8318 216.008C71.4318 215.48 70.5198 214.808 69.1438 214.808C66.8078 214.808 65.1758 216.664 65.1758 219C65.1758 221.336 66.7118 223.192 69.1438 223.192ZM79.262 226.392C81.294 226.392 82.926 225.016 82.926 223.048C82.926 221.624 82.062 220.552 81.134 220.12C81.726 219.768 82.414 218.888 82.414 217.864C82.414 216.952 81.998 216.36 81.614 215.992L82.91 215.768V214.808H79.262C77.534 214.808 76.03 216.056 76.03 217.816C76.03 218.952 76.734 219.752 77.326 220.152C76.414 220.584 75.518 221.704 75.518 223.048C75.518 225.016 77.23 226.392 79.262 226.392ZM79.262 219.608C78.174 219.608 77.39 218.792 77.39 217.848C77.39 216.872 78.19 216.072 79.262 216.072C80.398 216.072 81.054 216.872 81.054 217.848C81.054 218.792 80.414 219.608 79.262 219.608ZM79.262 225.128C77.998 225.128 76.926 224.232 76.926 223C76.926 221.768 78.03 220.84 79.262 220.84C80.574 220.84 81.566 221.768 81.566 223C81.566 224.232 80.59 225.128 79.262 225.128ZM88.6125 223.192C90.3565 223.192 91.5725 222.28 92.1805 221.032L91.0125 220.456C90.4845 221.384 89.7325 221.896 88.6765 221.896C87.1885 221.896 86.1805 220.936 86.0685 219.464H92.3725C92.3885 219.272 92.4045 219.016 92.4045 218.824C92.4045 216.584 91.0445 214.808 88.6125 214.808C86.1325 214.808 84.6445 216.664 84.6445 219C84.6445 221.368 86.0845 223.192 88.6125 223.192ZM86.0845 218.296C86.2285 216.984 87.2365 216.104 88.6285 216.104C90.0045 216.104 90.8845 216.984 90.9965 218.296H86.0845ZM94.6603 223H96.0843V219.208C96.0843 217.08 96.9803 216.104 98.0683 216.104C99.0443 216.104 99.7003 216.728 99.7003 218.072V223H101.124V219.208C101.124 217.08 102.036 216.104 103.108 216.104C104.084 216.104 104.74 216.728 104.74 218.072V223H106.18V218.136C106.18 216.088 105.284 214.808 103.3 214.808C101.972 214.808 101.172 215.464 100.772 216.152C100.372 215.304 99.6683 214.808 98.4043 214.808C97.2682 214.808 96.5483 215.304 96.0683 216.024L95.8603 215H94.6603V223ZM112.331 223.192C114.075 223.192 115.291 222.28 115.899 221.032L114.731 220.456C114.203 221.384 113.451 221.896 112.395 221.896C110.907 221.896 109.899 220.936 109.787 219.464H116.091C116.107 219.272 116.123 219.016 116.123 218.824C116.123 216.584 114.763 214.808 112.331 214.808C109.851 214.808 108.363 216.664 108.363 219C108.363 221.368 109.803 223.192 112.331 223.192ZM109.803 218.296C109.947 216.984 110.955 216.104 112.347 216.104C113.723 216.104 114.603 216.984 114.715 218.296H109.803ZM118.379 223H119.803V219.208C119.803 217.032 120.811 216.104 121.915 216.104C123.019 216.104 123.787 216.888 123.787 218.312V223H125.211V218.184C125.211 216.136 124.219 214.808 122.219 214.808C121.067 214.808 120.267 215.272 119.787 215.992L119.579 215H118.379V223ZM128.29 223H129.73V216.296H131.458V215H129.73V212.536L128.29 212.808V215H127.25V216.296H128.29V223ZM132.223 225.08H133.327L134.783 221.384H133.087L132.223 225.08ZM141.158 213.368H142.758V211.8H141.158V213.368ZM141.254 223H142.678V215H141.254V223ZM145.66 223H147.084V219.208C147.084 217.08 147.98 216.104 149.068 216.104C150.044 216.104 150.7 216.728 150.7 218.072V223H152.124V219.208C152.124 217.08 153.036 216.104 154.108 216.104C155.084 216.104 155.74 216.728 155.74 218.072V223H157.18V218.136C157.18 216.088 156.284 214.808 154.3 214.808C152.972 214.808 152.172 215.464 151.772 216.152C151.372 215.304 150.668 214.808 149.404 214.808C148.268 214.808 147.548 215.304 147.068 216.024L146.86 215H145.66V223ZM163.987 221.896C162.403 221.896 161.331 220.616 161.331 219C161.331 217.384 162.419 216.104 164.003 216.104C165.571 216.104 166.659 217.384 166.659 219C166.659 220.616 165.587 221.896 163.987 221.896ZM160.035 226.2H161.459V221.96C161.843 222.488 162.739 223.192 164.115 223.192C166.483 223.192 168.099 221.336 168.099 219C168.099 216.664 166.611 214.808 164.179 214.808C162.979 214.808 161.923 215.448 161.411 216.136L161.235 215H160.035V226.2ZM174.038 221.896C172.438 221.896 171.382 220.616 171.382 219C171.382 217.384 172.438 216.104 174.038 216.104C175.622 216.104 176.694 217.384 176.694 219C176.694 220.616 175.622 221.896 174.038 221.896ZM173.894 223.192C175.094 223.192 176.134 222.584 176.582 221.928L176.79 223H178.006V215H176.79L176.582 216.008C176.182 215.48 175.27 214.808 173.894 214.808C171.558 214.808 169.926 216.664 169.926 219C169.926 221.336 171.462 223.192 173.894 223.192ZM184.348 223.192C186.108 223.192 187.308 222.2 187.9 221.032L186.636 220.456C186.3 221.192 185.516 221.896 184.348 221.896C182.844 221.896 181.788 220.696 181.788 219C181.788 217.304 182.844 216.104 184.3 216.104C185.436 216.104 186.108 216.648 186.556 217.528L187.836 216.952C187.212 215.528 185.932 214.808 184.348 214.808C181.932 214.808 180.332 216.664 180.332 219C180.332 221.336 181.932 223.192 184.348 223.192ZM190.243 223H191.683V216.296H193.411V215H191.683V212.536L190.243 212.808V215H189.203V216.296H190.243V223ZM202.741 223.192C205.173 223.192 206.885 221.336 206.885 219C206.885 216.664 205.173 214.808 202.741 214.808C200.309 214.808 198.613 216.664 198.613 219C198.613 221.336 200.309 223.192 202.741 223.192ZM202.741 221.896C201.221 221.896 200.069 220.696 200.069 219C200.069 217.304 201.221 216.104 202.741 216.104C204.261 216.104 205.429 217.304 205.429 219C205.429 220.696 204.261 221.896 202.741 221.896ZM209.223 223H210.647V219.208C210.647 217.032 211.655 216.104 212.759 216.104C213.863 216.104 214.631 216.888 214.631 218.312V223H216.055V218.184C216.055 216.136 215.063 214.808 213.063 214.808C211.911 214.808 211.111 215.272 210.631 215.992L210.423 215H209.223V223ZM223.118 223H224.558V216.296H226.286V215H224.558V212.536L223.118 212.808V215H222.078V216.296H223.118V223ZM228.176 223H229.6V219.208C229.6 217.048 230.64 216.104 231.728 216.104C232.832 216.104 233.632 216.888 233.632 218.312V223H235.072V218.184C235.072 216.136 234.096 214.808 232.032 214.808C230.976 214.808 230.064 215.288 229.6 215.992V211.56H228.176V223ZM241.222 223.192C242.966 223.192 244.182 222.28 244.79 221.032L243.622 220.456C243.094 221.384 242.342 221.896 241.286 221.896C239.798 221.896 238.79 220.936 238.678 219.464H244.982C244.998 219.272 245.014 219.016 245.014 218.824C245.014 216.584 243.654 214.808 241.222 214.808C238.742 214.808 237.254 216.664 237.254 219C237.254 221.368 238.694 223.192 241.222 223.192ZM238.694 218.296C238.838 216.984 239.846 216.104 241.238 216.104C242.614 216.104 243.494 216.984 243.606 218.296H238.694ZM61.9701 243.192C63.6821 243.192 64.7701 242.12 64.7701 240.728C64.7701 239.56 64.0661 238.808 63.1061 238.408L61.9381 237.944C61.4741 237.752 61.0101 237.512 61.0101 236.936C61.0101 236.456 61.4261 236.072 61.9381 236.072C62.4661 236.072 62.8821 236.376 63.1221 236.952L64.2581 236.296C63.8101 235.368 63.0581 234.808 61.9381 234.808C60.6421 234.808 59.6501 235.736 59.6501 236.888C59.6501 237.864 60.2261 238.616 61.0581 238.936L62.0821 239.352C63.0101 239.72 63.4101 240.072 63.4101 240.744C63.4101 241.4 62.8661 241.928 62.0501 241.928C61.1221 241.928 60.5301 241.416 60.2741 240.568L59.0741 241.064C59.5221 242.328 60.4661 243.192 61.9701 243.192ZM67.1339 243H68.5739V236.296H70.3019V235H68.5739V232.536L67.1339 232.808V235H66.0939V236.296H67.1339V243ZM72.1915 243H73.6155V238.824C73.6155 237.096 74.4315 236.264 75.4715 236.264C75.8555 236.264 76.2875 236.36 76.6075 236.536L77.0715 235.128C76.7835 234.968 76.2715 234.808 75.7755 234.808C74.7355 234.808 74.0315 235.288 73.5995 236.072L73.3915 235H72.1915V243ZM81.5344 243.192C83.2784 243.192 84.4944 242.28 85.1024 241.032L83.9344 240.456C83.4064 241.384 82.6544 241.896 81.5984 241.896C80.1104 241.896 79.1024 240.936 78.9904 239.464H85.2944C85.3104 239.272 85.3264 239.016 85.3264 238.824C85.3264 236.584 83.9664 234.808 81.5344 234.808C79.0544 234.808 77.5664 236.664 77.5664 239C77.5664 241.368 79.0064 243.192 81.5344 243.192ZM79.0064 238.296C79.1504 236.984 80.1584 236.104 81.5504 236.104C82.9264 236.104 83.8064 236.984 83.9184 238.296H79.0064ZM91.0221 241.896C89.4221 241.896 88.3661 240.616 88.3661 239C88.3661 237.384 89.4221 236.104 91.0221 236.104C92.6061 236.104 93.6781 237.384 93.6781 239C93.6781 240.616 92.6061 241.896 91.0221 241.896ZM90.8781 243.192C92.0781 243.192 93.1181 242.584 93.5661 241.928L93.7741 243H94.9901V235H93.7741L93.5661 236.008C93.1661 235.48 92.2541 234.808 90.8781 234.808C88.5421 234.808 86.9101 236.664 86.9101 239C86.9101 241.336 88.4461 243.192 90.8781 243.192ZM97.9884 243H99.4124V239.208C99.4124 237.08 100.308 236.104 101.396 236.104C102.372 236.104 103.028 236.728 103.028 238.072V243H104.452V239.208C104.452 237.08 105.364 236.104 106.436 236.104C107.412 236.104 108.068 236.728 108.068 238.072V243H109.508V238.136C109.508 236.088 108.612 234.808 106.628 234.808C105.3 234.808 104.5 235.464 104.1 236.152C103.7 235.304 102.996 234.808 101.732 234.808C100.596 234.808 99.8764 235.304 99.3964 236.024L99.1884 235H97.9884V243ZM112.251 233.368H113.851V231.8H112.251V233.368ZM112.347 243H113.771V235H112.347V243ZM116.754 243H118.178V239.208C118.178 237.032 119.186 236.104 120.29 236.104C121.394 236.104 122.162 236.888 122.162 238.312V243H123.586V238.184C123.586 236.136 122.594 234.808 120.594 234.808C119.442 234.808 118.642 235.272 118.162 235.992L117.954 235H116.754V243ZM129.465 246.392C131.497 246.392 133.129 245.016 133.129 243.048C133.129 241.624 132.265 240.552 131.337 240.12C131.929 239.768 132.617 238.888 132.617 237.864C132.617 236.952 132.201 236.36 131.817 235.992L133.113 235.768V234.808H129.465C127.737 234.808 126.233 236.056 126.233 237.816C126.233 238.952 126.937 239.752 127.529 240.152C126.617 240.584 125.721 241.704 125.721 243.048C125.721 245.016 127.433 246.392 129.465 246.392ZM129.465 239.608C128.377 239.608 127.593 238.792 127.593 237.848C127.593 236.872 128.393 236.072 129.465 236.072C130.601 236.072 131.257 236.872 131.257 237.848C131.257 238.792 130.617 239.608 129.465 239.608ZM129.465 245.128C128.201 245.128 127.129 244.232 127.129 243C127.129 241.768 128.233 240.84 129.465 240.84C130.777 240.84 131.769 241.768 131.769 243C131.769 244.232 130.793 245.128 129.465 245.128ZM142.8 243.192C144.544 243.192 145.76 242.28 146.368 241.032L145.2 240.456C144.672 241.384 143.92 241.896 142.864 241.896C141.376 241.896 140.368 240.936 140.256 239.464H146.56C146.576 239.272 146.592 239.016 146.592 238.824C146.592 236.584 145.232 234.808 142.8 234.808C140.32 234.808 138.832 236.664 138.832 239C138.832 241.368 140.272 243.192 142.8 243.192ZM140.272 238.296C140.416 236.984 141.424 236.104 142.816 236.104C144.192 236.104 145.072 236.984 145.184 238.296H140.272ZM147.648 243H149.248L151.28 239.88L153.328 243H154.928L152.08 238.776L154.656 235H153.072L151.296 237.688L149.504 235H147.92L150.48 238.792L147.648 243ZM160.69 241.896C159.106 241.896 158.034 240.616 158.034 239C158.034 237.384 159.122 236.104 160.706 236.104C162.274 236.104 163.362 237.384 163.362 239C163.362 240.616 162.29 241.896 160.69 241.896ZM156.738 246.2H158.162V241.96C158.546 242.488 159.442 243.192 160.818 243.192C163.186 243.192 164.802 241.336 164.802 239C164.802 236.664 163.314 234.808 160.882 234.808C159.682 234.808 158.626 235.448 158.114 236.136L157.938 235H156.738V246.2ZM170.597 243.192C172.341 243.192 173.557 242.28 174.165 241.032L172.997 240.456C172.469 241.384 171.717 241.896 170.661 241.896C169.173 241.896 168.165 240.936 168.053 239.464H174.357C174.373 239.272 174.389 239.016 174.389 238.824C174.389 236.584 173.029 234.808 170.597 234.808C168.117 234.808 166.629 236.664 166.629 239C166.629 241.368 168.069 243.192 170.597 243.192ZM168.069 238.296C168.213 236.984 169.221 236.104 170.613 236.104C171.989 236.104 172.869 236.984 172.981 238.296H168.069ZM176.645 243H178.069V238.824C178.069 237.096 178.885 236.264 179.925 236.264C180.309 236.264 180.741 236.36 181.061 236.536L181.525 235.128C181.237 234.968 180.725 234.808 180.229 234.808C179.189 234.808 178.485 235.288 178.053 236.072L177.845 235H176.645V243ZM183.158 233.368H184.758V231.8H183.158V233.368ZM183.254 243H184.678V235H183.254V243ZM190.956 243.192C192.7 243.192 193.916 242.28 194.524 241.032L193.356 240.456C192.828 241.384 192.076 241.896 191.02 241.896C189.532 241.896 188.524 240.936 188.412 239.464H194.716C194.732 239.272 194.748 239.016 194.748 238.824C194.748 236.584 193.388 234.808 190.956 234.808C188.476 234.808 186.988 236.664 186.988 239C186.988 241.368 188.428 243.192 190.956 243.192ZM188.428 238.296C188.572 236.984 189.58 236.104 190.972 236.104C192.348 236.104 193.228 236.984 193.34 238.296H188.428ZM197.004 243H198.428V239.208C198.428 237.032 199.436 236.104 200.54 236.104C201.644 236.104 202.412 236.888 202.412 238.312V243H203.836V238.184C203.836 236.136 202.844 234.808 200.844 234.808C199.692 234.808 198.892 235.272 198.412 235.992L198.204 235H197.004V243ZM210.051 243.192C211.811 243.192 213.011 242.2 213.603 241.032L212.339 240.456C212.003 241.192 211.219 241.896 210.051 241.896C208.547 241.896 207.491 240.696 207.491 239C207.491 237.304 208.547 236.104 210.003 236.104C211.139 236.104 211.811 236.648 212.259 237.528L213.539 236.952C212.915 235.528 211.635 234.808 210.051 234.808C207.635 234.808 206.035 236.664 206.035 239C206.035 241.336 207.635 243.192 210.051 243.192ZM218.878 243.192C220.622 243.192 221.838 242.28 222.446 241.032L221.278 240.456C220.75 241.384 219.998 241.896 218.942 241.896C217.454 241.896 216.446 240.936 216.334 239.464H222.638C222.654 239.272 222.67 239.016 222.67 238.824C222.67 236.584 221.31 234.808 218.878 234.808C216.398 234.808 214.91 236.664 214.91 239C214.91 241.368 216.35 243.192 218.878 243.192ZM216.35 238.296C216.494 236.984 217.502 236.104 218.894 236.104C220.27 236.104 221.15 236.984 221.262 238.296H216.35Z" fill="#4D4D4D"/>
<path d="M135.121 50.747L135.629 53.5132C136.473 53.3587 137.329 53.2811 138.187 53.2812C140.41 53.2742 142.601 53.7997 144.579 54.8138L145.859 52.3096C144.332 51.5264 142.693 50.9839 141 50.7013V47.6562H143.812C143.997 47.6563 144.18 47.6199 144.351 47.5492C144.521 47.4785 144.676 47.375 144.807 47.2444C144.937 47.1138 145.041 46.9588 145.112 46.7882C145.182 46.6175 145.219 46.4347 145.219 46.25V39.2188C145.219 39.0341 145.182 38.8512 145.112 38.6806C145.041 38.51 144.937 38.355 144.807 38.2244C144.676 38.0938 144.521 37.9902 144.351 37.9195C144.18 37.8489 143.997 37.8125 143.812 37.8125H136.781C136.596 37.8125 136.414 37.8489 136.243 37.9195C136.072 37.9902 135.917 38.0938 135.787 38.2244C135.656 38.355 135.553 38.51 135.482 38.6806C135.411 38.8512 135.375 39.0341 135.375 39.2188V46.25C135.375 46.4347 135.411 46.6175 135.482 46.7882C135.553 46.9588 135.656 47.1138 135.787 47.2444C135.917 47.375 136.072 47.4785 136.243 47.5492C136.414 47.6199 136.596 47.6563 136.781 47.6562H138.187V50.4688C137.159 50.4686 136.133 50.5618 135.121 50.747ZM138.187 40.625H142.406V44.8438H138.187V40.625Z" fill="#FD841F"/>
<path d="M115.688 60.3125H108.656C108.472 60.3125 108.289 60.3489 108.118 60.4195C107.947 60.4902 107.792 60.5938 107.662 60.7244C107.531 60.855 107.428 61.01 107.357 61.1806C107.286 61.3512 107.25 61.5341 107.25 61.7188V68.75C107.25 68.9347 107.286 69.1175 107.357 69.2882C107.428 69.4588 107.531 69.6138 107.662 69.7444C107.792 69.875 107.947 69.9785 108.118 70.0492C108.289 70.1199 108.472 70.1563 108.656 70.1562H115.688C115.872 70.1563 116.055 70.1199 116.226 70.0492C116.396 69.9785 116.551 69.875 116.682 69.7444C116.812 69.6138 116.916 69.4588 116.987 69.2882C117.057 69.1175 117.094 68.9347 117.094 68.75V65.9375H121.372C121.334 66.4024 121.312 66.8712 121.312 67.3438C121.312 67.855 121.336 68.3707 121.381 68.8764L124.182 68.6236C124.144 68.2016 124.125 67.771 124.125 67.3438C124.119 64.7499 124.833 62.2052 126.187 59.993C127.542 57.7808 129.483 55.9878 131.796 54.8138L130.516 52.3096C129.362 52.8997 128.279 53.6196 127.288 54.4553L122.719 49.8863V39.2188C122.719 39.0341 122.682 38.8512 122.612 38.6806C122.541 38.51 122.437 38.355 122.307 38.2244C122.176 38.0938 122.021 37.9902 121.851 37.9195C121.68 37.8489 121.497 37.8125 121.312 37.8125H110.062C109.878 37.8125 109.695 37.8489 109.524 37.9195C109.354 37.9902 109.199 38.0938 109.068 38.2244C108.938 38.355 108.834 38.51 108.763 38.6806C108.693 38.8512 108.656 39.0341 108.656 39.2188V50.4688C108.656 50.6534 108.693 50.8363 108.763 51.0069C108.834 51.1775 108.938 51.3325 109.068 51.4631C109.199 51.5937 109.354 51.6973 109.524 51.768C109.695 51.8386 109.878 51.875 110.062 51.875H120.73L125.296 56.4411C123.654 58.3787 122.473 60.6642 121.844 63.125H117.094V61.7188C117.094 61.5341 117.057 61.3512 116.987 61.1806C116.916 61.01 116.812 60.855 116.682 60.7244C116.551 60.5938 116.396 60.4902 116.226 60.4195C116.055 60.3489 115.872 60.3125 115.688 60.3125ZM114.281 67.3438H110.062V63.125H114.281V67.3438ZM119.906 49.0625H111.469V40.625H119.906V49.0625Z" fill="#FD841F"/>
<path d="M163.5 60.3125H178.969C179.153 60.3125 179.336 60.2761 179.507 60.2055C179.678 60.1348 179.833 60.0312 179.963 59.9006C180.094 59.77 180.197 59.615 180.268 59.4444C180.339 59.2738 180.375 59.0909 180.375 58.9062V43.4375C180.375 43.2528 180.339 43.07 180.268 42.8993C180.197 42.7287 180.094 42.5737 179.963 42.4431C179.833 42.3125 179.678 42.209 179.507 42.1383C179.336 42.0676 179.153 42.0312 178.969 42.0313H163.5C163.315 42.0312 163.132 42.0676 162.962 42.1383C162.791 42.209 162.636 42.3125 162.506 42.4431C162.375 42.5737 162.271 42.7287 162.201 42.8993C162.13 43.07 162.094 43.2528 162.094 43.4375V52.5018L152.545 58.4699C151.573 56.9007 150.351 55.5011 148.927 54.3265L147.136 56.4951C149.854 58.7372 151.632 61.9182 152.116 65.4085C152.601 68.8987 151.758 72.4437 149.753 75.3417L146.942 74.4045C148.071 73.0041 148.848 71.3532 149.208 69.5903C149.567 67.8274 149.499 66.004 149.008 64.2731C148.517 62.5422 147.618 60.9543 146.387 59.6427C145.155 58.331 143.627 57.334 141.93 56.7351C140.234 56.1363 138.418 55.9531 136.636 56.2011C134.854 56.449 133.157 57.1208 131.689 58.16C130.22 59.1992 129.022 60.5756 128.195 62.1736C127.369 63.7716 126.937 65.5446 126.938 67.3438C126.938 67.8809 126.976 68.4173 127.051 68.949L129.835 68.551C129.779 68.1511 129.75 67.7477 129.75 67.3438C129.75 65.9485 130.095 64.575 130.756 63.346C131.416 62.1171 132.372 61.0712 133.536 60.302C134.7 59.5327 136.036 59.0641 137.426 58.9382C138.815 58.8122 140.214 59.0328 141.498 59.5802C142.781 60.1275 143.909 60.9846 144.78 62.0747C145.65 63.1648 146.237 64.4538 146.488 65.8263C146.738 67.1989 146.645 68.6122 146.215 69.9396C145.785 71.267 145.033 72.4672 144.026 73.4326L143.555 73.2755L141.444 65.889C141.192 65.0052 140.628 64.2424 139.858 63.7413C139.087 63.2401 138.161 63.0343 137.251 63.1618C136.341 63.2893 135.507 63.7415 134.904 64.4351C134.301 65.1287 133.969 66.0169 133.969 66.9361V74.6543C132.729 73.9378 131.692 72.9182 130.954 71.6911L128.545 73.1425C129.802 75.2348 131.706 76.8612 133.969 77.7757V79.4175L132.978 80.4086C131.186 79.6973 129.56 78.624 128.201 77.2559C126.843 75.8877 125.782 74.2542 125.083 72.4572L122.463 73.4803C122.584 73.7891 122.713 74.093 122.851 74.392L113.878 80H103.031C102.847 80 102.664 80.0364 102.493 80.107C102.322 80.1777 102.167 80.2813 102.037 80.4119C101.906 80.5425 101.803 80.6975 101.732 80.8681C101.661 81.0387 101.625 81.2216 101.625 81.4062V92.6562C101.625 92.8409 101.661 93.0238 101.732 93.1944C101.803 93.365 101.906 93.52 102.037 93.6506C102.167 93.7812 102.322 93.8848 102.493 93.9555C102.664 94.0261 102.847 94.0625 103.031 94.0625H114.281C114.466 94.0625 114.649 94.0261 114.819 93.9555C114.99 93.8848 115.145 93.7812 115.276 93.6506C115.406 93.52 115.51 93.365 115.58 93.1944C115.651 93.0238 115.688 92.8409 115.688 92.6562V82.1857L124.233 76.8445C125.896 79.2931 128.177 81.2587 130.844 82.5422L128.756 84.6307C128.625 84.7612 128.521 84.9162 128.451 85.0869C128.38 85.2575 128.344 85.4403 128.344 85.625V94.0625C128.344 94.3915 128.459 94.71 128.67 94.9628L135.375 103.009V120.781C135.375 120.966 135.411 121.149 135.482 121.319C135.553 121.49 135.656 121.645 135.787 121.776C135.917 121.906 136.072 122.01 136.243 122.08C136.414 122.151 136.597 122.188 136.781 122.188H155.062C155.247 122.188 155.43 122.151 155.601 122.08C155.771 122.01 155.926 121.906 156.057 121.776C156.187 121.645 156.291 121.49 156.362 121.319C156.432 121.149 156.469 120.966 156.469 120.781V102.832L160.539 94.6914C160.637 94.4961 160.688 94.2808 160.688 94.0625V82.914C160.689 81.7701 160.329 80.6549 159.66 79.7269C158.991 78.7988 158.047 78.1052 156.962 77.7445L152.511 76.261C153.612 74.4879 154.375 72.5268 154.764 70.4764L163.5 72.6605V77.1875C163.5 77.3722 163.536 77.555 163.607 77.7257C163.678 77.8963 163.781 78.0513 163.912 78.1819C164.042 78.3125 164.197 78.416 164.368 78.4867C164.539 78.5574 164.722 78.5938 164.906 78.5938H173.344C173.528 78.5938 173.711 78.5574 173.882 78.4867C174.053 78.416 174.208 78.3125 174.338 78.1819C174.469 78.0513 174.572 77.8963 174.643 77.7257C174.714 77.555 174.75 77.3722 174.75 77.1875V68.75C174.75 68.5653 174.714 68.3825 174.643 68.2118C174.572 68.0412 174.469 67.8862 174.338 67.7556C174.208 67.625 174.053 67.5215 173.882 67.4508C173.711 67.3801 173.528 67.3437 173.344 67.3438H164.906C164.722 67.3437 164.539 67.3801 164.368 67.4508C164.197 67.5215 164.042 67.625 163.912 67.7556C163.781 67.8862 163.678 68.0412 163.607 68.2118C163.536 68.3825 163.5 68.5653 163.5 68.75V69.7614L155.056 67.6504C155.058 67.5481 155.062 67.4461 155.062 67.3438C155.064 65.1647 154.644 63.006 153.824 60.9868L162.094 55.8185V58.9062C162.094 59.0909 162.13 59.2738 162.201 59.4444C162.271 59.615 162.375 59.77 162.506 59.9006C162.636 60.0312 162.791 60.1348 162.962 60.2055C163.132 60.2761 163.315 60.3125 163.5 60.3125ZM112.875 91.25H104.438V82.8125H112.875V91.25ZM157.875 82.914V93.7305L153.805 101.871C153.707 102.066 153.656 102.282 153.656 102.5V119.375H138.188V102.5C138.187 102.171 138.072 101.852 137.862 101.6L131.156 93.5534V86.2075L133.969 83.395V91.25H136.781V66.9361C136.781 66.6952 136.868 66.4625 137.026 66.2808C137.184 66.099 137.403 65.9806 137.641 65.9471C137.88 65.9137 138.122 65.9677 138.324 66.099C138.526 66.2303 138.674 66.4302 138.74 66.6617L141 74.5721V84.2188H143.812V76.3261L146.625 77.2635V84.2188H149.438V78.201L152.25 79.1386V84.2188H155.062V80.076L156.072 80.4126C156.597 80.5872 157.054 80.9228 157.378 81.3718C157.702 81.8209 157.876 82.3605 157.875 82.914ZM166.312 70.1562H171.938V75.7812H166.312V70.1562ZM164.906 44.8438H177.562V57.5H164.906V44.8438Z" fill="#4D4D4D"/>
</g>
<defs>
<filter id="filter0_d_1058_255" x="0" y="0" width="292.5" height="298" filterUnits="userSpaceOnUse" color-interpolation-filters="sRGB">
<feFlood flood-opacity="0" result="BackgroundImageFix"/>
<feColorMatrix in="SourceAlpha" type="matrix" values="0 0 0 0 0 0 0 0 0 0 0 0 0 0 0 0 0 0 127 0" result="hardAlpha"/>
<feOffset dx="5" dy="10"/>
<feGaussianBlur stdDeviation="7.5"/>
<feComposite in2="hardAlpha" operator="out"/>
<feColorMatrix type="matrix" values="0 0 0 0 0 0 0 0 0 0 0 0 0 0 0 0 0 0 0.25 0"/>
<feBlend mode="normal" in2="BackgroundImageFix" result="effect1_dropShadow_1058_255"/>
<feBlend mode="normal" in="SourceGraphic" in2="effect1_dropShadow_1058_255" result="shape"/>
</filter>
</defs>
</svg>
