<svg width="293" height="298" viewBox="0 0 293 298" fill="none" xmlns="http://www.w3.org/2000/svg">
<g filter="url(#filter0_d_1058_92)">
<rect x="10" y="5" width="262.5" height="268" rx="10" fill="white"/>
<path d="M56.544 164.192C58.96 164.192 60.48 162.608 60.48 160.816C60.48 159.216 59.744 158.192 58.176 157.36C58.048 157.28 56.704 156.576 56.576 156.512C55.952 156.176 55.744 155.888 55.744 155.488C55.744 155.072 56.096 154.816 56.56 154.816C57.072 154.816 57.424 155.152 57.632 155.664L59.728 154.592C59.216 153.344 58.272 152.608 56.56 152.608C54.496 152.608 53.136 153.808 53.136 155.52C53.136 157.136 54.048 158.048 55.072 158.576C55.264 158.688 56.416 159.264 56.64 159.376C57.584 159.856 57.904 160.288 57.904 160.832C57.904 161.504 57.344 161.936 56.544 161.936C55.632 161.936 54.848 161.344 54.544 160.352L52.368 161.248C53.008 163.072 54.256 164.192 56.544 164.192ZM61.9775 155.008H64.4735V152.656H61.9775V155.008ZM62.0095 164H64.4415V156H62.0095V164ZM70.0916 167.392C72.3636 167.392 74.1236 165.984 74.1236 163.824C74.1236 162.608 73.4356 161.488 72.5716 161.04C73.1316 160.704 73.5476 159.936 73.5476 159.216C73.5476 158.592 73.2916 158.064 72.9876 157.728L74.0916 157.504V155.808H70.0756C67.9316 155.808 66.5876 157.216 66.5876 158.96C66.5876 159.808 66.9556 160.56 67.5796 161.04C66.7156 161.6 66.0276 162.576 66.0276 163.824C66.0276 165.984 67.8036 167.392 70.0916 167.392ZM70.0756 160.368C69.3556 160.368 68.8116 159.792 68.8116 159.072C68.8116 158.368 69.3716 157.744 70.0756 157.744C70.8116 157.744 71.2756 158.368 71.2756 159.072C71.2756 159.792 70.8276 160.368 70.0756 160.368ZM70.0916 165.344C69.1796 165.344 68.3956 164.72 68.3956 163.776C68.3956 162.8 69.1956 162.176 70.0916 162.176C70.9716 162.176 71.7556 162.8 71.7556 163.776C71.7556 164.72 70.9876 165.344 70.0916 165.344ZM75.8224 164H78.2544V160.16C78.2544 158.656 78.9264 157.968 79.6944 157.968C80.3984 157.968 80.7664 158.416 80.7664 159.344V164H83.1984V160.112C83.1984 158.608 83.8704 157.968 84.6384 157.968C85.3424 157.968 85.7104 158.416 85.7104 159.344V164H88.1264V158.976C88.1264 156.832 86.8784 155.808 85.2144 155.808C83.9984 155.808 83.1184 156.4 82.7504 157.024C82.3024 156.24 81.5344 155.808 80.5264 155.808C79.3904 155.808 78.5424 156.4 78.1584 157.024L77.8704 156H75.8224V164ZM94.1334 162.08C93.0454 162.08 92.2134 161.264 92.2134 160C92.2134 158.736 93.0454 157.92 94.1334 157.92C95.2054 157.92 96.0374 158.736 96.0374 160C96.0374 161.264 95.2054 162.08 94.1334 162.08ZM93.5254 164.192C94.7894 164.192 95.5574 163.68 95.9094 163.28L96.2454 164H98.3734V156H96.1494L95.9094 156.672C95.4934 156.224 94.6614 155.808 93.6214 155.808C91.7014 155.808 89.7654 157.312 89.7654 160C89.7654 162.528 91.4934 164.192 93.5254 164.192ZM104.653 164H108.397C112.013 164 114.205 161.632 114.205 158.4C114.205 155.184 112.125 152.8 108.397 152.8H104.653V164ZM107.277 161.712V155.088H108.461C110.285 155.088 111.565 156.176 111.565 158.4C111.565 160.624 110.285 161.712 108.461 161.712H107.277ZM118.746 157.04V155.056H120.09C120.842 155.056 121.306 155.424 121.306 156.048C121.306 156.656 120.858 157.04 120.09 157.04H118.746ZM116.122 164H118.746V159.264H119.098L121.786 164H124.73L121.706 158.864C123.098 158.368 123.93 157.44 123.93 155.952C123.93 154.032 122.586 152.8 120.106 152.8H116.122V164ZM126.278 164H128.758V157.408L131.03 164H133.302L135.574 157.408V164H138.054V152.8H134.822L132.166 160.544L129.702 152.8H126.278V164ZM139.123 164.56H141.651L148.355 152.24H145.811L139.123 164.56ZM153.45 164H155.93V157.408L158.202 164H160.474L162.746 157.408V164H165.226V152.8H161.994L159.338 160.544L156.874 152.8H153.45V164ZM170.247 164.192C171.383 164.192 172.343 163.616 172.743 162.976L173.015 164H175.063V156H172.631V159.904C172.631 161.344 171.959 162.032 171.127 162.032C170.311 162.032 169.815 161.52 169.815 160.528V156H167.383V160.96C167.383 163.136 168.551 164.192 170.247 164.192ZM177.244 164H179.676V152.56H177.244V164ZM182.286 164H184.702V157.904H186.398V156H184.702V153.424L182.286 153.888V156H181.134V157.904H182.286V164ZM187.665 155.008H190.161V152.656H187.665V155.008ZM187.697 164H190.129V156H187.697V164ZM196.388 164H200.132C203.748 164 205.94 161.632 205.94 158.4C205.94 155.184 203.86 152.8 200.132 152.8H196.388V164ZM199.012 161.712V155.088H200.196C202.02 155.088 203.3 156.176 203.3 158.4C203.3 160.624 202.02 161.712 200.196 161.712H199.012ZM210.48 157.04V155.056H211.824C212.576 155.056 213.04 155.424 213.04 156.048C213.04 156.656 212.592 157.04 211.824 157.04H210.48ZM207.856 164H210.48V159.264H210.832L213.52 164H216.464L213.44 158.864C214.832 158.368 215.664 157.44 215.664 155.952C215.664 154.032 214.32 152.8 211.84 152.8H207.856V164ZM218.013 164H220.493V157.408L222.765 164H225.036L227.309 157.408V164H229.789V152.8H226.557L223.901 160.544L221.437 152.8H218.013V164Z" fill="#FD841F"/>
<path d="M69.2746 203.192C71.3866 203.192 72.7466 201.72 72.7466 199.944C72.7466 198.552 72.0746 197.592 70.6346 196.808C70.4906 196.728 69.1466 195.992 69.0026 195.912C68.0906 195.432 67.7066 195.016 67.7066 194.28C67.7066 193.592 68.3146 193.048 69.0506 193.048C69.9306 193.048 70.3786 193.528 70.6826 194.28L72.0266 193.608C71.4826 192.344 70.5226 191.608 69.0986 191.608C67.3866 191.608 66.1866 192.76 66.1866 194.344C66.1866 195.496 66.8586 196.472 67.9626 197.048C68.1866 197.176 69.2906 197.752 69.5306 197.88C70.5386 198.392 71.2266 198.936 71.2266 199.96C71.2266 201.016 70.3466 201.752 69.2586 201.752C67.8506 201.752 67.1146 200.76 66.8586 199.88L65.4666 200.424C66.0266 202.168 67.2586 203.192 69.2746 203.192ZM74.8764 193.368H76.4764V191.8H74.8764V193.368ZM74.9724 203H76.3964V195H74.9724V203ZM82.387 206.392C84.419 206.392 86.051 205.016 86.051 203.048C86.051 201.624 85.187 200.552 84.259 200.12C84.851 199.768 85.539 198.888 85.539 197.864C85.539 196.952 85.123 196.36 84.739 195.992L86.035 195.768V194.808H82.387C80.659 194.808 79.155 196.056 79.155 197.816C79.155 198.952 79.859 199.752 80.451 200.152C79.539 200.584 78.643 201.704 78.643 203.048C78.643 205.016 80.355 206.392 82.387 206.392ZM82.387 199.608C81.299 199.608 80.515 198.792 80.515 197.848C80.515 196.872 81.315 196.072 82.387 196.072C83.523 196.072 84.179 196.872 84.179 197.848C84.179 198.792 83.539 199.608 82.387 199.608ZM82.387 205.128C81.123 205.128 80.051 204.232 80.051 203C80.051 201.768 81.155 200.84 82.387 200.84C83.699 200.84 84.691 201.768 84.691 203C84.691 204.232 83.715 205.128 82.387 205.128ZM88.4415 203H89.8655V199.208C89.8655 197.08 90.7615 196.104 91.8495 196.104C92.8255 196.104 93.4815 196.728 93.4815 198.072V203H94.9055V199.208C94.9055 197.08 95.8175 196.104 96.8895 196.104C97.8655 196.104 98.5215 196.728 98.5215 198.072V203H99.9615V198.136C99.9615 196.088 99.0655 194.808 97.0815 194.808C95.7535 194.808 94.9535 195.464 94.5535 196.152C94.1535 195.304 93.4495 194.808 92.1855 194.808C91.0495 194.808 90.3295 195.304 89.8495 196.024L89.6415 195H88.4415V203ZM106.257 201.896C104.657 201.896 103.601 200.616 103.601 199C103.601 197.384 104.657 196.104 106.257 196.104C107.841 196.104 108.913 197.384 108.913 199C108.913 200.616 107.841 201.896 106.257 201.896ZM106.113 203.192C107.313 203.192 108.353 202.584 108.801 201.928L109.009 203H110.225V195H109.009L108.801 196.008C108.401 195.48 107.489 194.808 106.113 194.808C103.777 194.808 102.145 196.664 102.145 199C102.145 201.336 103.681 203.192 106.113 203.192ZM112.967 199.608H117.671V198.264H112.967V199.608ZM120.618 203H123.498C127.098 203 129.402 200.664 129.402 197.4C129.402 194.168 127.258 191.8 123.498 191.8H120.618V203ZM122.138 201.576V193.224H123.642C126.218 193.224 127.866 194.824 127.866 197.4C127.866 199.976 126.202 201.576 123.642 201.576H122.138ZM131.783 193.368H133.383V191.8H131.783V193.368ZM131.879 203H133.303V195H131.879V203ZM139.293 206.392C141.325 206.392 142.957 205.016 142.957 203.048C142.957 201.624 142.093 200.552 141.165 200.12C141.757 199.768 142.445 198.888 142.445 197.864C142.445 196.952 142.029 196.36 141.645 195.992L142.941 195.768V194.808H139.293C137.565 194.808 136.061 196.056 136.061 197.816C136.061 198.952 136.765 199.752 137.357 200.152C136.445 200.584 135.549 201.704 135.549 203.048C135.549 205.016 137.261 206.392 139.293 206.392ZM139.293 199.608C138.205 199.608 137.421 198.792 137.421 197.848C137.421 196.872 138.221 196.072 139.293 196.072C140.429 196.072 141.085 196.872 141.085 197.848C141.085 198.792 140.445 199.608 139.293 199.608ZM139.293 205.128C138.029 205.128 136.957 204.232 136.957 203C136.957 201.768 138.061 200.84 139.293 200.84C140.605 200.84 141.597 201.768 141.597 203C141.597 204.232 140.621 205.128 139.293 205.128ZM145.236 193.368H146.836V191.8H145.236V193.368ZM145.332 203H146.756V195H145.332V203ZM149.946 203H151.386V196.296H153.114V195H151.386V192.536L149.946 192.808V195H148.906V196.296H149.946V203ZM158.288 201.896C156.688 201.896 155.632 200.616 155.632 199C155.632 197.384 156.688 196.104 158.288 196.104C159.872 196.104 160.944 197.384 160.944 199C160.944 200.616 159.872 201.896 158.288 201.896ZM158.144 203.192C159.344 203.192 160.384 202.584 160.832 201.928L161.04 203H162.256V195H161.04L160.832 196.008C160.432 195.48 159.52 194.808 158.144 194.808C155.808 194.808 154.176 196.664 154.176 199C154.176 201.336 155.712 203.192 158.144 203.192ZM165.254 203H166.678V191.56H165.254V203ZM175.372 196.232V193.224H177.356C178.412 193.224 178.988 193.88 178.988 194.728C178.988 195.56 178.428 196.232 177.356 196.232H175.372ZM173.852 203H175.372V197.624H176.348L179.372 203H181.1L177.98 197.544C179.5 197.272 180.524 196.168 180.524 194.68C180.524 193.048 179.34 191.8 177.42 191.8H173.852V203ZM183.189 193.368H184.789V191.8H183.189V193.368ZM183.285 203H184.709V195H183.285V203ZM190.7 206.392C192.732 206.392 194.364 205.016 194.364 203.048C194.364 201.624 193.5 200.552 192.572 200.12C193.164 199.768 193.852 198.888 193.852 197.864C193.852 196.952 193.436 196.36 193.052 195.992L194.348 195.768V194.808H190.7C188.972 194.808 187.468 196.056 187.468 197.816C187.468 198.952 188.172 199.752 188.764 200.152C187.852 200.584 186.956 201.704 186.956 203.048C186.956 205.016 188.668 206.392 190.7 206.392ZM190.7 199.608C189.612 199.608 188.828 198.792 188.828 197.848C188.828 196.872 189.628 196.072 190.7 196.072C191.836 196.072 192.492 196.872 192.492 197.848C192.492 198.792 191.852 199.608 190.7 199.608ZM190.7 205.128C189.436 205.128 188.364 204.232 188.364 203C188.364 201.768 189.468 200.84 190.7 200.84C192.012 200.84 193.004 201.768 193.004 203C193.004 204.232 192.028 205.128 190.7 205.128ZM196.754 203H198.178V199.208C198.178 197.048 199.218 196.104 200.306 196.104C201.41 196.104 202.21 196.888 202.21 198.312V203H203.65V198.184C203.65 196.136 202.674 194.808 200.61 194.808C199.554 194.808 198.642 195.288 198.178 195.992V191.56H196.754V203ZM206.712 203H208.152V196.296H209.88V195H208.152V192.536L206.712 192.808V195H205.672V196.296H206.712V203ZM213.658 203.192C215.37 203.192 216.458 202.12 216.458 200.728C216.458 199.56 215.754 198.808 214.794 198.408L213.626 197.944C213.162 197.752 212.698 197.512 212.698 196.936C212.698 196.456 213.114 196.072 213.626 196.072C214.154 196.072 214.57 196.376 214.81 196.952L215.946 196.296C215.498 195.368 214.746 194.808 213.626 194.808C212.33 194.808 211.338 195.736 211.338 196.888C211.338 197.864 211.914 198.616 212.746 198.936L213.77 199.352C214.698 199.72 215.098 200.072 215.098 200.744C215.098 201.4 214.554 201.928 213.738 201.928C212.81 201.928 212.218 201.416 211.962 200.568L210.762 201.064C211.21 202.328 212.154 203.192 213.658 203.192ZM49.9694 223H51.4734V214.872L54.6734 223H56.0174L59.2174 214.872V223H60.7214V211.8H58.8494L55.3614 220.936L51.8414 211.8H49.9694V223ZM67.3581 221.896C65.7581 221.896 64.7021 220.616 64.7021 219C64.7021 217.384 65.7581 216.104 67.3581 216.104C68.9421 216.104 70.0141 217.384 70.0141 219C70.0141 220.616 68.9421 221.896 67.3581 221.896ZM67.2141 223.192C68.4141 223.192 69.4541 222.584 69.9021 221.928L70.1101 223H71.3261V215H70.1101L69.9021 216.008C69.5021 215.48 68.5901 214.808 67.2141 214.808C64.8781 214.808 63.2461 216.664 63.2461 219C63.2461 221.336 64.7821 223.192 67.2141 223.192ZM74.3243 223H75.7483V219.208C75.7483 217.032 76.7563 216.104 77.8603 216.104C78.9643 216.104 79.7323 216.888 79.7323 218.312V223H81.1563V218.184C81.1563 216.136 80.1643 214.808 78.1643 214.808C77.0123 214.808 76.2123 215.272 75.7323 215.992L75.5243 215H74.3243V223ZM87.4674 221.896C85.8674 221.896 84.8114 220.616 84.8114 219C84.8114 217.384 85.8674 216.104 87.4674 216.104C89.0514 216.104 90.1234 217.384 90.1234 219C90.1234 220.616 89.0514 221.896 87.4674 221.896ZM87.3234 223.192C88.5234 223.192 89.5634 222.584 90.0114 221.928L90.2194 223H91.4354V215H90.2194L90.0114 216.008C89.6114 215.48 88.6994 214.808 87.3234 214.808C84.9874 214.808 83.3554 216.664 83.3554 219C83.3554 221.336 84.8914 223.192 87.3234 223.192ZM97.4417 226.392C99.4737 226.392 101.106 225.016 101.106 223.048C101.106 221.624 100.242 220.552 99.3137 220.12C99.9057 219.768 100.594 218.888 100.594 217.864C100.594 216.952 100.178 216.36 99.7937 215.992L101.09 215.768V214.808H97.4417C95.7137 214.808 94.2097 216.056 94.2097 217.816C94.2097 218.952 94.9137 219.752 95.5057 220.152C94.5937 220.584 93.6977 221.704 93.6977 223.048C93.6977 225.016 95.4097 226.392 97.4417 226.392ZM97.4417 219.608C96.3537 219.608 95.5697 218.792 95.5697 217.848C95.5697 216.872 96.3697 216.072 97.4417 216.072C98.5777 216.072 99.2337 216.872 99.2337 217.848C99.2337 218.792 98.5937 219.608 97.4417 219.608ZM97.4417 225.128C96.1777 225.128 95.1057 224.232 95.1057 223C95.1057 221.768 96.2097 220.84 97.4417 220.84C98.7537 220.84 99.7457 221.768 99.7457 223C99.7457 224.232 98.7697 225.128 97.4417 225.128ZM106.792 223.192C108.536 223.192 109.752 222.28 110.36 221.032L109.192 220.456C108.664 221.384 107.912 221.896 106.856 221.896C105.368 221.896 104.36 220.936 104.248 219.464H110.552C110.568 219.272 110.584 219.016 110.584 218.824C110.584 216.584 109.224 214.808 106.792 214.808C104.312 214.808 102.824 216.664 102.824 219C102.824 221.368 104.264 223.192 106.792 223.192ZM104.264 218.296C104.408 216.984 105.416 216.104 106.808 216.104C108.184 216.104 109.064 216.984 109.176 218.296H104.264ZM112.84 223H114.264V219.208C114.264 217.08 115.16 216.104 116.248 216.104C117.224 216.104 117.88 216.728 117.88 218.072V223H119.304V219.208C119.304 217.08 120.216 216.104 121.288 216.104C122.264 216.104 122.92 216.728 122.92 218.072V223H124.36V218.136C124.36 216.088 123.464 214.808 121.48 214.808C120.152 214.808 119.352 215.464 118.952 216.152C118.552 215.304 117.848 214.808 116.584 214.808C115.448 214.808 114.728 215.304 114.248 216.024L114.04 215H112.84V223ZM130.511 223.192C132.255 223.192 133.471 222.28 134.079 221.032L132.911 220.456C132.383 221.384 131.631 221.896 130.575 221.896C129.087 221.896 128.079 220.936 127.967 219.464H134.271C134.287 219.272 134.303 219.016 134.303 218.824C134.303 216.584 132.943 214.808 130.511 214.808C128.031 214.808 126.543 216.664 126.543 219C126.543 221.368 127.983 223.192 130.511 223.192ZM127.983 218.296C128.127 216.984 129.135 216.104 130.527 216.104C131.903 216.104 132.783 216.984 132.895 218.296H127.983ZM136.559 223H137.983V219.208C137.983 217.032 138.991 216.104 140.095 216.104C141.199 216.104 141.967 216.888 141.967 218.312V223H143.391V218.184C143.391 216.136 142.399 214.808 140.399 214.808C139.247 214.808 138.447 215.272 137.967 215.992L137.759 215H136.559V223ZM146.47 223H147.91V216.296H149.638V215H147.91V212.536L146.47 212.808V215H145.43V216.296H146.47V223ZM155.256 219.608H159.96V218.264H155.256V219.608ZM169.995 223.192C171.739 223.192 172.955 222.28 173.563 221.032L172.395 220.456C171.867 221.384 171.115 221.896 170.059 221.896C168.571 221.896 167.563 220.936 167.451 219.464H173.755C173.771 219.272 173.787 219.016 173.787 218.824C173.787 216.584 172.427 214.808 169.995 214.808C167.515 214.808 166.027 216.664 166.027 219C166.027 221.368 167.467 223.192 169.995 223.192ZM167.467 218.296C167.611 216.984 168.619 216.104 170.011 216.104C171.387 216.104 172.267 216.984 172.379 218.296H167.467ZM174.843 223H176.443L178.475 219.88L180.523 223H182.123L179.275 218.776L181.851 215H180.267L178.491 217.688L176.699 215H175.115L177.675 218.792L174.843 223ZM186.965 223.192C188.725 223.192 189.925 222.2 190.517 221.032L189.253 220.456C188.917 221.192 188.133 221.896 186.965 221.896C185.461 221.896 184.405 220.696 184.405 219C184.405 217.304 185.461 216.104 186.917 216.104C188.053 216.104 188.725 216.648 189.173 217.528L190.453 216.952C189.829 215.528 188.549 214.808 186.965 214.808C184.549 214.808 182.949 216.664 182.949 219C182.949 221.336 184.549 223.192 186.965 223.192ZM192.652 223H194.076V211.56H192.652V223ZM199.922 223.192C201.074 223.192 201.922 222.696 202.37 222.008L202.594 223H203.794V215H202.37V219.096C202.37 220.92 201.458 221.896 200.226 221.896C199.122 221.896 198.306 221.16 198.306 219.736V215H196.882V219.752C196.882 221.832 197.826 223.192 199.922 223.192ZM208.697 223.192C210.409 223.192 211.497 222.12 211.497 220.728C211.497 219.56 210.793 218.808 209.833 218.408L208.665 217.944C208.201 217.752 207.737 217.512 207.737 216.936C207.737 216.456 208.153 216.072 208.665 216.072C209.193 216.072 209.609 216.376 209.849 216.952L210.985 216.296C210.537 215.368 209.785 214.808 208.665 214.808C207.369 214.808 206.377 215.736 206.377 216.888C206.377 217.864 206.953 218.616 207.785 218.936L208.809 219.352C209.737 219.72 210.137 220.072 210.137 220.744C210.137 221.4 209.593 221.928 208.777 221.928C207.849 221.928 207.257 221.416 207.001 220.568L205.801 221.064C206.249 222.328 207.193 223.192 208.697 223.192ZM213.54 213.368H215.14V211.8H213.54V213.368ZM213.636 223H215.06V215H213.636V223ZM219.819 223H221.243L224.283 215H222.827L220.555 221.416L218.251 215H216.795L219.819 223ZM229.183 223.192C230.927 223.192 232.143 222.28 232.751 221.032L231.583 220.456C231.055 221.384 230.303 221.896 229.247 221.896C227.759 221.896 226.751 220.936 226.639 219.464H232.943C232.959 219.272 232.975 219.016 232.975 218.824C232.975 216.584 231.615 214.808 229.183 214.808C226.703 214.808 225.215 216.664 225.215 219C225.215 221.368 226.655 223.192 229.183 223.192ZM226.655 218.296C226.799 216.984 227.807 216.104 229.199 216.104C230.575 216.104 231.455 216.984 231.567 218.296H226.655ZM78.8868 243H80.3108V238.824C80.3108 237.096 81.1268 236.264 82.1668 236.264C82.5508 236.264 82.9828 236.36 83.3028 236.536L83.7668 235.128C83.4788 234.968 82.9668 234.808 82.4708 234.808C81.4308 234.808 80.7268 235.288 80.2948 236.072L80.0868 235H78.8868V243ZM88.2297 243.192C89.9737 243.192 91.1897 242.28 91.7977 241.032L90.6297 240.456C90.1017 241.384 89.3497 241.896 88.2937 241.896C86.8057 241.896 85.7977 240.936 85.6857 239.464H91.9897C92.0057 239.272 92.0217 239.016 92.0217 238.824C92.0217 236.584 90.6617 234.808 88.2297 234.808C85.7497 234.808 84.2617 236.664 84.2617 239C84.2617 241.368 85.7017 243.192 88.2297 243.192ZM85.7017 238.296C85.8457 236.984 86.8537 236.104 88.2457 236.104C89.6217 236.104 90.5017 236.984 90.6137 238.296H85.7017ZM96.1654 243.192C97.8774 243.192 98.9654 242.12 98.9654 240.728C98.9654 239.56 98.2614 238.808 97.3014 238.408L96.1334 237.944C95.6694 237.752 95.2054 237.512 95.2054 236.936C95.2054 236.456 95.6214 236.072 96.1334 236.072C96.6614 236.072 97.0774 236.376 97.3174 236.952L98.4534 236.296C98.0054 235.368 97.2534 234.808 96.1334 234.808C94.8374 234.808 93.8454 235.736 93.8454 236.888C93.8454 237.864 94.4214 238.616 95.2534 238.936L96.2774 239.352C97.2054 239.72 97.6054 240.072 97.6054 240.744C97.6054 241.4 97.0614 241.928 96.2454 241.928C95.3174 241.928 94.7254 241.416 94.4694 240.568L93.2694 241.064C93.7174 242.328 94.6614 243.192 96.1654 243.192ZM104.542 243.192C106.286 243.192 107.502 242.28 108.11 241.032L106.942 240.456C106.414 241.384 105.662 241.896 104.606 241.896C103.118 241.896 102.11 240.936 101.998 239.464H108.302C108.318 239.272 108.334 239.016 108.334 238.824C108.334 236.584 106.974 234.808 104.542 234.808C102.062 234.808 100.574 236.664 100.574 239C100.574 241.368 102.014 243.192 104.542 243.192ZM102.014 238.296C102.158 236.984 103.166 236.104 104.558 236.104C105.934 236.104 106.814 236.984 106.926 238.296H102.014ZM114.03 241.896C112.43 241.896 111.374 240.616 111.374 239C111.374 237.384 112.43 236.104 114.03 236.104C115.614 236.104 116.686 237.384 116.686 239C116.686 240.616 115.614 241.896 114.03 241.896ZM113.886 243.192C115.086 243.192 116.126 242.584 116.574 241.928L116.782 243H117.998V235H116.782L116.574 236.008C116.174 235.48 115.262 234.808 113.886 234.808C111.55 234.808 109.918 236.664 109.918 239C109.918 241.336 111.454 243.192 113.886 243.192ZM120.996 243H122.42V238.824C122.42 237.096 123.236 236.264 124.276 236.264C124.66 236.264 125.092 236.36 125.412 236.536L125.876 235.128C125.588 234.968 125.076 234.808 124.58 234.808C123.54 234.808 122.836 235.288 122.404 236.072L122.196 235H120.996V243ZM130.387 243.192C132.147 243.192 133.347 242.2 133.939 241.032L132.675 240.456C132.339 241.192 131.555 241.896 130.387 241.896C128.883 241.896 127.827 240.696 127.827 239C127.827 237.304 128.883 236.104 130.339 236.104C131.475 236.104 132.147 236.648 132.595 237.528L133.875 236.952C133.251 235.528 131.971 234.808 130.387 234.808C127.971 234.808 126.371 236.664 126.371 239C126.371 241.336 127.971 243.192 130.387 243.192ZM136.074 243H137.498V239.208C137.498 237.048 138.538 236.104 139.626 236.104C140.73 236.104 141.53 236.888 141.53 238.312V243H142.97V238.184C142.97 236.136 141.994 234.808 139.93 234.808C138.874 234.808 137.962 235.288 137.498 235.992V231.56H136.074V243ZM153.889 243.192C156.225 243.192 157.873 241.336 157.873 239C157.873 236.664 156.417 234.808 153.921 234.808C152.737 234.808 151.745 235.464 151.233 236.104V231.56H149.809V243H151.009L151.185 241.912C151.569 242.44 152.513 243.192 153.889 243.192ZM153.761 241.896C152.177 241.896 151.105 240.616 151.105 239C151.105 237.384 152.225 236.104 153.809 236.104C155.409 236.104 156.433 237.384 156.433 239C156.433 240.616 155.329 241.896 153.761 241.896ZM162.235 246.2L166.283 235H164.795L162.667 241.08L160.347 235H158.827L161.931 242.904L160.763 246.2H162.235ZM173.963 243H175.483V233.224H178.619V231.8H170.939V233.224H173.963V243ZM180.704 243H183.584C187.184 243 189.488 240.664 189.488 237.4C189.488 234.168 187.344 231.8 183.584 231.8H180.704V243ZM182.224 241.576V233.224H183.728C186.304 233.224 187.952 234.824 187.952 237.4C187.952 239.976 186.288 241.576 183.728 241.576H182.224ZM192.173 243H193.677V234.872L196.877 243H198.221L201.421 234.872V243H202.925V231.8H201.053L197.565 240.936L194.045 231.8H192.173V243Z" fill="#4D4D4D"/>
<path d="M180 35H102C100.409 35.0018 98.8842 35.6345 97.7593 36.7593C96.6345 37.8842 96.0018 39.4092 96 41V104C96.0018 105.591 96.6345 107.116 97.7593 108.241C98.8842 109.365 100.409 109.998 102 110H180C181.591 109.998 183.116 109.365 184.241 108.241C185.365 107.116 185.998 105.591 186 104V41C185.998 39.4092 185.365 37.8842 184.241 36.7593C183.116 35.6345 181.591 35.0018 180 35ZM102 38H180C180.795 38.0009 181.558 38.3173 182.12 38.8797C182.683 39.4421 182.999 40.2046 183 41V47H99V41C99.0009 40.2046 99.3173 39.4421 99.8797 38.8797C100.442 38.3173 101.205 38.0009 102 38ZM180 107H102C101.205 106.999 100.442 106.683 99.8797 106.12C99.3173 105.558 99.0009 104.795 99 104V50H183V104C182.999 104.795 182.683 105.558 182.12 106.12C181.558 106.683 180.795 106.999 180 107Z" fill="#4D4D4D"/>
<path d="M103.5 44C104.328 44 105 43.3284 105 42.5C105 41.6716 104.328 41 103.5 41C102.672 41 102 41.6716 102 42.5C102 43.3284 102.672 44 103.5 44Z" fill="#4D4D4D"/>
<path d="M108 44C108.828 44 109.5 43.3284 109.5 42.5C109.5 41.6716 108.828 41 108 41C107.172 41 106.5 41.6716 106.5 42.5C106.5 43.3284 107.172 44 108 44Z" fill="#4D4D4D"/>
<path d="M112.5 44C113.328 44 114 43.3284 114 42.5C114 41.6716 113.328 41 112.5 41C111.672 41 111 41.6716 111 42.5C111 43.3284 111.672 44 112.5 44Z" fill="#4D4D4D"/>
<path d="M137.528 82.8816C137.688 82.967 137.867 83.0075 138.048 82.9988C138.229 82.9901 138.404 82.9324 138.555 82.832L144.555 78.832C144.692 78.7407 144.804 78.617 144.882 78.4718C144.959 78.3267 145 78.1646 145 78C145 77.8353 144.959 77.6733 144.882 77.5281C144.804 77.383 144.692 77.2593 144.555 77.1679L138.555 73.1679C138.404 73.0675 138.229 73.0099 138.048 73.0012C137.867 72.9924 137.688 73.0329 137.528 73.1183C137.369 73.2037 137.235 73.3308 137.142 73.4861C137.049 73.6414 137 73.819 137 74V82C137 82.181 137.049 82.3586 137.142 82.5138C137.235 82.6691 137.369 82.7962 137.528 82.8816ZM139 75.8685L142.197 78L139 80.1314V75.8685Z" fill="#4D4D4D"/>
<path d="M157.511 82.0466H155.722V78.3234C155.722 75.9014 153.718 73.931 151.254 73.931C148.791 73.931 146.786 75.9014 146.786 78.3234V82.0466H145C144.178 82.0466 143.511 82.7134 143.511 83.5359V92.9198C142.426 93.7046 141.23 94.4055 139.937 95.0095C131.32 90.9833 127.182 82.7405 126.986 69.1963C133.89 68.7916 138.042 65.6455 139.937 63.7585C141.831 65.6456 145.984 68.7916 152.888 69.1963C152.881 69.6478 152.871 70.0929 152.856 70.5288C152.827 71.3509 153.471 72.0401 154.293 72.0684C155.115 72.0957 155.804 71.4533 155.832 70.6313C155.864 69.6986 155.878 68.7264 155.872 67.7419C155.868 66.9227 155.202 66.261 154.383 66.261C150.54 66.261 147.15 65.3206 144.308 63.4658C142.225 62.1064 141.211 60.7231 141.16 60.6516C140.882 60.2441 140.43 60 139.937 60C139.444 60 138.991 60.2441 138.714 60.6516C138.663 60.723 137.649 62.1064 135.566 63.4658C132.724 65.3206 129.334 66.261 125.491 66.261C124.671 66.261 124.006 66.9227 124.001 67.7419C123.956 75.7185 125.13 82.0028 127.59 86.9538C128.847 89.4838 130.473 91.6943 132.421 93.5242C134.361 95.3463 136.69 96.855 139.343 98.0086C139.532 98.091 139.735 98.1322 139.937 98.1322C140.139 98.1322 140.341 98.091 140.531 98.0087C142.552 97.1296 144.392 96.0424 145.997 94.777C146.026 94.7544 146.052 94.73 146.078 94.7058H157.511C158.333 94.7058 159 94.039 159 93.2165V83.536C159 82.7135 158.333 82.0466 157.511 82.0466ZM149.765 78.3234C149.765 77.5438 150.433 76.9096 151.254 76.9096C152.076 76.9096 152.744 77.5438 152.744 78.3234V82.0466H149.765V78.3234ZM156.021 91.7271H146.49V85.0252H156.021V91.7271Z" fill="#FD841F"/>
</g>
<defs>
<filter id="filter0_d_1058_92" x="0" y="0" width="292.5" height="298" filterUnits="userSpaceOnUse" color-interpolation-filters="sRGB">
<feFlood flood-opacity="0" result="BackgroundImageFix"/>
<feColorMatrix in="SourceAlpha" type="matrix" values="0 0 0 0 0 0 0 0 0 0 0 0 0 0 0 0 0 0 127 0" result="hardAlpha"/>
<feOffset dx="5" dy="10"/>
<feGaussianBlur stdDeviation="7.5"/>
<feComposite in2="hardAlpha" operator="out"/>
<feColorMatrix type="matrix" values="0 0 0 0 0 0 0 0 0 0 0 0 0 0 0 0 0 0 0.25 0"/>
<feBlend mode="normal" in2="BackgroundImageFix" result="effect1_dropShadow_1058_92"/>
<feBlend mode="normal" in="SourceGraphic" in2="effect1_dropShadow_1058_92" result="shape"/>
</filter>
</defs>
</svg>
