<svg width="170" height="33" viewBox="0 0 170 33" fill="none" xmlns="http://www.w3.org/2000/svg">
<path d="M22.102 0V5.11056H27.2125V0H22.102ZM91.014 0V27.2125H96.1215V15.6897C96.1215 15.6897 96.1568 11.3625 100.058 11.4689C100.058 11.4689 102.031 11.2992 102.766 12.8652C103.022 13.4109 103.056 14.1866 103.073 15.193V27.2125H108.358V13.0651C108.358 13.0651 108.358 7.49644 101.867 7.35457C101.867 7.35457 97.753 7.17726 96.1215 10.0146V0H91.014ZM120.462 7.20858C119.386 7.20858 114.937 7.42554 112.578 10.9013C112.578 10.9013 109.776 14.3419 110.982 20.2295C110.982 20.2295 112.046 26.968 120.487 27.2518C128.928 27.5355 130.17 20.1586 130.17 20.1586C130.17 20.1586 131.539 13.6824 127.971 10.1568C126.991 9.18864 125.94 8.50318 124.876 8.06712C122.704 7.17732 120.7 7.21276 120.7 7.21276C120.7 7.21276 120.615 7.20858 120.462 7.20858ZM161.496 7.31668C161.322 7.31378 161.142 7.31407 160.956 7.31846C159.015 7.36401 156.72 7.85045 154.962 9.6247C154.962 9.6247 152.337 11.7882 152.373 16.9664C152.408 22.1446 154.43 24.2018 154.43 24.2018C154.43 24.2018 156.522 27.2125 161.452 27.2126C161.452 27.2126 168.12 27.4649 169.752 21.0453H164.609C164.609 21.0453 163.935 23.1733 161.594 23.1023C159.568 23.041 157.756 21.968 157.351 18.6689H169.964C169.964 18.6689 170.709 10.8305 165.389 8.1704C165.389 8.1704 164.111 7.36035 161.496 7.31668ZM143.221 7.34832C142.246 7.36318 139.507 7.62946 138.008 10.0501V7.35457H132.83V27.2125H138.008V15.1575C138.008 15.1575 137.973 11.5399 141.768 11.398C141.768 11.398 145.031 11.2205 145.031 14.5899V27.2125H150.138V12.7102C150.138 12.7102 150.258 10.5396 148.043 8.77655C147.079 8.00935 145.73 7.35457 143.577 7.35457C143.577 7.35457 143.446 7.34488 143.221 7.34832ZM0 7.38169L7.46894 27.2125H12.4922L20.0053 7.38169H14.7637L9.95869 20.5733L5.06676 7.38169H0ZM22.102 7.38169V27.2125H27.2125V7.38169H22.102ZM29.4836 7.38169V27.2125H34.6814V15.5809C34.6814 13.1201 36.2152 11.4585 38.5612 11.4363C41.9095 11.4045 41.6714 14.4352 41.6714 14.4352V27.2125H46.8285V12.5948C46.2255 7.2629 40.2432 7.38169 40.2432 7.38169C38.4807 7.40024 37.1421 7.81598 36.2651 8.35006C35.4946 8.81927 35.0009 9.39981 34.6814 9.94965V7.38169H29.4836ZM58.8046 7.40219C58.5847 7.39694 58.4591 7.4029 58.4591 7.4029C49.3535 7.45894 49.9419 14.1829 49.9419 14.1829H54.929C55.0691 11.6053 57.8428 11.4092 57.8428 11.4092C57.8428 11.4092 59.748 11.241 60.7567 12.6699C62.0451 14.7618 59.0623 15.1693 58.0389 15.2757C54.4527 15.6119 52.6315 16.3682 52.6315 16.3682C49.1293 17.657 49.2974 21.6074 49.2974 21.6074C49.341 24.0556 50.3801 25.4575 51.6482 26.2348C53.2435 27.2126 56.1616 27.2125 56.1616 27.2125C58.7479 27.2125 60.3893 26.2107 61.343 25.3144C61.5426 26.4377 61.765 27.2125 61.765 27.2125H66.5002V14.8273C66.5002 8.01217 60.3437 7.43897 58.8046 7.40219ZM79.8537 7.44982C77.39 7.45838 75.5098 8.49942 73.8405 10.3101V7.48701H68.9096V32.1979H73.9806V24.3251C73.9806 24.3251 76.1379 27.2949 80.3685 27.1548C80.3685 27.1548 85.2995 27.0427 87.0366 23.6807C88.7737 20.3186 88.6334 18.5534 88.6334 18.5534C88.6334 18.5534 89.0538 15.5559 87.877 12.7262C87.877 12.7262 86.8686 9.39194 82.526 7.79497C81.5612 7.55862 80.675 7.44696 79.8537 7.44982ZM161.373 11.4971C162.553 11.5309 164.502 12.0918 164.892 15.3348H157.439C158.104 12.1394 160.459 11.5753 160.459 11.5753C160.459 11.5753 160.837 11.4817 161.373 11.4971ZM120.401 11.5642C120.524 11.567 120.594 11.5753 120.594 11.5753C122.616 11.7172 125.027 12.1074 125.098 17.6758C125.169 23.2442 120.736 22.925 120.736 22.925C119.92 22.925 115.841 23.0313 115.983 17.0373C116.107 11.7925 119.544 11.5443 120.401 11.5642ZM78.5249 11.8822C79.4237 11.897 83.0178 12.2749 83.0022 17.3769C82.9854 22.8109 79.0237 22.9803 79.0237 22.9803C79.0237 22.9803 74.1487 23.7369 74.0647 17.6852C73.9806 11.6335 78.3233 11.8854 78.3233 11.8854C78.3233 11.8854 78.3965 11.8802 78.5249 11.8822ZM61.1063 17.5211C61.1334 20.2454 61.3633 22.343 58.0389 23.4847C58.0389 23.4847 54.4808 24.4932 54.4528 21.8315C54.4249 19.1699 56.1898 19.1979 59.0476 18.4975C60.0291 18.2569 60.6746 17.8939 61.1063 17.5211Z" fill="#6A6A6A"/>
</svg>
