<svg width="1100" height="410" viewBox="0 0 1100 410" fill="none" xmlns="http://www.w3.org/2000/svg">
<mask id="mask0_2101_4" style="mask-type:luminance" maskUnits="userSpaceOnUse" x="0" y="0" width="1100" height="410">
<path d="M1075.24 409.8H24.4947C11.1656 409.8 0.371002 399.005 0.371002 385.676V25.0416C0.371002 11.7126 11.1656 0.917969 24.4947 0.917969H1075.14C1088.47 0.917969 1099.27 11.7126 1099.27 25.0416V385.676C1099.36 399.005 1088.56 409.8 1075.24 409.8Z" fill="white"/>
</mask>
<g mask="url(#mask0_2101_4)">
<path d="M3.28087 286.835L173.648 302.698L228.56 283.925L289.198 299.788L371.519 298.38L388.884 292.56L461.067 295.47L491.386 285.333L534.659 301.196L569.389 299.788L599.708 309.926L638.663 299.788L674.801 302.698L708.03 285.333L785.939 301.196L846.577 293.968H924.58L975.174 283.925L1027.18 293.968L1069.04 292.56L1097.86 301.196" stroke="#ED1171" stroke-width="4" stroke-miterlimit="10"/>
</g>
<mask id="mask1_2101_4" style="mask-type:luminance" maskUnits="userSpaceOnUse" x="0" y="0" width="1100" height="410">
<path d="M1075.24 409.8H24.4947C11.1656 409.8 0.371002 399.005 0.371002 385.676V25.0416C0.371002 11.7126 11.1656 0.917969 24.4947 0.917969H1075.14C1088.47 0.917969 1099.27 11.7126 1099.27 25.0416V385.676C1099.36 399.005 1088.56 409.8 1075.24 409.8Z" fill="white"/>
</mask>
<g mask="url(#mask1_2101_4)">
<path d="M-1.03699 244.032L39.7949 267.123L138.355 235.678L181.252 273.412L256.72 265.058L322.708 279.701L369.923 261.866L491.386 285.333L546.955 277.636L708.03 285.333L746.046 277.636L782.748 288.055L853.992 270.314L890.6 281.766L928.334 270.314L968.134 278.669H1037.31L1093.91 264.025" stroke="#D49CEF" stroke-width="4" stroke-miterlimit="10"/>
</g>
<mask id="mask2_2101_4" style="mask-type:luminance" maskUnits="userSpaceOnUse" x="0" y="0" width="1100" height="410">
<path d="M1075.24 409.8H24.4947C11.1656 409.8 0.371002 399.005 0.371002 385.676V25.0416C0.371002 11.7126 11.1656 0.917969 24.4947 0.917969H1075.14C1088.47 0.917969 1099.27 11.7126 1099.27 25.0416V385.676C1099.36 399.005 1088.56 409.8 1075.24 409.8Z" fill="white"/>
</mask>
<g mask="url(#mask2_2101_4)">
<path d="M-3.10205 203.2L69.1751 220.002L106.909 210.522L164.543 221.035L217.953 208.457L296.52 226.291L354.154 214.746L412.82 228.356L477.776 215.778L539.634 226.291L646.454 225.259L671.61 214.746L755.432 218.97L796.358 228.356L856.057 216.811L921.013 222.067L961.845 209.489L1032.06 229.389L1063.5 215.778L1103.3 218.97" stroke="#FFC76B" stroke-width="4" stroke-miterlimit="10"/>
</g>
<mask id="mask3_2101_4" style="mask-type:luminance" maskUnits="userSpaceOnUse" x="0" y="0" width="1100" height="410">
<path d="M1075.24 409.8H24.4947C11.1656 409.8 0.371002 399.005 0.371002 385.676V25.0416C0.371002 11.7126 11.1656 0.917969 24.4947 0.917969H1075.14C1088.47 0.917969 1099.27 11.7126 1099.27 25.0416V385.676C1099.36 399.005 1088.56 409.8 1075.24 409.8Z" fill="white"/>
</mask>
<g mask="url(#mask3_2101_4)">
<path d="M-6.29352 190.622L55.5644 198.976L135.163 196.911L195.895 188.557L250.431 197.944L347.864 196.911L396.112 200.103L437.976 186.492L510.253 195.879L572.111 206.392L616.135 195.879L646.454 198.976L680.058 188.557L772.235 193.814L828.836 214.746L889.568 196.911L928.334 209.489L973.39 193.814L1035.25 204.233L1105.46 209.489" stroke="#F95461" stroke-width="4" stroke-miterlimit="10"/>
</g>
<mask id="mask4_2101_4" style="mask-type:luminance" maskUnits="userSpaceOnUse" x="0" y="0" width="1100" height="410">
<path d="M1075.24 409.8H24.4947C11.1656 409.8 0.371002 399.005 0.371002 385.676V25.0416C0.371002 11.7126 11.1656 0.917969 24.4947 0.917969H1075.14C1088.47 0.917969 1099.27 11.7126 1099.27 25.0416V385.676C1099.36 399.005 1088.56 409.8 1075.24 409.8Z" fill="white"/>
</mask>
<g mask="url(#mask4_2101_4)">
<path d="M-3.10205 169.69L77.6231 174.946L154.124 162.368L210.726 149.79L350.117 181.235L392.076 163.401L443.421 173.914L493.733 162.368C493.733 162.368 532.5 180.203 535.691 180.203C538.883 180.203 570.234 173.914 570.234 173.914L616.322 195.878L677.054 177.011L709.532 184.333L753.555 178.044L816.446 192.687L859.437 182.174L921.294 183.206L994.604 172.693L1043.88 196.817L1108.84 175.885" stroke="#4B3176" stroke-width="4" stroke-miterlimit="10"/>
</g>
<mask id="mask5_2101_4" style="mask-type:luminance" maskUnits="userSpaceOnUse" x="0" y="0" width="1100" height="410">
<path d="M1075.24 409.8H24.4947C11.1656 409.8 0.371002 399.005 0.371002 385.676V25.0416C0.371002 11.7126 11.1656 0.917969 24.4947 0.917969H1075.14C1088.47 0.917969 1099.27 11.7126 1099.27 25.0416V385.676C1099.36 399.005 1088.56 409.8 1075.24 409.8Z" fill="white"/>
</mask>
<g mask="url(#mask5_2101_4)">
<path d="M3.187 142.468L67.0162 153.92L111.04 139.277L187.541 174.946L256.72 170.722L357.345 165.465L406.531 155.046L447.457 158.144L501.899 150.822L594.076 177.011L675.834 160.209L715.633 106.799L780.589 168.657L816.258 158.144L852.96 164.433L891.727 155.046L925.237 165.465L965.036 155.046L990.192 164.433L1031.02 158.144L1099.17 165.465" stroke="#6B6B75" stroke-width="4" stroke-miterlimit="10"/>
</g>
<mask id="mask6_2101_4" style="mask-type:luminance" maskUnits="userSpaceOnUse" x="0" y="0" width="1100" height="410">
<path d="M1075.24 409.8H24.4947C11.1656 409.8 0.371002 399.005 0.371002 385.676V25.0416C0.371002 11.7126 11.1656 0.917969 24.4947 0.917969H1075.14C1088.47 0.917969 1099.27 11.7126 1099.27 25.0416V385.676C1099.36 399.005 1088.56 409.8 1075.24 409.8Z" fill="white"/>
</mask>
<g mask="url(#mask6_2101_4)">
<path d="M-2.06952 81.6432L32.4733 101.543L71.2402 98.4452L144.55 68.0325L193.83 67L258.785 60.7109L326.932 81.6432L358.378 100.51L408.69 97.4127C408.69 97.4127 425.492 103.702 428.59 103.702C431.687 103.702 499.834 79.5781 499.834 79.5781L640.258 115.247L740.883 86.9935L792.228 102.669L887.596 68.1264L941.006 81.737L996.575 68.1264L1037.41 86.9935L1071.95 74.4154C1071.95 74.4154 1124.33 100.604 1127.52 100.604" stroke="#2E2E40" stroke-width="4" stroke-miterlimit="10"/>
</g>
<mask id="mask7_2101_4" style="mask-type:luminance" maskUnits="userSpaceOnUse" x="0" y="0" width="1100" height="410">
<path d="M1075.24 409.8H24.4947C11.1656 409.8 0.371002 399.005 0.371002 385.676V25.0416C0.371002 11.7126 11.1656 0.917969 24.4947 0.917969H1075.14C1088.47 0.917969 1099.27 11.7126 1099.27 25.0416V385.676C1099.36 399.005 1088.56 409.8 1075.24 409.8Z" fill="white"/>
</mask>
<g mask="url(#mask7_2101_4)">
<path d="M-2.06952 64.9346L64.9511 90.0908L113.105 81.7367L173.836 97.4123L253.435 81.7367L294.267 90.0908L365.511 88.0257L423.145 93.2822L467.169 116.373L516.449 98.5388L592.95 117.406L640.071 115.341L672.548 123.695L739.569 102.763L787.723 123.695L857.935 109.052C857.935 109.052 877.834 123.695 881.026 123.695C884.217 123.695 940.725 120.597 940.725 120.597L1064.35 143.689L1126.2 121.724" stroke="#4CCDB9" stroke-width="4" stroke-miterlimit="10"/>
</g>
<path d="M0 143.245H1099M0 276.253H1099" stroke="white" stroke-width="2" stroke-miterlimit="10"/>
<path d="M494.861 1V408.522M726.737 1V408.522M265.965 2.47787V410" stroke="white" stroke-width="2" stroke-miterlimit="10"/>
<path opacity="0.4" d="M1075.24 409.8H24.4947C11.1656 409.8 0.371002 399.005 0.371002 385.676V25.0416C0.371002 11.7126 11.1656 0.917969 24.4947 0.917969H1075.14C1088.47 0.917969 1099.27 11.7126 1099.27 25.0416V385.676C1099.36 399.005 1088.56 409.8 1075.24 409.8Z" fill="#D1EFED"/>
</svg>
