<svg width="96" height="30" viewBox="0 0 96 30" fill="none" xmlns="http://www.w3.org/2000/svg">
<rect width="96" height="23" fill="#FD841F"/>
<path d="M10.7838 16H13.6318C17.3438 16 19.8398 13.744 19.8398 10.4C19.8398 7.104 17.5038 4.8 13.6318 4.8H10.7838V16ZM12.7358 14.176V6.624H13.7758C16.2878 6.624 17.8558 8.016 17.8558 10.4C17.8558 12.784 16.2558 14.176 13.7758 14.176H12.7358ZM25.4913 14.496C24.1153 14.496 23.1233 13.424 23.1233 12C23.1233 10.576 24.1153 9.504 25.4913 9.504C26.8513 9.504 27.8433 10.576 27.8433 12C27.8433 13.424 26.8513 14.496 25.4913 14.496ZM25.1713 16.192C26.2113 16.192 27.2033 15.744 27.6513 15.152L27.8753 16H29.5073V8H27.8753L27.6513 8.848C27.1713 8.256 26.2113 7.808 25.1713 7.808C22.8673 7.808 21.2033 9.664 21.2033 12C21.2033 14.336 22.8673 16.192 25.1713 16.192ZM32.2533 16H34.1253V9.696H35.9333V8H34.1253V5.488L32.2533 5.856V8H31.2133V9.696H32.2533V16ZM40.8194 14.496C39.4434 14.496 38.4514 13.424 38.4514 12C38.4514 10.576 39.4434 9.504 40.8194 9.504C42.1794 9.504 43.1714 10.576 43.1714 12C43.1714 13.424 42.1794 14.496 40.8194 14.496ZM40.4994 16.192C41.5394 16.192 42.5314 15.744 42.9794 15.152L43.2034 16H44.8354V8H43.2034L42.9794 8.848C42.4994 8.256 41.5394 7.808 40.4994 7.808C38.1954 7.808 36.5314 9.664 36.5314 12C36.5314 14.336 38.1954 16.192 40.4994 16.192ZM49.5654 16.192C51.2614 16.192 52.5094 15.136 52.5094 13.68C52.5094 12.464 51.8854 11.68 50.7014 11.248L49.5174 10.816C49.0694 10.656 48.8134 10.432 48.8134 10.048C48.8134 9.712 49.1174 9.44 49.5494 9.44C49.9654 9.44 50.3334 9.744 50.4934 10.176L51.9494 9.28C51.4854 8.352 50.6534 7.808 49.5334 7.808C48.0934 7.808 47.1014 8.784 47.1014 9.936C47.1014 10.848 47.5814 11.712 48.5094 12.064L49.6454 12.496C50.4774 12.816 50.7814 13.104 50.7814 13.632C50.7814 14.096 50.3814 14.56 49.5654 14.56C48.8454 14.56 48.2854 14.208 47.9974 13.408L46.5414 14.08C47.0054 15.344 48.0454 16.192 49.5654 16.192ZM54.4675 16H56.3395V12.736C56.3395 10.576 57.2515 9.504 58.3395 9.504C59.4435 9.504 60.0195 10.288 60.0195 11.712V16H61.8915V11.264C61.8915 9.024 60.8035 7.808 58.7395 7.808C57.7315 7.808 56.7395 8.384 56.3395 9.12V4.56H54.4675V16ZM67.6709 16.192C69.4309 16.192 70.7749 15.296 71.3669 13.968L69.7989 13.28C69.3189 14.096 68.7589 14.496 67.8309 14.496C66.5509 14.496 65.6389 13.744 65.5749 12.56H71.5749C71.6069 12.368 71.6229 12.048 71.6229 11.84C71.6229 9.504 70.1349 7.808 67.6869 7.808C65.3349 7.808 63.7189 9.664 63.7189 12C63.7189 14.4 65.2229 16.192 67.6709 16.192ZM65.5749 11.152C65.6549 10.208 66.5669 9.504 67.7029 9.504C68.8069 9.504 69.6709 10.176 69.7349 11.152H65.5749ZM76.8584 16.192C78.6184 16.192 79.9624 15.296 80.5544 13.968L78.9864 13.28C78.5064 14.096 77.9464 14.496 77.0184 14.496C75.7384 14.496 74.8264 13.744 74.7624 12.56H80.7624C80.7944 12.368 80.8104 12.048 80.8104 11.84C80.8104 9.504 79.3224 7.808 76.8744 7.808C74.5224 7.808 72.9064 9.664 72.9064 12C72.9064 14.4 74.4104 16.192 76.8584 16.192ZM74.7624 11.152C74.8424 10.208 75.7544 9.504 76.8904 9.504C77.9944 9.504 78.8584 10.176 78.9224 11.152H74.7624ZM82.8939 16H84.7659V9.696H86.5739V8H84.7659V5.488L82.8939 5.856V8H81.8539V9.696H82.8939V16Z" fill="white"/>
<path d="M16 30L11.6699 22.5H20.3301L16 30Z" fill="#FD841F"/>
</svg>
