<svg width="58" height="30" viewBox="0 0 58 30" fill="none" xmlns="http://www.w3.org/2000/svg">
<rect width="58" height="23" fill="#FD841F"/>
<path d="M10.3228 16H12.2748V8.16L17.1548 16H19.2188V4.8H17.2668V12.832L12.4188 4.8H10.3228V16ZM25.2881 16.192C27.0481 16.192 28.3921 15.296 28.9841 13.968L27.4161 13.28C26.9361 14.096 26.3761 14.496 25.4481 14.496C24.1681 14.496 23.2561 13.744 23.1921 12.56H29.1921C29.2241 12.368 29.2401 12.048 29.2401 11.84C29.2401 9.504 27.7521 7.808 25.3041 7.808C22.9521 7.808 21.3361 9.664 21.3361 12C21.3361 14.4 22.8401 16.192 25.2881 16.192ZM23.1921 11.152C23.2721 10.208 24.1841 9.504 25.3201 9.504C26.4241 9.504 27.2881 10.176 27.3521 11.152H23.1921ZM32.6356 16H34.5716L35.9476 12L37.3076 16H39.2756L41.8836 8H39.9636L38.2516 14.016L36.3636 8H34.5556L35.1956 9.888L33.6596 14.032L31.9316 8H30.0116L32.6356 16ZM45.4951 16.192C47.1911 16.192 48.4391 15.136 48.4391 13.68C48.4391 12.464 47.8151 11.68 46.6311 11.248L45.4471 10.816C44.9991 10.656 44.7431 10.432 44.7431 10.048C44.7431 9.712 45.0471 9.44 45.4791 9.44C45.8951 9.44 46.2631 9.744 46.4231 10.176L47.8791 9.28C47.4151 8.352 46.5831 7.808 45.4631 7.808C44.0231 7.808 43.0311 8.784 43.0311 9.936C43.0311 10.848 43.5111 11.712 44.4391 12.064L45.5751 12.496C46.4071 12.816 46.7111 13.104 46.7111 13.632C46.7111 14.096 46.3111 14.56 45.4951 14.56C44.7751 14.56 44.2151 14.208 43.9271 13.408L42.4711 14.08C42.9351 15.344 43.9751 16.192 45.4951 16.192Z" fill="white"/>
<path d="M16 30L11.6699 22.5H20.3301L16 30Z" fill="#FD841F"/>
</svg>
